<svg preserveAspectRatio="none" width="100%" height="100%" overflow="visible" style="display: block;" viewBox="0 0 313.242 313.242" fill="none" xmlns="http://www.w3.org/2000/svg">
<g id="lucide/atom" filter="url(#filter0_d_0_6)">
<g id="Vector">
<path d="M156.621 159.062C157.969 159.062 159.062 157.969 159.062 156.621C159.062 155.273 157.969 154.181 156.621 154.181C155.273 154.181 154.181 155.273 154.181 156.621C154.181 157.969 155.273 159.062 156.621 159.062Z" stroke="url(#paint0_linear_0_6)" stroke-width="5" stroke-linecap="round" stroke-linejoin="round"/>
<path d="M176.634 176.634C181.612 171.679 176.682 158.671 165.651 147.591C154.571 136.56 141.563 131.63 136.609 136.609C131.63 141.563 136.56 154.571 147.591 165.651C158.671 176.682 171.679 181.612 176.634 176.634Z" stroke="url(#paint1_linear_0_6)" stroke-width="5" stroke-linecap="round" stroke-linejoin="round"/>
<path d="M165.651 165.651C176.682 154.571 181.612 141.563 176.634 136.609C171.679 131.63 158.671 136.56 147.591 147.591C136.56 158.671 131.63 171.679 136.609 176.634C141.563 181.612 154.571 176.682 165.651 165.651Z" stroke="url(#paint2_linear_0_6)" stroke-width="5" stroke-linecap="round" stroke-linejoin="round"/>
</g>
</g>
<defs>
<filter id="filter0_d_0_6" x="-4.83252" y="-4.73535" width="321.335" height="322.335" filterUnits="userSpaceOnUse" color-interpolation-filters="sRGB">
<feFlood flood-opacity="0" result="BackgroundImageFix"/>
<feColorMatrix in="SourceAlpha" type="matrix" values="0 0 0 0 0 0 0 0 0 0 0 0 0 0 0 0 0 0 127 0" result="hardAlpha"/>
<feOffset/>
<feGaussianBlur stdDeviation="66.0837"/>
<feComposite in2="hardAlpha" operator="out"/>
<feColorMatrix type="matrix" values="0 0 0 0 0.00392157 0 0 0 0 1 0 0 0 0 0.807843 0 0 0 1 0"/>
<feBlend mode="normal" in2="BackgroundImageFix" result="effect1_dropShadow_0_6"/>
<feBlend mode="normal" in="SourceGraphic" in2="effect1_dropShadow_0_6" result="shape"/>
</filter>
<linearGradient id="paint0_linear_0_6" x1="156.621" y1="134.667" x2="156.621" y2="178.575" gradientUnits="userSpaceOnUse">
<stop stop-color="#349B91"/>
<stop offset="1" stop-color="#7AFFC8"/>
</linearGradient>
<linearGradient id="paint1_linear_0_6" x1="156.621" y1="134.667" x2="156.621" y2="178.575" gradientUnits="userSpaceOnUse">
<stop stop-color="#349B91"/>
<stop offset="1" stop-color="#7AFFC8"/>
</linearGradient>
<linearGradient id="paint2_linear_0_6" x1="156.621" y1="134.667" x2="156.621" y2="178.575" gradientUnits="userSpaceOnUse">
<stop stop-color="#349B91"/>
<stop offset="1" stop-color="#7AFFC8"/>
</linearGradient>
</defs>
</svg>
