<svg preserveAspectRatio="none" width="100%" height="100%" overflow="visible" style="display: block;" viewBox="0 0 313.051 318.058" fill="none" xmlns="http://www.w3.org/2000/svg">
<g id="lucide/settings" filter="url(#filter0_d_0_8)">
<path id="Vector" d="M150.842 139.838C150.976 138.423 151.633 137.109 152.685 136.153C153.736 135.197 155.106 134.667 156.527 134.667C157.948 134.667 159.318 135.197 160.369 136.153C161.421 137.109 162.078 138.423 162.212 139.838C162.293 140.752 162.593 141.633 163.086 142.406C163.58 143.18 164.252 143.823 165.047 144.281C165.841 144.74 166.735 145 167.651 145.04C168.568 145.08 169.481 144.899 170.312 144.511C171.604 143.925 173.067 143.84 174.417 144.273C175.768 144.707 176.909 145.627 177.618 146.855C178.327 148.083 178.555 149.531 178.255 150.917C177.956 152.303 177.152 153.528 175.999 154.354C175.248 154.881 174.635 155.581 174.212 156.394C173.789 157.208 173.568 158.112 173.568 159.029C173.568 159.946 173.789 160.85 174.212 161.663C174.635 162.477 175.248 163.177 175.999 163.704C177.152 164.53 177.956 165.755 178.255 167.141C178.555 168.527 178.327 169.975 177.618 171.203C176.909 172.431 175.768 173.351 174.417 173.784C173.067 174.218 171.604 174.133 170.312 173.546C169.481 173.159 168.568 172.978 167.651 173.018C166.735 173.058 165.841 173.318 165.047 173.777C164.252 174.235 163.58 174.878 163.086 175.652C162.593 176.425 162.293 177.306 162.212 178.22C162.078 179.635 161.421 180.948 160.369 181.905C159.318 182.861 157.948 183.391 156.527 183.391C155.106 183.391 153.736 182.861 152.685 181.905C151.633 180.948 150.976 179.635 150.842 178.22C150.761 177.306 150.461 176.425 149.968 175.651C149.474 174.877 148.801 174.234 148.006 173.775C147.211 173.317 146.318 173.056 145.401 173.017C144.484 172.977 143.571 173.159 142.739 173.546C141.448 174.133 139.985 174.218 138.634 173.784C137.284 173.351 136.143 172.431 135.433 171.203C134.724 169.975 134.497 168.527 134.796 167.141C135.095 165.755 135.9 164.53 137.053 163.704C137.803 163.177 138.416 162.477 138.839 161.663C139.262 160.85 139.483 159.946 139.483 159.029C139.483 158.112 139.262 157.208 138.839 156.394C138.416 155.581 137.803 154.881 137.053 154.354C135.901 153.528 135.098 152.303 134.8 150.918C134.501 149.533 134.728 148.086 135.437 146.859C136.146 145.631 137.285 144.712 138.634 144.278C139.983 143.844 141.446 143.927 142.737 144.511C143.568 144.899 144.481 145.08 145.398 145.04C146.314 145 147.208 144.74 148.002 144.281C148.797 143.823 149.469 143.18 149.963 142.406C150.456 141.633 150.756 140.752 150.837 139.838M163.847 159.03C163.847 163.074 160.569 166.352 156.526 166.352C152.482 166.352 149.204 163.074 149.204 159.03C149.204 154.987 152.482 151.709 156.526 151.709C160.569 151.709 163.847 154.987 163.847 159.03Z" stroke="url(#paint0_linear_0_8)" stroke-width="5" stroke-linecap="round" stroke-linejoin="round"/>
</g>
<defs>
<filter id="filter0_d_0_8" x="-4.92822" y="-2.99609" width="320.335" height="322.335" filterUnits="userSpaceOnUse" color-interpolation-filters="sRGB">
<feFlood flood-opacity="0" result="BackgroundImageFix"/>
<feColorMatrix in="SourceAlpha" type="matrix" values="0 0 0 0 0 0 0 0 0 0 0 0 0 0 0 0 0 0 127 0" result="hardAlpha"/>
<feOffset/>
<feGaussianBlur stdDeviation="66.0837"/>
<feComposite in2="hardAlpha" operator="out"/>
<feColorMatrix type="matrix" values="0 0 0 0 0.00392157 0 0 0 0 1 0 0 0 0 0.807843 0 0 0 1 0"/>
<feBlend mode="normal" in2="BackgroundImageFix" result="effect1_dropShadow_0_8"/>
<feBlend mode="normal" in="SourceGraphic" in2="effect1_dropShadow_0_8" result="shape"/>
</filter>
<linearGradient id="paint0_linear_0_8" x1="156.526" y1="134.667" x2="156.526" y2="183.391" gradientUnits="userSpaceOnUse">
<stop stop-color="#349B91"/>
<stop offset="1" stop-color="#7AFFC8"/>
</linearGradient>
</defs>
</svg>
