<svg width="89" height="23" viewBox="0 0 89 23" fill="none" xmlns="http://www.w3.org/2000/svg">
<g clip-path="url(#clip0_342_524)">
<path d="M38.8824 5.14539C39.7089 4.3582 40.6054 3.77 41.5741 3.38078C42.5428 2.99156 43.6055 2.79695 44.7622 2.79695C45.6084 2.79695 46.3563 2.93471 47.0101 3.21241C47.6617 3.49011 48.2105 3.87714 48.6588 4.37132C49.1049 4.86769 49.4438 5.46026 49.6734 6.15123C49.9008 6.84221 50.0167 7.60534 50.0167 8.44282V17.8978H48.7484C48.4664 17.8978 48.2521 17.8519 48.1056 17.76C47.9591 17.6682 47.8432 17.4954 47.7557 17.2418L47.4496 15.9429C47.0691 16.2928 46.6952 16.6011 46.3257 16.8701C45.9561 17.1368 45.5691 17.3664 45.1667 17.5567C44.7622 17.7469 44.3314 17.889 43.8744 17.9874C43.4174 18.0836 42.9123 18.1339 42.3569 18.1339C41.7731 18.1339 41.2264 18.053 40.7148 17.8934C40.2053 17.7338 39.7592 17.4867 39.3787 17.1565C39.0005 16.8263 38.7009 16.4131 38.4822 15.9167C38.2636 15.4203 38.1542 14.8409 38.1542 14.1805C38.1542 13.5967 38.3117 13.0347 38.6287 12.4946C38.9458 11.9545 39.4596 11.4713 40.1747 11.0427C40.8897 10.6141 41.8234 10.2643 42.9757 9.99313C44.1281 9.71981 45.545 9.56456 47.2287 9.5252V8.445C47.2287 7.32545 46.9904 6.49016 46.5137 5.93476C46.037 5.37936 45.3373 5.10384 44.4124 5.10384C43.7892 5.10384 43.2666 5.18256 42.8445 5.33781C42.4203 5.49306 42.0574 5.6658 41.7512 5.85604C41.4451 6.04628 41.1783 6.21902 40.9487 6.37427C40.7213 6.52952 40.4852 6.60824 40.2403 6.60824C40.0457 6.60824 39.8773 6.55576 39.7374 6.44862C39.5952 6.34147 39.4815 6.21465 39.3941 6.07033L38.8824 5.15195V5.14539ZM47.2287 11.3182C46.0698 11.3576 45.088 11.4472 44.2812 11.5872C43.4743 11.7293 42.8161 11.9152 42.311 12.1491C41.8059 12.3831 41.4407 12.6586 41.2177 12.9735C40.9947 13.2906 40.8831 13.6426 40.8831 14.0318C40.8831 14.4211 40.9444 14.7206 41.0646 14.9874C41.1871 15.2542 41.3511 15.4728 41.561 15.6434C41.7709 15.8139 42.0158 15.9386 42.2979 16.0151C42.58 16.0938 42.8861 16.131 43.2163 16.131C43.6536 16.131 44.0559 16.0873 44.4189 15.9998C44.7819 15.9123 45.1274 15.7877 45.4466 15.6281C45.7681 15.4684 46.0742 15.2716 46.365 15.0377C46.6558 14.8037 46.9445 14.5369 47.2265 14.2352V11.3182H47.2287Z" fill="white"/>
<path d="M56.5215 5.91945C56.9982 4.9464 57.5711 4.18327 58.2424 3.62787C58.9137 3.07247 59.7206 2.79695 60.6652 2.79695C60.9866 2.79695 61.2905 2.83412 61.577 2.90628C61.8634 2.97844 62.1149 3.08777 62.3292 3.23428L62.139 5.37936C62.0712 5.64175 61.9094 5.77295 61.6579 5.77295C61.5223 5.77295 61.3168 5.74671 61.0456 5.69204C60.7723 5.63956 60.4815 5.61114 60.171 5.61114C59.714 5.61114 59.3095 5.67674 58.9596 5.80793C58.6098 5.93913 58.2949 6.13374 58.0194 6.39176C57.7417 6.64978 57.4968 6.96466 57.2825 7.34076C57.0682 7.71467 56.8692 8.14106 56.6833 8.61775V10.1659H53.8385V3.07465H55.4719C55.7824 3.07465 55.9945 3.1315 56.1061 3.24302C56.2176 3.35454 56.2985 3.55134 56.3466 3.83341L56.5215 5.91945Z" fill="white"/>
<path d="M77.4874 3.07445L70.4902 20.1279C70.4027 20.3422 70.2868 20.5084 70.1403 20.6243C69.9938 20.7402 69.7795 20.7992 69.4974 20.7992H67.0266L68.8655 16.9639L62.7823 3.07445H65.262C65.5047 3.07445 65.6949 3.13349 65.8305 3.24938C65.966 3.36527 66.0644 3.49647 66.1213 3.64297L69.8845 12.5425C69.9632 12.7656 70.0375 12.993 70.1097 13.2204C70.1819 13.45 70.2431 13.6752 70.2912 13.8982C70.359 13.6643 70.4311 13.4347 70.5099 13.2051C70.5886 12.9777 70.6695 12.7503 70.7569 12.5272L74.3889 3.64297C74.4567 3.47679 74.5639 3.34122 74.7104 3.23407C74.8569 3.12693 75.0209 3.07445 75.2067 3.07445H77.483H77.4874Z" fill="white"/>
<path d="M79.1797 5.6286C79.2584 5.75542 79.3393 5.84508 79.4268 5.89756C79.5142 5.95222 79.6257 5.97846 79.7613 5.97846C79.9166 5.97846 80.0893 5.92598 80.2795 5.81884C80.4698 5.71169 80.6972 5.5958 80.9661 5.46898C81.2329 5.34215 81.5478 5.22626 81.9064 5.11912C82.2672 5.01197 82.6936 4.95949 83.1899 4.95949C83.5988 4.95949 83.9706 5.00979 84.3051 5.11256C84.6397 5.21533 84.9239 5.35527 85.1579 5.53676C85.3919 5.71607 85.5712 5.93035 85.698 6.17963C85.8248 6.42672 85.8882 6.69349 85.8882 6.97556C85.8882 7.3451 85.7789 7.65123 85.5602 7.89394C85.3416 8.13666 85.0551 8.34658 84.6987 8.52151C84.3445 8.69644 83.94 8.85387 83.4873 8.996C83.0347 9.13813 82.5733 9.28464 82.101 9.44207C81.6287 9.59732 81.1673 9.77444 80.7147 9.97561C80.2621 10.1746 79.8597 10.4239 79.5033 10.7191C79.1491 11.0164 78.8604 11.3729 78.6418 11.7905C78.4231 12.2082 78.3138 12.7198 78.3138 13.3233C78.3138 14.0143 78.4384 14.6528 78.6855 15.241C78.9326 15.8292 79.2978 16.3387 79.7788 16.7651C80.2599 17.1937 80.8568 17.5282 81.5653 17.7709C82.2759 18.0136 83.0872 18.1361 84.0012 18.1361C85.0223 18.1361 85.967 17.9655 86.8307 17.6266C87.6966 17.2855 88.4204 16.8525 89.0042 16.3278L88.3329 15.2344C88.2542 15.0989 88.158 14.9939 88.0421 14.9218C87.9262 14.8496 87.7709 14.8124 87.5763 14.8124C87.3926 14.8124 87.2024 14.8802 87.0078 15.0158C86.8132 15.1514 86.5792 15.3 86.3081 15.4619C86.0369 15.6215 85.7046 15.768 85.3153 15.8992C84.9261 16.0304 84.4407 16.096 83.8569 16.096C83.3714 16.096 82.9472 16.0347 82.5864 15.9145C82.2278 15.792 81.9283 15.628 81.6899 15.4181C81.4516 15.2082 81.2745 14.9677 81.1564 14.6965C81.0405 14.4232 80.9815 14.1368 80.9815 13.835C80.9815 13.4458 81.0908 13.1222 81.3094 12.8641C81.5281 12.6061 81.8146 12.3853 82.171 12.1994C82.5252 12.0157 82.9319 11.8539 83.3889 11.7184C83.8459 11.5828 84.3139 11.4363 84.7905 11.281C85.2672 11.1258 85.733 10.9465 86.1922 10.7409C86.6492 10.5376 87.0559 10.2796 87.4101 9.96686C87.7644 9.65636 88.053 9.27589 88.2717 8.82763C88.4903 8.38156 88.5997 7.83491 88.5997 7.19422C88.5997 6.62133 88.4816 6.0703 88.2432 5.54551C88.0049 5.02072 87.6594 4.55934 87.2068 4.15919C86.7541 3.76122 86.1944 3.44198 85.5296 3.20363C84.8627 2.96529 84.1018 2.84721 83.2468 2.84721C82.265 2.84721 81.3772 3.00246 80.5835 3.31296C79.7919 3.62347 79.1119 4.05204 78.5477 4.59651L79.1753 5.63297L79.1797 5.6286Z" fill="white"/>
<path d="M0.730252 5.14539C1.5568 4.3582 2.45331 3.77 3.42199 3.38078C4.39066 2.99156 5.45336 2.79695 6.61009 2.79695C7.45631 2.79695 8.20414 2.93471 8.85794 3.21241C9.50955 3.49011 10.0584 3.87714 10.5067 4.37132C10.9549 4.86769 11.2916 5.46026 11.5212 6.15123C11.7487 6.84221 11.8645 7.60534 11.8645 8.44282V17.8978H10.5941C10.312 17.8978 10.0978 17.8519 9.95125 17.76C9.80474 17.6682 9.68885 17.4954 9.60139 17.2418L9.29526 15.9429C8.91698 16.2928 8.54088 16.6011 8.17134 16.8701C7.8018 17.1368 7.41476 17.3664 7.01243 17.5567C6.6079 17.7469 6.17932 17.889 5.72013 17.9874C5.26312 18.0836 4.75801 18.1339 4.20261 18.1339C3.61878 18.1339 3.07213 18.053 2.56046 17.8934C2.04879 17.7338 1.6049 17.4867 1.22662 17.1565C0.848329 16.8263 0.548762 16.4131 0.330099 15.9167C0.111437 15.4203 0.00210571 14.8431 0.00210571 14.1805C0.00210571 13.5967 0.159543 13.0347 0.476603 12.4946C0.791477 11.9545 1.30752 11.4713 2.02255 11.0427C2.73757 10.6141 3.67126 10.2643 4.82361 9.99313C5.97596 9.72199 7.3929 9.56456 9.0766 9.52738V8.44719C9.0766 7.32764 8.83826 6.49235 8.36157 5.93694C7.88489 5.38154 7.18517 5.10603 6.26023 5.10603C5.63704 5.10603 5.11443 5.18475 4.69242 5.34C4.2704 5.49525 3.90523 5.66799 3.5991 5.85823C3.29298 6.04846 3.02402 6.22121 2.79661 6.37646C2.56702 6.53171 2.33305 6.61043 2.08815 6.61043C1.89354 6.61043 1.72517 6.55795 1.58522 6.4508C1.44309 6.34366 1.32939 6.21683 1.24192 6.07033L0.730252 5.15195V5.14539ZM9.07441 11.3182C7.91769 11.3576 6.93371 11.4472 6.12684 11.5872C5.31998 11.7293 4.6618 11.9152 4.15669 12.1491C3.65158 12.3831 3.28642 12.6586 3.06338 12.9735C2.84034 13.2906 2.72883 13.6426 2.72883 14.0318C2.72883 14.4211 2.79005 14.7206 2.91032 14.9874C3.03277 15.2542 3.19676 15.4728 3.40668 15.6434C3.6166 15.8139 3.8615 15.9386 4.14357 16.0151C4.42565 16.0938 4.73178 16.131 5.06196 16.131C5.49928 16.131 5.90162 16.0873 6.2646 15.9998C6.62758 15.9123 6.97307 15.7877 7.29231 15.6281C7.61156 15.4684 7.91987 15.2716 8.2107 15.0377C8.50152 14.8037 8.79015 14.5369 9.07223 14.2352V11.3182H9.07441Z" fill="white"/>
<path d="M18.5856 0V17.9303H15.743V0H18.5856Z" fill="white"/>
<path d="M59.5878 10.1658L56.0651 17.8977H53.205L56.673 10.1658H59.5878Z" fill="#01FFCE"/>
<path d="M28.9746 2.84094C30.0636 2.84094 31.0497 3.01806 31.9288 3.37448C32.81 3.72871 33.5578 4.24038 34.1766 4.9073C34.7932 5.57422 35.2677 6.37672 35.6001 7.31478C35.9303 8.25284 36.0965 9.30679 36.0965 10.4745C36.0965 11.6421 35.9303 12.6982 35.6001 13.6407C35.2699 14.5831 34.7954 15.3856 34.1766 16.0482C33.5578 16.7107 32.81 17.218 31.9288 17.5722C31.0476 17.9265 30.0636 18.1058 28.9746 18.1058C27.8857 18.1058 26.8864 17.9287 26.0052 17.5722C25.124 17.218 24.374 16.7085 23.7508 16.0482C23.1276 15.3856 22.6487 14.5831 22.3142 13.6407C21.9796 12.6982 21.8112 11.6421 21.8112 10.4745C21.8112 9.30679 21.9796 8.25503 22.3142 7.31478C22.6487 6.37672 23.1298 5.57422 23.7508 4.9073C24.374 4.24038 25.124 3.7309 26.0052 3.37448C26.8864 3.02025 27.8748 2.84094 28.9746 2.84094ZM28.9746 15.8842C30.3763 15.8842 31.4215 15.4119 32.1124 14.4694C32.8034 13.527 33.1489 12.1975 33.1489 10.4876C33.1489 8.77763 32.8034 7.44598 32.1124 6.49698C31.4215 5.54798 30.3763 5.07349 28.9746 5.07349C27.573 5.07349 26.4972 5.54798 25.8018 6.49698C25.1065 7.44598 24.7588 8.77544 24.7588 10.4876C24.7588 12.1997 25.1065 13.527 25.8018 14.4694C26.4972 15.414 27.5555 15.8842 28.9746 15.8842Z" fill="white"/>
<path d="M31.9962 19.3776C31.3074 20.2261 30.3016 20.6546 28.9743 20.6546C27.647 20.6546 26.6128 20.2261 25.9174 19.3776H22.7359C23.0158 19.9134 23.3547 20.3922 23.7505 20.8143C24.3737 21.4768 25.1237 21.9841 26.0049 22.3383C26.8861 22.6926 27.8744 22.8719 28.9743 22.8719C30.0742 22.8719 31.0494 22.6948 31.9284 22.3383C32.8097 21.9841 33.5575 21.4746 34.1763 20.8143C34.5699 20.3922 34.9044 19.9134 35.1821 19.3776H31.9962Z" fill="white"/>
</g>
<defs>
<clipPath id="clip0_342_524">
<rect width="89" height="22.8721" fill="white"/>
</clipPath>
</defs>
</svg>
