<svg width="130" height="22" viewBox="0 0 130 22" fill="none" xmlns="http://www.w3.org/2000/svg">
<path d="M9.14578 5.90299C13.4307 5.75965 17.0228 9.10937 17.1741 13.3897C17.3254 17.67 13.9788 21.2646 9.69442 21.4235C5.3989 21.5829 1.78942 18.2292 1.63775 13.9378C1.486 9.64643 4.84972 6.04672 9.14578 5.90299ZM10.297 19.3424C13.4331 18.8528 15.5804 15.9193 15.0969 12.7853C14.6134 9.65144 11.6814 7.50005 8.54326 7.9765C5.39574 8.45442 3.23436 11.394 3.71932 14.5373C4.20436 17.6806 7.1515 19.8335 10.297 19.3424Z" fill="white"/>
<path d="M101.422 6.01508C104.871 6.06666 109.231 5.37709 111.895 7.93367C114.82 10.7412 114.808 15.9069 112.05 18.8411C109.981 20.9308 107.458 20.9232 104.78 20.9142C103.664 20.9092 102.547 20.9124 101.431 20.9236L101.422 6.01508ZM103.32 19.1269C105.87 19.1207 108.521 19.4538 110.524 17.6668C112.603 15.3937 112.675 11.2983 110.372 9.13123C108.366 7.24248 105.725 8.05905 103.318 7.83891L103.32 19.1269Z" fill="white"/>
<path d="M20.4952 6.12245C22.1502 6.11535 26.5196 6.00547 27.852 6.30558C28.6767 6.48832 29.4506 6.85142 30.118 7.36882C33.5608 10.0912 31.9894 15.9649 27.1992 16.5105C25.8901 16.6561 23.7961 16.5942 22.4278 16.5932C22.5221 17.4191 22.4654 20.1862 22.4686 21.1842L20.4922 21.2215C20.5758 16.3014 20.5413 11.0502 20.4952 6.12245ZM22.4612 14.8049C24.6634 14.8145 27.0856 15.1305 28.8497 13.776C29.568 12.9834 29.9231 12.2902 29.8545 11.2018C29.5985 7.14065 25.0675 8.06448 22.4218 7.96995C22.571 9.66239 22.4517 12.9759 22.4612 14.8049Z" fill="white"/>
<path d="M59.3048 6.13659C60.546 5.90226 62.7856 6.15401 63.8568 6.91939C65.294 7.94561 65.5603 8.80514 65.903 10.4007C65.1443 10.3782 64.5075 10.3564 63.7464 10.4057C63.2474 8.15157 61.8559 7.79996 59.7818 7.87267C58.3822 7.92179 57.061 8.9262 57.1977 10.4401C57.3604 12.0953 59.0566 12.4752 60.379 12.8049C62.4869 13.3304 65.9208 13.7076 66.0991 16.4942C66.3075 19.7288 64.262 20.8862 61.3761 21.1115L61.3552 21.1141C59.9219 21.2837 57.5294 20.8017 56.3982 19.8461C55.3063 18.9235 55.0078 18.0991 54.8516 16.7385C55.522 16.7591 56.3045 16.7341 56.9832 16.7291C57.4191 18.9288 59.5126 19.5391 61.4796 19.3179C62.4054 19.2138 63.2161 18.951 63.819 18.1873C64.1539 17.8227 64.1292 17.4594 64.0783 16.977C63.9494 15.5231 62.4049 15.1225 61.2087 14.8369C58.8193 14.2663 55.5712 13.998 55.232 10.9206C54.9224 8.11039 56.5783 6.44733 59.3048 6.13659Z" fill="white"/>
<path d="M94.7837 6.12415L96.735 6.11505L96.7119 7.75937L96.7188 12.2706C96.7211 14.6764 96.9897 17.6263 95.1565 19.4889C92.9853 21.6911 88.4807 21.6782 86.2693 19.567C84.2485 17.6382 84.6098 14.4307 84.6129 11.8626L84.6074 6.12153L86.5147 6.11243C86.5078 6.37652 86.5039 6.64061 86.5039 6.90479L86.4954 12.1238C86.4954 13.2212 86.5116 14.2803 86.5402 15.4018C86.6267 18.7818 89.9897 20.1901 92.8263 18.8252C95.1874 17.689 94.7976 14.5227 94.7976 12.2737L94.7837 6.12415Z" fill="white"/>
<path d="M74.0376 6.02616L76.4752 6.02161C77.1806 7.82207 77.8676 9.62964 78.5368 11.4439C78.8031 12.1575 79.301 13.3513 79.5009 14.0188C80.3623 16.2844 81.2885 18.6405 82.1152 20.9095L80.1052 20.9161C78.8394 17.8689 77.7688 14.5828 76.567 11.4938C76.1209 10.3463 75.7542 9.15087 75.2571 8.02387C74.1511 10.9842 72.9161 14.1494 71.898 17.1248C71.3978 18.3839 70.9301 19.6752 70.4291 20.9228L68.3906 20.9108C69.8471 17.4016 71.1037 13.6401 72.4954 10.0899C72.9709 8.87791 73.5266 7.17275 74.0376 6.02616Z" fill="white"/>
<path d="M117.938 6.05199C118.319 6.07612 118.748 6.08414 119.132 6.08137C122.093 6.06032 125.083 6.14167 128.04 6.0459C128.022 6.66669 128.03 7.24184 128.043 7.86071L119.799 7.85654C119.903 11.4346 119.808 15.5135 119.811 19.1322L121.539 19.1253L128.056 19.1207C128.025 19.7893 128.005 20.2569 128.054 20.9315C124.825 20.8397 121.186 20.8976 117.938 20.923L117.938 6.05199Z" fill="white"/>
<path d="M48.372 6.12787C49.1507 6.09032 50.1691 6.1207 50.9658 6.12363C49.7618 7.47664 47.98 9.22228 46.6513 10.4789C45.5081 11.7225 44.0599 13.1025 42.8477 14.311L42.8551 21.1438L40.9665 21.1449L40.9739 14.3403C38.3858 11.7921 35.2647 8.77676 32.8047 6.13866C33.609 6.09171 34.5516 6.11823 35.3677 6.12201C35.8895 6.52875 37.0885 7.78885 37.6141 8.31673L41.8825 12.6048C43.8456 10.5637 46.3188 8.05634 48.372 6.12787Z" fill="white"/>
<path d="M71.8984 17.1248C74.1176 17.1255 76.4293 17.0919 78.6407 17.1331C78.044 17.8553 77.3378 18.6467 76.7697 19.3642C76.2996 19.9144 75.7493 20.5961 75.2676 21.1202C74.4919 20.2394 72.4812 17.9921 71.8984 17.1248Z" fill="white"/>
<path d="M124.638 10.0981C124.7 10.4158 124.685 11.859 124.685 12.2515C124.686 13.7821 124.678 15.3128 124.663 16.8435C124.11 16.2968 123.56 15.7475 123.012 15.1952L121.266 13.4547C122.389 12.3758 123.531 11.2021 124.638 10.0981Z" fill="white"/>
<path d="M38.7812 6.13608C40.7412 6.06745 42.9349 6.11603 44.9123 6.11981C44.4755 6.60536 43.9581 7.11049 43.4967 7.57977L41.8914 9.19495C40.8641 8.16579 39.8274 7.14612 38.7812 6.13608Z" fill="white"/>
<path d="M92.0436 1.0033L92.1624 1.03709C92.4642 1.42133 92.8795 2.21167 93.0848 2.66538L89.2139 4.87926L89.0472 4.94472C88.821 4.85967 88.3139 3.93554 88.1719 3.69401C89.457 2.78934 90.7476 1.89241 92.0436 1.0033Z" fill="white"/>
</svg>
