<svg width="200" height="91" viewBox="0 0 200 91" fill="none" xmlns="http://www.w3.org/2000/svg">
<g clip-path="url(#clip0_2735_747)">
<path d="M105.772 0H118.247C118.218 2.52709 118.22 5.05442 118.251 7.58148C118.258 8.81229 118.319 10.6168 118.214 11.7945C119.198 11.7206 121.81 12.2491 122.956 12.3785L137.111 13.9854C142.577 14.6188 148.081 15.073 153.554 15.7759C157.477 16.2796 161.588 16.3581 165.526 16.8663C167.079 17.0155 168.508 17.3485 170.029 17.591C177.856 18.8386 186.38 20.5238 192.738 25.528C195.876 28.0471 197.731 31.302 198.882 35.0845C199.119 35.863 199.167 37.3269 199.418 37.9049V62.6231C199.105 63.6397 199.071 64.7144 198.781 65.7646C195.824 76.4695 184.713 80.2552 174.932 82.1237C173.452 82.4065 171.947 82.8223 170.443 83.0101C166.984 83.5478 163.625 83.788 160.161 84.1419L145.558 85.6731L111.98 89.6274C110.25 89.8303 102.088 90.4196 101.073 91H98.188C97.2531 90.3661 89.2216 89.8072 87.6523 89.6317L54.6573 85.7174L39.2624 84.1337C36.1732 83.8211 32.8951 83.6248 29.8293 83.0925C18.6611 81.1533 4.0423 78.479 0.603784 65.7059C0.32887 64.6846 0.32446 63.5756 0.0132049 62.656L0 62.6178V38.0774C0.288644 37.4692 0.294266 36.124 0.467703 35.4043C3.54933 22.6147 17.7229 19.4841 28.9074 17.7174C30.4362 17.4068 31.8589 17.1137 33.4141 16.9264C38.1471 16.3562 42.9809 16.1608 47.7071 15.6198L66.0923 13.4427C69.3974 13.0714 72.7356 12.7951 76.0424 12.45C77.7114 12.2759 79.5134 11.9584 81.1961 11.7256C81.1723 10.6615 81.0456 6.21604 81.3488 5.47475C81.857 5.18869 86.7556 5.40251 87.7415 5.35389C90.9241 5.19691 94.0941 5.54036 96.5661 7.71666C96.7771 6.49295 97.3148 5.43073 97.9008 4.34458C99.0537 2.20447 101.442 0.776539 103.793 0.373899C104.467 0.258507 105.114 0.180846 105.772 0Z" fill="white"/>
<path d="M16.6454 32.8461C21.1064 32.8554 27.2384 32.226 31.1618 34.4395C35.5431 36.9115 35.1467 45.3342 29.8841 46.5319C32.4685 47.3517 34.4762 48.3161 35.5428 51.0467C36.3182 53.0321 36.158 55.7646 35.2984 57.701C34.9731 58.3867 34.4045 59.1664 33.8666 59.7016C32.941 60.6122 31.8162 61.2953 30.5812 61.6972C27.446 62.7227 20.2322 62.4608 16.6308 62.4561C16.6438 52.6282 16.5313 42.6597 16.6454 32.8461Z" fill="black"/>
<path d="M22.887 49.2948C25.9721 49.2917 29.9408 49.0528 30.1058 53.3297C30.1654 54.8734 29.7222 55.7303 28.7097 56.8257C26.6035 57.9286 24.7439 57.7549 22.4248 57.611C22.383 56.7636 22.333 49.557 22.4906 49.341L22.887 49.2948Z" fill="white"/>
<path d="M22.4155 37.2982C23.9004 37.209 26.3872 37.0738 27.539 38.0945C29.2868 39.6436 28.9579 42.3808 27.5564 44.0006C26.0019 45.0138 24.2098 44.9748 22.4185 45.0366C22.3928 42.4573 22.3918 39.8776 22.4155 37.2982Z" fill="white"/>
<path d="M74.1124 32.8368C79.547 32.7848 78.9403 32.8228 81.284 37.5965L85.1321 45.5084C85.7182 46.7047 86.655 48.7533 87.3648 49.8133C87.8276 49.1084 88.7974 46.9074 89.2484 45.9936L93.6564 37.078C95.8522 32.6575 95.3343 32.794 100.396 32.8394L100.398 62.4373C98.6616 62.4065 96.7653 62.4544 95.0111 62.4597L95.0134 57.5683L95.0193 45.7094C94.387 47.3501 93.4181 49.1639 92.6321 50.7679C91.6882 52.6941 90.7635 54.8004 89.5707 56.5628C87.938 56.7358 86.8192 56.6855 85.192 56.6182C84.9522 56.3131 84.5118 55.7782 84.3434 55.4498C82.6822 52.2091 81.1601 48.8994 79.5004 45.6529C79.7409 47.5537 79.6625 50.1862 79.6615 52.1485L79.6734 62.3914C78.3713 62.5301 75.5271 62.4552 74.1016 62.4584L74.1124 32.8368Z" fill="black"/>
<path d="M155.395 32.8752C161.185 32.8003 160.946 33.0602 160.936 38.9201L160.931 44.2114L160.939 62.3816C157.847 62.4297 152.172 62.5444 149.321 62.0775C144.718 61.1764 143.355 57.3394 143.355 53.0989C143.314 49.8814 143.254 46.2985 145.673 43.8319C147.996 41.464 152.253 41.6244 155.375 41.5614C155.456 38.7708 155.394 35.6858 155.395 32.8752Z" fill="black"/>
<path d="M152.486 46.1623C153.502 46.0911 154.33 46.1984 155.332 46.3581C155.474 49.025 155.346 51.7738 155.392 54.4496C155.409 55.504 155.398 56.6043 155.342 57.6545C154.083 57.7596 153.11 57.8031 151.854 57.7156C150.336 57.5219 149.528 56.6892 149.092 55.2335C148.909 54.6215 148.837 53.8054 148.836 53.1711C148.833 49.9761 148.385 46.7266 152.486 46.1623Z" fill="white"/>
<path d="M97.9531 23.0221C97.9872 20.3215 97.993 17.6207 97.9707 14.92C97.9619 9.90634 97.8382 3.47956 103.954 2.20086C107.493 1.46111 112.686 1.81728 116.391 1.77422L116.395 9.86274C116.393 13.5956 116.822 18.8174 113.924 21.576C110.873 24.4804 105.192 23.8368 101.266 23.9374C100.631 23.952 99.5812 23.9361 98.959 23.8891C101.211 21.1313 103.497 18.054 105.847 15.4036C105.683 15.2465 105.629 15.2394 105.411 15.1719L100.81 20.0822C99.9931 20.9572 98.8227 22.2961 97.9531 23.0221Z" fill="black"/>
<path d="M108.857 11.4641C108.329 12.2607 106.538 14.8525 105.85 15.4034C105.687 15.2463 105.632 15.2392 105.414 15.1717C106.057 14.4132 108.119 12.1547 108.857 11.4641Z" fill="white"/>
<path d="M172.125 41.4009C178.074 40.9079 182.257 44.6947 182.728 50.5539C183.2 56.4095 180.734 61.895 174.322 62.3838C173.794 62.4144 173.269 62.3968 172.748 62.4186C163.409 62.8094 160.993 50.9319 165.646 44.633C167.188 42.5472 169.609 41.7011 172.125 41.4009Z" fill="black"/>
<path d="M172.346 45.7682C176.761 45.4062 177.16 49.2832 177.035 52.655C176.932 55.4208 176.603 57.5 173.638 58.2884C168.224 58.8762 168.198 50.5634 169.997 47.3418C170.56 46.3344 171.293 46.0078 172.346 45.7682Z" fill="white"/>
<path d="M55.4599 41.4005C55.5353 41.3936 55.6108 41.3877 55.6863 41.383C61.9285 40.9873 65.8351 45.0999 66.0994 51.1175C66.3482 56.7819 63.8531 62.0226 57.6709 62.3855C51.8501 62.745 47.932 60.4362 46.9669 54.249C46.4489 50.9285 46.9757 47.3234 49.0439 44.6042C50.6254 42.5249 52.9096 41.7474 55.4599 41.4005Z" fill="black"/>
<path d="M55.7684 45.7674C57.8789 45.5273 59.7135 46.7064 60.1337 48.748C60.8166 52.0659 61.0972 57.169 57.0646 58.2781C54.7782 58.5232 52.9465 57.1055 52.5933 54.8367C52.1216 51.8057 51.8374 46.5883 55.7684 45.7674Z" fill="white"/>
<path d="M123.166 41.4786C127.363 41.6215 134.978 40.6821 138.237 43.7125C141.002 46.2826 140.621 51.1098 140.621 54.6297L140.616 62.3641L135.169 62.3476C135.117 58.7466 135.175 55.0848 135.141 51.4675C134.889 46.7109 133.574 45.4917 128.719 46.2473C128.598 51.3735 128.663 57.2027 128.715 62.3421C126.948 62.4046 124.937 62.3578 123.153 62.3574C123.094 55.4878 123.091 48.3456 123.166 41.4786Z" fill="black"/>
<path d="M115.118 41.4862C116.932 41.5049 118.747 41.5047 120.562 41.4856C120.613 42.9647 120.583 44.5938 120.585 46.084L120.583 62.3695C117.56 62.3507 110.741 62.5955 108.179 61.8346C107.161 61.5352 106.232 60.9891 105.476 60.2448C102.75 57.5133 103.11 53.1322 103.109 49.5845L103.117 41.4971L108.562 41.5025L108.56 49.0956C108.561 51.1431 108.264 55.4929 109.904 57.0754C110.92 58.0557 113.699 57.7698 115.085 57.6415C115.179 52.311 115.079 46.8369 115.118 41.4862Z" fill="black"/>
<path d="M83.0283 7.11647C86.3681 7.10688 92.7354 6.58336 95.1187 8.98277C97.2296 11.108 96.8819 14.9596 96.8789 17.744C96.8733 19.5398 96.8793 21.3355 96.8967 23.1313C95.3798 21.643 93.3668 19.3243 91.8687 17.7231L91.5469 17.9478C92.2008 18.8223 92.9291 19.6506 93.5879 20.5127C94.5413 21.7604 95.2454 22.7611 96.3468 23.8977C93.2162 24.0737 87.1523 24.327 84.8187 22.0821C82.7359 20.0784 83.0214 15.9689 83.0207 13.2679L83.0283 7.11647Z" fill="black"/>
<path d="M89.7969 15.7419C90.578 16.2241 91.4116 16.9167 91.8723 17.723L91.5504 17.9477C91.3914 17.7942 90.1503 16.142 89.7969 15.7419Z" fill="white"/>
<path d="M195.949 65.8163L195.999 65.9711L196.099 65.9786L196.33 65.3039L196.433 65.2805L196.555 65.6483C197.191 64.3241 197.138 62.8664 197.418 62.2246L197.504 62.3611C195.835 81.9962 163.509 81.6038 149.33 83.4547C142.879 84.2967 136.122 84.8493 129.646 85.6069L116.794 87.08C113.13 87.5216 109.485 88.1139 105.793 88.3852C103.411 88.5602 101.046 89.1481 98.6907 88.9419C95.151 88.6055 91.6152 88.2291 88.0841 87.813C86.2491 87.58 84.4018 87.261 82.5645 87.0482L54.5228 83.8804C42.0295 82.4549 29.1259 82.1531 17.0171 78.3218C13.0131 77.055 8.2738 74.6276 5.61053 71.3798C4.96957 70.5982 3.49123 68.5603 3.32507 67.5674C3.39078 67.3 3.22769 67.145 3.41032 66.827C3.53774 66.6051 3.4846 66.135 3.48132 65.8604C5.71643 71.9339 10.0293 74.9442 15.9441 77.0753C20.4613 78.7028 25.2884 79.6775 30.0306 80.3776C31.5046 80.5951 32.9756 80.9147 34.4595 81.0778C37.9777 81.4667 41.5617 81.6864 45.0754 82.0756L76.9075 85.5565L91.143 87.2396C93.7406 87.5727 96.9224 88.1888 99.5388 88.2294C103.034 88.1785 106.565 87.3054 110.029 87.042C114.123 86.7306 118.159 86.0289 122.215 85.5947L153.656 82.1419C157.323 81.7363 161.204 81.5406 164.828 81.0942C167.423 80.7746 170.902 80.1969 173.5 79.7181C177.511 78.9786 182.322 77.7216 186.014 76.0507C190.963 73.8111 194.077 70.9754 195.949 65.8163Z" fill="black"/>
<path d="M38.855 41.3528C41.0119 41.3306 44.0338 40.8972 44.1477 43.8736C44.2265 45.9303 44.2024 47.9696 44.202 50.0268L44.2099 62.0247C39.6097 62.1059 38.7279 62.3665 38.8459 57.2971C38.8747 56.06 38.8457 54.5934 38.8462 53.3379L38.855 41.3528Z" fill="black"/>
<path d="M195.93 34.6832C191.953 23.6409 179.126 22.032 169.076 20.0983C166.469 19.5967 163.653 19.541 161.018 19.1906C154.271 18.4055 147.529 17.7685 140.785 16.958C135.318 16.3011 129.892 15.8949 124.415 15.1637C123.264 15.0052 122.109 14.8725 120.952 14.7661C120.378 14.7184 119.469 14.8497 119.051 14.4569C118.92 14.0632 118.95 14.1951 119.029 13.765C119.257 13.7051 124.519 14.3848 125.405 14.4732L154.665 17.6883C168.019 19.1638 195.193 19.986 197.427 37.4005L197.314 37.6165C197.196 36.9481 196.512 34.5887 196.239 33.9244L196.265 33.9908L196.105 33.9376C195.81 34.0931 195.901 34.4248 195.93 34.6832Z" fill="black"/>
<path d="M1.84375 39.011C1.93744 34.9683 4.30366 29.9094 7.42744 27.4164C17.0844 19.7098 32.9591 18.9316 44.5876 17.7276L63.2075 15.7436C64.3648 15.624 65.5171 15.4644 66.6689 15.3009C70.7104 14.7272 74.7903 14.4857 78.8359 13.9469C79.2689 13.8892 79.6914 13.7768 80.1306 13.7848C80.3136 13.9777 80.264 13.9779 80.3069 14.2747C80.2112 14.471 80.148 14.6238 79.883 14.6529C72.6162 15.449 65.3618 16.3244 58.0803 17.0167C55.9432 17.22 53.8147 17.6122 51.6726 17.819L38.7886 19.1398C29.9355 20.074 20.4539 21.1377 12.3048 25.0677C7.99781 27.1447 5.10478 30.2028 3.47036 34.7216L3.42496 34.5128L3.32203 34.4963C3.2619 34.8799 3.33225 34.7799 3.08649 35.0303L2.74371 35.1145C2.15313 37.5856 2.10758 38.0336 1.91603 40.4721L1.84375 39.011Z" fill="black"/>
<path d="M31.018 79.4635C23.8654 78.0394 15.9921 77.1222 9.94499 72.4695C6.64937 69.9581 4.51093 66.2206 4.01675 62.1081C3.6905 59.5507 3.83791 54.3048 3.83787 51.5236L3.83977 44.5962C3.84103 42.11 3.76135 39.6637 4.26851 37.2113C4.76266 34.8216 5.6948 32.7297 7.20164 30.8021C14.3691 21.6329 36.174 20.412 47.0747 19.4075C49.2884 19.1888 51.4982 18.9333 53.7035 18.6414C53.9899 18.6889 54.171 18.6653 54.354 18.8332C54.2819 18.9865 54.2906 18.9945 54.144 19.0918C47.6105 19.803 40.9833 20.2307 34.4751 21.1362C26.1613 22.2929 13.2126 23.9946 7.62633 30.9576C6.19824 32.7397 5.22462 34.842 4.78918 37.0834C4.3175 39.4066 4.3919 41.9278 4.39487 44.3004L4.39603 51.2615C4.39429 58.7106 3.32289 66.976 10.0386 71.9759C15.9462 76.3742 24.4462 78.0256 31.5808 79.0394L31.6205 79.2237C31.3713 79.4474 31.3924 79.3859 31.018 79.4635Z" fill="black"/>
<path d="M41.1988 32.4468C42.1208 32.4003 43.1646 32.4251 44.0961 32.427C44.0471 34.9458 44.8791 38.1268 41.7909 38.8271C40.8548 38.8707 39.7235 38.8513 38.7718 38.856C38.7591 37.4253 38.4871 34.2226 39.3104 33.19C39.8348 32.5324 40.4377 32.5237 41.1988 32.4468Z" fill="black"/>
<path d="M1.84863 39.011L1.92091 40.4721C2.11246 38.0336 2.15801 37.5856 2.7486 35.1145L3.09137 35.0303C3.33713 34.7799 3.26678 34.8799 3.32692 34.4963L3.42984 34.5128L3.47524 34.7216C2.50116 38.6992 2.70902 40.7563 2.72444 44.8096L2.72745 51.9528C2.72598 55.236 2.67624 58.6045 2.80153 61.8842C2.85448 63.2702 3.31181 64.6129 3.4835 65.8605C3.48678 66.135 3.53992 66.6051 3.4125 66.827C3.22987 67.1451 3.39296 67.3 3.32725 67.5675C1.58365 64.1917 1.67786 59.7773 1.67431 56.0679L1.67188 48.4468L1.67757 42.9027C1.68253 41.8789 1.67598 39.997 1.84863 39.011Z" fill="black"/>
<path d="M195.927 34.6831C195.898 34.4247 195.807 34.093 196.102 33.9375L196.262 33.9907L196.235 33.9243C196.509 34.5886 197.193 36.9479 197.31 37.6164L197.423 37.4004C198.072 40.2372 197.613 47.1627 197.748 50.3222C197.814 51.8752 197.8 61.7556 197.502 62.3611L197.417 62.2246C197.136 62.8664 197.19 64.3242 196.554 65.6484L196.431 65.2805L196.328 65.3039L196.097 65.9786L195.998 65.9711L195.947 65.8164C196.846 62.214 196.696 60.0261 196.697 56.3704L196.698 49.2496C196.698 45.6169 196.78 41.8356 196.568 38.2158C196.507 37.1864 196.157 35.7241 195.927 34.6831Z" fill="black"/>
<path d="M89.5974 68.2324C90.7684 67.9765 91.9775 68.4579 92.6515 69.4487C93.195 70.2478 93.31 71.263 92.959 72.1632C92.6079 73.0635 91.836 73.7332 90.8949 73.9539C89.3085 74.326 87.7226 73.3349 87.3623 71.7466C87.0021 70.1581 88.0056 68.5805 89.5974 68.2324Z" fill="black"/>
<path d="M89.4855 68.8144C90.6693 68.6617 91.5897 68.8485 92.1744 70.0202C92.4739 70.6078 92.5197 71.2924 92.3011 71.9147C92.068 72.5582 91.5434 73.1096 90.9259 73.4052C90.0079 73.4943 89.7533 73.4195 88.9092 73.1361C87.666 71.7207 87.5528 69.6363 89.4855 68.8144Z" fill="white"/>
<path d="M62.0228 68.2292C63.5937 67.9145 65.1258 68.9211 65.4597 70.4874C65.7935 72.0537 64.8049 73.597 63.2421 73.9496C62.2142 74.1815 61.1409 73.8431 60.4323 73.0635C59.7237 72.2839 59.4892 71.1837 59.8183 70.1831C60.1475 69.1826 60.9896 68.4362 62.0228 68.2292Z" fill="black"/>
<path d="M62.3316 68.8002C63.5875 68.6493 64.7313 69.536 64.8976 70.7894C65.0638 72.0428 64.1907 73.1967 62.9389 73.3782C62.1154 73.4976 61.2913 73.1652 60.7814 72.5078C60.2715 71.8505 60.1547 70.9699 60.4756 70.2024C60.7964 69.435 61.5054 68.8993 62.3316 68.8002Z" fill="white"/>
<path d="M67.5781 68.3815C68.273 68.1276 70.3972 68.2753 71.0954 68.5844C73.2171 69.5237 73.1406 73.0192 70.8358 73.6973C69.7271 74.0319 68.7315 73.9566 67.596 73.9353C67.5806 72.4957 67.5811 71.0559 67.5977 69.6163L67.5781 68.3815Z" fill="black"/>
<path d="M68.444 68.8096C69.1832 68.8078 69.9381 68.7483 70.5981 69.0407C73.0984 70.1485 72.1789 73.2002 69.624 73.3626C69.1877 73.3903 68.7719 73.3835 68.3494 73.3806L68.3359 71.2808C68.3461 70.7078 68.3053 69.2495 68.444 68.8096Z" fill="white"/>
<path d="M67.5781 68.3816C67.9439 68.4003 68.3779 68.3821 68.6285 68.6123C68.5568 68.7393 68.5679 68.748 68.4392 68.8097C68.3004 69.2495 68.3412 70.7079 68.3311 71.2809C68.0652 72.0275 68.4475 72.822 68.0305 73.4327L67.8723 73.4244C67.4781 72.7231 67.9054 70.1299 67.5977 69.6164L67.5781 68.3816Z" fill="black"/>
<path d="M131.279 68.2987C132.026 68.2426 132.881 68.2178 133.621 68.3128C135.72 68.3448 136.69 69.4796 135.343 71.3269L134.386 71.6843C134.967 72.3652 135.482 72.8746 135.784 73.7302L135.73 73.9068C135.02 73.9111 134.142 72.3339 133.753 71.7944L132.692 71.7302L132.33 71.7933C131.713 72.3973 132.687 73.5304 131.777 74.0491C131.527 73.9853 131.273 73.7834 131.271 73.5053C131.257 71.7725 131.274 70.0333 131.279 68.2987Z" fill="black"/>
<path d="M133.896 68.7981C135.391 69.1405 135.856 69.9541 134.494 70.9625C133.642 71.0406 133.002 71.0339 132.153 71.0232L132.148 68.8439C132.759 68.8476 133.288 68.8569 133.896 68.7981Z" fill="white"/>
<path d="M131.279 68.2987C132.026 68.2426 132.881 68.2178 133.621 68.3128C133.044 68.3517 132.466 68.3766 131.886 68.3877L131.909 68.5693C132.397 68.8593 133.528 68.619 133.904 68.798C133.295 68.8567 132.767 68.8475 132.156 68.8438L132.161 71.023C133.01 71.0337 133.65 71.0405 134.502 70.9624C133.714 71.5161 132.574 71.0677 132.342 71.5644C132.452 71.6222 132.574 71.6934 132.692 71.7302L132.33 71.7933C131.713 72.3973 132.687 73.5304 131.777 74.0491C131.527 73.9853 131.273 73.7834 131.271 73.5053C131.257 71.7725 131.274 70.0333 131.279 68.2987Z" fill="black"/>
<path d="M53.5471 68.3095C54.5164 68.2122 56.4872 68.1459 57.245 68.7746C57.5205 68.9987 57.6915 69.3263 57.7178 69.6804C57.7563 70.1544 57.5982 70.6109 57.3664 71.0168C56.8556 71.6967 56.5255 71.2788 56.3815 71.827C56.694 72.2437 57.7572 73.5316 57.7324 73.9627C57.0832 74.2141 55.8964 72.3066 55.5215 71.7763L54.2191 71.7549C54.1235 71.7777 54.068 71.8306 53.9829 71.8887C53.7871 72.6334 54.228 73.5528 53.6675 74.0012C53.3534 73.9874 53.4775 74.0221 53.1902 73.8251C53.1495 73.7626 53.0631 73.6052 53.0686 73.5377C53.1279 72.813 52.927 68.6492 53.2136 68.3051L53.5471 68.3095Z" fill="white"/>
<path d="M53.5391 68.3095C54.5083 68.2122 56.4791 68.1459 57.237 68.7746C57.5124 68.9987 57.6834 69.3263 57.7097 69.6804C57.7483 70.1544 57.5901 70.6109 57.3583 71.0168C56.8476 71.6967 56.5174 71.2788 56.3735 71.827C56.6859 72.2437 57.7491 73.5316 57.7243 73.9627C57.0751 74.2141 55.8884 72.3066 55.5134 71.7763L54.211 71.7549L54.1472 71.6282C54.366 71.0238 55.33 71.6193 56.1888 70.9738C56.3055 70.9427 56.4635 70.9378 56.5886 70.9281C57.6764 69.7741 57.0376 69.0768 55.7222 68.8009C54.8846 68.5005 54.0913 69.1254 53.5391 68.3095Z" fill="black"/>
<path d="M54.2191 71.7548C54.1235 71.7775 54.068 71.8305 53.9829 71.8886C53.7871 72.6332 54.228 73.5527 53.6675 74.001C53.3534 73.9872 53.4775 74.022 53.1902 73.8249C53.1495 73.7624 53.0631 73.605 53.0686 73.5375C53.1279 72.8128 52.927 68.6491 53.2136 68.3049L53.5471 68.3093C54.0993 69.1252 54.8926 68.5004 55.7303 68.8007C55.1089 68.8577 54.5642 68.8483 53.9408 68.8439L53.9493 71.0246C54.6893 71.0284 55.4633 71.0482 56.1968 70.9736C55.3381 71.6191 54.374 71.0236 54.1552 71.628L54.2191 71.7548Z" fill="black"/>
<path d="M194.673 63.2578C195.115 63.6496 194.69 63.7983 194.934 64.2719C192.509 75.0488 178.408 77.8392 169.146 79.311C168.839 79.2995 167.961 79.3922 167.606 79.4143L167.531 79.3147C167.719 79.1878 167.864 79.1116 168.062 79.0062C169.85 78.6687 171.995 78.4766 173.738 78.0789C178.343 77.0285 183.416 75.8183 187.444 73.3131C191.614 70.7194 193.561 67.9091 194.673 63.2578Z" fill="black"/>
<path d="M138.837 72.4307C138.834 72.9003 138.604 73.3779 138.379 73.7786C138.153 73.9077 138.057 73.9918 137.796 73.9442L137.734 73.7997C137.927 73.0198 139.867 68.7782 140.412 68.2641C140.733 68.2518 140.628 68.2446 140.932 68.5215C141.357 69.3447 143.384 73.2787 143.206 73.9236C142.549 74.2015 142.233 72.8619 142.091 72.4256C141.185 72.3919 139.735 72.3448 138.837 72.4307Z" fill="black"/>
<path d="M138.837 72.4307C138.834 72.9003 138.604 73.3779 138.379 73.7786C138.153 73.9077 138.057 73.9918 137.796 73.9442L137.734 73.7997C137.927 73.0198 139.867 68.7782 140.412 68.2641C140.733 68.2518 140.628 68.2446 140.932 68.5215C140.753 68.6955 140.58 68.7998 140.535 69.0063C140.201 69.7186 139.486 71.077 139.288 71.7232C139.45 71.8864 139.966 71.8556 140.246 71.8617C139.792 71.9234 139.234 71.8563 138.966 72.0366C138.899 72.1971 138.867 72.2607 138.837 72.4307Z" fill="black"/>
<path d="M140.535 69.0063C140.987 70.0012 141.323 70.8467 141.813 71.8479C141.375 71.8512 140.662 71.833 140.246 71.8618C139.967 71.8557 139.451 71.8865 139.289 71.7233C139.487 71.0771 140.201 69.7187 140.535 69.0063Z" fill="white"/>
<path d="M195.418 38.615C195.612 40.0404 195.559 41.9141 195.559 43.3892V50.2301L195.554 57.1121C195.552 58.7086 195.616 60.7715 195.35 62.3128L195.163 62.2596C194.911 61.9715 194.979 61.9104 194.914 61.4594C195.142 59.2824 195.042 55.1494 195.022 52.8278C194.988 48.6978 195.125 44.251 194.986 40.1546C195.396 39.9468 194.954 39.163 195.418 38.615Z" fill="black"/>
<path d="M47.0078 68.3501C48.062 68.1819 49.9565 68.152 50.8154 68.8713C51.396 69.5801 51.3546 71.0422 50.5715 71.4977C50.4274 71.2164 50.3693 71.1794 50.1321 70.9783C49.554 71.3029 49.193 71.3646 48.5377 71.4515C48.0096 71.4956 47.5417 71.5429 47.0166 71.6156L47.0078 68.3501Z" fill="white"/>
<path d="M47.0078 68.3501C48.062 68.1819 49.9565 68.152 50.8154 68.8713C50.6258 69.0423 50.5696 69.108 50.3205 69.1969C49.8545 68.9501 49.6721 68.9167 49.17 68.7973C48.6516 68.8262 48.1324 68.8332 47.6136 68.8184C47.6097 69.544 47.4224 70.8822 47.8006 71.3578C48.0293 71.4842 48.276 71.4554 48.5377 71.4515C48.0096 71.4956 47.5417 71.5429 47.0166 71.6156L47.0078 68.3501Z" fill="black"/>
<path d="M47.0078 68.3501C48.062 68.1819 49.9565 68.152 50.8154 68.8713C50.6258 69.0423 50.5696 69.108 50.3205 69.1969C49.8545 68.9501 49.6721 68.9167 49.17 68.7973C48.9108 68.5539 47.8201 68.7878 47.1789 68.6358L47.0078 68.3501Z" fill="black"/>
<path d="M50.8161 68.8711C51.3967 69.5799 51.3553 71.0421 50.5723 71.4975C50.4281 71.2163 50.37 71.1792 50.1328 70.9781C50.644 70.4511 50.7031 69.8197 50.3212 69.1967C50.5703 69.1078 50.6265 69.0421 50.8161 68.8711Z" fill="black"/>
<path d="M173.367 21.9963C181.174 23.8189 190.237 25.6706 194.051 33.7515L193.578 33.8532C190.092 26.2178 179.649 23.5576 172.055 22.3005C172.36 21.9405 172.903 22.02 173.367 21.9963Z" fill="black"/>
<path d="M114.208 68.0618C115.114 69.0019 115.922 71.2074 116.426 72.4336C116.175 72.6488 116.063 72.5988 115.898 72.7342C115.884 72.6841 115.809 72.5598 115.778 72.507C115.28 72.2752 113.253 72.3973 112.612 72.4164C112.47 72.9268 112.241 74.1155 111.497 73.9057C111.374 73.2403 113.662 68.7872 114.208 68.0618Z" fill="black"/>
<path d="M114.237 69.0667C114.348 69.1969 115.323 71.4421 115.521 71.8493L114.341 71.8484L112.883 71.8353C113.329 70.9098 113.781 69.987 114.237 69.0667Z" fill="white"/>
<path d="M61.1651 82.2363C62.2484 82.2081 65.3835 82.6832 66.6488 82.8123L74.1639 83.5436C75.0043 83.6265 77.7094 83.8854 78.3919 84.0997C77.9125 84.1231 77.5531 84.1049 77.1263 84.3336L77.054 84.4775C76.7711 84.5119 76.2345 84.4485 75.9376 84.4093C70.7619 83.7258 65.5251 83.4109 60.3594 82.6664C60.7847 82.6055 61.0036 82.6472 61.1651 82.2363Z" fill="black"/>
<path d="M121.312 84.0859C121.658 83.9961 121.997 83.957 122.35 83.9097C126.789 83.3153 131.264 83.0422 135.71 82.5021C136.542 82.401 137.517 82.2385 138.346 82.2314L138.343 82.4615C138.651 82.5867 138.764 82.5971 139.089 82.6473C135.572 83.2357 131.409 83.4487 127.806 83.8945C126.656 84.0367 123.006 84.511 122.023 84.4914L122.067 84.2341C121.842 84.0252 121.713 84.099 121.312 84.0859Z" fill="black"/>
<path d="M131.187 17.0621C132.79 17.0407 135.417 17.4256 137.089 17.6676C140.016 18.0913 144.115 18.0558 146.888 18.781C146.352 18.8153 146.12 18.7745 145.737 19.1693C145.361 19.2274 141.82 18.7939 141.181 18.7159C137.901 18.3156 134.227 18.1268 131.008 17.5218C131.635 17.4773 132.353 17.4665 132.988 17.4417C132.608 17.3785 131.452 17.2234 131.187 17.0621Z" fill="black"/>
<path d="M92.0482 85.676C94.2301 85.6501 97.1096 86.3776 99.315 86.4113C101.966 86.4517 104.796 85.829 107.465 85.6426C106.878 85.8791 106.7 85.8972 106.081 85.974C106.733 85.9895 107.385 86.0085 108.037 86.031C107.442 86.2162 105.816 86.3663 105.155 86.4739C101.408 87.0859 98.2293 87.1451 94.4799 86.5045C93.508 86.3385 92.3796 86.26 91.3984 86.0303C91.6217 86.0295 92.3656 86.0688 92.4993 85.9451L92.8037 86.0211L92.5224 85.9971C92.6535 86.0045 92.7442 86.0228 92.8653 85.9731C92.6073 85.8997 92.2621 85.8345 92.0482 85.676Z" fill="black"/>
<path d="M96.6709 68.2497C97.2861 68.2092 98.6631 68.4194 99.0215 68.9641C98.3165 69.4838 96.3437 67.7751 95.7543 69.6118C95.9435 70.7945 97.9903 70.6044 98.7186 71.4137C100.1 72.9491 98.6242 73.9591 97.0714 74.0108C96.3779 73.9102 94.9755 73.7517 94.9688 72.8925C95 72.8449 95.0746 72.6951 95.1152 72.6686C95.2827 72.5594 96.6945 73.7102 97.7576 73.4085C98.0117 73.3363 98.1811 73.2275 98.3087 72.9918C98.4324 72.7651 98.519 72.4474 98.4246 72.1979C98.1656 71.5172 96.6278 71.3196 96.0088 71.0221C95.6158 70.8332 95.2596 70.5633 95.1194 70.135C95.0104 69.8024 95.0245 69.3523 95.1985 69.0433C95.4857 68.5335 96.1498 68.3941 96.6709 68.2497Z" fill="black"/>
<path d="M31.5862 79.0393C33.242 79.1715 35.129 79.5245 36.8867 79.6926C39.0268 79.8784 41.1658 80.0778 43.3034 80.2908C43.8482 80.3494 45.621 80.5441 46.1005 80.6861C45.4114 80.7023 44.6935 80.7088 44.0093 80.7651C44.4037 80.8512 46.1153 81.0512 46.2282 81.1577C45.1671 81.3361 41.3914 80.6983 40.0477 80.5849C37.0487 80.3319 33.9723 80.0422 31.0234 79.4635C31.3978 79.3859 31.3768 79.4473 31.626 79.2236L31.5862 79.0393Z" fill="black"/>
<path d="M149.869 68.2476C150.192 68.2269 150.517 68.246 150.836 68.3042C151.228 68.3742 152.033 68.5963 152.267 68.9334C151.493 69.4466 150.558 68.2439 149.259 69.0122C147.676 70.8369 152.588 70.5262 152.475 72.2033C152.372 73.7373 151.564 73.9594 150.293 74.0173C149.577 73.9312 148.293 73.7673 148.371 72.8478C148.403 72.8119 148.436 72.7758 148.469 72.7398C149.189 73.0448 150.074 73.561 150.879 73.4254C151.117 73.3852 151.523 73.1945 151.643 72.9648C151.792 72.678 151.82 72.4946 151.739 72.1863C151.103 71.1403 147.513 71.4864 148.568 68.9778C148.753 68.5395 149.464 68.3482 149.869 68.2476Z" fill="black"/>
<path d="M74.9089 68.145C74.9965 68.1848 75.1036 68.2336 75.2302 68.2911C75.7282 69.7229 74.9682 71.3533 75.7056 72.7802C76.0868 73.5178 77.7556 73.6248 78.1883 73.2184C79.2435 72.2278 78.6823 69.7473 78.8818 68.3919L79.0666 68.2775C79.4363 68.2992 79.3074 68.2466 79.5789 68.4481L79.5682 68.6946C79.5811 69.7836 79.6159 70.7708 79.5232 71.8806C79.3342 74.1395 76.5199 74.8053 75.2568 73.1211C74.5912 72.2336 74.6849 69.2782 74.9089 68.145Z" fill="black"/>
<path d="M124.417 68.2288C124.442 68.2344 124.809 68.3491 124.813 68.357C125.431 69.931 123.992 73.3012 126.62 73.4532C129.493 73.6195 128.016 68.9213 128.629 68.3069C128.948 68.2777 128.824 68.2537 129.103 68.3859L129.124 68.5906C129.136 70.3435 129.231 71.5014 128.734 73.1997C128.58 73.3114 128.424 73.4195 128.264 73.5237C127.632 73.935 126.801 74.1478 126.055 73.9771C125.501 73.8528 125.022 73.5076 124.729 73.0218C124.177 72.1112 124.181 69.1783 124.417 68.2288Z" fill="black"/>
<path d="M104.584 68.0503C106.386 69.114 107.145 71.1525 108.635 72.5916C109.045 72.5553 108.976 72.4965 109.259 72.6814C109.4 73.0569 109.303 73.3779 109.348 73.7849C109.265 73.9052 109.279 73.8701 109.109 73.9302C108.525 73.794 107.878 72.7309 107.491 72.2297C106.724 71.2325 105.942 70.2488 105.141 69.2789C105.137 70.1378 105.269 73.6019 104.827 74.0707L104.718 73.973C104.421 72.877 104.541 69.3291 104.584 68.0503Z" fill="black"/>
<path d="M138.347 82.2316L155.076 80.4919C155.345 80.5039 155.696 80.4805 155.89 80.6308C155.715 80.8369 155.507 80.8814 155.247 80.9778C149.764 81.4658 144.545 81.9424 139.09 82.6475C138.765 82.5973 138.651 82.5869 138.344 82.4617L138.347 82.2316Z" fill="black"/>
<path d="M53.7031 18.6413C56.72 18.195 59.9127 17.963 62.9502 17.6393C63.9144 17.5366 66.7474 17.1067 67.5429 17.1523C67.3523 17.3182 66.2531 17.4502 65.9187 17.521C66.8408 17.5716 67.3869 17.4238 68.3697 17.5151C66.1995 17.9826 62.3325 18.209 60.006 18.49C58.6664 18.6518 55.3183 19.0685 54.1436 19.0917C54.2902 18.9944 54.2815 18.9864 54.3537 18.8331C54.1706 18.6652 53.9895 18.6888 53.7031 18.6413Z" fill="black"/>
<path d="M155.078 80.4919C156.568 80.1466 160.117 79.9389 161.778 79.7816C163.963 79.5749 165.91 79.2783 168.066 79.0061C167.868 79.1115 167.723 79.1877 167.535 79.3146L167.61 79.4142C167.964 79.3921 168.843 79.2994 169.149 79.3109C166.848 79.8771 163.887 80.1248 161.535 80.3562C159.454 80.5609 157.325 80.8145 155.249 80.9777C155.509 80.8814 155.717 80.8368 155.892 80.6308C155.698 80.4804 155.347 80.5039 155.078 80.4919Z" fill="black"/>
<path d="M146.885 18.7812C152.482 19.5042 157.9 19.8711 163.511 20.4121C162.826 20.8779 162.221 20.6621 161.433 20.7226C160.224 20.6457 158.444 20.3347 157.137 20.2073L145.734 19.1696C146.117 18.7747 146.349 18.8155 146.885 18.7812Z" fill="black"/>
<path d="M46.0991 80.686L61.1704 82.2362C61.0089 82.6472 60.79 82.6054 60.3647 82.6663C55.5403 81.9826 51.054 81.6576 46.2267 81.1577C46.1139 81.0512 44.4023 80.8512 44.0078 80.7651C44.692 80.7088 45.41 80.7023 46.0991 80.686Z" fill="black"/>
<path d="M163.515 20.4121C164.583 20.4531 166.252 20.7295 167.376 20.9035C169.103 21.1709 171.684 21.4795 173.366 21.9964C172.901 22.02 172.359 21.9405 172.053 22.3005C169.159 21.7442 166.269 21.3739 163.348 21.0017C162.717 20.9213 162.059 20.8504 161.438 20.7226C162.226 20.662 162.831 20.8779 163.515 20.4121Z" fill="black"/>
<path d="M78.3926 84.0999C81.1564 84.508 83.9304 84.8436 86.7119 85.1063C88.0149 85.236 90.8417 85.4325 92.044 85.676C92.2579 85.8345 92.6031 85.8997 92.861 85.9731C92.74 86.0228 92.6492 86.0045 92.5182 85.9971L92.7995 86.0211L92.4951 85.9451C92.3614 86.0688 91.6175 86.0294 91.3942 86.0303C90.4309 85.9847 87.7155 85.5774 86.5897 85.4439C83.4959 85.0773 80.0926 84.8979 77.0547 84.4777L77.1269 84.3337C77.5538 84.105 77.9132 84.1232 78.3926 84.0999Z" fill="black"/>
<path d="M107.462 85.6426C110.249 85.2501 113.157 85.1277 115.957 84.7656C117.741 84.5348 119.53 84.3126 121.314 84.0862C121.714 84.0993 121.844 84.0254 122.069 84.2344L122.025 84.4916L111.846 85.5482C110.624 85.6799 109.205 85.9337 108.033 86.031C107.382 86.0085 106.73 85.9896 106.078 85.974C106.696 85.8972 106.875 85.8791 107.462 85.6426Z" fill="black"/>
<path d="M131.008 17.522C128.583 17.1641 126.149 16.8779 123.708 16.6635C122.77 16.5737 119.258 16.3812 118.609 15.9716C119.207 15.7508 129.704 16.8817 131.187 17.0623C131.452 17.2236 132.608 17.3787 132.988 17.4419C132.352 17.4667 131.635 17.4775 131.008 17.522Z" fill="black"/>
<path d="M67.546 17.1524C69.2049 16.9315 79.3278 15.7705 80.3716 15.9998C79.9078 16.316 77.716 16.4948 77.0276 16.5406C74.1166 16.7346 71.264 17.1743 68.3728 17.5153C67.3901 17.424 66.8439 17.5717 65.9219 17.5211C66.2563 17.4503 67.3554 17.3184 67.546 17.1524Z" fill="black"/>
<path d="M145.299 68.2851C145.636 68.285 145.813 68.2648 146.125 68.3961C146.213 69.0815 146.104 72.8646 146.11 73.8032C145.896 73.9501 145.775 73.9566 145.53 73.9323C145.221 73.5203 145.314 69.1526 145.299 68.2851Z" fill="black"/>
<path d="M119.745 68.7959C120.077 68.8805 120.19 68.9293 120.516 68.8241C120.497 69.7136 120.657 73.3525 120.33 73.9017C120.064 73.9472 120.127 73.9759 119.913 73.8865C119.606 73.2057 119.738 69.7451 119.745 68.7959Z" fill="black"/>
<path d="M108.635 72.5917L108.64 72.507C108.69 71.4802 108.372 69.1818 108.752 68.4438C109.047 68.231 108.92 68.2795 109.318 68.3059C109.587 68.5932 109.493 73.1289 109.348 73.785C109.303 73.378 109.401 73.057 109.26 72.6814C108.976 72.4966 109.045 72.5554 108.635 72.5917Z" fill="black"/>
<path d="M194.051 33.7515C194.637 34.8375 195.421 37.4281 195.423 38.6149C194.959 39.1629 195.401 39.9467 194.991 40.1545C194.798 37.6843 194.514 36.1785 193.578 33.8532L194.051 33.7515Z" fill="black"/>
<path d="M83.3508 68.8481L84.0074 68.8164C84.0089 69.9289 84.067 72.9298 83.906 73.8515L83.732 73.9726L83.4865 73.9248C83.2928 73.5863 83.3533 69.6062 83.3508 68.8481Z" fill="black"/>
<path d="M48.5365 71.4515C49.1918 71.3646 49.5528 71.3029 50.1309 70.9783C50.3681 71.1793 50.4262 71.2164 50.5703 71.4977C49.748 72.0222 48.5559 71.9415 47.5959 71.9435C47.6158 72.7815 47.6819 73.1158 47.4229 73.9147L47.3 73.9614C46.921 73.4632 47.0043 72.2593 47.0154 71.6156C47.5405 71.5429 48.0084 71.4956 48.5365 71.4515Z" fill="black"/>
<path d="M119.745 68.7959C119.18 68.8008 118.522 68.8222 117.967 68.7835L117.867 68.6297C117.927 68.4216 117.968 68.3086 118.234 68.3123C119.274 68.3273 121.559 68.1452 122.488 68.4688L122.464 68.6138C121.648 68.8588 121.388 68.8131 120.516 68.8241C120.19 68.9293 120.077 68.8804 119.745 68.7959Z" fill="black"/>
<path d="M83.3491 68.8481C82.7063 68.8404 82.0367 68.8849 81.4688 68.5692C82.0014 68.0072 85.833 68.375 86.682 68.5627C85.6355 68.7841 85.0784 68.8208 84.0057 68.8163L83.3491 68.8481Z" fill="black"/>
<path d="M116.418 72.4336C116.601 72.8563 116.907 73.3685 116.871 73.7909L116.748 73.9514C116.171 73.821 116.042 73.2397 115.891 72.7342C116.055 72.5989 116.167 72.6488 116.418 72.4336Z" fill="black"/>
<path d="M194.672 63.2577C194.66 63.0621 194.871 61.7385 194.912 61.4592C194.977 61.9102 194.909 61.9714 195.161 62.2594L195.348 62.3127C195.292 62.8532 195.1 63.7499 194.933 64.2718C194.69 63.7982 195.114 63.6495 194.672 63.2577Z" fill="black"/>
</g>
<defs>
<clipPath id="clip0_2735_747">
<rect width="199.418" height="91" fill="white"/>
</clipPath>
</defs>
</svg>
