<svg width="668" height="118" viewBox="0 0 668 118" fill="none" xmlns="http://www.w3.org/2000/svg">
<g clip-path="url(#clip0_1591_76)">
<path d="M33.3545 37.4697C42.0928 29.6891 49.9591 42.3969 54.1621 48.7558L54.9531 49.9355C56.9508 52.8601 57.9022 54.4051 59.5176 57.5448C59.8488 52.693 59.9254 49.1845 59.877 44.6894L59.8496 42.6952L59.9395 35.9316L73.0801 35.9706C73.0931 46.6645 73.192 57.3597 73.377 68.0546C85.089 68.0496 106.528 67.4253 117.6 68.4003C114.85 72.0251 112.043 75.6047 109.182 79.1396C93.3196 79.1596 75.2141 79.5951 59.5186 79.0351C53.3731 69.3251 45.9464 60.0247 39.5264 50.3447C35.5979 56.2846 31.5777 62.1597 27.4668 67.9697C33.5732 68.0547 39.6802 68.0855 45.7871 68.0605C48.5615 71.6453 51.247 75.2947 53.8398 79.0146C38.6853 79.6696 19.1591 79.2904 3.76465 78.9804C9.43709 70.9655 15.0351 62.8952 20.5586 54.7753C24.0216 49.7153 29.0195 41.3302 33.3545 37.4697Z" fill="white"/>
<path d="M576.925 29.5842C580.82 29.2947 587.529 29.143 591.019 31.1409C600.064 36.3224 598.894 56.6851 595.164 65.05C593.764 68.1897 590.029 69.5693 586.969 70.4143C567.489 72.4193 564.779 64.8497 565.344 46.8147C565.639 37.5143 567.315 31.8902 576.925 29.5842ZM579.825 37.5208C575.465 40.2273 575.265 45.566 575.33 50.3C575.42 56.6649 575.625 62.6595 583.224 62.5696C585.149 61.4796 586.394 60.3397 586.719 58.0647C587.729 51.0748 590.094 37.5346 579.825 37.5208Z" fill="white"/>
<path d="M234.733 29.6989C246.108 29.3139 260.424 27.9982 258.081 43.9967C257.55 47.6251 254.826 49.3698 252.174 51.4547C252.629 53.6497 254.937 52.8402 255.711 55.11C257.28 59.725 258.36 65.2051 259.448 69.9801C256.605 70.0901 251.78 70.5794 249.342 69.5446L248.743 67.8747C246.505 59.2898 249.161 54.7399 238.765 54.9899L238.724 70.0055L229.076 70.0397C229.056 58.2297 228.571 42.0661 229.245 30.6032C230.372 29.7403 233.167 29.8053 234.733 29.6989ZM241.531 37.5055L238.726 37.5202L238.723 47.0954C241.744 47.0954 244.436 47.26 247.344 46.4401C248.149 43.9286 248.814 41.9183 247.74 39.4293C245.618 37.2912 244.478 37.5085 241.531 37.5055Z" fill="white"/>
<path d="M327.27 29.7028C340.265 28.5223 353.41 28.7405 350.42 45.7058C349.925 48.5147 346.745 49.995 344.54 51.3649C345.235 51.9099 347.88 54.0604 348.13 54.7204C349.75 58.9854 351.105 65.535 352.18 69.9899C349.56 70.01 344.595 70.655 342.23 69.6101C341.61 69.335 341.71 68.7751 341.51 67.8854C339.2 59.2305 341.925 54.7601 331.46 54.9851L331.45 70.0104L321.84 70.03L321.8 45.1823C321.795 41.2263 321.555 34.1419 322.13 30.4665C323.415 29.8181 325.72 29.8133 327.27 29.7028ZM340.085 39.0026C337.6 36.9211 334.71 37.4501 331.455 37.5251L331.47 47.0905C334.935 47.0855 336.9 47.1557 340.25 46.3308C340.87 43.3063 341.54 41.7056 340.085 39.0026Z" fill="white"/>
<path d="M464.44 30.1258L473.495 30.1513L473.525 53.5748C473.55 57.8698 473.75 63.0248 473.245 67.2848C473.05 68.9498 472.31 69.2498 471.205 69.9848C468.745 70.0298 466.105 69.9798 463.625 69.9698C460.275 65.4548 453.035 49.5848 450.53 44.0018L450.555 70.0098L441.48 70.0148C441.445 58.9998 441 43.6468 441.865 32.3948C441.97 31.0658 443.19 30.6183 444.115 30.2063C446.665 30.1343 448.71 29.8413 451.075 30.7088C454.575 33.6868 462.145 51.0048 464.525 56.2898C464.33 47.6598 464.435 38.7758 464.44 30.1258Z" fill="white"/>
<path d="M140.988 30.1731C145.284 30.1326 148.775 30.0123 153.062 30.6048C154.567 34.2577 156.148 40.9326 157.208 44.9446L163.807 69.9895L153.754 70.0296C153.355 67.9894 152.337 61.9852 151.366 60.555L140.438 60.5393C139.842 63.8043 139.119 66.7899 138.343 70.0149L128.384 70.01L134.768 45.8382C135.91 41.5338 137.022 36.8851 138.498 32.6927C139.142 30.8657 139.611 30.7931 140.988 30.1731ZM146.011 37.7864C144.918 40.8438 142.939 48.9291 142.669 52.1595C143.888 52.9394 145.238 52.8102 146.738 52.8802C148.333 52.6652 148.748 52.9349 149.465 52.0149C149.22 49.41 147.324 39.7502 146.011 37.7864Z" fill="white"/>
<path d="M513.99 30.2172C518.17 30.0787 522.145 30.0046 526.28 30.6391C527.78 34.1391 529.675 41.9256 530.705 45.8286L537.03 69.9848L526.98 70.0395C526.36 66.9146 525.6 63.6644 524.915 60.5395L513.79 60.5249L511.61 70.0297L501.645 70.0249L508.075 45.4799C509.095 41.6079 510.735 32.2207 513.99 30.2172ZM519.07 37.8276C518.46 39.9396 515.83 50.4405 515.855 52.2055C517.72 52.8953 518.425 52.7705 520.46 52.7905L522.19 52.5004C523.095 50.3255 520.68 39.3068 519.07 37.8276Z" fill="white"/>
<path d="M303.984 29.4789C307.583 29.4399 314.024 29.8578 316.574 32.6938C320.44 36.9941 320.53 49.7243 316.18 53.7045C312.697 56.8944 304.936 56.135 300.49 55.935L300.488 69.9945L290.531 70.0248C290.512 59.0648 289.944 41.017 290.731 30.602C291.869 29.7287 294.702 29.8079 296.287 29.7074C298.852 29.602 301.418 29.5254 303.984 29.4789ZM308.505 47.7904C311.794 38.7941 308.724 37.2782 300.493 37.5336V48.3852C303.46 48.3352 305.559 48.3754 308.505 47.7904Z" fill="white"/>
<path d="M390.92 29.61C398.085 29.11 401.66 29.4846 408.56 30.9711C408.475 33.3686 408.27 35.8371 408.11 38.2381C403.89 38.1426 394.345 37.2626 391.52 39.8111L391.63 40.7786C396.055 46.8301 407.92 46.69 409.29 54.675C410.755 63.22 409.815 68.19 401.325 70.435C394.225 71.06 389.41 70.6201 382.515 69.2001C382.595 66.6851 382.84 63.96 383.015 61.435C386.34 61.45 400.44 63.115 400.34 58.615C396.785 53.505 383.815 52.7201 382.525 45.2091C381.015 36.3651 382.34 31.7015 390.92 29.61Z" fill="white"/>
<path d="M637.465 29.6125C644.695 29.1165 648.245 29.5045 655.205 31.036C655.05 33.4285 654.76 35.865 654.505 38.2535C651.275 38.1815 640.115 37.4235 638.19 39.4795C638.695 44.853 652.19 47.35 655.195 52.18C657.075 55.195 656.125 61.775 655.675 65.165C653.285 68.775 651.76 69.41 647.735 70.435C640.25 70.99 636.335 70.6 628.97 69.25L629.55 61.425C632.625 61.515 647.02 62.845 647.02 58.79C643.005 52.505 621.89 52.415 629.93 33.763C631.06 31.143 635.09 30.1095 637.465 29.6125Z" fill="white"/>
<path d="M267.914 30.1445C274.343 29.7505 281.137 30.15 287.567 30.5645L287.296 38.3865L271.542 38.5505L271.378 45.825L285.276 45.809L285.311 53.18L271.345 53.275C271.33 56.28 271.257 58.515 271.726 61.515C276.035 61.975 282.77 61.805 287.265 61.825L287.585 69.645C282.292 70.2 273.362 70.745 268.209 69.93C264.835 69.395 263.658 67.87 261.868 65.205C261.232 59.635 260.564 39.275 262.847 33.9335C263.781 31.746 265.78 30.8605 267.914 30.1445Z" fill="white"/>
<path d="M360.37 30.1271C366.76 29.7561 374.065 30.2091 380.465 30.5716C380.16 33.1336 380.065 35.8526 379.925 38.4391C375.375 38.4936 367.86 37.0346 364.675 39.8806C363.645 41.5926 363.97 43.6826 364.01 45.7506C368.615 45.8121 373.34 45.7566 377.955 45.7576L377.945 53.1851L364 53.2301C363.97 56.3951 363.985 58.2351 364.3 61.4101C369.195 62.0401 374.92 61.8151 379.915 61.7701C379.93 64.4651 380.245 66.8001 380.56 69.4601C374.995 70.4051 364.795 70.6651 359.325 69.7351C353.605 67.9951 353.865 56.0451 354.15 51.5801C354.665 43.5316 351.71 33.6306 360.37 30.1271Z" fill="white"/>
<path d="M418.35 30.1319C424.79 29.7394 432.105 30.1939 438.555 30.5674C438.51 33.1214 438.245 35.8629 438.055 38.4254C432.9 38.4239 427.75 38.4604 422.595 38.5344C422.265 41.0159 422.265 43.3059 422.2 45.8009L436.08 45.8164L436.015 53.1399C431.45 53.2349 426.77 53.1999 422.195 53.2149C422.145 56.0749 422.325 58.6349 422.505 61.4699C426.855 61.9899 433.55 61.8199 438.09 61.8349L438.575 69.6449C433.09 70.1349 425.105 70.7199 419.75 70.0549C416.01 69.5899 414.65 68.0549 412.685 65.1299C412.16 58.3149 411.66 41.0134 413.495 34.4169C414.105 32.2399 416.39 31.0089 418.35 30.1319Z" fill="white"/>
<path d="M606.85 30.1316C613.27 29.7636 620.42 30.2001 626.84 30.5621C626.64 33.0701 626.565 35.9161 626.44 38.4551C621.18 38.4016 615.925 38.4356 610.665 38.5566C610.515 40.8436 610.525 43.4756 610.48 45.7951L624.49 45.8296L624.48 53.1401C619.865 53.2351 615.12 53.2001 610.495 53.2251C610.47 55.5101 610.19 59.5951 611.11 61.5501C615.765 61.9151 621.675 61.7801 626.43 61.8001C626.535 64.3501 626.71 66.9701 626.855 69.5201C621.06 70.4001 611.235 70.7251 605.575 69.5201C600.175 68.3701 600.29 55.7151 600.595 51.2851C601.125 43.5621 598.235 33.8266 606.85 30.1316Z" fill="white"/>
<path d="M549.02 29.6042C554.595 29.1992 558.325 29.5232 563.675 30.8002C563.525 33.4312 563.255 36.1377 563.03 38.7707C560.14 38.7982 554.37 38.2117 551.85 38.6427C545.045 39.8067 546.035 54.4452 548.035 58.7102C550.82 64.6552 557.445 59.6302 562.995 61.5652C564.535 63.2102 564.03 62.9902 564.25 65.8802C564.36 66.3002 564.445 67.8202 564.49 68.3402C561.695 71.9502 547.245 71.3452 543.315 68.5502C534.33 62.1552 534.72 43.8697 539.66 35.0982C541.715 31.4517 545.295 30.2777 549.02 29.6042Z" fill="white"/>
<path d="M201.857 29.6146C208.408 29.2941 210.684 29.4486 217.104 30.7656C217.033 33.4431 216.764 36.1041 216.535 38.7741C213.395 38.8066 209.371 38.2371 206.528 38.4796C198.737 39.1446 199.888 50.3301 200.401 55.2351C201.594 66.6351 212.75 58.62 217.317 61.975L217.41 63.8801C217.646 65.6001 218.569 69.0601 216.198 69.5751C210.448 70.9651 202.351 71.8851 197.028 68.8101C187.816 63.4851 188.422 44.1346 192.72 35.7906C194.702 31.9456 197.842 30.5926 201.857 29.6146Z" fill="white"/>
<path d="M116.333 74.4849L116.702 75.0099C114.643 83.2449 108.044 92.9949 101.818 98.6999C78.3211 120.24 43.7325 118.48 22.097 95.1599C20.9035 93.8399 20.613 93.6149 19.8315 91.9549C24.102 95.4799 25.7236 97.7299 30.6991 100.91C41.9616 108.075 55.5985 110.5 68.6405 107.66C84.65 104.1 94.3981 95.4249 102.901 81.9549L110.436 81.9849C112.147 80.1199 114.707 76.5949 116.333 74.4849Z" fill="white"/>
<path d="M475.49 30.1585C485.685 30.126 495.885 30.1484 506.085 30.2254L506 38.5125L495.585 38.5035V58.875L495.555 70.02L485.86 70.03L485.88 38.527L475.385 38.5029L475.49 30.1585Z" fill="white"/>
<path d="M97.4296 36.131C104.67 35.655 113.827 35.92 121.099 36.0265C119.251 38.7745 116.641 44.0525 115.003 47.13C105.306 47.17 99.0676 44.4325 94.1716 54.26C93.5726 57.835 94.3031 60.96 94.8916 64.505L82.3286 64.455C80.5791 51.725 83.0746 39.1725 97.4296 36.131Z" fill="white"/>
<path d="M164.777 30.1392L174.517 30.1912C174.489 35.3997 173.938 56.6451 175.19 60.4851C177.502 61.9101 186.237 61.4602 189.366 61.4402C189.49 64.4552 189.606 66.6402 189.382 69.6502C184.82 70.1252 179.903 70.2902 175.315 70.3952C162.809 70.6902 164.659 59.6252 164.68 50.9702C164.658 44.0277 164.691 37.0832 164.777 30.1392Z" fill="white"/>
<path d="M59.8871 2.70404C62.1056 2.33254 74.4046 2.03304 75.9201 3.15604C71.3041 4.01204 60.1816 2.27652 54.7096 3.78302C50.4301 4.96152 41.7376 8.36154 37.5656 10.3485C35.6166 11.2765 30.9191 16.6365 28.2936 17.21C49.5 -2.00015 76.3881 2.50454 75.9201 3.15604C76.4481 4.55704 60.54 5.96296 62 6.99996C65.2255 5.89346 42.9661 14.1745 47.2641 12.794C49.6726 12.0205 60.8451 5.17555 62.4231 9.01905C52.6786 10.209 43.1171 15.2115 36.1071 22.062C26.8441 30.069 25.5686 37.8045 21.0856 48.385C19.5001 52.125 13.0791 61.335 10.3271 64.56C9.3496 48.735 12.2811 35.3035 22.5056 22.7205C31.7906 11.321 45.2526 4.11254 59.8871 2.70404Z" fill="white"/>
<path d="M16.1396 81.9749L27.5966 81.8149C40.3896 99.3249 63.1801 107.43 83.2751 97.5049L84.7151 97.835C81.7231 99.2 78.4357 101.59 75.3882 102.695C51.7527 111.26 29.4446 102.35 16.1396 81.9749Z" fill="white"/>
<path d="M45.6953 17.6215C70.5338 4.1115 96.8393 8.90752 112.636 33.195C108.849 33.256 105.054 33.36 101.271 33.2005C88.0943 16.1705 66.4543 8.71202 46.4678 18.54L45.6953 17.6215Z" fill="white"/>
<path d="M574.38 17.4048C576.955 17.4933 579.38 17.9838 581.76 18.9713C586.32 20.8618 585.73 18.8833 589.605 17.4643L590.475 17.9883C591.495 21.6808 590.595 23.9818 588.22 26.7193C583.625 26.6393 581.445 25.1233 577.13 24.2903C577.315 24.3258 574.015 26.4018 572.725 26.6208C569.89 24.5253 572.635 19.4983 574.38 17.4048Z" fill="white"/>
<path d="M554.215 88.3602C553.95 90.0602 553.985 93.6352 553.945 95.4852C553.15 96.7052 553.685 96.2553 552.14 96.6353C549.58 94.1153 551.925 89.2203 550.725 85.6503C548.88 85.4153 547.84 85.5003 545.965 85.5753L545.525 85.0253C545.645 82.6103 545.225 83.5902 546.465 81.8552C548.05 81.3102 549.185 81.1202 550.275 79.8702C550.39 77.6752 548.76 78.2553 547.475 75.0253L547.955 74.0853C550.255 73.1053 552.935 73.1002 555.33 73.7502C559.27 77.3352 553.89 81.1702 554.935 84.9102L554.215 88.3602Z" fill="white"/>
<path d="M262.772 83.2401C264.74 83.2401 267.121 82.9603 268.676 84.3602C272.295 87.6252 271.309 93.0958 268.326 96.4208C265.921 96.5657 262.945 96.4708 260.492 96.4608C260.5 93.3658 259.844 86.5852 260.964 83.8202C261.2 83.2354 261.896 83.3601 262.772 83.2401ZM263.759 85.6454C263.658 88.3001 263.303 90.9399 264.17 93.3798C265.421 94.4148 264.728 93.9953 266.581 94.2303C267.233 91.0753 267.959 89.3752 266.604 86.6102C265.427 85.6654 265.313 85.8154 263.759 85.6454Z" fill="white"/>
<path d="M334.89 83.4748C341.655 83.2298 340.455 86.7898 341.505 92.6748L341.69 91.3349C342.05 88.7549 342.07 84.9748 343.945 83.5548C346.155 83.4648 346.175 83.0698 347.565 84.0748C348.81 86.8748 349.21 94.4948 346.875 96.5548L346.015 96.0498C345.15 93.9748 345.42 91.5299 345.445 89.2049C345.335 87.8049 345.615 87.9099 344.97 87.1499C344.415 89.2149 343.25 94.7998 340.875 94.9698C338.55 92.5248 338.33 88.6948 337.825 85.3798C337.695 87.8498 337.835 95.1798 335.565 96.3598C333.71 93.6798 334.6 86.8348 334.89 83.4748Z" fill="white"/>
<path d="M602.88 82.9297C603.6 82.9497 604.32 82.9907 605.035 83.0557C611.23 83.6558 612.065 92.9648 607.04 96.5898C601.355 96.8798 598.555 94.7148 599.215 88.3398C599.49 85.7201 600.66 84.3246 602.88 82.9297ZM603.401 85.5898C602.786 88.6548 602.111 90.4102 603.441 93.2402C604.435 94.0748 604.35 94.06 605.595 94.3799C607.03 90.7049 608.085 86.7149 603.401 85.5898Z" fill="white"/>
<path d="M308.671 83.1251C314.598 82.9352 317.151 85.7704 316.204 92.0753C315.867 94.3253 314.934 95.4754 313.005 96.6554C310.15 96.7104 308.222 96.9706 306.494 94.2658C304.113 90.5358 304.873 85.6401 308.671 83.1251ZM309.76 85.7052C308.715 88.3551 308.436 90.1802 309.336 92.88C310.611 94.22 309.875 93.7653 311.613 94.3253C312.895 91.7004 313.782 88.4053 311.506 86.0753L309.76 85.7052Z" fill="white"/>
<path d="M280.844 83.0645C281.542 83.0795 282.239 83.1197 282.934 83.1797C288.814 83.7397 289.766 93.31 284.377 96.665C280.809 96.73 278.536 96.7598 277.125 92.7148C275.82 88.9798 276.843 84.6245 280.844 83.0645ZM281.309 85.6748C280.253 88.3948 279.859 90.0698 280.854 92.7998C282.343 94.2048 281.494 93.7649 283.496 94.1699C284.267 90.9699 284.844 89.6947 283.722 86.7197C282.724 85.7548 282.717 85.8747 281.309 85.6748Z" fill="white"/>
<path d="M405.265 83.0693C414.495 83.1193 414.295 93.765 408.615 96.75C406.92 96.705 406.395 96.6343 404.705 96.3594C400.03 93.3294 399.755 85.5293 405.265 83.0693ZM405.815 85.6748C404.63 88.7897 403.59 93.065 407.624 94.3301C409.044 91.0851 410.175 86.7498 405.815 85.6748Z" fill="white"/>
<path d="M167.244 83.085C172.963 83.185 175.407 85.5049 174.62 91.7949C174.344 93.9949 173.397 95.3154 171.556 96.5654C165.44 96.8604 162.844 94.15 163.884 87.6553C164.255 85.3353 165.284 84.3199 167.244 83.085ZM167.808 85.6299C167.383 89.0449 165.874 93.6952 170.498 94.1152C171.134 91.1304 171.745 89.5951 170.613 86.8604C169.078 85.5704 169.947 86.0348 167.808 85.6299Z" fill="white"/>
<path d="M446.86 83.4053C457.11 82.8204 458.195 85.3951 456.045 95.335C452.97 96.9699 450.294 96.5503 446.814 96.4903L446.86 83.4053ZM449.98 85.6699C449.905 88.1949 449.435 91.5302 450.575 93.5752C451.855 94.0652 451.816 93.9551 453.186 93.6651C453.491 91.2852 454.035 89.2452 453.23 87.0703C451.831 85.6404 452.33 86.0899 449.98 85.6699Z" fill="white"/>
<path d="M645.8 83.0303C651.57 83.3403 653.525 86.1905 652.485 92.1855C652.085 94.4654 651.18 95.4807 649.231 96.6807C642.406 96.7857 640.396 92.5604 642.436 86.0205C642.981 84.2656 644.12 83.6902 645.8 83.0303ZM645.905 85.6348C645.38 88.4797 644.66 90.5697 645.885 93.1396C647.385 94.2046 646.565 93.8799 648.48 94.0498C649.155 91.0998 649.705 89.4996 648.55 86.7646C647.455 85.7198 647.44 85.8547 645.905 85.6348Z" fill="white"/>
<path d="M467.365 83.0449C473.085 83.3849 474.665 86.3651 473.8 92.165C473.45 94.5297 472.68 95.4447 470.641 96.6846C466.941 96.7196 464.715 96.7197 463.41 92.4697C462.215 88.5898 463.14 84.4749 467.365 83.0449ZM467.345 85.6152C466.285 89.1302 465.005 93.0802 469.57 94.2402C470.71 91.7204 471.57 88.2005 469.226 86.1055L467.345 85.6152Z" fill="white"/>
<path d="M149.457 83.2001C152.484 83.1851 155.343 82.6951 157.109 85.3501C157.296 88.4151 155.685 89.2051 156.63 91.8051C157.161 93.2651 157.658 94.3952 157.503 95.9652C156.04 96.7902 156.842 96.6151 154.964 96.2251L154.562 95.2702C154.044 93.2602 154.01 92.3452 152.315 91.2702C151.007 92.5652 151.631 94.9502 149.837 97.0302C146.984 96.6052 147.925 86.2451 148.17 83.7951L149.457 83.2001Z" fill="white"/>
<path d="M419.905 83.1951C422.64 83.1551 425.625 83.0351 428.005 84.4051C428.595 86.09 427.565 87.8302 426.98 90.1151C427.715 92.2149 428.71 94.3652 428.205 96.3651C426.93 96.79 426.715 96.5194 425.37 96.0994C424.92 93.7647 424.91 93.4645 423.86 91.3846L423.165 91.4451C422.28 93.2099 421.65 94.6545 420.885 96.4793L420.1 96.3895C418.395 94.1838 418.07 84.9752 419.905 83.1951ZM421.5 88.4998H424.5C425.301 87.9344 426.721 86.6227 426 85.9012C425.278 85.1798 422.699 84.9998 421.5 84.9998V88.4998Z" fill="white"/>
<path d="M250.509 91.7699C250.403 88.5349 249.989 86.6549 251.409 83.7599L252.138 83.6999C254.277 86.6599 253.772 93.2749 253.122 96.7449C252.086 96.6049 251.56 96.4849 250.546 96.2549C248.365 94.1349 247.292 90.9499 246.037 88.0999C246.079 91.2449 246.406 94.3999 244.694 97.1099C242.364 94.4049 242.968 86.8549 243.091 83.2549C246.212 83.4199 246.887 84.1399 248.23 86.9849L250.509 91.7699Z" fill="white"/>
<path d="M133.142 83.1705C137.263 83.1105 140.876 82.9302 142.037 87.7848C141.455 91.6647 138.761 91.8048 135.536 91.9948C135.556 93.9598 135.878 96.0004 133.831 96.8004C131.596 95.1104 131.226 85.1213 133.142 83.1705ZM134.501 89.5006H138.001C138.834 89.3339 140.4 88.7001 140.001 87.5006C139.501 86.0007 138 85.0007 134.501 85.0006V89.5006Z" fill="white"/>
<path d="M522.46 83.25C528.865 84.015 523.48 90.295 526.66 93.86L527.99 93.88C530.77 91.09 528.18 86.435 529.6 83.68C531.245 83.195 530.44 83.185 532.1 83.785L532.425 84.885C532.47 87.1 532.945 94.255 531.19 95.245C520.39 101.335 522.34 87.42 522.46 83.25Z" fill="white"/>
<path d="M215.211 83.0951C217.325 83.1151 218.216 82.9602 220.114 83.7452C220.597 85.0302 220.535 84.3902 220.127 85.7002C218.236 86.4102 217.288 86.6652 215.313 87.1102C213.621 88.9002 214.142 91.6902 215.678 93.3402C217.367 93.6052 216.675 93.8152 217.89 92.9602L218.121 89.4952C219.392 88.5752 218.658 88.8202 220.489 89.0752L221.051 89.9602C221.027 92.0652 221.41 93.6652 220.847 95.6102C217.459 96.1102 212.964 97.7552 211.542 93.5502C210.224 89.6602 211.042 84.6451 215.211 83.0951Z" fill="white"/>
<path d="M494.67 83.1148C497 83.1698 499.68 82.6599 500.505 85.0249C499.64 86.0649 497.47 85.8748 495.285 86.5398L495.31 87.2398C498.24 89.4248 500.87 90.0998 501.05 93.8098C500.215 95.6098 500.235 95.5098 498.665 96.5348C496.525 96.6048 493.58 97.0848 492.045 95.5098L492.14 94.0899C493.515 93.1599 494.92 93.5548 497.04 93.3648L497.36 92.8198C494.64 90.7698 491.055 89.0098 491.67 85.3348C492.915 83.7898 492.825 83.8548 494.67 83.1148Z" fill="white"/>
<path d="M229.996 96.4898L228.823 95.8748C227.215 93.5598 226.726 84.8948 229.802 83.5948C231.453 82.8998 235.545 82.7698 236.543 85.0048C234.806 87.5148 233.843 84.8648 230.865 86.9898C230.621 89.1348 234.08 87.5198 235.737 89.7248C234.53 91.5348 234.447 90.4948 231.218 91.3398L230.898 92.2398L231.488 93.4048C233.186 93.5698 234.883 93.7498 236.579 93.9398L236.265 95.6798C234.283 96.9348 232.557 96.5298 229.996 96.4898Z" fill="white"/>
<path d="M229.997 96.4899C230.083 96.0599 230.444 95.0549 230.595 94.5949C231.773 93.8699 234.989 94.0449 236.58 93.9399L236.265 95.6799C234.284 96.9349 232.557 96.5299 229.997 96.4899Z" fill="white"/>
<path d="M197.481 83.515C199.624 83.395 203.421 83.01 205.216 84.2L205.123 84.1149C204.317 86.9799 200.924 85.475 199.587 87.52L200.114 88.3049C201.591 88.5349 202.586 88.6349 204.082 88.7449L204.441 89.34C201.863 92.165 201.107 89.83 199.193 92.84C201.737 94.22 203.706 92.5649 205.131 94.9249C202.905 99.1999 191.944 96.565 197.481 83.515Z" fill="white"/>
<path d="M569.15 83.5101C571.465 83.3551 576.145 82.6801 577.25 84.8851C576.06 85.8751 573.905 85.5752 571.655 87.0252L571.62 87.9201L572.445 88.4901C574.135 88.4851 574.56 88.4152 576.23 88.9052L576.39 89.6051C574.065 91.5201 572.635 90.3301 571 92.2351C573.41 95.0351 574.73 92.4451 576.765 94.4701L576.48 95.5302C575.08 96.5152 574.11 96.7551 572.42 96.5801C566.46 95.9601 567.995 87.2901 569.15 83.5101Z" fill="white"/>
<path d="M357.49 96.4148C354.095 94.8498 354.27 85.8498 357.07 83.7348C358.11 82.9448 363.095 83.4199 364.51 84.0049C363.035 85.2749 360.425 86.1699 358.55 86.9449L358.29 87.6449C359.27 88.3799 361.445 88.1099 363.315 89.5749L362.945 90.4748C361.26 91.1498 359.12 91.0448 358.05 92.2348L358.58 93.0498C359.565 93.6448 362.605 93.8148 363.975 94.0448C363.05 97.4148 360.73 96.5148 357.49 96.4148Z" fill="white"/>
<path d="M363.975 94.0449C363.05 97.4149 360.73 96.5149 357.49 96.4149L357.925 94.8549C359.625 93.7599 361.68 94.0949 363.975 94.0449Z" fill="white"/>
<path d="M508.045 83.5148C509.89 83.3948 514.14 83.0148 515.515 84.0548L515.655 85.3048C513.73 87.3448 512.21 84.2598 510.31 87.5848C510.985 88.4148 513.11 88.4998 514.71 88.9248L515.035 89.7798C513.98 91.2848 513.295 90.3448 510.705 91.5498L510.055 93.3498C512.795 93.6698 513.4 93.2398 515.37 94.7148L515.43 95.6248C512.355 98.1098 507.245 96.1848 507.005 92.1598C506.855 89.7148 507.305 85.8398 508.045 83.5148Z" fill="white"/>
<path d="M620.785 83.1001C622.605 83.1701 623.24 83.3451 624.97 83.7301L625.365 84.6451C621.445 86.3651 618.365 87.7351 620.08 92.6701C622.375 94.6801 623.7 91.7901 626.09 95.2501C620.635 100.885 613.235 91.9651 617.055 85.7401C618.415 83.5251 618.535 83.8601 620.785 83.1001Z" fill="white"/>
<path d="M589.49 95.6303C588.56 96.4603 587.955 96.4303 586.71 96.6853C581.84 95.3453 582.08 86.5753 585.365 83.8153C588.07 83.0003 589.65 83.0552 592.3 83.9852C592.085 85.3952 586.705 86.7353 586.405 89.0153C585.875 93.0603 587.24 93.2503 589.615 94.1253L589.49 95.6303Z" fill="white"/>
<path d="M180.049 83.635C182.347 83.455 188.7 82.92 190.313 84.12L190.413 85.25C189.364 86.405 189.411 86.025 187.347 86.225C186.605 87.76 186.912 91.705 186.94 93.625L186.838 95.485C185.565 96.805 186.293 96.49 184.76 96.795C182.825 95.04 183.939 92.395 183.867 89.985C183.749 86.035 183.956 86.555 180.693 85.83L180.049 83.635Z" fill="white"/>
<path d="M370.505 83.3052C372.33 83.4502 372.145 83.1352 373.325 84.1102C374.44 87.3152 372.505 91.5052 374.51 93.4702C378.3 93.3602 377.97 92.8902 378.875 96.1902C377.76 96.3202 376.645 96.4152 375.525 96.4802C368.345 96.8102 370.42 88.5352 370.505 83.3052Z" fill="white"/>
<path d="M387.83 88.3752C394.04 87.6702 389.695 85.8202 393.095 83.4302L394.33 83.7352C395.05 86.8352 395.475 93.4802 393.945 96.2752C392.37 96.3652 393.045 96.5752 391.82 95.7652C391.44 93.4602 391.84 92.6802 390.73 91.0702C389.46 90.8102 389.155 90.7602 387.86 90.7052L387.83 88.3752Z" fill="white"/>
<path d="M557.895 90.6548L558.335 90.5298C558.53 88.1798 558.12 85.4447 559.015 83.7897L560.05 83.3447C562.54 85.4547 561.785 93.0198 560.725 95.9448L559.92 96.6848C557.61 96.2748 557.05 94.5397 556.16 92.5447L557.595 92.1697L557.895 90.6548Z" fill="white"/>
<path d="M631.98 83.3052L634.22 83.5902C635.875 85.4352 635.14 93.8102 635.125 96.6452L632.965 96.3652C631.13 93.9902 631.95 86.6052 631.98 83.3052Z" fill="white"/>
<path d="M387.86 90.7052C388.06 92.8552 388.51 94.8202 387.255 96.3802L385.61 96.3152L385.07 95.5052C384.655 92.8552 384.78 86.1152 385.5 83.7102L386.25 83.3052L387.4 84.0252C388.405 86.0902 388.04 85.7052 387.83 88.3752L387.86 90.7052Z" fill="white"/>
<path d="M589.615 94.125C589.885 91.53 589.52 91.13 590.925 89.175L591.91 89.125C593.7 91.26 593.595 93.68 592.185 96.02C590.51 96.32 591.37 96.3 589.49 95.63L589.615 94.125Z" fill="white"/>
<path d="M554.935 84.9102C555.96 86.8152 557.01 88.6802 557.895 90.6552L557.595 92.1702L556.16 92.5452L554.215 88.3602L554.935 84.9102Z" fill="white"/>
<path d="M46.4679 18.5401C44.5284 19.6746 43.1419 20.4386 41.1089 21.3871C41.4554 21.0746 41.5959 20.7361 41.8544 20.3106L41.6404 20.4286L45.6954 17.6216L46.4679 18.5401Z" fill="white"/>
<path d="M83.2749 97.505C84.8054 96.38 85.9939 95.24 87.8439 95L87.8154 95.56C86.6984 96.45 85.9649 97.13 84.7149 97.835L83.2749 97.505Z" fill="white"/>
</g>
<defs>
<clipPath id="clip0_1591_76">
<rect width="668" height="118" fill="white"/>
</clipPath>
</defs>
</svg>
