<svg width="895" height="625" viewBox="0 0 895 625" fill="none" xmlns="http://www.w3.org/2000/svg">
<path fill-rule="evenodd" clip-rule="evenodd" d="M356.493 27.2929C362.829 18.72 375.95 17.2671 384.378 24.0419C389.796 28.3976 391.022 34.472 391.551 41.0869C411.789 57.8825 426.627 77.2432 432.083 103.735L471.277 103.634C478.139 76.9019 490.55 58.4142 511.784 41.3603C513.838 28.5584 516.989 20.977 531.607 19.8027C546.911 20.2655 555.612 35.0869 548.764 48.4433C546.386 53.0725 542.226 56.5333 537.244 58.0283C530.58 60.0485 525.559 58.2588 519.856 55.1259C504.049 68.3477 492.884 83.5357 487.788 103.834C502.681 103.628 515.049 102.47 527.337 112.308C536.073 119.299 540.584 129.674 546.081 139.2L566.629 174.916C571.62 183.756 576.681 192.557 581.807 201.318C591.119 217.309 600.047 230.508 592.693 249.917C590.127 256.688 585.613 263.459 581.968 269.777L564.046 300.865L545.142 333.882C542.03 339.316 536.877 348.961 533.189 353.436C525.808 362.398 514.878 367.703 503.223 367.753C498.071 367.775 490.319 367.367 485.525 367.93L484.868 368.01C481.818 370.662 475.779 378.605 472.951 381.993C464.487 392.139 456.332 402.798 447.592 412.725C438.646 403.326 429.459 390.254 420.763 380.336C417.116 376.176 414.172 371.836 410.091 367.916C401.982 367.296 394.448 368.714 386.057 366.31C370.969 361.986 365.18 353.177 357.943 340.546L325.41 283.954C317.714 270.623 305.596 253.563 304.053 238.392C302.784 225.911 309.452 215.347 315.417 204.943L329.739 180.023L350.305 144.305C354.257 137.409 359.01 128.597 363.281 122.041C365.104 119.266 367.175 116.663 369.471 114.265C373.759 109.734 383.782 105.074 389.938 104.326C398.169 103.326 407.528 103.692 415.894 103.572C410.285 84.789 399.852 67.0133 383.709 55.4609C376.043 59.0793 368.446 60.649 360.902 55.4687C356.665 52.5556 353.779 48.061 352.894 42.997C351.883 37.4902 353.186 31.8099 356.493 27.2929ZM377.794 303.278C381.409 309.569 386.445 319.441 391.402 324.326C394.649 327.493 398.65 329.78 403.027 330.969C405.273 331.584 407.578 331.955 409.903 332.077C431.809 333.29 455.322 331.392 477.361 332.247C497.861 333.042 505.893 330.005 515.971 312.161C521.359 302.807 530.559 287.879 535.121 278.46C519.647 278.119 503.787 278.425 488.265 278.338C446.718 278.104 404.965 278.742 363.433 278.282L377.794 303.278ZM477.92 203.311C477.964 220.677 477.615 239.349 478.109 256.575C501.331 256.159 524.642 256.633 547.847 256.402C548.764 254.992 549.734 253.55 550.612 252.124C560.546 232.229 550.612 220.602 540.465 203.477C526.302 203.33 512.138 203.302 497.975 203.394C492.495 203.398 483.208 203.665 477.92 203.311ZM358.649 203.234C346.087 222.567 337.393 235.12 351.109 256.555C364.278 256.447 377.449 256.405 390.618 256.431L403.525 256.505C403.835 238.949 403.137 220.891 403.627 203.475C388.793 203.107 373.552 203.349 358.649 203.234ZM445.219 140.721C435.695 140.857 421.177 140.141 412.366 140.868C393.246 142.104 388.445 150.254 379.819 166.101C377.057 171.173 373.88 176.518 371.086 181.65L487.486 181.619C499.889 181.624 515.612 182.055 527.748 181.388C524.589 175.778 521.398 170.187 518.182 164.612C510.823 151.778 505.688 141.749 488.675 141.006C474.219 140.375 459.688 140.93 445.219 140.721Z" fill="white"/>
<path fill-rule="evenodd" clip-rule="evenodd" d="M26.9896 454.565C33.8904 454.263 39.2764 452.69 43.6683 458.926C44.2716 470.114 42.8866 481.707 44.3685 492.689C45.2792 499.436 61.5027 497.68 66.7415 497.675L103.348 497.659C108.623 497.654 128.295 495.727 129.179 502.195C129.906 507.522 129.725 515.672 129.709 521.332L129.679 554.094L129.657 584.204C129.654 588.919 130.516 598.914 128.272 603.38C127.732 604.455 126.498 604.459 125.383 604.617L57.5589 604.639C50.6152 604.648 30.4881 605.137 24.5345 604.311C22.168 602.76 22.0367 599.5 22.0042 596.921C21.8944 588.181 21.9372 579.405 21.9398 570.669L21.93 522.847C21.9203 504.519 21.3673 477.744 22.5892 458.835C22.697 457.165 25.5159 455.382 26.9896 454.565ZM94.7894 519.526C79.818 520.129 63.6431 518.748 48.8167 519.674C46.8904 520.658 45.2357 521.637 44.474 523.778C43.1099 527.61 43.2105 576.952 44.6097 580.026C45.2163 581.354 46.5141 582.788 47.9134 583.282C51.8247 584.663 95.1037 584.147 102.893 583.771C104.174 583.181 107.202 581.398 107.235 579.899C107.458 569.672 109.863 528.524 106.299 521.401C103.442 519.596 98.173 519.39 94.7894 519.526Z" fill="white"/>
<path fill-rule="evenodd" clip-rule="evenodd" d="M327.708 497.654C341.907 497.65 356.528 496.915 370.684 497.785C373.025 497.929 375.328 497.859 376.951 499.786C378.126 501.18 378.702 502.837 378.933 504.629C379.609 509.886 378.915 515.969 378.931 521.318C378.963 532.252 379.759 543.798 378.856 554.662C378.612 557.608 377.964 560.501 375.043 561.873C371.017 563.756 322.153 562.913 313.521 562.869C308.964 562.847 303.824 562.091 299.345 562.821C297.877 563.057 296.478 563.577 295.371 564.596C293.057 566.728 292.986 570.01 292.975 572.925C292.963 575.861 292.68 579.689 295.028 581.852C298.849 585.366 313.779 583.955 319.236 583.907L353.393 583.876C359.747 583.867 366.014 583.689 372.384 584.174C378.234 584.62 379.114 589.427 379.171 594.487C379.203 597.354 378.991 601.898 376.797 604.005C376.294 604.486 374.549 604.56 373.903 604.577C355.369 604.686 335.367 604.752 316.999 604.66C309.546 604.625 277.644 605.185 272.656 603.791C271.77 601.575 271.16 597.791 271.145 595.348C270.972 568.987 271.155 542.618 271.049 516.258C271.03 511.639 270.787 506.503 271.755 502.019C272.204 499.939 274.298 498.716 276.022 497.829C293.156 497.073 310.549 497.659 327.708 497.654ZM339.133 519.526C325.438 519.793 311.829 519.125 298.396 519.671C296.439 520.492 294.738 521.201 293.811 523.237C292.29 526.572 292.612 533.703 294.011 536.985C294.599 538.366 295.384 539.42 296.824 539.992C300.538 541.478 345.065 540.783 351.98 540.455C353.524 539.747 356.284 538.449 356.58 536.588C359.38 518.985 354.253 519.229 339.133 519.526Z" fill="white"/>
<path fill-rule="evenodd" clip-rule="evenodd" d="M151.439 497.794C161.858 497.593 247.422 496.884 250.181 498.23C251.8 499.021 253.131 500.586 253.662 502.304C255.407 507.937 254.231 527.339 254.245 534.205C254.258 540.834 254.883 547.932 254.227 554.509C254.006 556.72 253.594 558.569 252.544 560.535C248.413 564 228.988 562.847 222.766 562.843C206.199 562.777 189.63 562.795 173.063 562.895C168.806 565.592 168.762 566.767 168.335 571.373C167.279 582.735 172.074 584.672 182.412 584.02C185.39 583.833 190.464 583.928 193.814 583.906L229.422 583.915C234.259 583.915 248.586 582.871 252.232 585.943C255.254 588.491 255.178 600.971 252.083 604.127C248.317 605.316 155.006 605.149 148.126 603.852C146.134 598.559 146.765 583.112 146.761 576.779L146.755 541.617C146.756 530.058 146.33 513.753 147.304 502.015C147.459 500.149 149.827 498.65 151.439 497.794ZM228.127 520.177C223.796 518.927 180.338 519.238 173.464 519.666C166.584 523.529 167.959 529.726 168.794 536.679C169.882 538.064 171.433 540.349 173.38 540.424C188.148 541.001 203.014 540.384 217.806 540.59C220.981 540.633 224.333 540.664 227.494 540.563C229.602 539.458 231.27 538.331 232.047 535.967C233.234 532.361 233.2 526.435 231.428 523.101C230.715 521.755 229.62 520.609 228.127 520.177Z" fill="white"/>
<path fill-rule="evenodd" clip-rule="evenodd" d="M538.778 497.701C566.909 498.134 595.428 497.016 623.519 497.815C625.84 499.257 626.343 499.839 627.898 502.067C629.013 531.032 627.238 561.064 628.003 590.134C628.103 593.853 628.174 601.086 626.094 604.031C621.938 604.958 602.797 604.634 597.565 604.639L537.433 604.625C533.77 604.686 525.428 605.184 522.364 603.943C518.484 598.895 521.324 557.866 520.45 549.252C519.318 538.064 532.957 540.633 540.159 540.646L579.22 540.721C585.81 540.734 592.238 540.843 598.828 540.507C608.42 540.022 606.415 531.098 606.104 523.983C604.841 522.126 603.132 519.797 600.733 519.731C577.279 519.111 553.702 519.714 530.222 519.604C518.134 519.543 520.236 511.192 520.559 502.155C522.137 499.8 522.705 499.205 525.126 497.802C529.509 497.601 534.364 497.636 538.778 497.701ZM574.128 562.76C565.711 562.773 555.831 562.524 547.497 562.931C545.565 563.722 543.673 564.543 542.821 566.597C541.462 569.874 541.409 576.478 542.786 579.703C543.393 581.128 544.455 582.622 545.945 583.203C549.974 584.776 593.679 584.091 601.166 583.815C603.757 582.601 604.518 581.805 606.117 579.419C606.432 572.628 608.088 567.09 601.765 562.982C593.086 562.545 582.907 562.747 574.128 562.76Z" fill="white"/>
<path fill-rule="evenodd" clip-rule="evenodd" d="M774.651 497.789C789.536 497.251 806.833 497.667 821.862 497.667C838.346 497.662 856.661 497.273 873.022 497.819C879.071 501.372 877.817 507.067 877.664 513.347C877.314 527.471 877.913 541.604 877.463 555.715C877.353 559.149 875.557 561.719 872.097 562.375C864.095 563.14 855.533 562.816 847.479 562.811L796.183 562.82C790.896 566.727 790.944 570.944 791.813 577.469C792.25 580.755 793.679 581.983 796.384 583.758C802.869 584.155 810.827 583.95 817.431 583.937C825.087 583.933 870.724 582.945 874.286 584.868C875.789 585.681 876.834 586.778 877.258 588.469C878.018 591.515 878.254 600.246 876.488 602.79C875.85 603.707 875.378 604.148 874.246 604.323C870.051 604.974 865.327 604.603 861.066 604.607H837.59L796.349 604.598C792.202 604.594 773.659 605.136 771.478 603.65C769.958 600.639 769.954 593.909 770.028 590.474C770.657 561.269 769.084 531.285 770.185 502.154C771.588 499.821 772.375 499.192 774.651 497.789ZM855.655 535.001C858.343 516.817 849.419 519.316 835.39 519.465C822.674 519.605 809.109 518.98 796.458 519.627C794.596 520.772 792.314 522.24 792.065 524.56C791.532 529.049 790.274 539.532 796.85 540.275C802.038 540.861 808.384 540.917 813.681 540.738C825.969 540.314 839.333 541.311 851.495 540.507C853.772 538.973 855.24 537.828 855.655 535.001Z" fill="white"/>
<path d="M649.727 497.811C681.424 496.679 714.226 498.37 746.005 497.745C751.529 497.636 752.962 501.84 753.01 506.647C753.15 521.772 753.098 536.919 753.093 552.053L753.054 582.792C753.05 585.593 754.348 603.922 750.126 604.28C746.792 604.56 735.958 605.329 733.323 603.856C730.718 600.452 731.177 594.045 731.177 589.876C731.195 569.376 731.317 548.871 731.243 528.375C731.094 526.059 731.138 522.957 729.136 521.379C725.474 518.49 718.98 519.465 714.488 519.64C711.564 521.68 710.271 522.629 709.917 526.348C709.467 531.116 709.672 535.997 709.676 540.787L709.72 566.116L709.79 587.372C709.799 590.873 710.515 601.566 707.679 603.821C706.324 604.901 690.409 605.783 689.412 602.716C687.406 596.532 688.132 589.566 688.154 582.971L688.219 545.616C688.223 539.379 688.263 533.279 688.044 527.043C687.703 517.42 678.386 519.364 671.359 519.631C670.031 520.518 667.662 522.166 667.312 523.748C666.325 528.183 666.701 535.062 666.709 539.694L666.784 579.331C666.797 584.816 667.863 599.818 664.668 603.747C661.028 605.255 653.07 604.678 648.958 604.442C646.935 604.328 646.9 603.904 645.829 602.554C644.614 596.038 645.025 583.426 645.02 576.198L645.029 533.047C645.034 523.542 644.789 512.328 645.291 502.758C645.405 500.538 647.957 498.877 649.727 497.811Z" fill="white"/>
<path d="M400.516 497.785C407.598 497.501 415.875 497.702 423.038 497.702L466.148 497.741L486.779 497.649C490.607 497.627 494.938 497.453 498.727 497.977C500.803 498.266 502.17 500.564 503.285 502.186C504.845 522.528 500.064 519.609 482.068 519.574L443.344 519.504C437.379 519.491 430.8 518.906 424.904 519.631C423.117 519.85 420.955 520.348 419.531 521.515C417.88 522.869 417.583 525.566 417.405 527.545C416.813 534.14 417.497 541.246 417.466 547.91C417.429 555.82 416.535 569.184 417.5 576.6C417.743 578.466 418.142 580.266 419.443 581.7C421.163 583.592 423.062 583.789 425.475 583.898C431.498 584.16 476.867 584.667 478.939 582.722C481.181 580.62 481.701 578.339 481.771 575.341C481.841 572.147 482.326 567.423 479.865 565.015C475.98 561.226 460.541 562.742 455.043 562.79C451.595 562.83 447.273 563.332 443.934 562.493C442.086 562.03 440.63 561.143 439.686 559.438C438.139 556.642 438.419 548.548 439.276 545.511C439.682 544.056 440.547 542.251 441.985 541.591C445.001 540.21 496.861 540.005 499.5 541.233C501.034 541.949 502.454 543.413 502.944 545.048C504.054 548.732 503.997 592.935 503.473 598.555C503.35 599.893 503.11 601.492 502.385 602.659C501.76 603.66 501.152 604.18 499.981 604.389C496.376 605.049 492.01 604.621 488.339 604.621L464.203 604.608L425.726 604.612C420.294 604.639 401.108 605.587 397.146 603.144C396.252 601.68 395.866 597.979 395.852 596.174C395.657 571.609 395.835 547.036 395.784 522.472C395.77 515.729 395.636 508.833 396.046 502.116C397.458 499.865 398.307 499.166 400.516 497.785Z" fill="white"/>
</svg>
