<svg width="927" height="247" viewBox="0 0 927 247" fill="none" xmlns="http://www.w3.org/2000/svg">
<path d="M209.487 0C211.561 1.22238 215.889 16.2 216.894 19.2428L261.538 154.537C267.151 171.554 273.5 192.738 279.819 209.254C282.974 198.686 287.218 186.853 290.76 176.269L312.377 111.653C324.421 75.5826 336.479 37.9107 342.37 0.298465L357.011 0.345941C337.435 57.2453 318.269 114.285 299.514 171.459C291.536 195.464 283.576 220.429 275.211 244.217L274.608 244.887C273.343 244.228 273.148 243.505 272.606 241.855C265.051 218.862 257.4 195.781 249.816 172.794L204.394 35.3405C201.94 41.4408 199.406 49.7528 197.265 56.1479L152.008 191.151C145.929 209.275 139.819 228.492 133.321 246.337C132.092 243.41 130.883 239.803 129.79 236.771L182.601 79.6394C191.255 53.8565 200.208 25.3415 209.487 0Z" fill="white"/>
<path d="M0 0.302155L18.6115 0.303217L101.21 213.874C104.679 205.964 108.325 195.786 111.493 187.601L130.15 139.413C147.377 94.9261 167.584 46.7553 176.845 0.31268L191.818 0.320082L182.358 23.4104C162.189 73.4521 142.791 125.016 123.297 175.378L106.238 219.416C102.964 227.859 99.3421 237.921 95.5821 246.031C85.0273 221.663 73.9589 190.887 64.2331 165.801L0 0.302155Z" fill="white"/>
<path fill-rule="evenodd" clip-rule="evenodd" d="M886.076 26.8627C907.328 26.0318 925.284 42.4867 926.301 63.7338C927.319 84.9805 911.024 103.079 889.788 104.287C868.283 105.51 849.905 88.9616 848.877 67.4477C847.843 45.9332 864.55 27.7044 886.076 26.8627ZM902.766 98.8022C932.55 79.765 922.24 24.9757 882.104 28.8891C840.666 38.6021 849.515 107.714 893.158 102.293C896.396 101.492 899.966 100.595 902.766 98.8022Z" fill="white"/>
<path fill-rule="evenodd" clip-rule="evenodd" d="M585.257 128.312C600.845 128.212 623.705 125.675 636.045 136.448C651.913 150.312 650.832 177.671 637.427 192.948C623.189 206.243 603.988 203.364 585.262 203.295L585.257 128.312ZM629.206 136.65C618.433 127.869 603.725 130 590.732 129.884L590.668 200.674C604.595 202.441 621.929 203.722 632.544 192.806C645.327 177.692 645.084 149.596 629.206 136.65Z" fill="white"/>
<path d="M51.2488 0.312185L69.5187 0.310608C82.4602 41.7435 97.5085 84.9751 111.233 126.277L104.315 144.206L101.521 151.32C95.3923 134.171 89.5841 115.682 83.8192 98.3433L51.2488 0.312185Z" fill="white"/>
<path d="M768.778 28.1069C780.322 28.06 800.028 26.5011 807.67 35.7739C819.16 49.7095 806.699 62.7792 794.075 67.8981C802.096 77.2226 810.944 87.1319 818.691 96.5819L818.733 104.94L800.234 83.3245C796.78 79.264 790.478 70.6277 785.716 69.1522L788.917 67.5907C792.988 66.4606 796.806 65.2118 799.897 62.1601C803.662 58.4059 805.766 53.3018 805.745 47.9851C805.829 29.3867 787.451 29.7116 774.241 29.7538C774.109 40.0602 774.901 57.7879 774.02 67.2047L774.146 69.429C774.236 77.0138 774.268 84.6007 774.241 92.1839C774.257 96.4132 775.86 101.961 771.061 103.538C770.35 103.369 769.806 103.48 769.458 102.762C767.76 99.2872 768.794 37.3143 768.778 28.1069Z" fill="white"/>
<path d="M774.02 67.2047C779.251 67.5274 783.654 67.8665 788.917 67.5907L785.716 69.1522C783.765 69.5371 776.546 69.4221 774.146 69.429L774.02 67.2047Z" fill="white"/>
<path fill-rule="evenodd" clip-rule="evenodd" d="M716.935 128.249C731.163 128.238 759.45 125.644 759.925 147.038C760.167 157.964 751.524 164.251 742.232 167.984C749.974 177.735 759.239 187.222 766.727 196.782L766.68 205.004L747.521 182.597C744.294 178.826 738.34 170.626 733.826 169.36C732.307 169.635 730.05 169.524 728.432 169.508C726.723 169.518 723.933 169.281 722.599 170.109C721.164 176.591 723.442 193.154 722.15 200.537C721.86 202.193 721.181 202.626 720.057 203.406C718.149 203.348 718.933 203.69 717.589 202.414C715.954 198.208 716.925 138.322 716.935 128.249ZM722.324 129.899C722.314 136.934 721.78 160.844 722.582 166.798C723.916 167.647 725.994 167.694 727.703 167.921C730.54 167.889 733.915 167.937 736.694 167.763C740.871 166.782 743.359 166.017 746.787 163.117C751.106 159.494 753.69 154.21 753.906 148.578C754.75 129.916 735.376 129.884 722.324 129.899Z" fill="white"/>
<path d="M727.703 167.921C730.54 167.889 733.915 167.937 736.694 167.763L733.826 169.36C732.307 169.635 730.05 169.524 728.432 169.508C726.675 169.223 724.924 168.923 723.173 168.607C724.022 168.042 726.469 168.026 727.703 167.921Z" fill="white"/>
<path fill-rule="evenodd" clip-rule="evenodd" d="M728.389 27.0355C729.844 28.8406 737.159 48.2257 738.467 51.7093C744.769 68.5118 752.019 85.6291 758.026 102.483C756.718 103.4 754.292 103.153 752.547 103.163C749.467 94.8315 746.15 86.4415 742.954 78.1439L710.734 78.1888C708.445 84.5694 706.457 90.6863 704.748 97.2357C704.11 99.6877 703.414 102.525 701.078 103.638C699.681 103.01 700.276 103.485 699.527 101.861C699.528 99.0217 724.945 35.5016 728.389 27.0355ZM726.664 37.0062C721.517 50.0655 716.445 63.1539 711.445 76.2718L727.36 76.2816L742.237 76.2474C739.885 70.1656 729.016 40.0837 726.664 37.0062Z" fill="white"/>
<path d="M710.997 77.0228C715.094 76.9827 740.207 76.3773 741.899 77.5543C738.335 77.5691 712.057 78.0495 710.997 77.0228Z" fill="white"/>
<path fill-rule="evenodd" clip-rule="evenodd" d="M578.291 27.056C579.847 28.6891 606.262 97.0138 607.712 102.23L607.158 102.979C605.45 103.169 605.26 103.28 603.546 102.91C600.508 99.9943 594.739 83.0612 592.867 78.1673L579.436 78.1536C573.202 78.1051 566.969 78.1281 560.736 78.222C557.372 86.2939 555.789 94.3565 552.963 102.535C552.683 102.709 552.404 102.889 552.119 103.063C550.084 102.978 550.252 103.342 549.182 102.256C549.114 100.593 575.074 34.9679 578.291 27.056ZM576.805 36.6771C572.001 47.2857 565.619 64.9751 561.479 76.2454L563.305 76.345C572.633 76.0961 582.8 76.2882 592.197 76.2776L576.805 36.6771Z" fill="white"/>
<path d="M561.479 76.2454L563.305 76.345C568.293 77.945 589.133 76.139 592.266 77.277C590.599 77.7843 562.56 77.8101 561.042 77.288L561.479 76.2454Z" fill="white"/>
<path fill-rule="evenodd" clip-rule="evenodd" d="M499.274 181.764C500.903 185.993 506.498 198.781 507.195 202.362C505.95 203.617 503.667 203.406 502.053 202.884C498.652 196.224 495.277 185.508 492.234 178.299L480.959 178.315C474.025 178.352 467.086 178.32 460.149 178.225C457.251 185.492 455.027 195.374 452.141 202.704C451.75 202.973 451.36 203.242 450.969 203.511C449.151 203.258 449.841 203.675 448.762 202.32C448.588 200.5 454.672 186.557 455.845 183.52L474.225 136.07L477.921 126.461L499.274 181.764ZM475.976 137.478C471.088 148.394 465.034 165.242 460.711 176.728C465.335 176.011 485.88 176.438 491.517 176.453C489.692 171.565 478.028 140.164 475.976 137.478Z" fill="white"/>
<path d="M474.225 136.07L475.976 137.478C471.088 148.394 465.034 165.242 460.711 176.728C466.493 177.667 483.385 176.833 491.19 177.329C488.801 177.677 481.893 177.761 480.959 178.315C474.025 178.352 467.086 178.32 460.149 178.225C457.251 185.492 455.027 195.374 452.141 202.704C451.75 202.973 451.36 203.242 450.969 203.511C449.151 203.258 449.841 203.675 448.762 202.32C448.588 200.5 454.672 186.557 455.845 183.52L474.225 136.07Z" fill="white"/>
<path d="M621.733 28.1C624.154 28.0046 624.84 27.8881 627.16 28.3911C628.752 30.4942 633.994 42.9231 635.434 46.1942C641.678 60.5781 648.022 74.9171 654.471 89.2097C657.915 81.136 677.242 30.3307 680.184 28.4038C681.693 28.3342 682.589 28.1707 684.023 28.6727C685.468 33.673 691.438 100.758 690.747 102.504C690.467 103.216 689.93 103.211 689.276 103.474C687.667 103.295 685.405 102.478 685.299 100.611C685.02 95.5114 684.588 90.4279 684.113 85.3443L679.515 36.5591C679.462 35.6468 679.42 35.7966 679.082 34.907C677.463 36.5897 655.816 91.4667 652.71 98.6386C649.878 93.17 646.519 84.896 643.977 79.1295C637.638 64.4783 631.157 49.8883 624.534 35.3605C622.735 54.9466 620.473 74.6576 619.745 94.3038C619.645 97.046 619.967 101.982 617.441 103.569C616.297 102.594 616.054 101.608 615.949 100.136C615.622 95.5905 617.093 90.3435 617.615 85.7767C618.633 76.9104 623.737 34.0722 621.908 28.591C621.855 28.4259 621.791 28.264 621.733 28.1Z" fill="white"/>
<path d="M426.77 193.154C433.775 172.351 441.418 151.563 446.067 130.105C446.351 128.797 448.666 127.437 450.292 128.428C450.431 130.627 448.445 135.41 447.609 137.694C439.894 159.52 433.034 183.752 424.967 205.009C417.73 183.198 410.666 161.039 403.154 139.349L381.06 205.02C372.206 179.944 363.983 153.651 355.456 128.328C357.686 128.238 359.005 127.98 361.047 128.718C362.657 131.692 366.691 144.765 368.008 148.757C372.834 163.623 377.783 178.447 382.855 193.228C385.24 187.322 388.226 177.418 390.331 171.138L404.946 127.727C412.577 149.253 419.047 171.655 426.77 193.154Z" fill="white"/>
<path d="M565.271 192.653C565.281 172.625 565.767 152 564.464 132.125C564.343 130.258 564.079 129.457 565.028 128.423C566.436 128.302 566.679 128.107 567.902 128.708C568.467 130.211 567.723 138.812 567.639 141.137C567.122 155.676 567.391 170.22 567.322 184.743C567.301 188.793 567.67 200.959 567.09 204.033L566.489 204.06L520.536 136.56C520.452 153.709 520.51 170.858 520.705 188.002C520.774 191.351 521.981 200.896 520.974 203.095C519.497 203.358 519.598 203.39 518.174 202.937C517.372 201.708 518.342 187.232 518.395 184.522C518.611 167.515 518.643 150.503 518.49 133.496C517.462 131.845 516.128 129.979 515.02 128.344L521.501 128.275C536.325 149.026 550.437 171.628 565.271 192.653Z" fill="white"/>
<path d="M525.53 94.5728C531.763 78.3617 538.055 62.1564 544.167 45.8973C545.754 41.677 547.937 30.4825 549.514 28.321C551.27 28.1274 551.18 28.0636 552.847 28.5873L553.184 29.4421C552.567 31.339 551.787 32.9574 550.964 34.7709C541.704 57.6677 533.224 82.1169 523.627 104.661C513.786 80.3909 502.97 52.6088 493.979 28.0889C495.962 28.0504 497.792 27.8279 499.606 28.5831C501.156 31.3833 502.069 34.1486 503.234 37.1113C510.775 56.1927 517.726 75.6026 525.53 94.5728Z" fill="white"/>
<path d="M778.149 203.306L778.154 153.493C778.154 146.326 778.08 138.864 778.017 131.671C778.001 129.968 779.035 129.093 780.158 128.196C782.115 127.948 781.25 127.764 782.89 128.592C784.456 132.51 783.512 190.987 783.596 200.421C784.693 201.761 784.641 201.323 787.014 201.608C790.974 201.281 808.018 199.709 811.008 199.994L811.451 200.511C810.238 203.68 806.947 203.427 803.878 203.459C799.185 203.511 794.407 203.322 789.708 203.206C786.428 203.406 781.55 203.279 778.149 203.306Z" fill="white"/>
<path d="M787.014 201.608C790.974 201.281 808.018 199.709 811.008 199.994L811.451 200.511C810.238 203.68 806.947 203.427 803.878 203.459C799.185 203.511 794.407 203.322 789.708 203.206C788.601 202.378 782.969 202.573 781.118 202.531C783.523 201.676 783.976 202.204 786.196 201.776L787.014 201.608Z" fill="white"/>
<path d="M902.191 168.359C900.461 172.878 902.249 194.605 901.637 200.606C901.495 201.987 900.081 202.984 898.979 203.638C897.213 203.685 897.867 204.018 896.775 203.053C893.521 193.613 898.462 179.354 895.446 169.893C892.825 161.661 872.575 133.174 873.16 128.776C877.242 125.148 880.723 132.837 882.484 135.843C888.601 146.284 894.175 157.11 900.588 167.367L902.191 168.359Z" fill="white"/>
<path d="M823 203.316L822.968 152.465C822.968 147.66 822.63 132.679 823.284 128.718C824.629 128.017 826.401 128.259 827.999 128.286L828.848 129.931C827.951 131.977 828.189 159.394 828.642 162.753C830.388 163.544 831.985 163.349 833.931 163.354C832.281 163.634 830.646 163.961 829.017 164.335C830.625 164.535 832.914 164.746 834.448 165.073C832.507 165.068 830.398 164.878 828.647 165.601C828.173 168.643 828.157 197.758 828.637 200.938C830.672 201.613 831.189 201.497 833.393 201.471C831.759 201.682 830.129 201.94 828.505 202.23L828.763 202.552C830.883 202.647 835.07 202.684 836.953 203.2L823 203.316Z" fill="white"/>
<path d="M830.013 28.148C831.928 28.0847 833.647 27.7636 835.244 28.6706C835.819 31.9259 835.55 47.7341 835.55 51.7055L835.519 103.068C833.599 103.142 832.007 103.437 830.33 102.609C829.723 99.8409 829.987 83.836 829.987 80.219L830.013 28.148Z" fill="white"/>
<path fill-rule="evenodd" clip-rule="evenodd" d="M721.765 218.625C728.066 217.886 733.762 222.427 734.443 228.739C735.128 235.046 730.535 240.699 724.223 241.327C717.984 241.944 712.415 237.424 711.74 231.191C711.066 224.963 715.542 219.353 721.765 218.625ZM731.041 227.263C729.554 222.871 724.782 220.514 720.39 222.006C715.997 223.493 713.645 228.26 715.132 232.647C716.619 237.04 721.381 239.398 725.774 237.916C730.172 236.429 732.528 231.661 731.041 227.263Z" fill="white"/>
<path d="M666.484 203.243C664.533 203.364 664.232 203.432 662.255 202.989C661.474 201.639 661.395 134.419 661.928 128.792C663.204 127.985 664.67 128.286 666.263 128.349C666.542 128.629 667.349 129.409 667.549 129.694C666.785 132.895 667.011 157.643 667.238 162.178L667.76 162.98C669.732 163.391 669.98 163.391 672.021 163.417C670.402 163.592 668.984 163.76 667.375 164.019C667.433 164.82 667.37 164.62 667.486 164.857C666.732 167.663 666.679 200.511 667.934 201.576L666.273 202.077C666.342 202.467 666.415 202.852 666.484 203.243Z" fill="white"/>
<path fill-rule="evenodd" clip-rule="evenodd" d="M638.956 219.11C644.778 219.005 650.531 218.367 655.715 221.673C661.859 225.591 660.925 232.009 657.176 237.372C651.481 241.992 646.244 240.916 638.961 240.805L638.956 219.11ZM642.115 238.121C646.946 238.19 650.827 238.748 654.772 235.595C661.474 223.972 651.38 221.742 642.12 221.747L642.115 238.121Z" fill="white"/>
<path fill-rule="evenodd" clip-rule="evenodd" d="M611.07 219.147C613.074 220.607 621.489 238.941 620.958 240.583L619.888 240.853C615.796 238.691 618.748 235.748 612.795 235.421L604.621 235.452C603.498 238.163 603.281 240.193 600.286 241.016L600.117 240.742C600.091 236.559 606.783 223.482 608.966 218.852L611.07 219.147ZM610.195 222.691C609.188 224.921 606.409 229.836 606.583 231.871C608.086 233.411 609.589 232.968 611.74 232.9L613.776 232.763C615.121 230.68 611.498 224.747 610.195 222.691Z" fill="white"/>
<path d="M795.762 219.005L798.22 219.263C800.851 221.594 806.441 235.764 808.324 239.93L807.944 240.684L806.873 240.847C802.76 238.395 805.629 235.822 800.002 235.416L791.58 235.421C790.362 238.343 790.225 240.911 786.882 240.684L786.539 239.961C787.646 236.038 793.732 223.493 795.762 219.005Z" fill="white"/>
<path d="M796.938 223.081C798.826 224.537 801.568 230.2 800.867 232.7L798.947 232.895C796.532 232.942 795.251 233.343 793.679 231.972C793.352 229.81 795.852 225.491 796.938 223.081Z" fill="white"/>
<path d="M892.261 218.926C893.115 219.01 893.88 219.126 894.724 219.253C897.223 221.62 903.013 236.122 904.722 240.167L904.211 240.789L903.14 240.81C899.285 238.095 901.637 235.669 896.506 235.416L887.884 235.442C887.125 237.372 886.566 239.482 885.026 240.768C883.386 240.758 883.971 241.09 883.011 240.178C883.892 236.223 890.246 223.282 892.261 218.926Z" fill="white"/>
<path d="M893.458 223.086C895.135 224.637 898.209 230.39 897.36 232.658L895.451 232.885C894.766 232.916 894.08 232.937 893.389 232.958C891.291 232.99 891.248 233.053 890.141 231.962C889.851 230.369 890.088 230.121 890.763 228.718L893.458 223.086Z" fill="white"/>
<path d="M834.432 218.757C837.807 218.915 840.898 219.653 843.519 221.947L843.35 222.759L841.641 223.445C818.992 216.822 825.399 242.287 838.751 237.583C840.513 236.523 841.093 235.711 842.875 236.966L842.643 238.132C838.946 241.944 833.515 242.081 829.043 239.492C826.665 238.095 824.94 235.801 824.26 233.122C822.277 225.396 827.139 220.218 834.432 218.757Z" fill="white"/>
<path d="M762.26 218.746C766.215 219.121 767.781 219.39 771.056 221.668L771.061 222.622L769.379 223.503L768.815 223.355L767.876 223.123C764.659 222.301 757.509 220.909 755.779 224.753C752.256 232.584 758.004 240.6 766.574 237.604C768.24 236.481 768.899 235.532 770.444 237.061L770.059 238.321C764.301 244.254 753.48 240.573 751.829 232.452C751.181 229.293 751.892 226.008 753.786 223.398C756.09 220.207 758.616 219.416 762.26 218.746Z" fill="white"/>
<path d="M685.843 236.824C688.052 231.598 690.678 225.085 693.368 219.98C693.879 219.015 694.897 219.11 695.762 219.068L696.326 219.885L695.577 221.942C693.806 225.929 689.07 239.909 685.094 240.52C682.262 238.886 676.435 223.202 674.594 218.92L677.231 219.226C679.889 221.615 684.018 232.827 685.843 236.824Z" fill="white"/>
<path d="M900.588 167.367C906.278 157.453 912.205 147.502 917.13 137.198C917.99 135.41 920.511 129.203 921.84 128.465C923.459 128.328 923.627 128.091 924.977 128.702C924.555 130.791 904.385 165.047 902.191 168.359L900.588 167.367Z" fill="white"/>
<path d="M667.934 201.576C672.29 201.418 704.279 199.635 704.938 199.952C704.548 202.077 704.996 201.165 703.514 202.768C701.225 203.685 670.882 203.332 666.484 203.243C666.415 202.852 666.342 202.467 666.273 202.077L667.934 201.576Z" fill="white"/>
<path d="M833.393 201.471C845.016 201.196 854.329 200.579 865.836 199.662C866.057 200.949 865.519 201.697 864.96 202.905C862.956 203.633 840.143 203.39 836.953 203.2C835.07 202.684 830.883 202.647 828.763 202.552L828.505 202.23C830.129 201.94 831.759 201.682 833.393 201.471Z" fill="white"/>
<path d="M827.999 128.286C833.008 128.281 861.49 127.653 863.758 129.23L864.259 130.242C862.445 133.285 854.746 130.975 851.413 130.691C843.872 130.047 836.347 130.332 828.848 129.931L827.999 128.286Z" fill="white"/>
<path d="M666.263 128.349C671.299 128.328 700.123 127.569 702.676 129.246L703.061 130.342C700.719 133.021 692.999 131.065 689.408 130.638C682.578 129.831 674.014 130.844 667.549 129.694C667.349 129.409 666.542 128.629 666.263 128.349Z" fill="white"/>
<path d="M734.875 4.07266L743.903 4.12384C740.386 7.87484 735.772 12.1131 732.027 15.746L726.016 21.5415C728.394 15.7396 731.885 9.64563 734.875 4.07266Z" fill="white"/>
<path d="M862.049 218.92C863.858 219.068 863.732 218.82 865.055 219.717C865.598 224.426 865.266 235.822 865.245 241.053C863.389 240.884 863.626 241.143 862.234 240.199C861.685 235.495 862.023 224.146 862.049 218.92Z" fill="white"/>
<path d="M672.021 163.417C674.98 163.243 694.554 162.495 695.741 163.217C695.957 164.968 696.205 164.235 695.361 165.569C691.042 165.954 672.78 165.253 667.486 164.857C667.37 164.62 667.433 164.82 667.375 164.019C668.984 163.76 670.402 163.592 672.021 163.417Z" fill="white"/>
<path d="M833.931 163.354C838.667 163.233 853.596 162.178 857.092 164.124C855.637 166.634 838.097 165.179 834.448 165.073C832.914 164.746 830.625 164.535 829.017 164.335C830.646 163.961 832.281 163.634 833.931 163.354Z" fill="white"/>
</svg>
