<svg width="729" height="210" viewBox="0 0 729 210" fill="none" xmlns="http://www.w3.org/2000/svg">
<path d="M354.705 92.3883C355.096 90.0142 355.926 87.3722 356.908 85.1774C360.702 76.7184 368.319 69.0821 377.036 65.7825C383.341 63.3959 390.24 62.2069 396.94 61.5824C406.911 60.6526 445.13 61.0631 453.54 64.9339C466.616 70.9533 471.2 75.6059 476.168 88.9351C476.343 93.0064 476.467 97.08 476.545 101.155C476.197 104.303 476.279 116.876 476.456 120.297C476.392 121.294 475.624 123.712 475.279 124.77C471.929 135.065 464.735 138.797 457.441 145.326C454.255 145.16 451.399 146.876 448.348 147.612C435.048 150.821 420.471 148.503 407.086 149.254C382.772 150.618 361.883 145.137 354.822 119.429C353.939 110.439 353.899 101.386 354.705 92.3883ZM463.409 119.257C463.981 117.986 464.124 116.617 464.337 115.239C464.757 110.742 464.892 106.224 464.739 101.71C464.412 93.7064 462.182 88.297 456.254 82.8282C446.19 73.5387 430.222 74.6576 417.48 74.753C411.197 74.9162 404.571 74.5602 398.32 74.8717C385.99 75.486 374.34 79.4151 368.878 91.4657C365.812 98.2242 366.637 107.757 367.025 115.21C367.47 117.956 365.946 118.316 368.531 119.587C369.763 120.842 369.977 121.694 370.691 122.858C380.752 139.247 400.649 136.249 417.029 136.437C430.453 136.59 444.429 137.784 455.692 129.246C459.18 126.563 460.955 122.796 463.409 119.257ZM465.795 113.743C465.621 111.494 466.271 112.701 466.556 111.041C467.57 105.168 466.183 100.816 465.151 95.2166C465.151 97.3279 465.045 114.889 465.311 115.327L465.795 113.743ZM364.938 100.146C364.326 102.593 364.393 106.675 364.657 109.192C364.842 109.474 365.076 109.902 365.336 110.083C365.41 108.23 365.866 101.569 364.938 100.146Z" fill="white"/>
<path d="M465.152 95.2168C466.183 100.816 467.57 105.169 466.557 111.041C466.272 112.701 465.621 111.495 465.796 113.743L465.312 115.327C465.045 114.889 465.152 97.3281 465.152 95.2168Z" fill="black" fill-opacity="0.764706"/>
<path d="M463.409 119.257C462.634 119.015 462.445 118.963 461.755 118.531C461.009 115.999 462.164 115.573 464.337 115.239C464.124 116.617 463.982 117.986 463.409 119.257Z" fill="black" fill-opacity="0.027451"/>
<path d="M136.58 145.582C136.621 120.031 136.545 94.4576 136.623 68.9057C136.627 67.616 136.566 63.8245 137.394 63.0229C137.49 63.0474 151.561 62.8479 152.697 62.8532L173.62 62.8817L196.502 62.8653C211.664 62.7757 235.088 60.8472 236.637 81.9272L236.777 87.8435C236.445 93.0274 235.228 97.7497 231.238 101.508C230.362 102.333 229.8 102.514 229.42 103.698C229.671 106.274 237.518 108.433 239.837 115.582C240.08 119.703 240.401 128.785 239.976 132.827C238.234 139.66 229.046 148.072 221.705 147.264C218.934 146.892 209.903 147.105 206.638 147.11L164.969 147.101C160.224 147.101 142.572 147.719 139.342 146.2C137.198 141.714 140.102 82.4152 138.572 71.8531L138.249 71.7639L137.693 73.2022C137.674 72.5364 137.7 70.1079 137.388 69.7059C136.573 94.6586 137.5 121.068 137.127 146.251L136.58 145.582ZM149.317 114.843C148.939 117.68 148.786 133.996 149.58 136.239L151.446 136.524C153.96 136.626 156.651 136.642 159.19 136.585C178.078 136.159 197.219 137.292 216.046 136.091C218.62 135.927 223.166 133.464 225.527 132.245C228.023 125.747 227.872 122.802 226.122 116.236C219.103 109.02 206.466 110.268 197.059 110.259L167.407 110.311C162.418 110.357 156.141 110.701 151.332 110.509C150.195 110.891 150.216 110.711 149.736 111.906C149.578 112.755 149.293 114.015 149.317 114.843ZM148.957 95.8426C148.774 97.4044 148.736 98.5293 149.915 99.6764C154.35 101.942 193.769 99.4104 201.317 100.389C203.333 100.65 214.133 100.291 216.363 99.8588C216.625 99.5427 223.655 94.1396 224.602 93.4343C224.689 91.7374 224.69 87.5159 224.389 85.9574C223.65 82.6514 222.883 80.2591 220.101 78.0742C217.967 77.063 214.372 75.3206 212.126 74.9703C208.888 72.1334 152.916 72.2031 149.636 74.5136C149.595 74.7999 149.49 75.4191 149.494 75.6763C148.899 82.1282 149.587 90.3293 148.957 95.8426Z" fill="white"/>
<path d="M149.494 75.6769C149.49 75.4197 149.595 74.8005 149.635 74.5142C152.916 72.2037 208.888 72.134 212.126 74.9709C205.593 74.4601 196.396 74.7368 189.6 74.7344L151.727 74.7514C151.06 79.0714 151.386 93.0021 151.409 98.1693C152.245 99.3718 153.512 99.4494 154.909 99.3381C161.25 100.17 176.761 99.6404 183.699 99.7368C188.998 99.8104 205.67 99.99 210.228 99.3277C211.006 99.5187 214.334 98.4496 215.107 97.6795C218.524 96.5489 219.315 96.2398 221.833 93.7049C223.894 92.6404 224.22 88.0216 224.389 85.958C224.689 87.5165 224.689 91.738 224.602 93.4349C223.655 94.1402 216.625 99.5433 216.363 99.8595C214.133 100.291 203.333 100.651 201.317 100.389C193.769 99.411 154.35 101.942 149.915 99.677C148.736 98.53 148.774 97.405 148.957 95.8432L149.382 96.6118L149.814 96.641C150.51 94.524 150.547 76.8673 149.494 75.6769Z" fill="black" fill-opacity="0.929412"/>
<path d="M151.409 98.1691C155.246 96.968 206.705 97.34 215.107 97.6793C214.334 98.4494 211.006 99.5185 210.228 99.3275C207.027 99.3044 203.66 98.5938 199.849 98.6012C188.164 98.624 176.43 98.4536 164.745 98.6297C161.595 98.677 158.254 99.1977 154.909 99.3378C153.512 99.4492 152.246 99.3716 151.409 98.1691Z" fill="black" fill-opacity="0.670588"/>
<path d="M154.909 99.3377C158.254 99.1975 161.595 98.6768 164.746 98.6295C176.43 98.4535 188.164 98.6238 199.849 98.6011C203.66 98.5936 207.028 99.3042 210.229 99.3273C205.67 99.9896 188.999 99.81 183.7 99.7364C176.762 99.64 161.251 100.17 154.909 99.3377Z" fill="black" fill-opacity="0.270588"/>
<path d="M149.736 111.905C150.216 110.71 150.196 110.89 151.332 110.509C151.422 119.18 151.46 127.852 151.446 136.523L149.58 136.239C150.638 134.674 150.137 119.817 150.076 117.002C150.275 115.136 150.257 113.696 149.736 111.905Z" fill="black" fill-opacity="0.921569"/>
<path d="M220.101 78.0742C222.883 80.2591 223.649 82.6514 224.389 85.9574C224.22 88.021 223.894 92.6397 221.833 93.7043C220.914 88.5193 223.411 84.826 220.101 78.0742Z" fill="black" fill-opacity="0.14902"/>
<path d="M149.494 75.6768C150.547 76.8672 150.51 94.5239 149.815 96.6408L149.382 96.6117L148.957 95.8431C149.587 90.3298 148.9 82.1287 149.494 75.6768Z" fill="black" fill-opacity="0.101961"/>
<path d="M149.317 114.843C149.535 118.42 149.203 130.617 149.604 132.935C149.959 129.007 149.55 119.533 150.076 117.002C150.136 119.817 150.637 134.674 149.58 136.239C148.786 133.996 148.939 117.68 149.317 114.843Z" fill="black" fill-opacity="0.207843"/>
<path d="M149.736 111.906C150.257 113.697 150.275 115.137 150.076 117.003C149.55 119.534 149.959 129.008 149.604 132.936C149.203 130.618 149.536 118.421 149.317 114.843C149.293 114.016 149.578 112.755 149.736 111.906Z" fill="black" fill-opacity="0.0588235"/>
<path d="M488.021 63.0873C493.174 62.5822 497.719 61.6621 501.759 65.2071C505.045 68.0877 508.185 71.0273 511.432 73.9111L529.639 90.0334C533.224 93.2668 533.957 96.8239 539.035 96.4181C540.802 95.3678 546.656 89.6692 548.761 87.8699C557.897 80.061 567.15 70.4629 576.578 63.0375C579.035 62.7689 582.061 62.5801 584.526 62.8763C586.076 62.9702 590.049 63.1292 591.343 63.6912L593.1 64.0803L593.345 64.5555C592.485 66.4306 589.583 68.2207 588.043 69.6565C578.47 78.5718 568.541 87.0795 559.071 96.0937C556.549 98.491 553.704 100.631 551.393 103.233C550.838 103.859 549.604 105.171 549.906 106.051C550.593 108.062 569.088 124.243 571.983 126.752C575.162 129.511 579.878 132.722 582.211 136.205C583.004 141.095 588.886 141.881 588.548 144.747L589.654 145.869L589.608 146.402C586.244 146.415 584.917 147.543 581.13 147.474C583.111 147.942 585.209 148.106 587.606 148.687C585.675 148.747 579.462 149.085 578.004 148.388C571.233 145.149 564.718 137.585 559.028 132.527C555.674 129.545 552.449 126.802 549.316 123.971C544.465 119.59 543.221 117.793 537.687 114.359C532.019 117.286 529.092 123.078 525.187 124.789C522.513 125.961 507.552 141.075 504.159 144.091C502.634 145.448 500.582 146.525 499.188 147.854C497.915 149.068 496.748 149.035 495.066 149.057C492.118 149.096 484.038 149.729 482.036 147.774C482.42 143.389 524.551 110.102 525.575 105.452C525.621 105.233 525.678 104.84 525.617 104.62C525.166 102.97 489.995 74.015 485.475 67.185C482.481 66.4171 482.548 66.8183 482.175 63.9362C483.889 63.5656 486.24 63.3227 488.021 63.0873Z" fill="white"/>
<path d="M258.487 62.7779C261.185 62.7719 263.882 62.8114 266.578 62.896C269.004 64.9045 268.507 64.7836 267.816 67.873C267.776 88.3658 267.394 110.145 267.812 130.533C267.548 131.703 268.023 133.161 268.302 134.37L268.786 134.781C269.398 134.213 269.415 133.088 269.534 132.216C269.662 133.142 269.69 134.457 270.343 135.034C273.03 135.786 281.817 135.411 285.032 135.391L321.429 135.359C324.017 135.359 335.496 135.174 337.661 135.511C340.075 135.623 343.925 135.529 346.035 136.211L347.013 137.145C346.918 138.872 346.24 139.692 346.172 141.412C346.104 143.153 347.657 145.843 346.102 147.078C343.572 149.089 339.931 148.196 337.119 148.701C334.586 148.913 329.616 148.763 326.868 148.766L306.018 148.764C290.771 148.755 272.535 149.195 257.497 148.604C256.718 147.27 257.787 74.5159 256.59 64.5688C257.013 63.5487 257.479 63.4761 258.487 62.7779Z" fill="white"/>
<path d="M136.58 145.582L137.127 146.251C137.5 121.068 136.573 94.6587 137.388 69.7061C137.7 70.108 137.674 72.5365 137.693 73.2023L138.249 71.764L138.572 71.8533C140.102 82.4153 137.198 141.715 139.342 146.2C142.572 147.719 160.224 147.102 164.969 147.101L206.638 147.11C209.903 147.105 218.934 146.892 221.705 147.264C212.851 149.304 204.082 148.762 195.044 148.763L164.701 148.758C159.236 148.747 153.77 148.767 148.305 148.818C145.009 148.847 140.294 149.041 137.182 148.624C136.432 147.563 136.66 147.076 136.58 145.582Z" fill="black" fill-opacity="0.917647"/>
<path d="M255.444 63.6936C256.615 63.0875 257.161 62.6963 258.488 62.7784C257.48 63.4766 257.013 63.5492 256.59 64.5693C257.787 74.5164 256.718 147.27 257.498 148.605L255.432 148.066C255.868 146.309 255.694 135.789 255.695 133.409L255.678 99.2808C255.687 87.8111 257.06 74.8109 255.444 63.6936Z" fill="black" fill-opacity="0.74902"/>
<path d="M266.578 62.8965C267.543 63.1615 268.547 63.3087 269.158 64.0777C269.685 65.9958 270.092 129.751 269.534 132.217C269.415 133.088 269.397 134.214 268.786 134.782L268.302 134.37C268.023 133.162 267.548 131.704 267.812 130.534C268.111 130.409 268.23 130.235 268.473 129.998C268.651 124.609 268.811 69.1823 268.305 67.7237L267.816 67.8734C268.507 64.784 269.004 64.905 266.578 62.8965Z" fill="black" fill-opacity="0.854902"/>
<path d="M255.444 63.6934C257.06 74.8106 255.687 87.8108 255.678 99.2806L255.695 133.409C255.694 135.788 255.868 146.309 255.432 148.066C254.963 147.386 255.083 139.08 255.083 137.565C255.079 113.489 255.065 89.4124 255.11 65.3376C255.111 64.6373 255.101 64.3257 255.444 63.6934Z" fill="black" fill-opacity="0.956863"/>
<path d="M267.816 67.8734L268.306 67.7236C268.811 69.1822 268.652 124.609 268.473 129.998C268.23 130.235 268.111 130.409 267.812 130.534C267.394 110.146 267.776 88.3662 267.816 67.8734Z" fill="black" fill-opacity="0.368627"/>
<path d="M476.546 101.155C478.096 99.1541 476.606 96.2059 477.659 94.3643C479.696 96.2344 478.341 110.566 478.302 113.978C477.744 116.533 477.335 117.841 476.457 120.297C476.279 116.876 476.197 104.302 476.546 101.155Z" fill="black" fill-opacity="0.784314"/>
<path d="M582.211 136.206C585.945 139.166 589.128 142.173 592.396 145.63C592.481 145.72 594.181 145.823 594.843 146.421C593.566 146.535 593.111 146.557 591.877 147.004L591.951 147.335C592.705 147.553 594.537 147.852 594.946 148.176C592.812 148.751 589.8 148.926 587.606 148.688C585.209 148.106 583.111 147.943 581.13 147.474C584.917 147.544 586.244 146.416 589.608 146.403L589.654 145.869L588.548 144.748C588.886 141.882 583.004 141.096 582.211 136.206Z" fill="black" fill-opacity="0.835294"/>
<path d="M346.035 136.211C346.932 136.402 347.907 136.656 348.815 136.637C348.911 140.034 349.035 145.384 348.463 148.637C345.676 148.746 339.7 149.095 337.119 148.701C339.931 148.197 343.572 149.089 346.102 147.078C347.657 145.843 346.104 143.153 346.173 141.412C346.24 139.692 346.918 138.872 347.013 137.146L346.035 136.211Z" fill="black" fill-opacity="0.901961"/>
<path d="M584.527 62.8762C582.887 61.9113 579.47 62.3185 578.766 61.2675C580.974 60.6582 592.457 60.257 594.477 61.2582C594.726 62.2001 594.747 62.3228 594.523 63.2685C593.556 63.9432 592.731 63.6878 591.344 63.691C590.049 63.1291 586.077 62.9701 584.527 62.8762Z" fill="black" fill-opacity="0.184314"/>
<path d="M337.661 135.511C337.068 135 336.472 134.491 335.873 133.986C335.981 133.894 344.62 133.566 345.698 133.571C348.262 133.584 348.705 134.489 348.816 136.637C347.907 136.656 346.933 136.402 346.035 136.211C343.926 135.53 340.076 135.623 337.661 135.511Z" fill="black" fill-opacity="0.309804"/>
<path d="M239.838 115.583C242.095 116.139 242.668 118.852 242.162 120.803C242.051 119.849 242.045 119.349 241.618 118.495L241.184 118.711C241.126 120.713 240.674 128.593 241.551 129.738C242.067 128.861 242.082 127.971 242.187 126.964C242.37 132.635 240.961 129.892 239.977 132.827C240.401 128.786 240.081 119.704 239.838 115.583Z" fill="black" fill-opacity="0.270588"/>
<path d="M476.168 88.9346C476.556 90.6539 476.812 91.9951 477.061 93.7397L477.63 91.3585L478.042 91.3812C479.482 96.2429 479.699 109.161 478.302 113.978C478.341 110.566 479.696 96.2341 477.658 94.3639C476.605 96.2056 478.095 99.1538 476.545 101.154C476.467 97.0795 476.342 93.006 476.168 88.9346Z" fill="black" fill-opacity="0.509804"/>
<path d="M236.638 81.9273L237.92 81.7939C239.495 83.2735 239.135 85.7739 238.534 87.6658L238.094 88.0132L237.311 87.4481L236.777 87.8436L236.638 81.9273Z" fill="black" fill-opacity="0.105882"/>
<path d="M242.187 126.964C242.081 127.971 242.066 128.861 241.551 129.738C240.673 128.592 241.126 120.712 241.183 118.711L241.618 118.494C242.044 119.349 242.051 119.848 242.161 120.802C242.191 122.613 242.311 125.216 242.187 126.964Z" fill="black" fill-opacity="0.733333"/>
<path d="M482.175 63.9367C483.067 62.6349 481.99 62.1821 482.683 61.3257C483.22 60.6606 485.799 60.9871 486.464 61.4576C485.539 61.8688 485.678 61.6557 485.155 62.3998L485.318 62.721L488.021 63.0877C486.24 63.3231 483.889 63.5661 482.175 63.9367Z" fill="black" fill-opacity="0.219608"/>
<path d="M594.946 148.176C594.537 147.851 592.706 147.553 591.952 147.335L591.877 147.003C593.111 146.556 593.566 146.535 594.843 146.421C594.861 146.773 594.896 147.893 594.946 148.176Z" fill="black" fill-opacity="0.207843"/>
</svg>
