<svg width="1151" height="288" viewBox="0 0 1151 288" fill="none" xmlns="http://www.w3.org/2000/svg">
<path d="M311.213 38.9281C328.002 38.4618 378.586 37.2106 391.857 41.2531C402.011 44.2625 410.544 51.2044 415.561 60.5362C425.82 80.073 418.093 100.703 398.881 110.696C400.914 111.439 402.923 112.244 404.906 113.112C414.368 117.428 421.72 125.339 425.336 135.094C430.076 147.583 428.829 159.974 423.487 171.97C407.475 200.506 383.885 197.32 355.769 197.301L311.235 197.254L311.213 38.9281ZM394.989 167.094C404.694 155.769 405.271 140.647 393.991 130.879C382.597 121.012 350.751 124.234 335.802 124.367L335.794 174.459C352.662 174.616 382.05 178.235 394.989 167.094ZM335.787 102.325C350.331 102.433 377.953 105.46 388.504 95.8079C392.485 91.1096 395.143 86.4195 394.643 79.9897C394.295 74.9307 391.924 70.2254 388.065 66.9373C381.375 61.2938 372.616 61.4343 364.362 61.5005C354.851 61.5768 345.34 61.6131 335.829 61.6926L335.787 102.325Z" fill="white"/>
<path d="M119.816 77.4001C126.123 83.4514 138.884 92.9791 146.139 98.7123C153.839 104.798 165.323 114.59 172.911 119.628C175.731 118.414 177.73 117.504 180.714 116.716C183.352 115.452 186.475 114.19 189.195 113.017C192.247 121.289 193.131 124.094 200.476 129.695L192.17 132.854L190.529 133.751C205.483 145.196 220.301 156.815 234.98 168.608C239.837 172.478 254.429 184.535 258.57 186.945L132.779 237.092L94.8966 252.285C88.1673 255.009 77.0742 259.721 70.2571 261.853C73.9978 255.472 77.0024 249.051 80.49 242.584C88.2696 228.432 95.9004 214.2 103.382 199.888C105.892 195.126 115.884 175.38 118.71 172.63L120.377 172.749C123.316 177.782 113.587 187.496 114.064 191.556L115.003 191.86C121.415 188.046 120.022 177.18 127.169 176.366C131.091 180.575 120.047 189.873 121.611 195.101C125.197 193.242 128.941 181.135 133.36 179.886C137.079 184.757 116.369 217.633 112.996 224.073C143.297 210.185 176.18 199.149 207.014 186.269C211.198 184.521 215.731 183.189 219.882 181.395C207.774 172.789 195.919 162.448 184.086 153.419C180.384 150.595 172.981 144.208 169.219 141.907C152.29 148.831 131.128 157.93 114.041 163.991L103.449 168.294C99.7963 169.727 94.9068 171.812 91.222 172.794C87.5767 178.514 81.7997 190.373 78.2745 196.994C68.7307 215.118 58.9924 233.138 49.0609 251.053C44.7435 258.748 39.3639 268.81 34.531 276.018C26.5416 279.722 15.6443 283.412 7.00015 287.162C10.0555 282.559 14.027 274.507 16.6552 269.503C21.4963 260.243 26.3973 251.015 31.358 241.82L89.0484 134.481L108.554 97.8193C111.931 91.4982 116.022 83.3051 119.816 77.4001ZM109.598 144.837C122.284 139.116 138.767 132.622 151.942 128.102C143.758 121.867 133.651 114.188 125.914 107.417C120.235 120.86 111.059 134.134 105.084 146.66L109.598 144.837Z" fill="white"/>
<path d="M151.942 128.102C156.099 131.122 165.954 138.103 169.219 141.907C152.29 148.831 131.128 157.93 114.041 163.991C110.164 157.174 109.726 152.417 109.598 144.837C122.284 139.116 138.767 132.622 151.942 128.102Z" fill="white"/>
<path d="M180.714 116.716C183.352 115.452 186.475 114.19 189.195 113.017C192.247 121.289 193.131 124.094 200.476 129.695L192.17 132.854L190.529 133.751C186.267 130.658 176.429 123.122 172.911 119.628C175.731 118.414 177.73 117.504 180.714 116.716Z" fill="white"/>
<path d="M172.911 119.628C175.731 118.414 177.73 117.504 180.714 116.716L181.183 118.224L180.951 118.1L180.007 118.57C180.216 120.45 190.331 130.188 192.259 131.92L191.133 131.774C191.465 132.257 191.637 132.639 192.17 132.854L190.529 133.751C186.267 130.658 176.429 123.122 172.911 119.628Z" fill="white"/>
<path d="M105.084 146.66L109.598 144.837C109.726 152.417 110.164 157.174 114.041 163.991L103.449 168.294C101.974 165.165 100.414 162.262 97.4809 160.297C99.6113 155.807 102.564 150.996 105.084 146.66Z" fill="white"/>
<path d="M97.4809 160.297C100.414 162.262 101.974 165.165 103.449 168.294C99.7963 169.727 94.9068 171.812 91.222 172.794C92.47 169.284 95.6353 163.75 97.4809 160.297Z" fill="white"/>
<path d="M1089.26 79.1449C1091.36 78.8167 1093.71 78.9541 1095.8 79.0006C1129.29 79.7467 1152.48 110.205 1150.68 142.539C1149.72 159.631 1143.73 173.858 1130.99 185.781C1119.73 196.315 1105.29 200.661 1090.06 199.902C1073.9 198.985 1064.32 193.059 1053.81 181.502L1053.76 244.865L1030.19 244.844V81.7314L1053.76 81.6849L1053.83 98.2779C1063.96 86.1835 1073.55 80.7282 1089.26 79.1449ZM1092.15 177.556C1113.07 176.361 1129.09 158.483 1128.01 137.548C1126.92 116.613 1109.14 100.487 1088.21 101.46C1067.12 102.44 1050.86 120.397 1051.95 141.49C1053.04 162.583 1071.08 178.762 1092.15 177.556Z" fill="white"/>
<path d="M942.097 79.1252C944.258 78.8084 946.757 78.9516 948.912 79.005C982.505 79.8358 1005.62 110.461 1003.64 142.875C1002.59 159.962 996.675 173.967 983.884 185.882C972.6 196.397 958.118 200.677 942.892 199.904C926.82 198.949 917.316 193.008 906.851 181.528L906.813 244.864L883.227 244.848L883.221 81.7377L906.82 81.7193L906.87 98.2448C916.915 86.1943 926.502 80.8166 942.097 79.1252ZM945.288 177.549C966.141 176.278 982.072 158.438 981.004 137.565C979.93 116.693 962.256 100.58 941.385 101.451C920.234 102.335 903.863 120.315 904.944 141.472C906.031 162.629 924.156 178.838 945.288 177.549Z" fill="white"/>
<path d="M501.039 78.8002C534.575 74.2195 565.469 97.72 570.029 131.278C574.581 164.837 551.077 195.733 517.535 200.272C484.024 204.807 453.178 181.313 448.624 147.784C444.071 114.255 467.532 83.377 501.039 78.8002ZM510.46 177.329C531.416 176.693 547.878 159.159 547.208 138.192C546.536 117.224 528.986 100.782 508.032 101.487C487.126 102.191 470.739 119.702 471.409 140.621C472.079 161.54 489.552 177.965 510.46 177.329Z" fill="white"/>
<path d="M784.058 38.8963C789.309 38.8187 794.783 38.9065 800.053 38.9179C807.904 56.8263 816.029 79.0991 823.283 97.533L862.426 197.217C853.633 197.39 844.447 197.242 835.623 197.228C831.751 185.445 825.4 170.226 820.861 158.362L799.741 158.349L762.735 158.404C757.713 170.125 752.436 185.144 747.77 197.279L721.107 197.217C727.877 179.051 735.907 159.813 743.116 141.693L784.058 38.8963ZM770.783 135.484L792.748 135.508L813.283 135.495C810.664 128.487 793.263 80.5164 791.648 79.3014C784.821 97.6666 777.217 117.081 770.783 135.484Z" fill="white"/>
<path d="M112.275 0C151.139 32.5892 193.082 62.5742 232.317 94.8028C238.286 99.706 244.736 104.946 250.934 109.505C234.514 116.616 216.352 122.661 200.476 129.695C193.131 124.094 192.247 121.289 189.195 113.017C196.38 110.378 205.153 106.952 212.215 103.925C181.789 80.094 148.141 54.5185 118.545 30.0601C101.109 64.3032 81.8149 99.0838 63.6696 133.08C55.3007 149.019 46.6514 164.81 37.7249 180.444C35.0853 185.055 29.7216 194.973 27.0063 198.681L0 209.286C37.4281 139.989 74.0932 68.7566 112.275 0Z" fill="white"/>
<path d="M650.781 79.0998C672.815 75.2787 696.236 89.9665 700.648 112.13C703.115 124.553 702.39 137.583 702.371 150.227L702.276 197.278L678.563 197.254C678.219 179.617 680.953 132.45 675.937 118.446C673.591 111.891 669.179 106.026 662.764 103.036C654.837 99.3396 645.676 100.565 637.742 103.505C617.639 113.916 620.691 137.495 620.742 156.553L620.78 197.284L597.232 197.254C596.787 159.085 597.207 119.973 597.207 81.7346L620.329 81.7454L620.437 97.3218C620.678 96.9853 620.92 96.6501 621.168 96.3174C629.28 85.3788 637.43 81.0978 650.781 79.0998Z" fill="white"/>
</svg>
