<svg width="2093" height="1079" viewBox="0 0 2093 1079" fill="none" xmlns="http://www.w3.org/2000/svg">
<path d="M625.311 108.946C650.494 108.057 655.53 116.795 671.239 134.273C679.453 143.411 687.754 152.951 695.928 162.139L777.967 254.33L898.177 388.354C910.919 402.74 941.865 433.463 948.285 450.324C955.622 469.594 940.571 495.257 917.982 500.12C909.426 500.188 894.446 499.704 888.285 493.773C862.619 469.062 838.009 438.862 814.353 412.541L703.089 287.824L641.507 219.005C631.206 207.575 596.738 174.286 592.92 159.278C586.424 133.746 597.632 113.488 625.311 108.946ZM916.221 479.408C925.179 474.062 925.596 470.013 930.065 460.186C914.582 432.119 870.595 389.773 848.042 364.091L720.844 221.308C696.676 194.089 673.142 166.211 648.153 139.68C640.263 131.303 634.668 128.567 623.037 128.991C607.145 143.414 608.278 150.15 621.505 165.271C711.088 267.696 802.545 368.588 892.916 470.328C899.135 477.33 906.847 481.002 916.221 479.408Z" fill="white"/>
<path d="M993.936 517.546C1020.34 518.187 1076.93 515.62 1099.17 522.454C1106.95 524.846 1114.06 529.061 1119.89 534.751C1131.31 545.928 1134.98 558.58 1135.22 573.99C1135.58 598.408 1126.4 609.592 1110.66 625.756C1126.73 630.215 1137 644.385 1141.05 660.063C1145.71 677.616 1143.17 696.302 1134 711.974C1110.85 744.337 1067.66 738.131 1033.02 738.815C1025.07 738.971 998.959 740.282 992.429 737.822C989.379 734.037 990.941 703.477 990.956 695.925L990.897 619.6C990.985 599.618 990.971 579.634 990.853 559.652C990.796 550.337 988.872 523.382 993.936 517.546ZM1016.78 715.834C1037.66 716.851 1082.17 719.941 1099.55 709.118C1133.86 679.268 1110.96 634.518 1068.81 635.844C1053.88 636.313 1038.63 635.101 1023.53 636.517C1019.87 636.678 1019.64 636.054 1017.26 638.08C1016.92 663.89 1017.64 690.023 1016.78 715.834ZM1093.3 608.725C1109.74 593.109 1116.3 571.683 1099.71 552.03C1085.74 535.464 1048.51 539.811 1027.67 540.139C1024.23 540.441 1019.81 540.416 1017.19 542.416C1017.2 558.638 1016.08 596.708 1017.73 611.24C1023.77 615.414 1073.24 613.82 1082.71 612.103C1086.72 611.377 1089.56 610.458 1093.3 608.725Z" fill="white"/>
<path d="M323.01 413.898C326.63 413.744 332.863 415.073 335.426 417.181C357.885 435.658 384.853 469.059 403.952 490.487C442.197 532.939 480.196 575.612 517.948 618.501C565.45 671.935 613.589 724.865 660.569 778.763C675.207 795.555 665.801 819.151 643.654 824.513C616.724 825.006 598.72 790.589 581.086 774.176C570.755 764.562 561.902 751.212 552.364 740.503L370.618 536.357C352.421 515.782 312.723 477.165 297.758 451.979C296.053 449.11 296.418 432.028 300.173 426.807C306.763 417.646 312.608 416.564 323.01 413.898Z" fill="white"/>
<path d="M472.054 325.127C478.041 324.513 485.054 324.734 489.678 328.939C501.809 339.975 514.056 354.841 524.879 367.205L579.95 429.304L714.46 579.656C740.985 609.316 767.29 639.318 793.663 669.132C797.1 673.786 805.801 683.578 806.39 689.27C808.241 707.136 795.011 717.354 779.472 721.907C759.554 720.07 748.868 701.802 736.484 688.937C714.964 666.582 695.345 642.224 674.645 619.192L510.132 434.277C490.338 411.92 467.717 390.754 450.354 366.345C444.834 358.584 445.712 344.309 450.99 336.438C456.521 328.189 462.612 326.474 472.054 325.127Z" fill="white"/>
<path d="M627.293 365C634.439 364.681 644.56 365.56 649.927 370.115C674.233 390.739 701.322 423.948 722.059 447.557L801.273 536.548L837.557 577.665C847.202 588.437 861.781 600.562 864.437 614.901C869.509 642.279 852.844 656.327 828.686 661.14C822.195 662.266 806.046 657.286 801.686 652.599C734.331 580.149 669.394 505.062 603.686 431.079C580.827 405.341 591.323 369.87 627.293 365ZM611.548 403.733C622.704 425.687 644.34 446.317 661.177 465.146L721.063 532.402L779.917 598.354C789.832 609.585 815.787 647.13 831.697 639.882L841.86 632.717C843.339 625.965 845.22 618.097 840.657 612.078C828.965 596.653 814.555 582.089 801.61 567.892L735.854 494.497L670.584 420.757C665.892 415.513 661.016 410.036 656.416 404.733C645.469 392.117 639.895 383.779 622.073 386.192C617.839 390.99 614.102 397.833 611.548 403.733Z" fill="white"/>
<path d="M199.269 156.964C205.966 156.709 213.072 156.153 219.393 158.789C223.547 160.521 227 163.227 230.106 166.45C258.945 196.38 285.449 229.211 313.078 260.284C336.791 286.951 527.893 497.923 530.889 506.746C533.164 513.447 533.107 521.393 530.214 527.883C526.694 535.778 520.289 540.665 512.397 543.703C505.604 546.781 497.965 543.871 491.543 541.138C481.148 536.714 477.137 528.612 469.901 520.388L440.616 487.729L339.721 373.986C327.461 360.035 315.607 346.773 302.596 333.471C297.731 328.498 292.516 320.837 287.621 315.607C255.321 281.1 224.848 244.791 193.256 209.634C191.006 206.395 183.059 198.371 182.126 194.794C178.008 178.987 182.825 162.235 199.269 156.964Z" fill="white"/>
<path d="M377.195 602.575C402.832 601.391 404.417 608.557 420.511 625.594C438.036 644.147 454.176 663.63 471.134 682.632C507.929 723.062 544.309 763.869 580.268 805.046C589.122 815.317 598.449 825.103 607.325 835.425C625.088 856.083 616.128 888.94 587.342 893.338C569.635 894.126 562.923 893.065 550.713 879.425C484.904 805.913 418.528 732.911 353.804 658.448C345.321 648.688 345.188 627.121 353.222 616.72C360.071 607.851 366.337 604.478 377.195 602.575ZM583.029 874.795C586.01 873.336 590.297 871.397 593.07 869.804C594.765 860.322 596.332 855.211 589.977 847.064C572.505 824.727 551.769 804.936 533.03 783.613C496.799 742.384 460.942 700.442 423.23 660.58C411.204 647.868 397.409 623.105 379.55 621.584C374.124 624.256 371.917 627.238 369.501 632.803C368.325 635.515 367.873 642.297 369.531 644.596C375.854 653.359 384.899 663.239 392.044 671.239L438.499 723.169C468.709 757.556 499.213 791.683 530.01 825.544C542.474 839.468 554.301 853.983 566.874 867.8C570.378 871.653 578.002 874.358 583.029 874.795Z" fill="white"/>
<path d="M260.055 81.3772C266.498 81.1296 274.562 81.9849 279.448 86.2794C297.004 101.713 314.213 123.333 329.98 140.783C358.058 171.786 385.925 202.98 413.579 234.363C424.465 246.719 435.627 259.23 446.582 271.492C466.503 293.785 456.781 322.706 427.501 329.006C418.595 329.005 408.8 327.617 401.943 321.579C388.382 309.636 376.743 294.54 364.782 280.984L301.976 210.353C279.697 185.141 255.021 160.138 234.344 133.487C226.614 123.524 227.715 101.513 236.625 92.2442C243.77 84.8119 249.788 82.2049 260.055 81.3772ZM425.987 309.422C431.557 305.004 434.6 301.039 438.12 294.833C429.514 282.765 419.728 272.878 410.11 261.661C384.799 232.44 359.114 203.544 333.063 174.98C313.629 153.336 293.454 130.598 274.051 108.772C271.072 105.422 262.768 101.608 258.312 100.285C247.118 113.409 245.076 114.891 256.926 129.07C268.539 142.964 281.013 155.927 293.083 169.397L355.098 239.164C375.326 261.743 394.879 286.221 416.921 307.089C419.8 309.815 422.14 310.873 425.987 309.422Z" fill="white"/>
<path d="M685.293 348.614C683.468 349.028 681.621 349.333 679.759 349.53C656.553 352.001 634.435 318.368 620.099 302.019L551.916 224.833C544.773 216.705 537.003 209.238 529.986 201.233C519.461 189.228 509.739 176.571 498.596 164.957C483.226 148.939 468.316 132.371 454.177 115.234C451.54 111.102 449.79 103.734 449.463 99.1637C448.178 81.193 461.745 72.0729 478.43 72.0935C487.003 72.1042 493.009 74.6489 499.011 81.0248C506.417 88.8921 513.022 97.4138 520.208 105.435L656.62 258.529C670.486 273.926 685.74 289.345 698.424 305.716C703.186 311.861 704.203 318.8 704.313 326.398C701.501 334.208 693.203 345.632 685.293 348.614Z" fill="white"/>
<path d="M333.432 47.4627C338.375 46.9189 343.637 47.0651 348.27 49.0451C352.441 50.827 355.562 53.584 358.736 56.7473C378.862 76.805 554.468 273.392 557.215 281.447C559.506 288.164 559.791 296.427 556.668 302.903C552.667 311.205 545.148 314.988 536.909 317.958C523.982 319.335 516.899 315.492 507.879 306.562C492.861 291.695 479.583 275.504 465.551 259.827L367.439 149.002C350.432 129.51 331.998 111.153 315.962 90.6899C309.441 82.3685 308.782 68.3032 314.121 59.1815C318.519 51.6677 325.511 49.4519 333.432 47.4627Z" fill="white"/>
<path d="M1344.99 569.746C1376.43 567.976 1401.6 580.419 1408.95 612.955C1410.51 620.098 1411.47 627.358 1411.85 634.659C1412.7 650.665 1411.44 667.562 1411.83 683.668C1412.18 697.836 1412.58 712.077 1412.44 726.233C1412.31 737.556 1405.56 738.975 1396.04 741.005C1363.74 746.561 1326.4 750.839 1297.32 732.219C1286.93 725.575 1284.19 712.357 1282.42 701.205C1271.72 640.547 1345.35 638.549 1385.59 647.193C1385.33 602.992 1373.15 581.264 1323.36 596.904C1316.7 598.993 1307.7 605.864 1301.22 604.463C1298.03 602.049 1291.91 594.233 1291.73 590.73C1290.87 574.068 1335.12 570.894 1344.99 569.746ZM1356.27 723.862C1366.78 722.148 1375.85 721.387 1385.45 716.651C1385.88 673.929 1395.77 663.485 1346.37 665.587C1343.54 665.712 1340.72 665.879 1337.9 666.088C1327.18 668.923 1317.27 671.701 1311.2 682.341C1308.13 687.795 1307.37 694.249 1309.08 700.266C1314.94 721.346 1337.92 724.271 1356.27 723.862Z" fill="white"/>
<path d="M1323.51 849.301C1330.31 848.726 1343.04 850.731 1349.86 852.354C1370.79 857.342 1382.21 872.109 1386.84 892.5C1388.28 899.021 1389.17 905.65 1389.52 912.319C1391.16 942.302 1388.55 975.009 1389.86 1005.26C1390.03 1014.3 1386 1018.13 1377.49 1019.93C1341.35 1027.58 1265.98 1035.43 1261.34 982.823C1249.79 917.803 1321.05 919.744 1363.69 926.359C1362.5 913.363 1364.33 905.961 1359.32 892.806C1349.48 863.692 1316.21 870.703 1293.8 879.077C1283.27 886.554 1275.51 889.068 1271.19 872.31C1266.4 853.64 1312.24 850.513 1323.51 849.301ZM1288.25 984.642C1300.91 1003.31 1314.34 1003.94 1335.27 1003.3C1375.25 996.898 1362.85 986.801 1363.24 949.305C1347.43 945.049 1333.47 944.575 1317.36 945.438C1292.2 950.841 1285.56 958.042 1288.25 984.642Z" fill="white"/>
<path d="M102.886 175.551C108.767 175.122 121.048 175.675 125.23 179.381C137.601 190.347 151.501 207.896 162.692 220.281L220.507 285.031C229.406 295.03 254.328 319.238 256.588 330.839C258.45 340.12 256.423 349.758 250.981 357.504C245.338 365.633 239.382 369.39 229.936 371.121C224.003 372.012 210.038 371.777 205.763 367.994C189.621 353.713 173.517 333.083 159.092 317.111L109.417 261.86C99.6423 250.999 89.2005 239.798 80.2742 228.267C72.4146 218.114 72.3009 196.422 80.5055 186.225C86.9422 178.226 93.2888 176.731 102.886 175.551ZM229.116 351.211C233.066 347.365 235.708 342.391 238.554 337.646C218.091 309.751 187.549 280.186 164.955 253.367C150.157 235.8 133.832 217.068 117.854 200.459C114.872 197.359 109.725 195.456 105.418 194.8C104.399 194.646 103.375 194.538 102.346 194.477C97.4842 200.412 93.8835 203.225 94.5143 210.869C98.3702 218.893 105.476 226.208 111.269 232.958C128.092 252.558 145.836 271.356 163.159 290.506C178.784 307.777 193.258 326.065 209.252 342.98C215.449 349.534 219.766 353.754 229.116 351.211Z" fill="white"/>
<path d="M46.1235 230.633C66.2999 228.229 71.0786 238.322 83.1746 251.51C97.9586 267.628 112.214 284.205 126.746 300.527L197.842 380.98C205.293 389.537 221.404 404.768 225.388 414.552C233.005 433.252 220.456 445.28 205.893 451.673C179.595 453.194 171.032 434.812 155.139 416.941L109.091 365.413C82.0242 334.918 54.2126 304.616 28.0735 273.248C21.747 265.656 21.1894 249.585 26.7535 241.269C31.7044 233.87 37.9428 232.408 46.1235 230.633Z" fill="white"/>
<path d="M604.187 585.995C611.323 584.952 618.503 585.987 624.816 589.562C636.693 596.285 724.094 694.353 735.722 709.923C738.271 713.338 739.641 716.164 740.697 720.261C743.222 730.056 743.307 741.57 737.852 750.427C732.346 759.367 722.39 764.469 712.499 766.967C704.847 767.026 695.099 766.57 688.635 761.954C668.377 747.483 651.737 721.919 634.826 704.073C616.655 685.124 598.807 666.507 582.597 645.768C573.657 634.331 568.911 616.433 576.892 603.099C582.862 593.124 593.367 588.763 604.187 585.995ZM712.898 746.792C717.859 742.765 720.675 736.005 723.589 730.173C716.506 718.757 704.742 706.238 695.675 695.957L660.463 656.087C648.106 642.314 635.927 627.76 622.811 614.695C617.287 609.193 612.022 606.134 604.073 606.4C591.8 615 592.086 625.994 601.679 636.607C633.839 672.186 664.253 709.877 698.303 743.629C701.58 746.878 708.56 747.392 712.898 746.792Z" fill="white"/>
<path d="M1047.23 790.982C1074.26 787.055 1104.75 797.466 1126.42 812.881C1132.63 817.293 1124.06 836.05 1114.88 834.326C1108.06 833.045 1103.87 830.293 1097.93 826.956C1082.7 817.952 1070.16 814.743 1052.44 814.928C1028.29 815.179 1002.04 825.282 1002.8 854.004C1003.42 877.316 1036.28 886.48 1055.3 890.826C1092.37 899.565 1134.54 912.849 1135.7 958.525C1137.07 1012.84 1096.12 1024.08 1051.6 1025.82C1025.47 1024.47 1001.9 1018.34 981.22 1001.57C970.623 994.542 977.529 987.101 982.691 978.859C986.491 971.067 999.304 980.332 1004.5 984.804C1033.34 1009.64 1110.99 1010.28 1108.58 958.67C1107.12 927.242 1055.14 921.476 1031.73 913.849C1006.76 905.715 977.386 888.702 976.158 858.636C975.209 845.241 977.211 825.674 986.537 815.284C1002.19 797.842 1024.92 792.781 1047.23 790.982Z" fill="white"/>
<path d="M851.954 254.244C856.568 253.947 861.344 253.949 865.678 255.794C880.831 262.247 927.189 319.399 941.403 335.275C953.652 348.957 967.242 362.311 978.509 376.775C982.151 381.45 985.629 386.678 987.843 392.187C990.108 397.823 989.747 404.354 987.258 409.874C983.163 418.949 974.537 423.565 965.651 426.789C959.403 427.398 953.135 425.886 947.494 423.163C943.187 421.084 939.833 417.378 936.55 413.974C924.816 401.808 832.476 298.406 830.227 291.374C828.032 284.512 828.991 276.105 832.338 269.79C836.628 261.695 843.363 256.94 851.954 254.244Z" fill="white"/>
<path d="M1656.54 855.536L1659.31 855.566C1664.19 859.473 1662.33 875.823 1662.32 882.621L1662.18 932.762C1662.07 944.219 1661.12 958.31 1662.94 969.561C1669.99 1013.12 1710.73 1004 1741.71 998.383C1741.05 951.506 1741.7 904.092 1741.22 857.076C1752.14 854.839 1758.08 855.518 1768.96 856.677C1767.78 870.202 1767.81 880.93 1767.8 894.496L1767.84 969.908C1767.87 980.693 1769.11 992.395 1768.01 1003.07C1767.64 1006.64 1766.65 1010.21 1764.38 1013.05C1757.5 1021.62 1733.23 1023.7 1722.88 1024.65C1700.6 1026.71 1672.55 1025.46 1654.65 1010.28C1641.61 999.227 1636.7 983.665 1635.53 967.191C1634.87 958.124 1634.15 861.386 1636.28 859.136C1640.49 854.704 1650.85 855.688 1656.54 855.536Z" fill="white"/>
<path d="M763.19 392.611C770.35 391.851 775.567 393.309 782.501 394.798C792.037 403.777 801.174 415.36 810.027 425.215C831.71 449.356 853.328 473.636 874.61 498.111C890.083 515.905 884.006 541.206 860.838 546.816C856.35 546.741 846.111 545.773 842.677 542.737C808.039 512.109 779.417 473.791 747.673 440.058C739.621 431.503 738.122 414.375 743.731 404.421C748.254 396.395 754.797 394.725 763.19 392.611Z" fill="white"/>
<path d="M1496.57 569.779C1508.75 568.326 1550.82 575.142 1555.98 587.014C1555.27 594.664 1550.32 604.128 1541.1 602.093C1529.36 599.412 1517.64 592.83 1505.38 592.124C1494.4 591.491 1475.96 593.942 1470.41 604.833C1452.43 640.114 1506.04 642.033 1526.37 649.607C1535.78 653.115 1544.27 657.642 1551.16 665.046C1567.78 681.738 1564.55 716.802 1546.99 731.595C1530.69 745.73 1509.93 746.675 1489.45 745.443C1476.94 743.843 1443.35 736.898 1438.56 723.921C1438.23 718.252 1442.29 712.253 1445.29 707.686C1449.12 701.841 1456.02 706.767 1460.55 710.191C1475.94 721.827 1485.54 724.433 1504.87 723.521C1521.4 722.741 1535.3 712.189 1536.56 694.526C1532.16 674.65 1494.09 669.096 1477.81 663.736C1442.54 652.125 1428.36 620.311 1449.28 588.113C1457.91 574.84 1480.96 571.372 1496.57 569.779Z" fill="white"/>
<path d="M2026.56 849.324C2038.29 848.188 2082.99 854.162 2085.76 868.589C2081.75 882.004 2075.81 884.657 2062.77 879.276C2048.76 872.773 2017.4 866.292 2005.09 878.653C1983.46 900.365 2004.85 916.899 2025.36 921.419C2058.87 928.805 2095.4 937.454 2091.84 979.392C2088.5 1018.96 2053.04 1027.35 2019.92 1025.14C1997.25 1021.98 1947.78 1013.28 1980.15 982.485C1983.88 984.998 1988.31 988.338 1991.92 991.179C2008.91 1004.54 2044.6 1010.29 2059.76 991.04C2081.55 963.394 2043.4 953.149 2022.99 947.947C2000.53 942.364 1972.11 929.411 1970.01 902.787C1966.96 863.974 1994.67 852.607 2026.56 849.324Z" fill="white"/>
<path d="M466.774 828.867C471.946 828.361 480.457 827.684 485.026 830.397C500.545 839.608 511.602 856.639 523.796 869.681C534.215 882.269 547.471 893.647 557.317 906.617C572.802 927.013 572.149 949.218 546.01 957.335C538.263 958.125 527.019 956.529 521.341 949.67C498.351 921.891 468.541 896.81 448.33 867.213C443.36 859.934 447.701 844.531 450.96 836.701C456.553 831.949 459.624 830.44 466.774 828.867Z" fill="white"/>
<path d="M1169.16 819.542C1174.19 819.169 1182.24 818.42 1186.16 821.86C1193.2 828.023 1190.09 839.297 1190.47 847.587C1190.73 853.297 1191.07 858.738 1191.4 864.316C1198.94 863.73 1227.78 862.584 1233.74 864.333C1236.88 867.789 1237.28 881.956 1233.51 885.831C1227.97 886.731 1199.11 885.873 1191.28 885.831C1191.44 916.366 1190.76 949.161 1191.86 979.784C1192.02 984.062 1195.8 991.333 1198.8 994.59C1206.37 1002.8 1214.46 1003.07 1224.91 1003.68C1237.05 1003.84 1247.47 998.5 1243.15 1019.23C1242.7 1021.47 1241.3 1023.41 1239.33 1024.57C1232.97 1028.33 1206.38 1025.13 1198.78 1023.15C1164.49 1014.22 1164.11 984.74 1164.42 955.752C1164.9 911.336 1163.84 866.75 1164.79 822.42C1164.82 820.857 1168 820.006 1169.16 819.542Z" fill="white"/>
<path d="M1544.09 819.732C1573.49 816.133 1565.59 841.686 1566.8 864.125C1573.14 863.864 1606.06 861.186 1608.82 865.703C1626.34 894.306 1581.62 885.739 1566.84 885.998C1566.07 903.451 1566.49 921.531 1566.37 939.104C1567.11 952.128 1564.52 966.935 1567.16 979.753C1571.11 998.885 1583.47 1002.91 1599.96 1003.57C1605.37 1003.77 1612.49 1002.76 1618 1002.16C1618.2 1010.76 1618 1016.87 1617.41 1025.46C1607.75 1026.39 1598.4 1026.17 1588.72 1025.55C1549.34 1023.02 1539.64 998.951 1539.93 963.912C1540.34 917.098 1539.72 869.607 1540.21 822.808C1540.23 821.447 1543.08 820.275 1544.09 819.732Z" fill="white"/>
<path d="M1667.77 517.559L1683.65 517.02C1685.21 527.267 1684.51 557.941 1684.49 569.614L1684.5 661.643C1684.39 682.898 1678.36 708.113 1697.33 722.24C1713.85 724.893 1736.2 716.293 1727.25 743.966C1726.75 745.485 1723.85 745.984 1722.55 746.37C1709.69 746.513 1697.39 746.66 1685.07 742.545C1654.86 732.454 1657.68 694.571 1657.68 669.063C1657.68 652.947 1657.71 636.469 1657.74 620.175L1657.99 552.158C1657.96 543.662 1655.95 527.775 1658.5 520.429C1661.32 517.447 1662.8 518.195 1667.77 517.559Z" fill="white"/>
<path d="M1476.51 849.3C1487.84 848.416 1495.91 850.938 1506.99 850.553C1511.22 850.406 1512.25 850.979 1514.83 853.567C1520.82 873.258 1510 874.531 1494.72 872.304C1481.34 870.354 1464.42 871.601 1452.89 879.224C1451.45 889.599 1452.02 912.267 1452.03 923.962C1452.07 949.745 1451.63 976.441 1453.3 1002.08C1453.64 1019.69 1451.6 1019.9 1433.72 1019.12C1431.19 1019.01 1428.23 1018.97 1425.65 1018.88C1423.68 1001.88 1423.66 873.659 1426.83 862.492C1435.97 853.163 1463.09 850.956 1476.51 849.3Z" fill="white"/>
<path d="M1232.44 569.743L1234.03 569.651C1240.98 569.29 1267.37 569.458 1271.74 573.572C1274.06 575.766 1274.35 582.092 1274.37 585.093C1274.38 587.658 1273.75 589.687 1271.76 591.411C1266.26 596.164 1248.98 592.334 1241.74 592.244C1232.93 592.134 1217.04 592.502 1210.78 599.369C1206.21 604.365 1208.7 707.361 1208.78 723.241C1208.99 727.879 1209.61 733.151 1208.1 737.447C1204.45 740.598 1186.65 740.247 1182.8 737.169C1181.41 725.488 1182.35 687.923 1182.35 674.588L1182.38 623.116C1182.39 610.131 1181.81 595.436 1184.12 582.809C1191.23 573.944 1220.66 571.282 1232.44 569.743Z" fill="white"/>
<path d="M1598.41 575.883C1601.98 575.723 1620.42 574.026 1620.88 579.21C1621.88 590.495 1621.23 602.574 1621.17 613.946V687.502C1621.23 697.632 1623.95 733.3 1619.36 739.708C1611.4 739.393 1602.73 739.508 1594.71 739.462C1591.39 700.993 1596.14 621.224 1594.32 579.251C1594.25 577.562 1596.76 576.744 1598.41 575.883Z" fill="white"/>
<path d="M283.327 0.0761926C300.106 -1.09843 314.706 11.4457 316.073 28.2091C317.438 44.9727 305.059 59.7138 288.312 61.2697C279.112 62.1243 270.018 58.7913 263.549 52.1949C255.167 43.646 252.518 31.0038 256.766 19.8097C261.015 8.61572 271.383 0.912353 283.327 0.0761926Z" fill="white"/>
<path d="M689.724 355.494C695.615 341.175 711.251 333.489 726.187 337.57C738.491 340.932 747.433 351.555 748.643 364.253C749.855 376.95 743.083 389.071 731.637 394.699C720.189 400.325 706.454 398.284 697.14 389.571C687.824 380.857 684.872 367.29 689.724 355.494Z" fill="white"/>
<path d="M464.951 927.05C470.412 926.547 476.071 925.809 481.596 926.972C497.149 930.245 508.04 947.877 503.964 963.273C501.004 974.45 493.174 980.259 483.597 985.846C473.711 988.005 458.104 986.139 451.272 978.096C442.908 968.247 444.747 953.28 445.43 941.359C451.275 932.297 454.77 930.054 464.951 927.05Z" fill="white"/>
<path d="M555.404 533.095C572.227 531.61 587.07 544.043 588.557 560.865C590.044 577.687 577.613 592.531 560.789 594.02C543.963 595.509 529.116 583.076 527.628 566.25C526.141 549.424 538.576 534.579 555.404 533.095Z" fill="white"/>
<path d="M154.771 109.042C161.58 108.799 165.092 108.795 171.153 111.983C178.837 115.975 184.55 122.941 186.957 131.258C192.638 150.696 178.656 164.126 161.136 168.979C131.307 170.762 126.809 150.406 127.68 126.362C136.136 112.451 138.761 110.855 154.771 109.042Z" fill="white"/>
<path d="M322.984 553.479C329.925 552.487 337.811 552.015 344.476 554.338C352.572 557.186 359.175 563.184 362.785 570.97C370.893 588.386 360.609 604.128 344.454 611.509C341.673 612.737 339.386 612.797 336.383 612.974C312.867 614.358 300.429 594.997 305.819 573.186C308.361 562.904 314.11 558.66 322.984 553.479Z" fill="white"/>
<path d="M565.584 58.5184C582.075 55.8551 597.645 66.9403 600.523 83.3942C603.401 99.8477 592.519 115.56 576.103 118.652C565.292 120.689 554.221 116.751 547.125 108.345C540.027 99.9389 538.003 88.3652 541.824 78.0496C545.647 67.7339 554.724 60.2723 565.584 58.5184Z" fill="white"/>
<path d="M563.342 310.921C573.859 307.663 585.314 310.34 593.296 317.924C601.278 325.506 604.541 336.809 601.825 347.478C599.111 358.147 590.843 366.517 580.206 369.362C564.2 373.644 547.71 364.33 543.117 348.41C538.522 332.491 547.514 315.825 563.342 310.921Z" fill="white"/>
<path d="M806.801 203.177C814.023 202.872 819.347 202.078 826.102 204.654C833.737 207.514 839.871 213.369 843.084 220.862C850.765 239.029 839.307 254.836 822.441 261.603C792.976 265.057 776.047 243.536 788.527 214.889C791.523 208.011 799.809 204.878 806.801 203.177Z" fill="white"/>
<path d="M96.9342 403.887C107.52 400.959 118.863 403.968 126.604 411.76C134.346 419.551 137.283 430.911 134.286 441.477C131.29 452.043 122.828 460.173 112.149 462.742C96.0189 466.622 79.756 456.855 75.604 440.793C71.4519 424.732 80.944 408.308 96.9342 403.887Z" fill="white"/>
<path d="M266.943 363.91C283.055 360.051 299.291 369.806 303.445 385.844C307.601 401.882 298.143 418.292 282.183 422.739C271.595 425.69 260.239 422.694 252.485 414.906C244.731 407.117 241.786 395.749 244.784 385.175C247.781 374.602 256.255 366.471 266.943 363.91Z" fill="white"/>
<path d="M1603.56 518.296C1624.46 516.185 1631.72 535.325 1613.95 547.553C1593.47 549.274 1583.02 527.628 1603.56 518.296Z" fill="white"/>
<path d="M685.293 348.614C693.203 345.632 701.501 334.208 704.313 326.398C704.876 329.671 704.883 331.571 707.263 333.964C713.136 336.019 723.691 325.018 727.696 336.128L726.187 337.57C711.251 333.489 695.615 341.175 689.724 355.494C687.849 350.802 688.852 351.486 685.293 348.614Z" fill="white" fill-opacity="0.0117647"/>
<path d="M1808.84 1078.29C1807.19 1068 1807.7 1050.32 1807.68 1039.47C1807.63 1015.19 1807.71 990.907 1807.94 966.626V901.247C1807.88 856.43 1802.72 857.603 1849.13 850.959C1905.11 842.946 1938.08 864.732 1938.34 924.044C1938.46 951.535 1942.53 979.989 1923.25 1003.37C1899.93 1031.9 1864.87 1027.62 1833.54 1017.87C1834.12 1031.84 1835.22 1064.95 1834.01 1078.29H1808.84ZM1884.21 1001.82C1917.46 987.317 1909.84 958.615 1910.79 929.303C1911.95 893.226 1901.95 868.309 1861.37 871.821C1854.57 872.79 1840.33 873.375 1835.89 879.449C1832.63 883.937 1833.41 977.33 1835.5 987.256C1836.54 992.14 1838.44 994.053 1842.59 996.748C1853.56 1003.87 1871.13 1004.88 1883.66 1001.95C1883.85 1001.91 1884.02 1001.86 1884.21 1001.82Z" fill="white"/>
<path d="M0 315.739C14.0538 300.864 32.831 299.382 46.9466 314.63C56.1041 324.522 65.1968 334.438 73.9732 344.696C79.9979 351.61 88.5998 360.938 92.5313 369.255C100.873 386.899 83.1714 406.234 65.3355 405.972C50.6338 405.849 39.2944 390.004 29.8647 380.417C21.662 371.272 6.33037 355.054 0 345.152V315.739Z" fill="white"/>
</svg>
