<svg width="567" height="502" viewBox="0 0 567 502" fill="none" xmlns="http://www.w3.org/2000/svg">
<g clip-path="url(#clip0_2745_701)">
<path d="M429.504 55.7325C435.847 56.0474 442.968 55.9513 449.377 55.9801C449.374 62.201 449.529 68.4517 449.305 74.6687C448.986 83.4951 448.078 92.6917 446.866 101.445C440.944 144.199 422.298 184.554 402.273 222.37C399.537 227.538 391.115 246.178 388.192 249.217C385.581 251.93 370.44 256.68 366.204 257.664C364.975 250.76 362.353 242.973 360.346 236.124L349.728 200.091L335.692 152.287C333.557 145.072 331.434 137.731 329.244 130.527C328.657 128.604 327.436 126.546 326.038 125.093C324.534 132.395 318.133 145.068 314.864 152.355L292.837 201.846L285.52 218.226C284.036 221.565 282.195 225.447 281.06 228.867C283.95 232.362 287.848 236.07 291.11 239.329L306.243 254.453L346.813 295.499L359.039 307.696C362.25 310.888 365.002 313.342 367.829 316.922C367.871 324.273 366.425 330.783 367.079 338.09L366.838 338.311C366.185 337.835 366.328 338.029 365.88 337.401C363.397 335.698 356.907 328.864 354.457 326.411L331.733 303.675L293.792 265.601C288.203 259.999 278.596 250.857 273.699 245.26C272.451 244.305 269.568 241.305 268.313 240.053L258.093 229.85L244.447 216.252C241.925 213.736 238.387 210.357 236.171 207.722C235.267 207.106 227.342 198.814 225.939 197.411L196.611 168.006L131.804 102.933L109.364 80.322C102.227 73.1561 95.3581 66.4501 88.6953 58.8428C91.7878 59.3612 95.9916 59.4863 99.2729 59.8186C102.516 59.6552 105.918 60.0462 109.165 60.124C112.159 60.196 113.641 60.7885 115.772 62.863C121.738 68.6713 127.571 74.6338 133.441 80.539L164.596 111.731L205.979 153.615C216.452 164.184 226.508 173.9 236.618 184.876L236.996 183.882L237.468 183.954C237.363 182.365 235.932 177.67 235.433 175.828C234.242 171.366 233.08 166.896 231.948 162.419L216.077 100.104C214.485 93.6135 212.841 87.1359 211.143 80.672C210.391 77.7967 208.847 71.6235 207.616 69.0844C211.992 66.184 222.422 60.5883 227.323 59.0101C228.163 66.0796 229.807 71.6562 231.594 78.5612L237.311 100.62L256.485 175.251C259.223 185.977 263.662 200.454 264.56 211.002C269.075 206.128 270.162 201.543 272.704 195.565L281.755 174.499L310.982 107.02C314.515 98.6321 318.109 90.2695 321.758 81.9329C325.246 73.8289 327.552 67.942 331.896 60.3394C332.497 68.225 336.389 79.3058 338.657 87.2708L350.238 128.287L369.008 194.833L374.144 213.061C375.052 216.346 375.93 220.099 377.004 223.26C404.446 182.434 424.493 126.815 429.031 77.7685C429.67 70.8413 429.551 62.768 429.504 55.7325Z" fill="white"/>
<path d="M273.695 245.26L273.868 244.78C275.188 245.729 278.429 247.476 279.32 248.389C283.6 252.778 287.786 257.342 292.224 261.601C293.539 262.863 294.644 264.449 295.923 265.669L333.498 302.047C339.085 307.538 345.815 313.768 351.078 319.392C353.703 322.244 356.178 325.228 358.495 328.335C359.365 329.523 360.123 330.811 360.912 332.032C361.28 332.602 364.257 333.793 364.284 334.1C364.318 334.488 365.849 337.292 365.876 337.4C363.393 335.698 356.903 328.864 354.453 326.411L331.729 303.675L293.789 265.601C288.199 259.999 278.592 250.857 273.695 245.26Z" fill="white"/>
<path d="M88.6953 58.8428C91.7878 59.3611 95.9916 59.4863 99.2729 59.8185C97.2205 60.5595 93.6186 59.3686 92.2845 60.5088C92.3235 61.4597 92.1696 61.9467 92.7842 62.6303C98.2648 68.7272 104.384 74.6396 110.188 80.4182L136.893 107.261C164.591 135.262 192.503 163.051 220.627 190.625C225.642 195.611 229.893 201.324 235.294 206.1C236.589 207.246 236.666 207.101 236.171 207.722C235.267 207.106 227.342 198.814 225.939 197.411L196.611 168.005L131.804 102.933L109.364 80.3219C102.227 73.156 95.3581 66.45 88.6953 58.8428Z" fill="white"/>
<path d="M114.403 350.37C116.998 351.793 122.616 375.395 123.656 379.178L138.391 432.969C140.392 440.157 143.964 457.102 148.336 462.139C148.619 456.097 150.134 452.102 152.462 446.536C158.819 431.338 166.625 416.444 171.652 400.739C176.598 385.288 178.453 370.04 178.949 353.828C185.113 354.108 191.103 354.133 197.272 354.172C197.13 382.597 193.164 406.958 181.099 432.789C172.771 450.62 161.102 469.85 156.137 488.751C152.508 489.847 139.075 494.12 136.75 496.019C135.078 492.051 133.887 487.574 132.719 483.429L127.255 463.659C123.059 448.61 118.267 433.066 114.356 417.997C113.328 414.52 113.079 412.786 112.789 409.156C108.047 414.248 104.565 424.994 101.735 431.77L86.5869 468.053C85.2469 471.274 82.4609 478.874 80.8433 481.369C77.4435 486.616 67.4994 489.46 63.3053 494.773L63.037 495.117C55.1569 463.762 46.2665 431.786 38.0373 400.462C35.9863 392.468 33.893 384.488 31.7576 376.517C30.97 373.523 29.0312 364.873 27.7344 362.78C30.8376 360.565 41.5478 354.357 45.0365 353.106C46.6048 360.031 48.7591 367.712 50.5589 374.625L63.2261 422.292C65.6882 431.526 68.9964 443.009 70.7638 452.199C74.7422 444.726 78.5529 435.32 81.9657 427.45L98.5421 389.043L107.544 368.398C110.316 362.046 112.731 357.129 114.403 350.37Z" fill="white"/>
<path d="M488.734 387.498C498.302 386.864 505.429 387.867 514.407 391.383C524.701 395.418 537.109 406.579 542.07 416.483C544.161 420.655 545.941 427.641 548.018 432.503C547.475 433.594 470.389 454.283 462.648 457.158C470.686 462.446 475.138 469.097 485.678 471.182C499.836 473.981 512.594 468.039 522.859 458.586C525.088 456.537 526.957 454.859 529.504 453.22C534.595 450.604 539.961 450.836 545.495 451.235C542.621 458.675 541.719 463.543 536.065 470.332C506.19 506.214 447.499 492.101 440.188 444.778C438.441 433.47 445.595 415.824 452.862 406.844C461.813 395.932 474.701 388.985 488.734 387.498ZM502.9 406.606C499.924 405.922 496.868 405.64 493.814 405.77C474.485 407.06 459.017 421.76 457.547 441.214C463.915 439.868 475.155 435.964 481.938 434.051C492.94 430.792 503.934 427.379 514.988 424.308C516.517 423.884 523.543 422.665 524.094 422.109C524.996 418.637 519.931 415.344 517.563 413.5C513.305 410.186 508.155 407.827 502.9 406.606Z" fill="white"/>
<path d="M230.027 351.043C230.585 351.741 230.556 352.084 230.558 353.131C230.586 363.508 230.629 373.942 230.657 384.314C230.686 394.993 231.302 405.692 230.867 416.344C234.267 414.226 236.336 411.79 239.377 409.322C247.035 403.106 255.908 400.188 265.694 400.099C275.263 400.013 283.428 402.27 290.457 409.087C293.655 412.299 296.626 416.807 297.611 421.306C299.35 429.253 298.879 438.291 299.009 446.415C299.328 460.816 299.438 475.219 299.342 489.62C293.456 489.684 287.467 489.618 281.579 489.59C281.584 470.928 280.789 452.808 280.715 434.193C280.46 430.034 279.765 425.241 276.508 422.358C266.418 413.431 249.434 418.817 241.125 427.525C229.978 439.207 231.066 454.137 230.921 468.992C230.852 475.978 230.673 482.787 230.918 489.687L212.749 489.579L212.691 401.755C212.717 395.143 212.646 388.531 212.477 381.921C212.331 376.234 211.987 368.149 212.494 362.589C217.195 360.23 225.421 354.158 230.027 351.043Z" fill="white"/>
<path d="M365.858 354.1C370.941 354.083 379.064 354.08 384.064 353.646C384.114 366.136 384.117 379.327 384.573 391.79C397.768 391.967 410.963 391.973 424.158 391.809C424.704 394.755 424.421 406.645 424.394 410.192C412.536 409.945 400.678 409.804 388.818 409.768L384.443 410.006L384.726 439.085C384.809 449.446 382.857 464.686 393.862 470.058C403.347 474.688 417.976 471.811 426.168 465.691C429.169 469.861 430.476 472.832 432.613 477.451C433.303 478.583 434.006 479.813 434.798 480.865C433.452 481.38 432.461 481.773 431.16 482.402C419.897 487.978 413.051 490.116 400.224 489.886C390.061 489.703 381.343 486.959 374.108 479.469C370.62 475.92 368.142 471.506 366.927 466.68C365.127 459.561 365.78 448.062 365.783 440.251C365.728 430.114 365.739 419.98 365.814 409.843C363.765 410.178 351.013 410.045 348.134 410.053L348.123 400.451C348.112 397.643 348.078 394.836 348.026 392.028C347.99 391.419 348.056 390.99 348.125 390.391C349.036 389.688 363.726 389.893 365.772 390.134C365.905 378.369 365.556 365.66 365.858 354.1Z" fill="white"/>
<path d="M424.161 391.809C424.706 394.755 424.424 406.645 424.396 410.192C412.539 409.945 400.681 409.804 388.82 409.768C390.21 409.325 392.076 409.447 393.563 409.333C403.322 408.583 414.227 407.47 424.031 408.287C424.285 402.982 423.795 397.045 424.161 391.809Z" fill="white"/>
<path d="M365.772 390.134C365.825 391.308 366.06 391.527 365.517 392.219C360.445 392.355 353.261 392.155 348.026 392.028C347.99 391.419 348.056 390.99 348.125 390.392C349.036 389.688 363.726 389.893 365.772 390.134Z" fill="#CCE3E9"/>
<path d="M348.125 400.451C348.861 401.68 348.067 406.119 348.452 407.966C349.598 408.356 349.282 408.088 349.936 408.063C352.245 407.968 364.77 409.054 365.816 409.843C363.767 410.178 351.015 410.045 348.136 410.053L348.125 400.451Z" fill="white"/>
<path d="M432.618 477.451C433.307 478.583 434.01 479.813 434.802 480.865C433.456 481.38 432.465 481.773 431.164 482.402C431.308 480.627 431.613 478.943 432.618 477.451Z" fill="white"/>
<path d="M314.898 391.848C318.996 392.202 329.284 391.853 333.73 391.831C333.124 402.644 333.572 415.563 333.661 426.506L333.763 473.514C333.78 478.066 333.744 484.575 334.151 489.269C334.065 489.388 333.982 489.504 333.896 489.623C328.5 489.914 320.646 489.689 315.062 489.72C315.195 479.943 315.012 469.698 314.993 459.891L314.898 391.848Z" fill="white"/>
<path d="M323.311 349.243C340.235 349.329 344.061 376.013 324.543 378.732C317.317 379.158 311.589 373.429 310.354 366.576C309.662 362.694 310.553 358.699 312.829 355.479C315.42 351.782 318.984 350.035 323.311 349.243Z" fill="white"/>
</g>
<defs>
<clipPath id="clip0_2745_701">
<rect width="567" height="502" fill="white"/>
</clipPath>
</defs>
</svg>
