<svg width="2139" height="369" viewBox="0 0 2139 369" fill="none" xmlns="http://www.w3.org/2000/svg">
<path d="M1751.16 61.1782C1818.82 53.2874 1880.12 101.592 1888.27 169.22C1896.42 236.847 1848.35 298.332 1780.75 306.741C1712.79 315.195 1650.9 266.807 1642.7 198.813C1634.51 130.818 1683.13 69.1119 1751.16 61.1782ZM1774.3 255.622C1789.47 253.301 1803.36 248.966 1812.59 235.874C1826.72 215.815 1826.94 185.026 1823.8 161.546C1818.45 121.645 1790.79 108.795 1753.66 112.659C1705.54 119.644 1702.41 166.42 1707.28 206.075C1711.93 243.897 1738.28 258.475 1774.3 255.622Z" fill="white"/>
<path d="M1487.77 61.1464C1555.42 53.4552 1616.57 101.904 1624.55 169.527C1632.53 237.149 1584.34 298.498 1516.75 306.765C1448.75 315.081 1386.95 266.538 1378.93 198.508C1370.9 130.478 1419.7 68.8841 1487.77 61.1464ZM1511.22 255.614C1558.95 247.408 1563.33 212.31 1560.89 170.189C1558.34 126.241 1532.23 107.514 1489.77 112.652C1438.52 121.127 1438.95 169.923 1444.29 211.864C1446.45 228.805 1457.97 240.364 1470.79 250.425C1477.06 255.2 1502.74 256.336 1511.22 255.614Z" fill="white"/>
<path d="M956.803 66.49L1045.99 66.4172C1069.76 66.4107 1093.46 64.0246 1115.7 73.0717C1144.7 84.8703 1156.88 114.342 1156.92 143.93C1156.99 194.742 1130.14 222.251 1079.68 223H1013.03L1013.02 301.51H956.803V66.49ZM1070.45 169.088C1081.54 162.438 1095.29 160.281 1098.24 147.017C1099.23 142.593 1099.1 137.205 1096.76 133.576C1091.26 125.044 1046.87 103.359 1038.63 101.382C1035.76 100.715 1032.78 100.704 1029.91 101.348C1003.71 110.005 1015.21 137.946 1012.7 159.445C1011.76 167.494 1017.29 179.07 1024.77 182.379C1041.18 189.627 1056.22 175.566 1070.45 169.088Z" fill="white"/>
<path d="M549.526 66.49H622.282V115.51C587.653 115.403 506.063 104.977 497.895 149.975C476.833 266.015 539.543 253.046 623.196 252.832L623.2 301.51C576.425 301.602 500.041 308.716 464.813 274.425C421.559 232.321 422.404 118.127 476.496 83.6674C498.26 69.8025 524.543 67.0006 549.526 66.49Z" fill="white"/>
<path d="M1280.65 66.49H1356.51V115.51C1331.61 115.412 1300.49 113.707 1276.14 117.63C1249.66 121.897 1248.89 146.938 1248.07 168.828H1353.25V217.51H1248.19V301.51L1191.04 301.506L1190.97 196.597C1190.97 157.582 1185.92 108.763 1221.36 82.4547C1238.86 69.4696 1259.66 66.9759 1280.65 66.49Z" fill="white"/>
<path d="M655.213 66.4939L711.723 66.49L711.665 164.572C711.662 184.771 710.709 205.41 713.731 225.37C715.253 235.419 729.201 249.272 738.443 250.553C765.823 254.346 795.324 252.894 823.108 252.832C823.176 260.684 823.771 296.698 822.605 301.51C762.216 301.6 676.11 316.696 658.248 241.733C656.14 232.968 654.858 224.024 654.419 215.019C653.735 201.494 653.799 68.792 655.213 66.4939Z" fill="white"/>
<path d="M855.1 66.4938L910.328 66.49L910.345 238.201C910.346 246.561 911.197 297.05 909.685 301.51L854.038 301.506C854.032 279.32 853.247 69.3803 855.1 66.4938Z" fill="white"/>
<path d="M176.355 58.4883C178.233 58.4354 181.571 58.3434 183.246 58.6313C190.147 59.6375 204.768 57.2439 203.291 68.3062C198.819 101.784 206.262 196.238 196.599 223.377C194.41 227.942 192.57 230.106 187.478 229.556C174.377 220.982 179.18 149.197 176.927 131.458C175.696 121.773 173.725 65.7347 176.355 58.4883Z" fill="white"/>
<path d="M130.632 58.4152C132.882 57.9864 141.558 58.2601 144.344 58.2986C147.498 106.274 139.926 162.083 140.421 210.785C140.49 217.559 138.529 225.581 133.168 230.09C131.589 229.768 126.699 228.521 126.132 227.352C118.623 211.9 120.159 178.39 119.329 162.068C117.59 127.883 116.317 94.4779 117.064 60.8824L130.632 58.4152Z" fill="white"/>
<path d="M1920.57 66.49L1997.24 66.4138C2043.33 66.4127 2091.89 64.5282 2120.64 108.581C2135.61 131.523 2135.69 153.276 2139 179.363V190.748C2137.95 195.75 2137.35 203.691 2136.71 209.015C2125.77 300.579 2062.34 301.653 1988.29 301.595L1920.57 301.51V66.49ZM1977.15 252.832C2005.09 252.943 2040.57 255.993 2063.37 238.437C2079.21 218.741 2077.97 204.598 2078.53 181.066C2080.27 108.788 2032.33 115.234 1977.16 115.51L1977.15 252.832Z" fill="white"/>
<path d="M136.242 0H177.697C190.603 3.10201 207.223 1.92619 219.501 4.75037C253.746 12.6276 316.544 14.3514 319.305 60.7214C320.439 81.7637 320.443 103.843 319.997 124.926C319.114 166.591 323.021 211.226 314.401 252.02C302.159 309.957 236.289 368.945 175.876 368.552C172.379 342.61 171.662 306.173 188.794 285.13C197.021 273.266 211.8 263.859 219.672 252.08C242.492 217.934 230.496 168.426 232.658 129.831C232.94 124.804 230.783 68.3684 234.697 67.2049C238.43 66.0954 265.276 71.9581 262.644 79.7131C264.02 101.76 263.23 123.2 262.621 145.229C261.481 187.21 270.129 236.564 241.633 271.849C219.758 298.936 204.843 296.001 203.709 334.825C233.598 325.678 262.59 299.049 277.151 271.712C284.236 258.21 288.891 243.567 290.903 228.453C292.925 213.543 293.831 68.2343 290.802 58.3076C289.43 53.8143 286.664 51.7521 282.631 49.6473C269.982 43.0461 253.822 39.9435 239.944 37.0047C180.073 24.3253 116.818 23.6771 57.9323 42.326C50.0624 44.8184 34.381 48.2542 30.3158 55.9982C28.0664 60.2832 27.2407 65.1919 26.964 69.9768C26.0248 86.2148 27.9195 103.597 27.8847 119.99C27.8152 152.744 25.724 186.592 28.4247 219.172C29.4611 231.298 31.8479 243.27 35.5408 254.866C47.8808 293.406 79.3192 320.982 116.336 335.155C115.868 327.627 115.568 320.301 113.012 313.123C105.223 291.25 76.5789 279.206 64.7414 248.319C61.1894 239.051 59.5152 229.025 58.6897 219.167C57.4515 204.38 55.1483 79.8305 59.0838 75.3007C61.6983 72.2915 76.3989 67.312 80.1114 67.1351C81.7915 67.055 83.0662 67.5618 84.472 68.4391C88.897 73.5226 87.0245 87.3327 86.9863 94.2923L86.8349 142.781C86.7248 181.24 78.2407 236.988 111.291 263.707C141.365 288.019 148.323 315.419 145.704 353.018C145.323 358.026 144.874 363.028 144.358 368.023C117.344 370.497 78.2741 350.741 57.8291 333.336C31.6208 311.024 10.9651 281.483 4.42349 247.172C2.66136 237.929 1.68492 219.527 0 212.885V62.6147C0.922274 59.1595 4.2598 42.1357 5.63509 40.3138C24.3288 15.5503 70.8028 10.9588 99.5667 4.38016C108.579 2.31906 125.878 2.01538 136.242 0Z" fill="white"/>
</svg>
