<svg width="533" height="185" viewBox="0 0 533 185" fill="none" xmlns="http://www.w3.org/2000/svg">
<g clip-path="url(#clip0_1598_147)">
<path d="M56.8672 35.8503C62.4409 35.1115 79.1697 35.5716 85.5576 35.6491C101.334 35.8141 117.403 35.4795 133.041 36.6481C171.439 39.5176 184.758 64.1842 180.418 100.423C178.811 113.839 173.644 123.849 162.983 132.27C158.258 135.387 153.427 137.923 147.939 139.426C130.305 144.252 110.299 143.218 92.1748 143.213C81.6861 143.213 71.1183 143.45 60.6386 143.096C58.3484 143.023 51.1814 142.911 49.8593 141.045C47.587 137.827 48.1752 45.3697 49.7783 36.6003C52.0501 36.2812 54.5658 36.0828 56.8672 35.8503ZM109.041 46.9616C95.1386 47.0011 74.7539 46.4045 61.4121 47.3073C60.5161 73.311 61.1264 104.679 61.2646 131.014C77.6422 131.9 94.2873 131.289 110.705 131.458C113.622 131.489 117.017 131.536 119.912 131.357C157.349 129.749 170.439 120.252 167.623 80.2633C165.192 45.7468 135.926 46.6615 109.041 46.9616Z" fill="white"/>
<path d="M404.779 34.2651C425.235 32.3029 453.543 35.4556 469.352 49.5884C488.869 67.0376 488.859 106.92 471.699 125.984C459.76 139.241 440.39 143.491 423.399 144.393C388.795 146.824 348.411 138.904 344.688 97.6128C340.696 53.4092 363.841 37.6544 404.779 34.2651ZM471.102 81.8931C468.307 44.9923 433.192 44.0134 403.793 45.3423C390.831 46.1749 375.817 48.0384 366.694 58.3901C353.331 73.5612 353.674 108.429 369.23 121.908C381.966 132.945 409.709 134.617 425.672 132.792C459.221 129.966 473.781 117.241 471.102 81.8931Z" fill="white"/>
<path d="M205.726 35.0049C216.279 37.4396 212.611 48.3678 213.106 56.8332C214.259 76.5923 208.01 111.224 226.092 124.603C242.268 136.573 285.552 137.032 301.736 122.957C318.543 107.121 310.965 70.7277 312.578 49.6898C312.821 46.4704 312.584 39.8617 314.735 37.3073C315.669 36.1809 317.056 35.5275 318.516 35.5243C320.135 35.5011 321.68 36.2056 322.724 37.4438C325.182 40.3727 324.85 47.6058 324.876 51.3177C324.876 66.8675 325.44 84.493 324.096 99.7332C323.036 111.73 317.124 125.805 307.163 133.241C290.219 145.343 265.903 145.965 246.676 143.798C201.468 138.704 198.268 104.168 200.027 66.4857C200.348 59.6034 199.245 51.1295 200.246 44.0536C200.915 39.318 201.949 37.6891 205.726 35.0049Z" fill="white"/>
</g>
<defs>
<clipPath id="clip0_1598_147">
<rect width="533" height="185" fill="white"/>
</clipPath>
</defs>
</svg>
