<svg width="394" height="574" viewBox="0 0 394 574" fill="none" xmlns="http://www.w3.org/2000/svg">
<g clip-path="url(#clip0_1591_11)">
<path d="M153.623 3.36328C166.148 18.4804 177.467 33.4443 186.81 50.8984C195.464 67.0642 196.824 78.459 194.945 96.5849C194.492 100.96 193.422 108.068 192.072 112.259C190.887 118.549 185.871 132.788 182.873 138.838C181.704 141.805 178.192 149.606 176.465 152.494C174.839 156.134 172.538 160.213 170.576 163.707C167.45 169.37 164.184 174.954 160.78 180.454C155.796 188.659 150.748 196.826 145.638 204.953C143.791 207.908 140.173 214.078 138.279 216.629C133.302 225.602 127.628 234.209 122.674 243.221C108.729 268.59 96.6455 296.933 95.8805 326.247C95.4562 342.491 98.5914 359.851 103.036 375.437C111.286 404.367 127.891 431.411 154.768 446.327C171.762 455.761 193.22 459.239 212.045 453.785C225.415 449.912 237.329 442.064 244.117 429.648C250.918 417.206 251.043 402.893 247.099 389.507C233.968 344.944 174.587 302.168 134.971 280.649L134.766 280.54C140.113 273.432 145.207 266.199 150.466 259.029C177.974 221.521 208.466 178.52 224.767 134.683C227.63 127.126 230.084 119.42 232.118 111.599C233.299 106.989 234.14 102.16 235.323 97.5886C275.629 137.219 257.947 170.721 232.37 212.042C230.512 214.988 228.675 217.945 226.857 220.915C226.471 221.553 224.129 225.527 223.806 225.878C216.555 239.473 209.661 251.657 212.706 267.482C212.906 268.1 213.113 268.717 213.329 269.33C215.989 276.877 222.388 284.962 229.686 288.463C251.088 266.959 271.764 238.241 285.059 210.978C288.789 203.327 292.025 194.923 295.307 187.021C297.237 190.115 299.605 193.198 301.547 196.389C306.533 204.572 312.126 216.718 312.756 226.416C315.926 244.444 307.435 265.042 298.047 279.977C292.74 288.673 286.606 296.941 280.379 304.996C277.075 309.273 273.266 314.568 269.725 318.64C279.996 326.059 285.092 335.479 289.797 347.152C290.403 348.652 292.3 354.055 292.546 355.532C299.196 376.816 298.196 404.656 288.702 424.99C284.532 433.67 276.634 445.629 269.093 451.725C267.697 453.479 263.892 456.271 261.992 457.692C247.534 468.502 229.389 475.624 211.781 479.265L204.121 480.815C191.311 482.945 176.823 483.976 163.897 482.244C156.959 482.188 134.72 476.809 128.263 473.861C127.157 473.682 122.766 471.807 121.564 471.28C109.947 466.254 99.0047 459.794 88.9925 452.05C68.3504 436.035 53.2015 413.995 45.6466 388.983C41.68 375.577 40.5271 363.391 40.6188 349.478C41.3048 245.332 131.773 172.279 151.807 73.5531C156.741 49.2377 156.854 27.7436 153.623 3.36328Z" fill="white"/>
<path d="M48.9678 525.821C59.3673 525.12 68.3616 532.996 69.042 543.397C69.7224 553.801 61.8303 562.78 51.4277 563.439C41.056 564.095 32.1108 556.231 31.4326 545.858C30.7542 535.485 38.5988 526.522 48.9678 525.821ZM49.6396 534.013C36.1502 535.945 38.3527 555.723 51.0713 555.224C64.4486 552.575 61.8385 533.472 49.6396 534.013Z" fill="#FEFEFE"/>
<path d="M193.462 526.368C202.014 526.287 214.373 524.924 220.877 531.188C228.331 538.366 228.238 550.306 221.244 557.851C214.284 564.479 202.725 563.038 193.455 563.002L193.462 526.368ZM202.483 555.253C207.432 555.27 210.483 555.589 214.51 552.456C218.236 547.75 218.541 540.295 213.645 536.169C210.955 533.902 205.984 534.011 202.544 533.969L202.483 555.253Z" fill="#FEFEFE"/>
<path d="M261.993 526.168C271.393 525.314 277.698 529.128 280.968 537.887C277.633 537.993 274.482 537.962 271.153 537.918C266.598 532.929 259.805 532.606 255.911 538.711C253.2 543.004 253.944 551.699 259.067 554.014C265.785 557.049 270.348 555.031 273.537 548.952C269.796 548.994 265.917 548.938 262.166 548.929C262.113 546.937 261.625 544.638 262.262 542.878C263.084 542.15 263.157 542.379 264.465 542.335L281.528 542.315C281.665 547.719 282.31 551.242 278.949 555.869C272.737 564.423 260.274 565.628 252.023 559.426C242.169 552.015 243.103 534.571 253.934 528.531C256.792 526.92 258.813 526.488 261.993 526.168Z" fill="#FEFEFE"/>
<path d="M343.47 526.337L353.919 526.328C358.162 538.184 363.276 551.191 367.112 563.041L357.686 563.005C357.136 561.253 356.388 558.618 355.528 556.99C355.273 556.505 354.833 556.609 354.278 556.575C350.136 556.609 345.994 556.592 341.85 556.525C341.41 558.288 340.376 561.183 339.787 562.996C336.671 563.061 333.387 563.005 330.257 562.996C333.779 553.621 337.064 544.12 340.541 534.722C341.556 531.973 342.595 529.131 343.47 526.337Z" fill="#FEFEFE"/>
<path d="M135.335 526.348C138.321 526.325 141.308 526.339 144.294 526.39L144.309 535.112C144.351 542.385 145.827 553.041 140.313 558.899C133.133 566.525 115.994 564.342 114.125 552.878C112.862 545.132 113.487 534.644 113.518 526.384C116.509 526.294 119.631 526.37 122.634 526.398C122.617 526.667 122.602 526.936 122.589 527.203C122.386 531.505 122.461 536.292 122.509 540.591C122.573 546.214 120.92 555.261 129.168 555.118C136.635 554.992 135.388 545.743 135.36 540.687C135.307 535.908 135.299 531.126 135.335 526.348Z" fill="#FEFEFE"/>
<path d="M88.5463 526.163C98.1085 525.176 105.47 529.557 108.193 538.87C105.259 538.716 101.577 538.783 98.5829 538.75C98.0631 538.088 97.4645 537.292 96.8701 536.718C93.3006 533.27 88.0584 533.102 84.5356 536.751C80.6553 540.773 80.5376 548.845 84.5822 552.794C86.5006 554.571 89.4413 555.331 91.9805 555.045C95.0461 554.697 96.7508 552.343 98.92 550.502C98.92 550.502 100.413 550.44 100.534 550.434C103.07 550.376 105.733 550.451 108.279 550.488C106.305 556.746 102.554 560.973 95.8728 562.674C74.4542 568.128 63.6312 540.482 80.8989 528.624C83.0555 527.141 85.8942 526.507 88.5463 526.163Z" fill="#FEFEFE"/>
<path d="M161.819 525.891C169.571 525.191 175.499 528.901 176.716 536.766C173.539 536.861 170.117 536.797 166.92 536.791C166.676 535.765 166.497 534.933 165.696 534.193C164.857 533.428 163.744 533.033 162.61 533.1C160.917 533.201 158.735 534.552 158.952 536.544C159.183 538.66 161.738 539.7 163.56 540.39C168.792 542.371 176.392 544.213 177.22 550.866C177.599 554.297 175.666 558.507 172.911 560.592C170.152 562.683 167.196 563.198 163.813 563.459C155.821 563.128 150.444 560.441 149.334 552.066C152.444 552.027 155.554 552.027 158.664 552.058C160.211 555.6 163.257 558.022 167.177 554.614C167.566 554.277 167.821 553.123 167.682 552.59C166.852 549.417 163.204 548.501 160.481 547.654C155.699 546.205 150.273 544.232 149.621 538.509C149.238 535.143 149.587 533.033 151.756 530.356C154.469 527.01 157.745 526.362 161.819 525.891Z" fill="#FEFEFE"/>
<path d="M4.47692 526.342C12.4451 526.295 20.4135 526.314 28.3814 526.401L28.3164 533.582C23.3723 533.615 18.4279 533.607 13.4839 533.556L13.4693 541.236L24.622 541.219C24.6407 543.529 24.6026 545.888 24.5887 548.204C21.0498 548.31 17.0817 548.22 13.5095 548.22C13.3747 552.965 13.4748 558.19 13.4699 562.971C10.4943 563.019 7.45016 562.994 4.46826 563.002L4.47692 526.342Z" fill="#FEFEFE"/>
<path d="M300.006 526.387C308.998 526.135 319.311 526.301 328.354 526.396C328.373 528.795 328.362 531.194 328.326 533.59L318.689 533.613C318.579 540.216 318.652 546.996 318.647 553.61L318.666 563.002L309.643 563.014C309.553 553.218 309.707 543.406 309.584 533.593L300.048 533.568C299.997 531.205 300.017 528.756 300.006 526.387Z" fill="#FEFEFE"/>
<path d="M371.288 526.393C374.25 526.306 377.276 526.365 380.244 526.387L380.246 556.102L391.817 556.141L391.783 562.982L371.276 563.019L371.288 526.393Z" fill="#FEFEFE"/>
<path d="M286.465 526.353C289.458 526.331 292.482 526.37 295.478 526.387L295.489 562.974C292.53 563.044 289.433 563.005 286.463 563.013C286.325 550.917 286.409 538.453 286.465 526.353Z" fill="#FEFEFE"/>
<path d="M231.47 526.365C234.432 526.306 237.485 526.37 240.455 526.398L240.427 563.002H231.463L231.47 526.365Z" fill="#FEFEFE"/>
</g>
<defs>
<clipPath id="clip0_1591_11">
<rect width="394" height="574" fill="white"/>
</clipPath>
</defs>
</svg>
