<svg width="1110" height="203" viewBox="0 0 1110 203" fill="none" xmlns="http://www.w3.org/2000/svg">
<path d="M533.826 43.5213C537.551 42.7991 548.653 43.2835 552.753 43.2898L587.551 43.3484L620.886 43.2784C635.955 43.2303 649.617 41.6239 662.097 51.8445C676.701 63.2262 674.827 82.2952 674.485 99.0321C674.263 109.943 675.737 128.125 673.57 138.538C672.449 144.122 669.951 149.34 666.311 153.725C659.123 162.355 651.074 165.14 640.397 166.099C632.575 166.5 624.114 166.216 616.233 166.223C590.129 166.245 563.993 166.308 537.89 166.176C527.241 166.122 520.769 164.657 512.422 157.963C497.06 145.644 499.624 127.423 499.522 110.023C499.05 81.3462 495.415 46.9565 533.826 43.5213ZM641.898 144.231C654.481 139.217 652.959 132.547 652.872 120.839C652.775 107.192 653.04 93.4943 652.894 79.8359C652.807 72.0347 647.975 65.6059 639.758 65.5236C607.42 65.1982 575.038 65.4933 542.694 65.4315C539.29 65.4261 535.69 65.4115 532.3 65.6898C525.716 67.4242 522.059 71.6314 521.626 78.5448C521.029 88.0674 522.066 98.7014 521.69 108.135C520.178 146.043 521.993 144.573 556.106 144.576L594.712 144.563L624.797 144.54C629.347 144.537 637.618 144.745 641.898 144.231Z" fill="white"/>
<path d="M100.62 20.5536C104.28 20.1987 113.042 20.4672 116.988 20.4718L148.413 20.4236C163.904 20.4208 174.722 20.8205 186.529 32.4004C201.22 46.8082 198.842 65.2178 198.821 84.0302L198.773 117.733C195.16 122.471 180.986 135.691 176.046 140.306C175.323 121.28 176.137 101.929 175.858 82.868C175.791 78.3294 176.121 72.306 173.813 68.259C168.085 63.7995 160.303 75.1155 156.238 79.2026L129.934 105.515L99.5598 135.763C92.2271 142.984 85.0032 150.324 77.8693 157.75C76.1863 159.209 76.3266 163.127 77.736 164.623C79.2782 165.794 83.4973 166.246 85.2621 166.284C102.36 166.655 119.46 166.268 136.563 166.488C140.912 166.544 145.797 166.758 150.074 166.211C143.706 174.193 134.796 180.926 128.433 188.501C126.622 189.139 120.292 189.351 118.177 189.143C93.7227 186.734 58.7929 196.369 40.418 176.392C35.9598 171.474 32.8033 165.52 31.2359 159.071C28.0063 145.731 30.7954 130.529 29.8319 117.591C27.5858 87.4287 31.4092 88.3879 52.65 68.9108C52.8846 78.8724 51.7611 135.673 53.6034 139.898C53.9949 140.795 55.1192 141.554 56.0168 141.891C56.9506 142.24 58.3287 142.496 59.2604 142.059C64.025 139.827 82.1664 119.976 87.3807 114.751L135.058 67.0794C139.631 62.497 144.191 58.0549 148.967 53.6794C151.568 51.2962 152.415 48.5532 150.89 45.3875C145.515 40.7331 92.519 44.4514 82.2943 43.0751C81.569 42.9775 79.7635 42.9141 78.9017 42.8412C84.1842 36.4836 94.1067 25.6368 100.62 20.5536Z" fill="white"/>
<path d="M708.476 43.5739C722.966 42.9999 738.908 43.2208 753.36 43.9943C768.343 44.7965 773.597 62.4554 777.557 73.956L788.369 105.494C789.95 110.099 792.957 119.508 794.999 123.533C801.347 108.803 805.724 92.082 811.385 76.9074C814.727 67.9348 820.539 46.4815 832.321 44.7386C847.672 42.4677 866.766 43.2782 882.545 43.6384C882.973 59.0352 882.659 75.835 882.659 91.388L882.567 166.192C875.325 166.237 867.904 166.371 860.683 166.072C860.667 155.166 861.653 68.3305 860.011 65.6092C854.492 65.4879 845.061 64.6678 840.007 66.8088C838.485 67.4513 837.228 69.962 836.632 71.5113C832.624 81.9639 829.07 92.9384 825.387 103.512C817.977 124.378 810.686 145.29 803.53 166.245C797.918 166.279 792.307 166.241 786.7 166.133C781.37 152.071 754.763 71.0176 751.025 67.4584C747.401 64.0079 734.515 65.5144 729.488 65.6222C728.935 75.1117 729.363 88.8064 729.369 98.5455L729.304 166.177C722.088 166.281 714.873 166.251 707.658 166.089L707.593 73.373C707.593 69.1603 707.046 45.8702 708.476 43.5739Z" fill="white"/>
<path d="M325.84 43.5215C327.533 43.1914 337.38 43.2721 339.4 43.2766L367.356 43.3419C400.332 43.3806 433.852 42.9578 466.774 43.424C467.005 50.5595 466.836 58.2187 466.799 65.3952C421.917 66.5688 376.258 64.6417 331.302 65.3892C321.894 65.5457 314.003 67.8269 313.967 79.0639C313.914 96.1229 313.942 113.204 313.908 130.264C313.873 148.121 334.356 144.546 346.531 144.556L382.211 144.571L415.485 144.563C422.383 144.56 433.975 145.35 440.077 142.954C447.506 137.449 445.249 124.237 445.139 115.649C438.227 115.672 429.916 115.892 423.138 115.371L423.152 93.7275C436.13 93.1872 453.73 93.5467 466.819 93.7205C466.887 108.608 467.716 127.036 465.871 141.705C464.987 146.208 462.707 150.841 459.909 154.322C448.272 168.803 432.156 166.226 415.054 166.24L377.204 166.251L343.47 166.235C329.603 166.223 316.957 167.871 305.058 158.435C288.321 145.163 291.994 123.055 291.838 104.045C291.767 95.3418 291.1 79.3221 292.863 71.2178C294.045 65.6707 296.548 60.4902 300.16 56.1162C307.094 47.7453 315.323 44.528 325.84 43.5215Z" fill="white"/>
<path d="M915.441 43.3938C933.95 42.901 953.467 43.541 972.096 43.3182C990.518 43.0978 1009.25 43.3964 1027.69 43.37C1044.86 43.3454 1061.58 49.9455 1073.53 62.5965C1084.77 74.3922 1090.84 90.1747 1090.4 106.453C1089.94 122.919 1082.94 138.526 1070.93 149.808C1061.83 158.376 1046.27 165.931 1033.69 165.915C994.608 165.864 954.421 167.186 915.43 166.084L915.403 130.732L915.436 87.14C922.548 86.9971 929.931 87.1211 937.065 87.1454L937.13 144.473C964.945 145.018 992.999 144.207 1020.83 144.555C1034.4 144.725 1045.75 143.064 1055.99 133.475C1063.7 126.403 1068.2 116.506 1068.46 106.054C1069.03 88.2151 1056.35 70.2656 1038.32 66.539C1027.21 64.2427 1011.49 65.6123 999.781 65.4103C971.776 64.9269 943.414 66.093 915.425 65.3026L915.441 43.3938Z" fill="white"/>
</svg>
