<svg width="1317" height="209" viewBox="0 0 1317 209" fill="none" xmlns="http://www.w3.org/2000/svg">
<g clip-path="url(#clip0_2735_745)">
<path d="M1086.85 50.4241C1113.26 50.3916 1140.18 50.2485 1166.55 50.4407C1204.05 50.714 1197.26 71.7008 1197.69 99.6024C1197.83 109.155 1197.89 119.047 1197.78 128.635C1197.7 136.538 1195.35 141.963 1189.61 147.291C1189.43 147.501 1189.24 147.705 1189.04 147.901C1179.57 157.375 1156.18 155.034 1143.61 155.014L1086.83 155.012L1086.85 50.4241ZM1117.74 131.948L1144.51 132.029C1149.65 132.042 1160.58 133.028 1164.39 129.582C1165.76 127.391 1166.3 125.509 1166.61 122.956C1167.14 118.549 1167.2 84.0932 1166.24 79.9597C1165.85 78.2494 1165.04 77.2094 1163.54 76.2893C1157.96 72.8419 1125.97 74.4791 1117.72 74.5179C1117.72 93.2924 1117.35 113.282 1117.74 131.948Z" fill="white"/>
<path d="M437.393 50.7127C440.824 50.3751 444.756 50.4691 448.232 50.4933C462.704 50.5943 477.046 50.2536 491.526 50.5464C505.2 50.8228 520.441 53.7384 521.266 70.495C522.116 88.6054 521.449 106.683 521.614 124.806C521.642 127.625 521.413 130.007 521.124 132.729C519.616 146.984 507.732 153.657 495.068 154.848C487.452 155.792 475.271 154.892 467.305 155.02C456.066 155.201 443.28 155.588 432.239 154.152C421.276 152.493 410.884 142.768 410.945 131.202C411.054 110.363 410.034 88.3654 411.321 67.6313C412.128 54.6177 426.522 51.5796 437.393 50.7127ZM485.33 131.51C487.397 130.543 488.851 129.142 489.652 126.963C491.266 122.572 490.941 89.9529 490.425 84.0549C490.243 81.9815 489.858 79.7745 488.977 77.8727C488.364 76.5496 487.536 75.9572 486.199 75.4743C480.812 73.5296 454.808 74.0826 447.561 74.6104C446.005 75.3831 442.277 77.3932 442.362 79.3406C442.664 86.3324 438.161 129.764 446.649 131.039C453.88 132.126 477.756 132.722 485.33 131.51Z" fill="white"/>
<path d="M770.866 50.4699C790.223 50.7353 809.827 50.2877 829.213 50.4746C839.5 50.7062 850.143 49.8699 860.295 51.2709C880.705 54.0867 881.525 67.694 880.93 84.8995C880.71 91.2464 881.755 100.281 876.986 105.388C869.818 113.066 856.606 114.592 846.848 115.34C856.036 127.755 868.433 142.518 876.846 154.887L871.487 154.977L840.97 155.028C830.827 143.135 822.024 128.708 811.637 116.928C809.862 114.92 804.384 115.493 801.884 115.553L801.874 155.045L770.805 155.037C771.522 121.044 770.862 84.6582 770.866 50.4699ZM801.849 93.9124L827.143 94.0254C833.332 94.0434 842.244 94.9344 847.528 91.7294C849.213 88.4779 850.762 84.6665 849.583 80.966C848.853 78.6908 847.163 76.9343 845.054 75.8686C839.27 72.9445 810.137 74.5648 801.874 74.504L801.849 93.9124Z" fill="white"/>
<path d="M890.345 50.4679C926.752 50.8976 963.973 50.4943 1000.44 50.4962L1000.43 74.5341C974.3 74.2154 947.547 74.4901 921.363 74.5286C921.213 79.6743 921.318 85.1549 921.333 90.3269C940.608 90.7399 961.158 90.3694 980.534 90.3594C980.349 97.5434 980.254 108.585 980.684 115.574C967.832 115.362 954.48 115.534 941.593 115.525L921.408 115.582C921.193 120.514 921.303 126.074 921.298 131.054L1000.44 131.073L1000.44 155.039L890.32 155.039L890.345 50.4679Z" fill="white"/>
<path d="M535 50.5065L604.83 50.47C625.562 50.4649 644.757 51.3672 645.303 78.3901C645.455 85.9065 645.363 93.548 645.357 101.077L645.298 155.034L614.087 155.029C614.734 139.931 614.209 121.128 614.204 105.75L614.277 95.318C614.36 79.3371 615.739 74.3429 596.835 74.426C586.742 74.4704 576.145 74.4885 566.025 74.541L566.029 155.041L535.074 155.046L535 50.5065Z" fill="white"/>
<path d="M321.028 50.7108C324.589 50.1843 343.003 50.483 347.357 50.4852L404.89 50.4643C405.067 58.311 404.941 66.6571 404.957 74.544C380.958 74.1365 356.613 74.5705 332.595 74.5962C329.108 74.5999 327.595 76.9004 325.551 79.3008C324.384 91.942 326.101 105.922 325.212 118.524C324.053 134.956 335.6 132.062 347.944 132.033L374.232 131.952L404.907 131.893L404.962 155.035L348.303 155.04C337.48 155.04 324.118 155.851 313.742 153.827C303.901 151.908 294.58 141.847 294.483 131.547C294.368 119.385 294.085 107.41 294.265 95.266C294.77 86.223 293.452 76.1728 294.802 67.2407C296.848 53.7099 310.292 51.4828 321.028 50.7108Z" fill="white"/>
<path d="M681.694 50.7089C684.589 50.2375 703.394 50.4802 707.424 50.4823L765.793 50.4799L765.829 74.5291C757.024 74.5185 693.628 73.2476 690.122 75.521C688.003 76.895 686.749 78.4676 686.217 80.9692C685.457 84.5457 685.438 119.464 686.127 123.909C686.537 126.551 687.422 128.288 688.87 130.528C696.328 132.962 726.151 131.972 735.644 131.952L765.812 131.942L765.844 155.039L709.309 155.033C698.459 155.038 685.313 155.826 674.887 153.832C663.774 151.707 655.196 141.393 655.25 130.061C655.303 118.946 654.957 107.977 655.156 96.849C655.334 86.954 654.661 76.7667 655.731 66.9115C657.621 54.027 671.247 51.3297 681.694 50.7089Z" fill="white"/>
<path d="M1007.75 91.5005L1070.83 91.4705L1070.86 114.082C1051.26 113.375 1027.68 113.991 1007.7 114.027C1007.83 106.611 1007.74 98.9375 1007.75 91.5005Z" fill="white"/>
<path d="M1206.74 50.4422C1231.97 50.0319 1257.75 50.6607 1283.04 50.379C1288.05 50.3231 1313.92 50.099 1316.75 50.8551V74.3975C1291.55 75.1523 1263.21 74.3064 1237.68 74.5273C1237.86 79.8261 1237.75 85.13 1237.69 90.4315C1257.37 90.529 1277.05 90.5065 1296.73 90.3635L1296.77 115.5C1279.17 114.748 1255.44 115.367 1237.62 115.436C1238.17 127.557 1237.8 142.684 1237.8 155.035C1227.56 154.877 1216.98 155.018 1206.72 155.021L1206.74 50.4422Z" fill="white"/>
</g>
<path d="M27.3792 111.731C27.8091 111.885 29.7868 113.069 30.3173 113.373L36.9196 117.171L59.8555 130.408L106.109 157.038C112.072 160.526 118.403 163.859 124.212 167.605C125.467 167.024 126.285 166.302 127.445 165.625C131.706 163.139 135.856 160.514 140.17 158.093L193.109 127.985L208.291 119.312C212.845 116.701 216.542 114.328 221.451 112.124C221.617 123.76 221.152 135.543 221.202 147.194C221.203 147.531 221.033 148.091 220.91 148.417C219.487 149.543 215.445 151.71 213.68 152.714L199.856 160.584L146.475 191.103C141.587 193.919 136.682 196.705 131.76 199.462C129.671 200.652 125.914 202.672 124.066 204.009C123.903 198.447 123.836 191.625 124.037 186.085C121.713 184.658 119.202 183.358 116.829 181.99L96.9554 170.633L48.9531 143.116L34.3265 134.784C32.469 133.718 30.5422 132.759 28.7282 131.62C28.2985 131.35 27.5025 130.915 27.3405 130.408C26.5826 128.034 26.9126 114.681 27.3792 111.731Z" fill="white"/>
<path d="M220.954 39.3785C221.026 39.4051 221.267 39.5818 221.348 39.6371C221.414 40.2321 221.307 41.6107 221.309 42.3464L221.349 49.6464L221.462 75.1719C219.809 76.4376 213.263 79.9693 211.026 81.2498L188.574 94.101L146.382 118.248C139.287 122.307 131.257 127.171 124.102 130.932C124.232 129.232 124.147 126.513 124.145 124.754L124.111 113.129C122.311 112.001 119.84 110.724 117.951 109.662C114.303 107.607 110.669 105.529 107.048 103.426C96.6427 97.2986 86.2015 91.2321 75.7252 85.2269C63.4838 78.3415 51.7835 72.1584 39.6777 64.8535C35.921 62.5288 32.0402 60.1218 28.6271 57.3391C26.2741 55.4208 27.038 52.1832 27.0135 49.4932C26.9826 46.0764 27.1604 42.6386 27.0519 39.2139C35.7434 43.1127 46.4858 49.6146 54.8227 54.4966L98.3899 80.2193C103.17 83.0171 107.976 85.7701 112.808 88.4775C116.412 90.4776 120.333 92.7288 124.213 94.0716C128.169 92.6152 132.493 90.1582 136.194 88.0907C141.251 85.2577 146.277 82.3694 151.271 79.4267L192.536 55.0718C201.554 49.7873 211.529 43.7753 220.954 39.3785Z" fill="white"/>
<path d="M157.924 0.172974C158.648 0.953932 158.039 23.9255 158.222 26.9374C158.305 28.3192 158.279 34.5846 158.138 36.2755C157.463 36.8 155.411 37.8946 154.537 38.3889L147.798 42.2192C145.942 43.2778 126.32 54.7098 125.211 54.7574C121.64 54.911 108.368 47.1082 104.745 44.7485C101.887 43.1204 95.6637 39.0682 93.3047 36.9731L134.65 13.4513C142.159 9.1818 150.645 4.62173 157.924 0.172974Z" fill="white"/>
<defs>
<clipPath id="clip0_2735_745">
<rect width="1023.75" height="137" fill="white" transform="translate(293 35)"/>
</clipPath>
</defs>
</svg>
