<svg width="1791" height="716" viewBox="0 0 1791 716" fill="none" xmlns="http://www.w3.org/2000/svg">
<path d="M934.913 10.5249C1047.34 5.09882 1142.95 91.6606 1148.72 204.08C1154.49 316.499 1068.23 412.397 955.847 418.509C842.977 424.649 746.587 337.925 740.793 225.018C734.999 112.113 822.006 15.9753 934.913 10.5249ZM955.519 337.549C1097.3 320.48 1087.73 80.7185 932.672 91.6822C921.075 93.1514 911.709 94.9357 900.909 99.5564C847.463 122.419 828.473 182.244 835.753 236.383C840.025 268.151 853.966 297.11 879.784 316.953C901.013 333.332 927.966 339.874 954.853 337.713C955.078 337.659 955.294 337.603 955.519 337.549Z" fill="white"/>
<path d="M1431.55 17.7371C1452.42 16.7854 1480.86 17.5749 1502.21 17.7399C1512.17 43.7047 1523.76 84.258 1532.56 111.641L1592.77 299.043L1682.51 17.7005C1715.86 16.6738 1757 17.3592 1790.66 17.7859C1785.55 37.7489 1775.88 65.4923 1769.51 85.7545L1696.95 316.642L1598.55 316.759C1606.53 344.666 1617.58 376.52 1626.56 404.535L1528.66 404.602C1522.35 379.725 1513.8 351.915 1506.71 326.983L1464.62 178.905C1455.39 203.316 1446.45 229.863 1437.65 254.598L1384.32 404.588L1276.17 404.602L1146.06 17.753C1178.18 16.6354 1218.95 17.3836 1251.44 17.769L1334.28 288.315L1431.55 17.7371Z" fill="white"/>
<path d="M186.793 0.785709C201.074 -1.50304 234.313 1.64457 248.006 4.64311C300.318 16.099 341.948 40.0564 371.637 84.7343C352.62 103.196 323.483 127.831 302.997 145.031C290.434 121.73 277.752 104.109 252.961 92.586C225.836 80.4287 193.849 79.1479 165.658 89.3428C72.8841 123.267 68.3653 275.153 158.084 315.203C176.536 323.439 195.503 325.232 215.475 325.835C245.082 326.73 270.26 324.353 298.156 313.742C298.107 293.802 298.622 269.162 297.55 249.66L193.111 249.595L193.092 171.664C223.253 171.094 255.145 171.62 285.45 171.609L388.7 171.669C389.292 199.853 388.775 229.894 388.78 258.198L388.68 407.426L298.856 407.683L298.61 333.532C278.883 347.08 259.62 362.884 240.086 376.921C226.479 386.697 213.934 398.301 200.317 408.357C154.299 408.462 102.17 389.503 67.4063 359.342C26.7154 324.094 4.92443 275.98 0.760431 222.756C-8.46794 104.797 67.0416 9.59941 186.793 0.785709Z" fill="white"/>
<path d="M647.229 19.8974L716.257 19.9255L716.246 117.63L549.406 117.789L549.369 407.14L456.388 407.091L456.396 19.9377C485.948 19.4079 517.085 19.9133 546.768 19.9105C547.205 47.3033 546.856 75.6365 546.941 103.129L647.229 19.8974Z" fill="white"/>
<path d="M948.478 512.669C980.972 509.821 1003.08 518.822 1020.53 546.885L1020.37 515.108L1035.03 515.057L1034.99 601.214C1035.07 636.807 1042.08 684.571 1005.38 704.705C970.209 724.003 919.275 717.959 897.994 681.307L910.697 674.078C914.063 679.538 915.356 681.715 919.772 686.389C940.031 706.51 987.038 706.751 1007.03 685.828C1023.08 669.014 1020.58 645.303 1020.44 624.085C1020.08 624.711 1019.72 625.333 1019.34 625.95C998.728 660.086 954.909 668.567 921.591 648.174C905.213 638.057 893.569 621.815 889.225 603.063C878.857 558.877 905.325 522.496 948.478 512.669ZM965.138 644.959C998.044 642.703 1022.87 614.16 1020.54 581.258C1018.22 548.356 989.625 523.59 956.728 525.985C923.934 528.373 899.269 556.864 901.584 589.668C903.9 622.472 932.334 647.208 965.138 644.959Z" fill="white"/>
<path d="M1552.41 512.626C1562.96 511.986 1570.76 511.509 1581.16 513.932C1599.77 518.271 1615.89 529.849 1625.94 546.104C1636.38 563.303 1639.58 583.94 1634.82 603.489C1630.46 622.231 1618.73 638.426 1602.29 648.412C1567.37 669.568 1524.71 659.134 1503.75 623.904L1503.8 712.143L1489.26 712.171C1488 648.128 1489.08 579.481 1489.26 515.119L1503.8 515.056L1503.74 546.882C1504.36 545.868 1504.98 544.859 1505.61 543.855C1517.48 524.875 1531.28 517.524 1552.41 512.626ZM1567.01 644.977C1599.99 642.813 1624.92 614.239 1622.6 581.268C1620.27 548.298 1591.58 523.508 1558.62 525.996C1525.89 528.467 1501.31 556.921 1503.63 589.664C1505.93 622.406 1534.27 647.126 1567.01 644.977Z" fill="white"/>
<path d="M1211.29 512.481C1251.61 505.851 1289.66 533.181 1296.27 573.511C1302.87 613.841 1275.52 651.885 1235.19 658.463C1194.9 665.035 1156.9 637.711 1150.3 597.417C1143.71 557.123 1171 519.105 1211.29 512.481ZM1227.64 644.88C1260.47 642.504 1285.15 613.943 1282.74 581.109C1280.33 548.274 1251.76 523.616 1218.93 526.05C1186.14 528.483 1161.53 557.021 1163.93 589.814C1166.33 622.607 1194.84 647.253 1227.64 644.88Z" fill="white"/>
<path d="M1326.62 515.1L1341.79 515.057L1341.61 574.761C1341.59 587.42 1340.67 602.333 1343.09 614.162C1352 661.019 1422.09 651.489 1429.37 609.345C1434.43 579.996 1432.31 545.16 1432.3 515.118L1446.59 515.062L1446.54 553.132L1446.6 656.014L1432.27 655.928L1432.14 629.696C1420.42 649.604 1406.76 657.9 1383.79 658.832C1345.04 660.402 1325.34 632.439 1326.61 596.269C1326.9 587.925 1326.61 577.857 1326.64 569.164C1326.73 551.143 1326.73 533.121 1326.62 515.1Z" fill="white"/>
<path d="M1130.95 513.503L1139.56 513.027L1139.81 526.587C1088.77 530.735 1092.02 567.413 1092.14 606.218L1092.23 655.888L1077.58 655.904L1077.74 641.269L1077.6 515.111L1092.23 515.07L1092.2 541.893C1100.92 524.049 1111.36 516.806 1130.95 513.503Z" fill="white"/>
</svg>
