<svg width="387" height="130" viewBox="0 0 387 130" fill="none" xmlns="http://www.w3.org/2000/svg">
<g clip-path="url(#clip0_2746_865)">
<path d="M62.8111 53.61C62.6711 54.27 62.4211 54.92 62.0911 55.55C62.0211 55.7 61.9511 55.85 61.8811 56C61.6711 56.31 61.4611 56.61 61.2411 56.9C61.2411 56.91 61.2211 56.92 61.2111 56.93C61.0511 57.14 60.8811 57.35 60.7111 57.55C60.6211 57.65 60.5311 57.76 60.4411 57.86C57.5411 61.07 52.7911 63.58 49.6611 65.01C48.4411 65.57 47.2111 66.09 45.9811 66.6L33.6711 62.95C27.3411 61.25 21.2711 59.12 15.9711 55.32C8.81109 50.18 7.19109 41.36 12.0511 34.2C22.3111 19.07 51.4511 17.73 51.5211 0.109985C56.0211 4.27999 55.6511 10.85 51.9811 15.45C49.2511 18.87 45.8311 21.45 41.9111 23.67L32.0311 29.3L47.5811 32.97C47.7911 33.06 59.3011 38.15 62.4711 46.34C63.3211 48.55 63.5711 50.98 62.8211 53.61H62.8111Z" fill="url(#paint0_linear_2746_865)"/>
<path d="M45.24 35.3C45.73 33.9 46.66 32.95 48.02 32.46C49.38 31.97 51.54 31.64 54.5 31.47V29.32C50.69 29.56 45.54 29.69 39.06 29.69C36.22 29.69 33.68 29.67 31.44 29.63C28.17 29.57 25.52 29.47 23.5 29.32V31.47C24.9 31.55 26.12 31.66 27.16 31.82C28.32 31.99 29.26 32.2 29.98 32.46C31.34 32.95 32.26 33.9 32.76 35.3C33.25 36.7 33.5 38.96 33.5 42.09V103.32C33.5 106.45 33.25 108.71 32.76 110.11C32.27 111.51 31.34 112.46 29.98 112.95C28.62 113.44 26.46 113.77 23.5 113.94V116.09C26.91 115.85 32.09 115.72 39.06 115.72C45.63 115.72 50.77 115.84 54.5 116.09V113.94C51.54 113.78 49.38 113.45 48.02 112.95C46.66 112.46 45.74 111.51 45.24 110.11C44.75 108.71 44.5 106.45 44.5 103.32V42.09C44.5 38.96 44.75 36.7 45.24 35.3Z" fill="#EFEEEE"/>
<path d="M52.2901 15.34C49.5601 18.76 46.1402 21.34 42.2201 23.57L31.5601 29.64L27.4501 31.98C27.3701 32.03 27.2801 32.07 27.2001 32.13C23.0401 34.55 17.2601 39.33 18.0601 44.14C18.0601 44.14 15.7701 55.17 33.4901 62.52V62.98C20.9401 59.21 16.2601 55.24 16.2601 55.24C9.10015 50.1 7.48015 41.28 12.3401 34.13C22.6301 18.96 51.7701 17.62 51.8401 0C56.3401 4.17 55.9701 10.74 52.3001 15.34H52.2901Z" fill="url(#paint1_linear_2746_865)"/>
<path d="M75.0904 60.27L70.8604 51.85C66.2004 42.57 57.8004 35.7 47.7704 33.02C47.7004 33 47.6404 32.99 47.5704 32.97C47.7804 33.06 59.2904 38.15 62.4604 46.34C63.3104 48.55 63.5604 50.98 62.8104 53.61C62.6704 54.27 62.4204 54.92 62.0904 55.55C62.0204 55.7 61.9504 55.85 61.8804 56C61.6704 56.31 61.4504 56.61 61.2304 56.91C61.2304 56.92 61.2104 56.93 61.2004 56.94C61.0404 57.15 60.8704 57.36 60.7004 57.56C60.6104 57.66 60.5204 57.77 60.4304 57.87C57.5304 61.08 52.7804 63.59 49.6504 65.02C48.4304 65.58 47.2004 66.1 45.9704 66.61C40.3104 68.92 34.5204 70.77 28.7004 72.92C19.6204 76.27 6.97037 81.35 2.08037 90.48C-0.949632 96.14 -0.699632 103.1 3.28037 108C5.46037 110.69 7.51037 113.48 9.54037 116.28L10.3304 117.37C15.5504 124.56 23.7604 129 32.6304 129.35H32.8204C28.6104 127.08 24.3804 125.56 20.6904 122.59C17.2304 119.8 16.5504 115.74 18.9704 112.09C27.4804 99.25 58.1504 98.47 72.6804 82.54C78.6404 76 79.2404 68.2 75.1104 60.27H75.0904Z" fill="url(#paint2_linear_2746_865)"/>
<path d="M310.111 86.5C309.461 86.5 309.141 86.26 309.141 85.79C309.141 85.4 309.421 85.14 309.981 85.01L311.471 84.75C312.381 84.58 312.971 84.34 313.251 84.04C313.531 83.74 313.671 83.13 313.671 82.23V44.16C313.671 43.25 313.531 42.65 313.251 42.35C312.971 42.05 312.381 41.81 311.471 41.64L309.981 41.38C309.421 41.25 309.141 40.99 309.141 40.6C309.141 40.13 309.461 39.89 310.111 39.89H321.831C322.481 39.89 322.801 40.13 322.801 40.6C322.801 40.99 322.521 41.25 321.961 41.38L320.471 41.64C319.561 41.81 318.971 42.05 318.691 42.35C318.411 42.65 318.271 43.26 318.271 44.16V82.23C318.271 83.14 318.411 83.74 318.691 84.04C318.971 84.34 319.561 84.58 320.471 84.75L321.961 85.01C322.521 85.14 322.801 85.4 322.801 85.79C322.801 86.27 322.481 86.5 321.831 86.5H310.111Z" fill="white"/>
<path d="M325.327 86.5C324.807 86.5 324.547 86.26 324.547 85.79C324.547 85.36 324.787 85.1 325.257 85.01L326.167 84.88C327.077 84.75 327.747 84.49 328.177 84.1C328.607 83.71 328.827 83.06 328.827 82.16V45.06C328.827 44.28 328.707 43.74 328.467 43.44C328.227 43.14 327.807 42.97 327.207 42.92L325.717 42.73C325.237 42.64 325.007 42.39 325.007 41.95C325.007 41.51 325.247 41.26 325.717 41.17C326.927 40.91 327.957 40.61 328.827 40.26C329.687 39.91 330.407 39.57 330.967 39.22C331.657 38.79 332.177 38.57 332.517 38.57C332.987 38.57 333.227 38.92 333.227 39.61V82.15C333.227 83.06 333.367 83.69 333.647 84.06C333.927 84.43 334.517 84.68 335.427 84.8L336.917 84.99C337.387 85.08 337.627 85.34 337.627 85.77C337.627 86.25 337.367 86.48 336.847 86.48H325.327V86.5Z" fill="white"/>
<path d="M340.22 86.5C339.57 86.5 339.25 86.22 339.25 85.66C339.25 85.49 339.32 85.27 339.44 85.01C339.57 84.75 339.72 84.43 339.89 84.04L354.39 56.46C354.6 56.12 354.64 55.81 354.49 55.55C354.34 55.29 354.05 55.16 353.62 55.16H350.9C348.78 55.16 347.22 55.53 346.21 56.26C345.2 56.99 344.37 58.05 343.72 59.43L342.3 62.41C342.04 62.97 341.72 63.25 341.33 63.25C340.77 63.25 340.55 62.93 340.68 62.28L342.23 53.47C342.4 52.43 342.79 51.92 343.4 51.92C343.79 51.92 344.03 52.05 344.11 52.31C344.2 52.57 344.36 52.83 344.6 53.09C344.84 53.35 345.37 53.48 346.19 53.48H359.14C359.79 53.48 360.11 53.76 360.11 54.32C360.11 54.49 360.06 54.71 359.95 54.97C359.84 55.23 359.68 55.55 359.46 55.94L345.02 83.52C344.85 83.87 344.81 84.17 344.92 84.43C345.03 84.69 345.32 84.82 345.79 84.82H348.7C351.25 84.82 353.04 84.46 354.07 83.75C355.11 83.04 355.95 81.88 356.6 80.29L358.54 75.56C358.8 75 359.12 74.72 359.51 74.72C360.07 74.72 360.29 75.09 360.16 75.82L358.48 85.34C358.35 86.12 357.9 86.51 357.12 86.51H340.22V86.5Z" fill="white"/>
<path d="M368.9 87.08C367.09 87.08 365.6 86.51 364.43 85.36C363.26 84.22 362.68 82.69 362.68 80.8C362.68 78.91 363.26 77.19 364.43 75.52C365.6 73.86 367.19 72.36 369.22 71.02C371.25 69.68 373.56 68.6 376.15 67.78C376.71 67.61 376.99 67.24 376.99 66.68V60.79C376.99 58.72 376.67 57.24 376.02 56.36C375.37 55.48 374.49 55.03 373.37 55.03C372.25 55.03 371.31 55.52 370.42 56.49C369.53 57.46 368.9 59.09 368.51 61.38C368.29 62.76 367.83 63.77 367.12 64.39C366.41 65.02 365.68 65.33 364.95 65.33C363.74 65.33 363.14 64.73 363.14 63.52C363.14 62.31 363.5 61.03 364.21 59.8C364.92 58.57 365.86 57.45 367.03 56.43C368.2 55.42 369.47 54.61 370.85 54C372.23 53.4 373.61 53.09 374.99 53.09C379.26 53.09 381.4 55.57 381.4 60.54V80.35C381.4 82.16 381.85 83.07 382.76 83.07C383.32 83.07 383.84 82.69 384.31 81.94C384.78 81.19 385.02 79.9 385.02 78.09C385.02 77.4 385.3 77.05 385.86 77.05C386.38 77.05 386.64 77.42 386.64 78.15C386.64 81.3 386.09 83.58 384.99 84.98C383.89 86.38 382.65 87.08 381.27 87.08C380.23 87.08 379.41 86.66 378.81 85.82C378.2 84.98 377.8 83.97 377.58 82.81C377.54 82.38 377.35 82.15 377.03 82.13C376.71 82.11 376.39 82.31 376.09 82.75C375.05 84.17 374 85.25 372.92 85.99C371.84 86.72 370.5 87.09 368.91 87.09L368.9 87.08ZM370.65 84.11C371.77 84.11 372.81 83.71 373.76 82.91C374.71 82.11 375.49 81.04 376.09 79.7C376.69 78.36 377 76.85 377 75.17V70.44C377 69.62 376.55 69.38 375.64 69.73C373.01 70.68 370.97 71.99 369.52 73.65C368.07 75.31 367.35 77.31 367.35 79.64C367.35 82.62 368.45 84.11 370.65 84.11Z" fill="white"/>
<path d="M104.958 77.6C105.668 79.06 106.638 80.21 107.878 81.08C109.118 81.95 110.578 82.56 112.268 82.94C113.958 83.31 115.768 83.5 117.688 83.5C118.788 83.5 119.988 83.34 121.288 83.03C122.588 82.72 123.798 82.21 124.918 81.53C126.038 80.85 126.968 79.96 127.718 78.88C128.468 77.8 128.838 76.49 128.838 74.96C128.838 73.78 128.568 72.76 128.038 71.89C127.508 71.03 126.818 70.3 125.978 69.71C125.128 69.12 124.198 68.64 123.178 68.27C122.158 67.9 121.158 67.59 120.168 67.36L110.798 65.06C109.578 64.75 108.388 64.35 107.228 63.88C106.068 63.41 105.058 62.78 104.188 61.99C103.328 61.2 102.628 60.24 102.098 59.1C101.568 57.96 101.298 56.56 101.298 54.91C101.298 53.89 101.498 52.69 101.888 51.31C102.278 49.93 103.018 48.64 104.098 47.42C105.178 46.2 106.658 45.17 108.548 44.32C110.438 43.48 112.848 43.05 115.798 43.05C117.878 43.05 119.868 43.33 121.748 43.88C123.638 44.43 125.288 45.26 126.698 46.36C128.108 47.46 129.238 48.83 130.088 50.46C130.928 52.09 131.358 53.99 131.358 56.15H127.348C127.268 54.54 126.908 53.13 126.258 51.93C125.608 50.73 124.768 49.73 123.718 48.92C122.678 48.11 121.478 47.5 120.118 47.09C118.758 46.68 117.338 46.47 115.848 46.47C114.468 46.47 113.148 46.62 111.868 46.91C110.588 47.2 109.468 47.68 108.508 48.32C107.548 48.97 106.768 49.82 106.178 50.88C105.588 51.94 105.298 53.26 105.298 54.83C105.298 55.81 105.468 56.67 105.798 57.39C106.128 58.12 106.598 58.74 107.188 59.25C107.778 59.76 108.458 60.17 109.218 60.49C109.988 60.81 110.798 61.06 111.668 61.26L121.928 63.8C123.418 64.19 124.828 64.68 126.148 65.24C127.468 65.81 128.628 66.52 129.628 67.36C130.628 68.2 131.418 69.24 131.988 70.45C132.558 71.67 132.838 73.14 132.838 74.87C132.838 75.34 132.788 75.97 132.688 76.76C132.588 77.55 132.358 78.38 131.978 79.27C131.608 80.15 131.078 81.05 130.388 81.95C129.698 82.85 128.758 83.67 127.558 84.4C126.358 85.13 124.878 85.72 123.108 86.17C121.338 86.62 119.218 86.85 116.738 86.85C114.258 86.85 111.968 86.56 109.838 86C107.718 85.43 105.908 84.56 104.418 83.38C102.928 82.2 101.778 80.69 100.968 78.84C100.158 76.99 99.8175 74.77 99.9375 72.18H103.948C103.908 74.34 104.238 76.15 104.948 77.6H104.958Z" fill="white"/>
<path d="M142.28 43.94V49.89H138.57V43.94H142.28ZM142.28 55.61V86.03H138.57V55.61H142.28Z" fill="white"/>
<path d="M166.92 61.53C166.49 60.69 165.91 59.99 165.18 59.44C164.45 58.89 163.62 58.49 162.67 58.23C161.73 57.97 160.72 57.85 159.66 57.85C158.83 57.85 158 57.94 157.15 58.12C156.3 58.3 155.53 58.59 154.82 59C154.11 59.41 153.54 59.95 153.11 60.62C152.68 61.29 152.46 62.11 152.46 63.1C152.46 63.93 152.67 64.62 153.08 65.19C153.49 65.76 154.01 66.24 154.64 66.63C155.27 67.02 155.96 67.35 156.7 67.6C157.45 67.86 158.13 68.06 158.76 68.22L163.71 69.34C164.77 69.5 165.82 69.78 166.86 70.19C167.9 70.6 168.82 71.14 169.63 71.81C170.44 72.48 171.09 73.3 171.61 74.29C172.12 75.27 172.38 76.43 172.38 77.77C172.38 79.42 172.01 80.83 171.26 81.99C170.51 83.15 169.56 84.09 168.4 84.82C167.24 85.55 165.93 86.07 164.48 86.38C163.03 86.69 161.59 86.85 160.18 86.85C156.6 86.85 153.7 86.01 151.48 84.31C149.26 82.62 147.99 79.91 147.68 76.18H151.39C151.55 78.7 152.46 80.59 154.13 81.87C155.8 83.15 157.87 83.79 160.35 83.79C161.25 83.79 162.19 83.69 163.15 83.5C164.11 83.3 165.01 82.97 165.83 82.5C166.66 82.03 167.33 81.43 167.86 80.7C168.39 79.97 168.66 79.08 168.66 78.02C168.66 77.12 168.47 76.36 168.1 75.75C167.73 75.14 167.22 74.63 166.6 74.22C165.97 73.81 165.25 73.46 164.45 73.19C163.64 72.92 162.83 72.68 162 72.48L157.22 71.42C156 71.11 154.88 70.74 153.86 70.33C152.84 69.92 151.94 69.41 151.18 68.8C150.41 68.19 149.81 67.44 149.38 66.56C148.95 65.68 148.73 64.59 148.73 63.29C148.73 61.76 149.07 60.44 149.76 59.34C150.45 58.24 151.34 57.36 152.44 56.69C153.54 56.02 154.77 55.53 156.12 55.22C157.48 54.91 158.82 54.75 160.16 54.75C161.69 54.75 163.12 54.95 164.43 55.34C165.75 55.73 166.91 56.34 167.91 57.17C168.91 58 169.71 59.02 170.3 60.24C170.89 61.46 171.22 62.89 171.3 64.54H167.59C167.55 63.4 167.31 62.41 166.88 61.56L166.92 61.53Z" fill="white"/>
<path d="M189.845 55.61V58.73H183.655V79.25C183.655 80.47 183.825 81.42 184.155 82.11C184.485 82.8 185.325 83.18 186.665 83.26C187.725 83.26 188.785 83.2 189.845 83.08V86.2C189.295 86.2 188.745 86.22 188.195 86.26C187.645 86.3 187.095 86.32 186.545 86.32C184.065 86.32 182.335 85.84 181.355 84.88C180.375 83.92 179.905 82.14 179.935 79.55V58.74H174.625V55.62H179.935V46.48H183.645V55.62H189.835L189.845 55.61Z" fill="white"/>
<path d="M197.96 75.98C198.33 77.42 198.93 78.7 199.76 79.84C200.59 80.98 201.63 81.92 202.88 82.67C204.14 83.42 205.65 83.79 207.42 83.79C210.13 83.79 212.25 83.08 213.79 81.67C215.33 80.26 216.38 78.37 216.97 76.01H220.68C219.89 79.47 218.45 82.14 216.35 84.03C214.25 85.92 211.27 86.86 207.42 86.86C205.02 86.86 202.95 86.44 201.2 85.59C199.45 84.74 198.03 83.59 196.93 82.11C195.83 80.64 195.01 78.93 194.48 76.98C193.95 75.03 193.68 72.98 193.68 70.82C193.68 68.82 193.95 66.85 194.48 64.92C195.01 62.99 195.83 61.27 196.93 59.76C198.03 58.25 199.45 57.03 201.2 56.11C202.95 55.19 205.02 54.72 207.42 54.72C209.82 54.72 211.94 55.21 213.67 56.19C215.4 57.17 216.8 58.46 217.89 60.05C218.97 61.64 219.75 63.47 220.22 65.53C220.69 67.59 220.89 69.69 220.81 71.81H197.41C197.41 73.15 197.6 74.53 197.97 75.97L197.96 75.98ZM216.35 64.63C215.9 63.33 215.26 62.18 214.43 61.18C213.6 60.18 212.6 59.37 211.42 58.76C210.24 58.15 208.9 57.85 207.41 57.85C205.92 57.85 204.52 58.16 203.34 58.76C202.16 59.37 201.16 60.17 200.33 61.18C199.5 62.18 198.85 63.34 198.36 64.66C197.87 65.98 197.54 67.32 197.39 68.7H217.08C217.04 67.28 216.79 65.93 216.34 64.63H216.35Z" fill="white"/>
<path d="M229.228 55.61V60.74H229.408C230.388 58.85 231.678 57.38 233.268 56.32C234.858 55.26 236.888 54.73 239.368 54.73C241.368 54.73 243.188 55.22 244.818 56.2C246.448 57.18 247.538 58.68 248.088 60.68C248.988 58.68 250.328 57.18 252.098 56.2C253.868 55.22 255.758 54.73 257.758 54.73C264.478 54.73 267.838 58.29 267.838 65.4V86.03H264.128V65.57C264.128 63.05 263.598 61.14 262.538 59.82C261.478 58.5 259.608 57.84 256.938 57.84C255.328 57.84 253.988 58.15 252.928 58.75C251.868 59.36 251.018 60.17 250.398 61.2C249.768 62.22 249.328 63.39 249.068 64.71C248.808 66.03 248.688 67.39 248.688 68.81V86.02H244.978V65.39C244.978 64.37 244.868 63.4 244.658 62.47C244.438 61.55 244.088 60.74 243.598 60.05C243.108 59.36 242.448 58.82 241.628 58.43C240.798 58.04 239.798 57.84 238.618 57.84C237.048 57.84 235.678 58.13 234.518 58.69C233.358 59.26 232.418 60.05 231.688 61.05C230.958 62.05 230.418 63.23 230.068 64.59C229.718 65.95 229.538 67.43 229.538 69.04V86.02H225.828V55.6H229.248L229.228 55.61Z" fill="white"/>
<path d="M275.69 60.33C276.32 59.03 277.17 57.97 278.25 57.15C279.33 56.32 280.6 55.72 282.05 55.32C283.5 54.93 285.12 54.73 286.88 54.73C288.21 54.73 289.55 54.86 290.89 55.11C292.23 55.37 293.43 55.85 294.49 56.55C295.55 57.26 296.42 58.25 297.08 59.53C297.75 60.81 298.08 62.47 298.08 64.51V80.66C298.08 82.15 298.81 82.9 300.26 82.9C300.69 82.9 301.09 82.82 301.44 82.66V85.78C301.01 85.86 300.62 85.92 300.29 85.96C299.96 86 299.53 86.02 299.02 86.02C298.08 86.02 297.32 85.89 296.75 85.64C296.18 85.39 295.74 85.02 295.42 84.55C295.1 84.08 294.9 83.52 294.8 82.87C294.7 82.22 294.65 81.5 294.65 80.72H294.53C293.86 81.7 293.18 82.58 292.5 83.34C291.81 84.11 291.05 84.75 290.2 85.26C289.35 85.77 288.39 86.16 287.31 86.44C286.23 86.71 284.94 86.85 283.45 86.85C282.04 86.85 280.71 86.68 279.47 86.35C278.23 86.02 277.15 85.49 276.23 84.76C275.31 84.03 274.58 83.11 274.05 81.99C273.52 80.87 273.25 79.54 273.25 78.01C273.25 75.89 273.72 74.23 274.67 73.03C275.61 71.83 276.86 70.92 278.41 70.29C279.96 69.66 281.71 69.22 283.66 68.96C285.61 68.71 287.58 68.46 289.58 68.22C290.37 68.14 291.05 68.04 291.64 67.93C292.23 67.81 292.72 67.61 293.11 67.31C293.5 67.02 293.81 66.61 294.02 66.1C294.23 65.59 294.35 64.92 294.35 64.1C294.35 62.84 294.14 61.81 293.73 61.01C293.32 60.2 292.75 59.57 292.02 59.09C291.29 58.62 290.45 58.29 289.48 58.12C288.52 57.94 287.48 57.85 286.39 57.85C284.03 57.85 282.11 58.41 280.61 59.53C279.12 60.65 278.33 62.45 278.25 64.92H274.54C274.66 63.15 275.03 61.62 275.66 60.32L275.69 60.33ZM294.26 69.4C294.02 69.83 293.57 70.15 292.9 70.34C292.23 70.54 291.64 70.67 291.13 70.75C289.56 71.03 287.94 71.27 286.27 71.49C284.6 71.71 283.08 72.03 281.7 72.46C280.32 72.89 279.2 73.51 278.31 74.32C277.43 75.13 276.98 76.28 276.98 77.77C276.98 78.71 277.17 79.55 277.54 80.28C277.91 81.01 278.42 81.64 279.04 82.17C279.67 82.7 280.4 83.1 281.22 83.38C282.05 83.66 282.89 83.79 283.76 83.79C285.18 83.79 286.53 83.57 287.83 83.14C289.13 82.71 290.26 82.08 291.22 81.25C292.18 80.42 292.95 79.42 293.52 78.24C294.09 77.06 294.38 75.73 294.38 74.23V69.4H294.26Z" fill="white"/>
<path d="M100.151 108.37L103.571 98.64H105.541L108.961 108.37H107.501L104.641 99.78H104.461L101.601 108.37H100.141H100.151ZM101.771 106.19V105.16H107.501V106.19H101.771Z" fill="white"/>
<path d="M110.664 108.37V98.64H112.024V108.37H110.664ZM111.384 105.39V104.24H113.774C114.704 104.24 115.414 104.06 115.884 103.7C116.354 103.34 116.594 102.76 116.594 101.97C116.594 101.23 116.374 100.68 115.934 100.31C115.494 99.94 114.824 99.76 113.924 99.76H111.394V98.64H113.954C114.594 98.64 115.164 98.71 115.654 98.86C116.144 99.01 116.574 99.22 116.914 99.51C117.254 99.8 117.524 100.15 117.704 100.56C117.884 100.97 117.974 101.46 117.974 102.01C117.974 102.74 117.804 103.35 117.474 103.85C117.144 104.35 116.644 104.73 116.004 104.99C115.354 105.25 114.564 105.38 113.614 105.38H111.384V105.39Z" fill="white"/>
<path d="M123.893 108.56C123.183 108.56 122.563 108.44 122.033 108.21C121.503 107.98 121.043 107.64 120.673 107.19C120.303 106.75 120.022 106.22 119.842 105.61C119.652 105 119.562 104.31 119.562 103.54C119.562 102.42 119.753 101.48 120.123 100.73C120.493 99.98 121.013 99.41 121.673 99.03C122.333 98.65 123.073 98.45 123.913 98.45C124.573 98.45 125.163 98.56 125.693 98.79C126.223 99.02 126.673 99.35 127.053 99.79C127.433 100.23 127.723 100.77 127.933 101.4C128.143 102.03 128.243 102.75 128.243 103.56C128.243 104.32 128.142 105 127.952 105.62C127.762 106.23 127.483 106.76 127.113 107.2C126.743 107.64 126.293 107.97 125.753 108.21C125.213 108.45 124.593 108.56 123.893 108.56ZM123.913 107.39C124.543 107.39 125.073 107.24 125.513 106.94C125.953 106.64 126.283 106.21 126.513 105.64C126.743 105.08 126.863 104.39 126.863 103.58C126.863 102.77 126.743 102.04 126.513 101.45C126.273 100.87 125.943 100.42 125.493 100.1C125.053 99.79 124.512 99.63 123.882 99.63C123.252 99.63 122.763 99.78 122.323 100.09C121.883 100.39 121.543 100.84 121.303 101.42C121.063 102 120.952 102.71 120.952 103.56C120.952 104.17 121.023 104.71 121.153 105.19C121.283 105.67 121.473 106.07 121.723 106.4C121.973 106.73 122.283 106.98 122.653 107.15C123.023 107.32 123.443 107.4 123.913 107.4V107.39Z" fill="white"/>
<path d="M130.422 108.37V98.64H131.792V108.37H130.422Z" fill="white"/>
<path d="M138.314 108.56C137.604 108.56 136.984 108.44 136.454 108.21C135.924 107.98 135.464 107.64 135.094 107.19C134.724 106.75 134.444 106.22 134.264 105.61C134.074 105 133.984 104.31 133.984 103.54C133.984 102.42 134.174 101.48 134.544 100.73C134.914 99.98 135.434 99.41 136.094 99.03C136.754 98.65 137.494 98.45 138.334 98.45C138.994 98.45 139.584 98.56 140.114 98.79C140.644 99.02 141.094 99.35 141.474 99.79C141.854 100.23 142.144 100.77 142.354 101.4C142.564 102.03 142.664 102.75 142.664 103.56C142.664 104.32 142.564 105 142.374 105.62C142.184 106.23 141.904 106.76 141.534 107.2C141.164 107.64 140.714 107.97 140.174 108.21C139.634 108.45 139.014 108.56 138.314 108.56ZM138.324 107.39C138.954 107.39 139.484 107.24 139.924 106.94C140.364 106.64 140.694 106.21 140.924 105.64C141.154 105.08 141.274 104.39 141.274 103.58C141.274 102.77 141.154 102.04 140.924 101.45C140.684 100.87 140.354 100.42 139.904 100.1C139.464 99.79 138.924 99.63 138.294 99.63C137.664 99.63 137.174 99.78 136.734 100.09C136.294 100.39 135.954 100.84 135.714 101.42C135.474 102 135.364 102.71 135.364 103.56C135.364 104.17 135.434 104.71 135.564 105.19C135.694 105.67 135.884 106.07 136.134 106.4C136.384 106.73 136.694 106.98 137.064 107.15C137.434 107.32 137.854 107.4 138.324 107.4V107.39Z" fill="white"/>
<path d="M152.673 108.56C151.973 108.56 151.353 108.45 150.793 108.24C150.233 108.02 149.773 107.7 149.383 107.28C149.003 106.86 148.703 106.34 148.503 105.73C148.303 105.12 148.203 104.42 148.203 103.63C148.203 102.84 148.303 102.12 148.513 101.49C148.723 100.86 149.013 100.31 149.393 99.86C149.773 99.41 150.233 99.06 150.783 98.82C151.323 98.58 151.923 98.46 152.593 98.46C153.103 98.46 153.573 98.53 154.003 98.67C154.433 98.81 154.813 99.02 155.133 99.29C155.453 99.56 155.703 99.89 155.873 100.27C156.053 100.65 156.143 101.08 156.153 101.55L154.873 101.87C154.873 101.37 154.783 100.95 154.563 100.62C154.343 100.29 154.063 100.04 153.713 99.88C153.363 99.71 152.973 99.63 152.563 99.63C152.183 99.63 151.813 99.71 151.453 99.86C151.093 100.01 150.773 100.25 150.503 100.57C150.233 100.89 150.013 101.3 149.843 101.79C149.673 102.28 149.603 102.88 149.603 103.58C149.603 104.47 149.733 105.2 149.993 105.75C150.253 106.3 150.623 106.71 151.093 106.97C151.563 107.23 152.113 107.36 152.733 107.36C153.353 107.36 153.813 107.25 154.173 107.03C154.533 106.81 154.803 106.5 154.983 106.1C155.163 105.7 155.263 105.24 155.293 104.72L156.503 104.94C156.503 105.43 156.413 105.9 156.263 106.34C156.113 106.78 155.893 107.17 155.583 107.5C155.273 107.83 154.883 108.09 154.403 108.28C153.923 108.47 153.343 108.56 152.663 108.56H152.673Z" fill="white"/>
<path d="M158.383 108.37V98.64H159.743V108.37H158.383ZM158.823 108.37V107.19H164.273V108.37H158.823Z" fill="white"/>
<path d="M166.919 97.46H165.789L166.849 95.18H168.319L166.919 97.46ZM165.849 108.37V98.64H167.219V108.37H165.849Z" fill="white"/>
<path d="M169.75 108.37V98.64H171.55L176.68 106.58H176.8L176.7 98.64H178.01V108.37H176.37L171.11 100.25H170.98L171.08 108.37H169.75Z" fill="white"/>
<path d="M180.539 108.37V98.64H181.909V108.37H180.539Z" fill="white"/>
<path d="M188.564 108.56C187.864 108.56 187.244 108.45 186.684 108.24C186.124 108.02 185.664 107.7 185.274 107.28C184.894 106.86 184.594 106.34 184.394 105.73C184.194 105.12 184.094 104.42 184.094 103.63C184.094 102.84 184.194 102.12 184.404 101.49C184.614 100.86 184.904 100.31 185.284 99.86C185.664 99.41 186.124 99.06 186.674 98.82C187.214 98.58 187.814 98.46 188.484 98.46C188.994 98.46 189.464 98.53 189.894 98.67C190.324 98.81 190.704 99.02 191.024 99.29C191.344 99.56 191.594 99.89 191.764 100.27C191.944 100.65 192.034 101.08 192.044 101.55L190.764 101.87C190.764 101.37 190.674 100.95 190.454 100.62C190.234 100.29 189.954 100.04 189.604 99.88C189.254 99.71 188.864 99.63 188.454 99.63C188.074 99.63 187.704 99.71 187.344 99.86C186.984 100.01 186.664 100.25 186.394 100.57C186.124 100.89 185.904 101.3 185.734 101.79C185.564 102.28 185.494 102.88 185.494 103.58C185.494 104.47 185.624 105.2 185.884 105.75C186.144 106.3 186.514 106.71 186.984 106.97C187.454 107.23 188.004 107.36 188.624 107.36C189.244 107.36 189.704 107.25 190.064 107.03C190.424 106.81 190.694 106.5 190.874 106.1C191.054 105.7 191.154 105.24 191.184 104.72L192.394 104.94C192.394 105.43 192.304 105.9 192.154 106.34C192.004 106.78 191.784 107.17 191.474 107.5C191.164 107.83 190.774 108.09 190.294 108.28C189.814 108.47 189.234 108.56 188.554 108.56H188.564Z" fill="white"/>
<path d="M198.244 108.56C197.534 108.56 196.914 108.44 196.384 108.21C195.854 107.98 195.394 107.64 195.024 107.19C194.654 106.74 194.374 106.22 194.194 105.61C194.004 105 193.914 104.31 193.914 103.54C193.914 102.42 194.104 101.48 194.474 100.73C194.844 99.98 195.364 99.41 196.024 99.03C196.684 98.65 197.434 98.45 198.264 98.45C198.924 98.45 199.514 98.56 200.044 98.79C200.574 99.02 201.024 99.35 201.404 99.79C201.784 100.23 202.074 100.77 202.284 101.4C202.494 102.03 202.594 102.75 202.594 103.56C202.594 104.32 202.494 105 202.304 105.62C202.114 106.24 201.834 106.76 201.464 107.2C201.094 107.64 200.644 107.97 200.104 108.21C199.564 108.45 198.944 108.56 198.244 108.56ZM198.254 107.39C198.884 107.39 199.414 107.24 199.854 106.94C200.294 106.64 200.624 106.21 200.854 105.64C201.084 105.08 201.204 104.39 201.204 103.58C201.204 102.77 201.084 102.04 200.854 101.45C200.614 100.87 200.274 100.42 199.834 100.1C199.394 99.79 198.854 99.63 198.224 99.63C197.594 99.63 197.104 99.78 196.664 100.09C196.224 100.39 195.884 100.84 195.644 101.42C195.404 102 195.294 102.71 195.294 103.56C195.294 104.17 195.364 104.71 195.494 105.19C195.624 105.67 195.814 106.07 196.064 106.4C196.314 106.73 196.624 106.98 196.994 107.15C197.364 107.32 197.784 107.4 198.254 107.4V107.39Z" fill="white"/>
<path d="M208.492 108.37V98.64H209.862V108.37H208.492Z" fill="white"/>
<path d="M212.398 108.37V98.64H214.198L219.328 106.58H219.448L219.348 98.64H220.658V108.37H219.018L213.758 100.25H213.628L213.728 108.37H212.398Z" fill="white"/>
<path d="M222.289 99.82V98.64H229.569V99.82H222.289ZM225.249 108.37V98.64H226.609V108.37H225.249Z" fill="white"/>
<path d="M231.203 108.37V98.64H232.563V108.37H231.203ZM231.893 99.79V98.64H238.013V99.79H231.893ZM231.893 103.95V102.86H237.333V103.95H231.893ZM231.893 108.37V107.21H238.023V108.37H231.893Z" fill="white"/>
<path d="M239.867 108.37V98.64H241.227V108.37H239.867ZM240.307 108.37V107.19H245.757V108.37H240.307Z" fill="white"/>
<path d="M247.344 108.37V98.64H248.714V108.37H247.344Z" fill="white"/>
<path d="M255.021 108.56C254.221 108.56 253.511 108.38 252.891 108.01C252.271 107.64 251.781 107.09 251.421 106.35C251.071 105.61 250.891 104.68 250.891 103.55C250.891 102.75 250.991 102.04 251.181 101.42C251.371 100.8 251.661 100.26 252.041 99.82C252.421 99.38 252.881 99.04 253.431 98.8C253.981 98.56 254.621 98.45 255.351 98.45C255.891 98.45 256.381 98.52 256.821 98.66C257.261 98.8 257.641 98.99 257.961 99.25C258.281 99.51 258.551 99.82 258.751 100.19C258.951 100.56 259.081 100.99 259.131 101.46L257.831 101.83C257.791 101.3 257.651 100.87 257.401 100.56C257.151 100.24 256.851 100.01 256.491 99.86C256.131 99.71 255.741 99.64 255.331 99.64C254.731 99.64 254.211 99.77 253.751 100.04C253.291 100.31 252.941 100.73 252.691 101.3C252.431 101.88 252.311 102.62 252.311 103.53C252.311 104.25 252.391 104.85 252.551 105.34C252.711 105.83 252.921 106.23 253.181 106.53C253.441 106.83 253.761 107.05 254.121 107.18C254.481 107.31 254.861 107.38 255.261 107.38C255.781 107.38 256.231 107.28 256.601 107.09C256.971 106.89 257.281 106.6 257.511 106.2C257.741 105.8 257.891 105.3 257.951 104.69H255.721V103.61H259.291V108.38H258.181L258.461 105.73H258.241C258.111 106.37 257.911 106.9 257.641 107.31C257.371 107.73 257.021 108.04 256.591 108.25C256.161 108.46 255.641 108.57 255.021 108.57V108.56Z" fill="white"/>
<path d="M261.531 108.37V98.64H262.891V108.37H261.531ZM262.221 99.79V98.64H268.341V99.79H262.221ZM262.221 103.95V102.86H267.661V103.95H262.221ZM262.221 108.37V107.21H268.351V108.37H262.221Z" fill="white"/>
<path d="M270.188 108.37V98.64H271.987L277.117 106.58H277.237L277.138 98.64H278.448V108.37H276.807L271.547 100.25H271.418L271.517 108.37H270.188Z" fill="white"/>
<path d="M280.078 99.82V98.64H287.358V99.82H280.078ZM283.038 108.37V98.64H284.398V108.37H283.038Z" fill="white"/>
<path d="M289 108.37V98.64H290.36V108.37H289ZM289.69 99.79V98.64H295.81V99.79H289.69ZM289.69 103.95V102.86H295.13V103.95H289.69ZM289.69 108.37V107.21H295.82V108.37H289.69Z" fill="white"/>
</g>
<defs>
<linearGradient id="paint0_linear_2746_865" x1="25.7511" y1="19.9" x2="62.0911" y2="56.24" gradientUnits="userSpaceOnUse">
<stop stop-color="#E0EFFC"/>
<stop offset="0.44" stop-color="#40B7AD"/>
<stop offset="1" stop-color="#108D84"/>
</linearGradient>
<linearGradient id="paint1_linear_2746_865" x1="32.3501" y1="0" x2="32.3501" y2="62.97" gradientUnits="userSpaceOnUse">
<stop stop-color="#E0EFFC"/>
<stop offset="0.44" stop-color="#40B7AD"/>
<stop offset="0.78" stop-color="#40B7AD"/>
</linearGradient>
<linearGradient id="paint2_linear_2746_865" x1="0.00036835" y1="81.17" x2="77.7504" y2="81.17" gradientUnits="userSpaceOnUse">
<stop stop-color="#E0EFFC"/>
<stop offset="0.44" stop-color="#40B7AD"/>
<stop offset="0.78" stop-color="#40B7AD"/>
</linearGradient>
<clipPath id="clip0_2746_865">
<rect width="386.64" height="129.36" fill="white"/>
</clipPath>
</defs>
</svg>
