<svg width="563" height="577" viewBox="0 0 563 577" fill="none" xmlns="http://www.w3.org/2000/svg">
<g clip-path="url(#clip0_1598_166)">
<path d="M280.412 113.863C280.752 113.988 281.157 114.053 281.268 114.311C283.346 119.099 285.313 125.161 286.913 130.02C296.339 158.623 305.891 184.725 322.666 209.787C348.347 248.157 382.832 262.77 424.764 277.545C431.276 279.784 437.804 281.981 444.345 284.133C447.582 285.213 453.057 286.866 455.898 288.396L456.289 288.61C453.993 289.129 451.871 289.825 449.645 290.571C407.045 304.847 361.661 319.613 331.049 354.436C315.345 372.298 305.336 394.437 297.232 416.545C293.859 425.91 290.604 435.314 287.471 444.761C285.623 450.306 283.613 456.856 281.449 462.226L280.848 462.234C279.789 461.22 276.31 449.928 275.511 447.567C270.378 432.379 265.403 417.711 259.185 402.962C235.682 347.212 206.47 323.904 150.655 303.664C141.53 300.432 132.38 297.271 123.204 294.189C117.708 292.343 111.748 290.509 106.408 288.357C109.06 286.81 113.921 285.345 116.971 284.325L132.431 279.141C149.919 273.087 168.796 266.211 185.169 257.611C198.508 250.605 214.547 239.675 225.072 228.765C247.912 205.089 260.394 172.839 270.905 142.252C274.182 132.825 277.351 123.362 280.412 113.863Z" fill="#FEFEFE"/>
<path d="M0 446.586C5.62594 433.553 12.4246 426.67 23.0731 417.714C42.6604 401.238 64.2155 386.99 86.9869 375.357C87.5141 375.087 87.5147 375.09 87.9807 375.278C87.6956 376.921 81.3118 380.863 79.2965 382.792C65.5887 395.902 71.7216 413.558 81.2318 427.056C93.081 443.873 110.316 457.955 127.279 469.402C174.401 501.204 233.551 523.622 289.514 533.213C315.446 537.813 341.787 539.684 368.111 538.797C414.25 536.951 464.822 524.073 507.244 506.247C519.081 501.263 530.697 495.767 542.052 489.774C545.854 487.757 555.358 481.73 558.418 480.654C555.378 484.097 532.424 499.088 527.391 502.272C462.435 543.369 388.171 570.278 311.236 575.755C307.289 576.034 294.761 576.276 291.855 577H271.98C269.89 576.42 266.913 576.434 264.712 576.355C200.507 574.11 135.012 562.412 76.9101 533.973C51.3226 521.447 18.8724 499.821 5.80428 472.85C3.94537 468.976 2.48145 464.925 1.43475 460.758C0.919037 458.766 0.683631 456.825 0 454.878V446.586Z" fill="#FEFEFE"/>
<path d="M261.324 0H299.946C303.074 0.860795 313.95 0.895759 317.915 1.15425C328.107 1.81233 338.279 2.76253 348.418 4.0037C399.457 10.2384 450.412 23.4744 495.818 48.0595C520.527 61.4364 551.895 84.9548 560.129 113.093C562.468 121.096 563.581 128.753 559.394 136.273C548.365 156.081 508.955 182.144 489.092 193.639C484.155 196.495 478.66 200.173 473.154 201.755C474.549 200.096 476.547 198.518 478.333 197.286C506.298 178.003 481.233 146.039 463.856 130.004C439.958 107.949 412.137 91.6897 383.063 77.9499C358.018 66.3544 331.956 57.0929 305.21 50.2832C225.07 29.9237 152.927 34.1825 75.1545 62.3673C58.8055 68.2787 42.8268 75.1681 27.3053 82.9978C21.5517 85.9237 15.9686 88.8763 10.4548 92.229C8.4016 93.4777 6.25197 94.7407 3.96582 95.4887C7.35044 92.0352 11.9451 89.4466 15.9215 86.6866C80.8411 41.6291 158.502 9.68529 237.537 1.94772C241.587 1.55381 245.645 1.25309 249.709 1.04581C252.983 0.883869 258.227 0.822197 261.324 0Z" fill="#FEFEFE"/>
</g>
<defs>
<clipPath id="clip0_1598_166">
<rect width="563" height="577" fill="white"/>
</clipPath>
</defs>
</svg>
