<svg width="300" height="119" viewBox="0 0 300 119" fill="none" xmlns="http://www.w3.org/2000/svg">
<g clip-path="url(#clip0_2735_707)">
<path d="M116.643 24.3519C117.142 24.2621 119.681 24.2878 120.339 24.2887L127.878 24.3028L139.863 24.2963C141.863 24.2947 145.478 24.1879 147.389 24.4188C153.845 25.1993 161.128 26.0405 165.545 31.3869C169.007 35.577 169.893 40.5594 169.506 45.8101C169.266 49.0599 167.158 54.1303 164.574 56.1933C163.649 56.9315 162.219 57.569 161.089 58.5011C162.326 59.2771 163.943 59.6843 165.104 60.4196C173.32 65.6284 173.749 77.7345 169.539 85.4922C168.539 86.8299 165.851 89.3281 165.218 90.4024C154.632 95.4062 146.103 94.148 134.978 94.141L123.026 94.1559C121.455 94.1583 115.555 94.3954 114.416 93.6692C114.231 92.216 114.35 87.6604 114.351 86.0004L114.352 69.9401L114.36 39.8853C114.367 35.5933 114.354 31.2847 114.337 26.9918C114.334 26.3021 114.42 25.3378 114.831 24.7726C115.325 24.4275 116.028 24.4191 116.643 24.3519ZM130.406 80.0644L142.94 80.1054C145.977 80.1089 151.258 80.5218 153.641 78.492C156.796 75.2618 157.114 71.6593 154.102 68.1293C153.452 67.3674 151.592 66.5103 150.637 66.3592C144.524 65.3935 137.509 65.6281 131.337 65.7789L131.008 65.7871C130.427 65.851 130.533 65.7458 130.233 66.1026C130.082 67.2965 130.146 70.0484 130.161 71.3809C130.193 74.1295 130.058 77.3737 130.406 80.0644ZM130.287 52.3256C132.575 52.8401 147.348 52.8066 149.261 51.7888C151.226 50.6998 152.791 49.8361 153.373 47.4857C154.357 43.5199 152.534 39.7946 148.33 38.9674C143.802 38.0769 138.537 38.3957 133.893 38.4159C133.032 38.4411 130.919 38.3657 130.348 38.9117C130.052 40.0466 130.11 50.919 130.287 52.3256Z" fill="white"/>
<path d="M206.382 23.3438C210.06 23.3549 215.302 23.5244 218.869 24.4996C221.688 25.2706 226.881 26.3974 229.089 28.1411C230.358 31.0449 229.269 37.3288 229.699 40.5797C229.778 41.186 229.778 42.8467 229.455 43.378C227.735 44.5073 224.711 41.871 223.056 41.1484C218.899 39.3342 214.401 37.7492 209.853 37.436C204.517 37.0686 195.382 37.9941 195.083 44.9646C195.01 46.7002 196.309 48.4273 197.803 49.2508C203.98 51.9282 211.541 51.6491 218.031 53.3341C229.515 56.3508 234.551 63.3406 233.62 75.2316C233.336 81.4604 231.986 84.974 227.2 89.1294C220.639 94.8259 210.561 95.6756 202.267 95.4051C198.152 94.9892 195.607 94.9402 191.537 93.9533C186.699 92.7799 184.389 92.1727 180.001 89.5897C179.807 87.9382 179.767 75.4473 180.124 74.1909C181.411 73.6111 184.362 75.6792 185.648 76.3058C191.975 79.4059 198.875 81.4368 205.958 81.3162C210.782 81.159 218.475 80.0939 218.037 73.6521C217.933 72.1095 217.44 70.6244 216.105 69.7985C210.77 66.5106 203.299 66.9112 197.411 65.7285C186.332 63.3174 179.607 58.473 179.441 46.5167C179.214 30.2595 191.643 23.7363 206.382 23.3438Z" fill="white"/>
<path d="M87.7855 24.3501C89.7073 24.2213 99.1352 23.9991 100.438 24.5423C100.82 24.7013 100.882 24.8397 101.023 25.2206C101.288 25.938 101.372 26.7939 101.405 27.5543C101.508 29.8827 101.397 32.2543 101.396 34.5868L101.394 49.0469L101.391 62.3969C101.39 64.9249 101.453 68.0973 101.301 70.5919C101.129 73.8361 100.61 77.0525 99.7524 80.1859C98.9343 83.0703 98.1349 84.6156 96.0351 86.8772C94.816 88.1902 93.8485 88.9617 93.1004 90.6311C91.526 91.4557 88.9328 92.8836 87.3025 93.4442C79.7273 96.0487 72.2659 96.3485 64.6308 93.9801C62.5212 93.4717 58.6923 91.8992 56.8894 90.5453C56.5842 90.3161 56.1207 89.573 55.8984 89.2142C56.6127 86.5975 55.792 76.0885 56.3127 75.1044C57.7879 74.2402 60.1578 76.1804 61.3496 77.0927C66.3033 80.8845 76.5201 83.0432 81.7946 79.0365C86.4195 75.5235 85.8122 65.0805 85.8132 59.7524L85.7995 36.739C85.7968 33.6621 85.6192 27.3343 85.9775 24.6294L87.7855 24.3501Z" fill="white"/>
<path d="M55.2403 0H72.9024C72.2422 1.45577 68.8884 4.38077 67.6733 5.69896C65.2085 8.30537 62.8151 10.9851 60.2799 13.524C59.7763 14.0284 59.465 15.2769 59.0195 15.7677C53.2574 22.1144 48.4635 30.1669 44.8161 37.8442C35.7962 56.4183 31.7683 77.0201 33.1287 97.6227C33.5557 103.812 34.4565 109.279 35.8174 115.309C36.091 116.521 36.3408 117.77 36.509 119H23.6381C23.498 117.444 22.9699 115.427 22.73 113.867C22.2755 110.912 21.6572 107.892 21.1989 104.951C20.6854 101.654 20.7426 97.9612 20.5652 94.6179C20.4911 93.2219 20.1602 90.6259 20.3602 89.3715C20.5836 88.6881 20.7679 82.7565 20.8091 81.6546C22.2426 55.233 31.6494 30.0675 47.671 8.98949C49.9619 5.97572 52.8171 2.99223 55.2403 0Z" fill="white"/>
<path d="M263.328 0H275.891C277.937 7.47537 279.056 18.0611 279.257 25.7235C279.281 26.6799 279.64 29.219 279.579 29.9031L279.394 30.0141C279.059 31.9058 279.173 35.9166 279.185 37.9544L279.179 38.1134C278.574 44.7415 277.558 52.2065 276.118 58.6833C271.871 77.778 263.21 95.3733 251.496 110.972C249.426 113.728 246.699 116.238 244.62 119H227.086C227.098 118.95 227.175 118.651 227.196 118.626C231.478 113.4 237.441 109.354 240.751 103.246C242.414 102.445 246.269 96.2714 247.393 94.5773C258.059 78.3762 264.56 59.7925 266.316 40.4761C266.876 34.8295 267.192 29.3138 266.83 23.6315C266.262 20.3862 266.486 16.2818 265.864 13.1342C265.009 8.8148 264.033 4.36471 263.328 0Z" fill="white"/>
<path d="M275.893 0H281.693C282.228 3.18664 284.182 7.14009 284.999 10.2979C287.823 21.2215 290.177 32.3614 290.064 43.6966C290.047 45.5373 290.312 48.4589 290.031 50.2234C290.231 61.4925 287.652 74.0587 284.826 84.9565C284.317 86.9183 282.531 91.3577 282.315 92.5502C280.332 96.9749 278.379 101.463 276.118 105.744C274.918 108.016 273.893 110.209 272.808 112.524C271.434 112.638 262.932 112.778 262.227 112.129C262.259 111.29 264.226 107.882 264.739 107.027C269.792 98.5898 272.92 89.9515 275.957 80.6791C279.242 70.6465 279.573 62.0439 280.78 51.7602C280.762 51.1922 280.762 50.6215 280.775 50.0535C280.906 44.5907 280.784 39.388 279.92 33.9888L279.906 33.1697C279.906 32.3456 279.68 30.7742 279.581 29.9031C279.642 29.219 279.283 26.6799 279.259 25.7235C279.058 18.0611 277.94 7.47537 275.893 0Z" fill="white"/>
<path d="M275.891 0H281.691C282.225 3.18664 284.18 7.14009 284.997 10.2979C287.821 21.2215 290.175 32.3614 290.062 43.6966C290.044 45.5373 290.309 48.4589 290.028 50.2234C289.778 48.1054 289.753 38.1886 289.368 36.9737C288.766 37.7965 289.074 37.4127 288.103 37.6281C285.774 38.1447 283.831 38.0176 281.438 37.7502L280.955 37.3121L280.804 37.3673C280.877 39.9225 281.506 49.958 280.777 51.7602C280.76 51.1922 280.76 50.6215 280.773 50.0535C280.903 44.5907 280.782 39.388 279.918 33.9888L279.903 33.1697C279.903 32.3456 279.678 30.7742 279.578 29.9031C279.64 29.219 279.281 26.6799 279.256 25.7235C279.056 18.0611 277.937 7.47537 275.891 0Z" fill="white"/>
<path d="M26.965 6.52906C28.2241 6.12986 31.5866 6.58233 33.1001 6.51394C34.0521 6.47094 36.7239 6.22222 37.4875 6.40902C38.1369 7.64488 32.8929 14.5926 32.5795 16.5052C32.5063 16.9513 30.911 19.2941 30.7398 19.8937C30.015 21.9566 27.8152 25.5814 27.3801 27.5502C26.0958 31.0527 25.1618 34.9098 23.7022 38.4284C23.1568 39.743 23.0299 41.9802 22.4443 43.4306C22.1195 45.4828 21.2807 47.6881 21.0055 49.5676C20.4359 53.4577 19.8412 57.2685 19.6648 61.1996C19.61 62.421 19.2243 64.0535 19.1851 65.2915C18.9958 71.2624 18.7633 79.0758 19.8225 84.9189C19.8501 85.9972 20.2075 88.2152 20.3647 89.3714C20.1647 90.6258 20.4956 93.2218 20.5697 94.6178C20.7471 97.961 20.6899 101.654 21.2034 104.951C21.6617 107.892 22.2801 110.912 22.7345 113.867C22.9744 115.427 23.5025 117.444 23.6426 119H18.3005C17.281 116.231 16.5187 113.38 15.5847 110.584C15.0335 108.674 14.0991 106.73 13.6962 104.786C12.3418 98.2484 11.0078 91.6359 10.1566 85.0132C9.89065 82.9435 9.95492 80.5002 9.86814 78.3882C9.68112 75.4007 9.58157 72.3318 9.67805 69.34C9.7293 67.7504 9.85501 66.1648 9.8289 64.5734C10.1777 62.7088 9.98381 59.945 10.2257 57.916C10.651 54.347 11.1686 51.0661 11.9771 47.5631C12.5552 45.0586 12.3686 41.7816 13.4478 39.3712C14.1859 37.9865 15.3434 32.5333 15.8991 30.8355C16.3721 29.3905 17.0188 27.8992 17.4896 26.4738C17.9666 25.1821 18.6833 23.8848 19.2067 22.6099C21.4816 17.0691 24.3667 11.9441 26.965 6.52906Z" fill="white"/>
<path d="M26.9625 6.52906C28.2217 6.12986 31.5841 6.58233 33.0976 6.51394C34.0496 6.47094 36.7214 6.22222 37.485 6.40902C38.1344 7.64488 32.8905 14.5926 32.577 16.5052C32.5038 16.9513 30.9085 19.2941 30.7374 19.8937C30.0125 21.9566 27.8128 25.5814 27.3777 27.5502C26.0933 31.0527 25.1593 34.9098 23.6997 38.4284C23.1544 39.743 23.0274 41.9802 22.4418 43.4306L22.2252 43.2728C22.8563 39.346 24.5261 34.9898 25.9829 31.3114C26.3328 30.4279 26.1861 28.5177 26.4972 27.9261C26.6799 27.9602 26.7105 27.9953 26.8588 28.0998L26.906 28.1338L27.1603 27.5471C26.773 27.3462 26.6707 27.0429 26.6933 27.0485C25.9687 26.8722 25.5291 27.6446 25.6313 26.3208C25.1082 26.2292 25.0808 26.5353 24.5718 26.6893C24.1203 26.8257 22.1054 26.1655 21.8974 26.3978C21.307 27.0569 21.0506 26.9283 19.9702 27.1165C19.5698 26.7943 18.9034 25.871 18.8259 25.3901C18.9606 25.0159 19.1432 24.6674 19.0334 24.2994C17.8553 24.6302 15.1704 35.9582 14.3956 37.5289C14.0888 38.151 14.0474 39.3861 13.5617 40.2251C13.5143 39.9302 13.4759 39.6708 13.4453 39.3712C14.1834 37.9865 15.3409 32.5333 15.8967 30.8355C16.3697 29.3905 17.0163 27.8992 17.4871 26.4738C17.9641 25.1821 18.6809 23.8848 19.2042 22.6099C21.4791 17.0691 24.3642 11.9441 26.9625 6.52906Z" fill="white"/>
<path d="M25.1668 6.56761C25.765 6.55015 26.3633 6.53729 26.9618 6.52905C24.3635 11.9441 21.4784 17.0691 19.2035 22.6099C18.6802 23.8848 17.9634 25.1821 17.4864 26.4738C16.4086 27.8001 16.4176 28.8771 15.713 30.1525C14.2164 32.8613 13.2054 35.3998 12.3014 38.3463C12.0433 39.1875 11.3865 40.2148 11.0946 41.0755C10.0246 43.7017 9.56962 46.5384 8.65712 49.2141C7.49096 52.6334 7.02362 56.3454 6.42868 59.9113C6.09825 61.8919 5.20378 64.8244 5.14178 66.6848C4.54043 68.414 4.97333 69.4493 4.86093 71.1207C4.81126 71.8592 4.11456 73.5764 4.01144 74.4618C3.77095 76.5265 3.93758 84.9853 2.63446 86.3503C1.96253 86.5097 1.36959 86.4429 0.682412 86.4087C0.689932 85.061 0.892633 84.1702 0 83.2214V70.7166C1.17488 69.5955 0.918847 65.9698 1.16213 64.3518C2.56215 55.1654 4.82557 46.1123 7.72143 37.2778C8.56443 34.7059 10.2319 31.7029 11.3203 29.2118C13.788 23.5641 17.0062 18.2827 20.0699 12.9427C20.5498 12.1063 21.4787 11.2457 22.0109 10.4174C23.0248 8.86662 23.7666 7.79935 25.1668 6.56761Z" fill="white"/>
<path d="M296.517 42.1895C297.424 42.9216 297.45 42.7644 298.557 42.9996C299.715 44.138 298.602 45.4742 298.639 46.7075C298.686 48.2403 298.77 49.7595 298.801 51.2989C298.763 52.2783 298.721 53.2575 298.677 54.2367C298.574 56.5078 297.93 58.7144 297.536 60.9625C294.74 76.6633 288.834 91.6469 280.163 105.032C279.034 106.782 276.537 110.734 275.208 112.162C273.935 112.489 274.016 112.406 272.812 112.524C273.897 110.209 274.922 108.016 276.123 105.745C278.383 101.463 280.336 96.975 282.32 92.5503C283.298 91.1222 283.732 89.5191 284.435 87.9338C285.889 84.5841 287.991 80.3637 289.111 76.9085C291.672 69.004 293.673 60.3187 294.901 52.1049C294.989 51.7987 295.002 49.8731 295.099 49.1551C295.257 48.9954 295.676 48.5562 295.7 48.363C295.973 46.2132 296.02 44.3173 296.517 42.1895Z" fill="white"/>
<path d="M294.797 49.0129C296.587 46.0771 295.582 34.8404 296.551 33.9954C297.084 33.887 297.133 34.0011 297.703 34.1907C298.798 33.8694 298.915 33.8246 299.821 34.5724V49.4577C298.801 49.8101 299.015 50.2712 298.794 51.2987C298.763 49.7594 298.678 48.2402 298.631 46.7074C298.594 45.474 299.707 44.1378 298.549 42.9995C297.442 42.7643 297.416 42.9215 296.51 42.1893C296.012 44.3171 295.965 46.2131 295.693 48.3628C295.668 48.556 295.249 48.9953 295.091 49.155C294.994 49.8729 294.981 51.7986 294.893 52.1048C294.743 51.0092 294.943 50.0426 294.797 49.0129Z" fill="white"/>
<path d="M295.5 49C295.383 46.8063 295.319 45.2787 295.657 43.0802C296.078 40.3373 295.299 29.2356 296.378 27.6274C296.924 27.2845 298.206 26.9251 298.774 27.3483L298.803 27.6109C298.524 27.6914 298.502 27.651 298.323 27.8287C298.969 28.1813 299.262 28.4234 299.827 28.8752V34.5726C298.921 33.8248 298.803 33.8696 297.708 34.1909C297.139 34.0013 297.089 33.8872 296.556 33.9956C295.587 34.8406 297.291 46.0642 295.5 49Z" fill="white"/>
<path d="M0.682412 86.4087C1.36959 86.4429 1.96253 86.5097 2.63446 86.3503C3.93758 84.9853 3.77095 76.5265 4.01144 74.4618C4.11456 73.5764 4.81126 71.8592 4.86093 71.1207C4.97333 69.4493 4.54043 68.414 5.14178 66.6848C5.07144 67.7204 5.00879 68.8463 5.07489 69.877C5.32374 73.7573 4.09712 77.3257 4.04044 81.2264C3.99696 84.2176 4.04155 87.2777 3.77863 90.247C3.67173 91.1474 3.20272 91.6757 2.3511 91.843C1.25202 91.6381 0.486422 90.4607 0 90.3519V83.2214C0.892633 84.1702 0.689932 85.061 0.682412 86.4087Z" fill="white"/>
<path d="M19.8203 84.919C20.2882 84.4325 20.1282 82.2166 20.1399 81.3931L20.267 81.8155L20.5343 81.9172L20.8114 81.6546C20.7703 82.7565 20.586 88.6881 20.3626 89.3715C20.2053 88.2153 19.848 85.9973 19.8203 84.919Z" fill="white"/>
<path d="M279.184 37.9544C279.173 35.9166 279.058 31.9057 279.394 30.014L279.578 29.9031C279.678 30.7741 279.903 32.3456 279.903 33.1696L279.675 32.4374L279.549 32.4401C279.107 33.6951 279.597 36.8222 279.184 37.9544Z" fill="white"/>
<path d="M279.186 37.9545C279.598 36.8223 279.108 33.6953 279.55 32.4403L279.676 32.4375L279.904 33.1698L279.919 33.9889L279.663 34.1105C279.301 36.0466 279.762 36.393 279.658 37.8032C279.483 37.8383 279.322 38.0053 279.18 38.1135L279.186 37.9545Z" fill="white" fill-opacity="0.105882"/>
</g>
<defs>
<clipPath id="clip0_2735_707">
<rect width="299.824" height="119" fill="white"/>
</clipPath>
</defs>
</svg>
