<svg width="379" height="359" viewBox="0 0 379 359" fill="none" xmlns="http://www.w3.org/2000/svg">
<path fill-rule="evenodd" clip-rule="evenodd" d="M189.383 0C190.642 1.35186 194.44 7.01699 195.631 8.72852L208.368 26.9893L363.8 248.979C368.541 255.744 374.451 263.768 378.785 270.67C363.85 277.023 346.406 285.714 331.545 292.644L207.828 350.358C202.464 352.864 194.939 356.631 189.584 358.671C187.583 358.27 177.376 353.306 174.85 352.122L0 270.559L125.796 90.9541C146.879 60.8649 168.701 30.2929 189.383 0ZM79.1572 220.775C75.217 226.397 69.2464 234.312 65.7998 239.844L151.816 199.763L175.674 188.612C180.022 186.577 185.212 183.986 189.611 182.225L271.749 220.561C285.364 226.904 299.716 233.332 313.17 239.921L199.496 77.5391C197.847 75.1882 190.727 64.6295 189.4 63.2832L79.1572 220.775Z" fill="white"/>
</svg>
