<svg width="923" height="151" viewBox="0 0 923 151" fill="none" xmlns="http://www.w3.org/2000/svg">
<g clip-path="url(#clip0_1592_382)">
<path d="M569.513 48.7242C569.896 58.9235 569.68 69.0926 569.734 79.2788C569.756 83.3643 569.355 91.1353 569.909 94.7802L570.409 95.1897C577.068 90.4082 593.775 55.1772 601.582 49.0805C602.82 48.1141 618.249 48.5042 620.532 48.5226C620.608 55.3343 619.766 93.2432 620.842 96.8986L622.027 96.8203C624.39 93.8745 626.245 90.261 628.388 87.1042C636.348 75.3747 643.452 63.067 651.471 51.3842C652.47 49.9314 653.934 48.6126 655.752 48.5357C661.803 48.2796 667.998 48.5109 674.054 48.6184C674.103 75.2744 673.581 103.575 674.139 130.063C670.754 130.056 656.144 129.834 653.533 130.335C653.857 121.5 653.609 111.97 653.708 103.083C653.749 99.1384 653.893 88.9045 653.317 85.3958L653.249 84.0847L653.146 82.6084L652.434 82.3002C648.702 84.945 626.322 124.189 620.617 130.103L600.182 130.079L600.177 98.2997C600.177 95.4034 600.394 86.1202 599.916 83.9123L598.782 83.4197C596.702 84.7875 573.227 124.281 569.437 129.496C568.626 130.612 552.486 130.084 548.83 130.082C548.348 120.98 548.659 109.317 548.672 100.012L548.69 48.506C555.052 48.5127 563.332 48.3057 569.513 48.7242Z" fill="#FCF4FD"/>
<path d="M191.763 48.5471L211.983 48.5412L212.023 80.5294C212.017 83.9809 211.735 93.8585 212.229 96.7921L212.913 97.2988C215.029 96.9429 215.177 93.957 216.442 92.052C221.956 83.7411 227.409 75.3852 232.933 67.0798C236.228 62.1983 239.912 55.3795 243.348 50.7226C244.003 49.842 244.819 49.0933 245.753 48.5151C252.283 48.5381 259.04 48.4755 265.55 48.5997L265.571 79.1782C265.573 82.5362 265.362 91.7343 265.839 94.6688L266.582 95.0904C266.65 95.0531 267.534 94.5694 267.534 94.5694C276.514 78.8178 287.79 64.2028 296.858 48.5538L316.769 48.5363C316.781 75.3483 316.387 103.355 316.821 130.069L296.225 130.076C296.218 123.805 296.754 86.1042 295.391 83.2984C294.161 83.7542 267.952 124.937 264.443 130.046C260.973 130.061 246.946 129.902 244.794 130.386C245.147 128.581 245.031 120.505 245.029 118.31L244.99 93.5876C244.963 89.6965 245.093 83.9557 244.795 80.2136C233.91 96.4106 223.611 113.97 212.695 130.052L191.717 130.086C191.535 114.202 191.484 98.3156 191.563 82.4295C191.562 71.8014 191.233 59.042 191.763 48.5471Z" fill="#FCF4FD"/>
<path d="M363.119 46.9334C369.35 46.4259 379.629 48.5699 385.327 51.5372C387.126 52.4736 389.34 55.3955 391.971 56.8146L392.559 56.5244C393.218 54.6166 393.197 50.6837 393.273 48.5123L413.721 48.5451L413.804 130.077L393.245 130.081L392.875 121.467C391.222 123.144 390.134 124.431 388.013 125.467C383.465 129.948 377.664 129.622 375.457 131.235L374.704 131.788C370.189 135.086 359.488 131.195 354.674 129.617C339.84 124.219 329.844 109.127 329.167 93.6298C328.435 76.8501 332.196 64.4623 345.817 53.845C348.514 51.7433 351.555 50.6792 354.423 48.6036C358.226 48.6126 359.602 48.0394 363.119 46.9334ZM350.26 80.604C350.057 86.59 350.284 92.558 350.094 98.3879C354.805 105.348 354.215 106.901 362.471 112.409C366.09 112.471 369.361 113.575 371.291 113.5C374.784 113.364 375.546 112.297 380.247 112.468C381.97 111.06 385.663 108.804 386.89 107.524C395.281 98.7762 395.957 82.5905 388.256 73.1696C381.367 64.7421 373.078 66.2913 363.345 66.6621C358.564 69.4368 355.637 71.3405 352.693 76.2931C351.718 77.9336 351.452 79.0067 350.26 80.604Z" fill="#FCF4FD"/>
<path d="M722.907 46.9424C731.875 46.6369 735.981 48.8641 742.527 48.6189C746.025 51.6268 749.897 51.2907 754.593 55.58C759.347 59.9219 762.602 63.3896 765.664 69.2586C767.024 71.8647 766.582 72.6562 768.581 74.9662C768.64 77.808 768.707 80.0892 769.014 82.94C769.95 84.3119 769.45 82.9378 770.918 83.7148C771.602 86.2516 771.328 91.6973 771.287 94.5715C754.854 94.7987 738.241 94.4667 721.795 94.6255C719.323 94.6493 706.582 94.5269 705.308 94.8829C703.268 98.8464 711.079 108.83 714.456 110.922C715.474 111.758 717.513 111.834 718.499 112.385C726.819 117.061 736.602 114.284 744.053 109.24C746.372 107.67 748.821 105.945 751.613 107.702C753.278 110.091 760.131 112.077 763.111 112.896C765.079 115.662 758.096 122.903 755.777 124.385C717.108 149.108 670.591 114.614 688.933 71.0571C691.932 63.943 697.663 58.2612 703.817 53.8859C706.78 51.778 710.062 50.739 713.132 48.5672C718.035 48.6468 718.377 47.845 722.907 46.9424ZM732.73 79.1871C735.945 79.2168 747.462 79.9745 749.501 78.2359C749.744 76.8501 749.501 76.95 748.704 75.7797C742.559 66.7214 734.333 63.2434 723.51 64.0533C719.85 66.5878 716.306 66.7565 713.159 69.1574C712.745 69.4746 707.005 76.8915 706.924 77.0921C707.05 78.4478 706.834 78.0253 707.77 78.9527C711.48 79.5974 727.729 79.1794 732.73 79.1871Z" fill="#FCF4FD"/>
<path d="M115.875 65.1973L118.206 65.5095C118.193 65.5307 118.18 65.5518 118.167 65.573C116.486 68.3842 117.78 113.068 117.408 119.904C114.176 122.631 108.712 128.386 105.571 131.589C100.344 136.918 94.3291 142.624 89.3384 148.064L39.5586 148.094C34.1894 148.094 18.6847 148.404 13.9829 147.577L13.7817 146.893C15.75 144.537 21.5805 141.056 24.172 138.869C27.6483 135.934 31.2051 133.026 34.7459 130.173L90.635 85.6219C98.453 79.3511 108.556 71.8258 115.875 65.1973Z" fill="#FCF4FD"/>
<path d="M481.418 48.6356L481.459 48.5789C484.718 48.5569 500.413 48.223 502.52 48.7603C502.795 49.666 502.97 50.0012 502.552 50.9564C500.953 54.282 498.342 56.9861 496.248 59.9944C490.562 68.1744 484.331 76.0376 478.825 84.3151C478.217 85.2335 477.303 88.4807 477.938 89.363C482.229 95.3063 486.632 101.17 490.778 107.213C490.783 107.217 491.985 107.418 492.097 107.44C492.881 108.798 494.11 111.212 494.848 112.425C496.393 115.018 498.207 117.248 500.17 119.529C501.048 120.552 501.863 122.514 502.763 123.688C504.06 125.379 503.312 124.926 505.514 125.274C505.888 126.98 506.748 128.552 506.604 129.685C505.257 130.403 501.678 130.118 499.967 130.082C494.623 130.123 489.279 130.095 483.935 129.999C479.496 123.781 475.142 117.583 470.28 111.692C468.281 109.088 468.749 106.321 465.066 105.65C461.352 104.974 461.496 108.791 459.367 111.578C456.49 115.345 447.262 125.823 446.447 130.027C441.89 130.091 428.057 130.378 424.136 129.876C422.837 125.964 451.528 92.7848 452.015 88.3736C452.69 82.2854 425.844 54.5546 426.247 48.5353C430.868 48.5276 435.488 48.488 440.108 48.4156C441.293 48.4062 448.246 48.3013 448.971 48.9776C453.095 52.8286 460.47 69.2313 465.859 69.1611C466.21 69.0005 466.633 68.8061 467.137 68.5775C470.978 62.272 477.083 54.3508 481.418 48.6356Z" fill="#FCF4FD"/>
<path d="M792.272 48.5171L792.259 48.0451C792.052 40.8538 792.2 33.3211 792.187 26.1205C792.169 17.1793 793.871 19.2482 801.452 18.8509C805.126 18.6582 808.44 18.7243 811.866 18.6714L812.213 19.525C812.321 25.5629 811.816 43.1512 812.447 48.1545C813.982 48.6548 814.927 48.5536 816.508 48.5009L824.828 48.55L824.877 66.5436C821.973 66.5517 816.751 66.6943 814.09 66.3537L812.496 66.7479C811.988 68.131 812.087 128.249 812.784 130.377C810.533 129.864 796.18 130.044 792.844 130.039C791.827 125.267 792.137 111.912 792.137 106.597L792.142 66.5697L781.746 66.4919C781.611 60.2953 781.449 54.8811 782.152 48.7151C784.974 48.4321 789.333 48.5342 792.272 48.5171Z" fill="#FCF4FD"/>
<path d="M516.04 48.4878C522.789 48.5346 529.542 48.5287 536.291 48.4702C536.737 57.1253 536.435 68.4611 536.435 77.2287L536.426 129.851C534.909 130.335 518.701 130.114 516.036 130.095C515.36 104.327 515.774 74.4413 516.04 48.4878Z" fill="#FCF4FD"/>
<path d="M522.875 15.4004C530.835 14.7394 529.241 15.7487 535.972 19.2196C536.382 21.0711 537.66 22.1158 539.029 23.2384C538.984 27.6695 540.204 33.2278 536.985 36.454C534.788 38.6562 534.72 37.9369 533 40.8144L530.362 40.9901C526.414 41.4151 524.401 41.2085 520.52 40.8617C513.695 35.6039 513.006 32.2715 513.655 24.1537C517.148 19.0546 517.783 18.8256 522.875 15.4004Z" fill="#FCF4FD"/>
<path d="M812.783 130.379C812.086 128.25 811.987 68.1323 812.495 66.7491L814.089 66.355C814.976 70.3658 815.435 126.64 814.521 129.773C813.932 130.029 813.423 130.285 812.783 130.379Z" fill="#F2D2F5" fill-opacity="0.266667"/>
<path d="M115.876 65.1967C116.898 64.3724 118.239 63.0631 119.484 62.9668C120.26 64.7459 120.511 112.23 119.945 116.985C119.002 118.109 118.045 118.556 117.409 119.904C117.78 113.067 116.486 68.3836 118.168 65.5724C118.181 65.5513 118.194 65.5301 118.207 65.509L115.876 65.1967Z" fill="#F2D2F5" fill-opacity="0.627451"/>
<path d="M244.793 130.385C243.475 130.142 243.798 130.366 242.796 129.532C242.22 116.304 243.182 100.838 242.624 87.4906C242.618 87.348 242.814 86.7369 242.876 86.5745L243.528 86.3716C244.957 88.3873 241.982 88.4395 244.989 93.5873L245.028 118.31C245.031 120.505 245.146 128.581 244.793 130.385Z" fill="#E9B4EB" fill-opacity="0.133333"/>
<path d="M653.316 85.396C653.892 88.9046 653.748 99.1386 653.708 103.084C653.609 111.97 653.856 121.5 653.532 130.335C652.244 130.101 652.38 130.316 651.52 129.523C650.849 119.819 651.371 105.242 651.385 95.099L651.965 95.5417C653.51 93.4765 653.239 88.1672 653.316 85.396Z" fill="#F2D2F5" fill-opacity="0.329412"/>
<path d="M812.213 19.5259C812.357 20.1454 812.604 21.0104 812.559 21.6204L812.978 21.9295L813.5 20.6555L814.162 20.4497C815.522 25.9018 814.644 35.9639 814.72 41.8452C814.747 43.6137 814.076 45.8786 814.32 47.6581L813.991 47.7099L812.807 46.14L812.78 47.808C814.428 48.5063 814.77 47.9416 816.508 48.5018C814.927 48.5544 813.982 48.6557 812.447 48.1553C811.816 43.1521 812.321 25.5638 812.213 19.5259Z" fill="#F2D2F5" fill-opacity="0.278431"/>
<path d="M651.385 95.0991C651.322 91.896 650.908 87.204 652.16 84.4094L653.249 84.085L653.317 85.3961C653.24 88.1673 653.51 93.4766 651.966 95.5418L651.385 95.0991Z" fill="#E9B4EB" fill-opacity="0.27451"/>
<path d="M901.719 130.078C901.692 128.377 901.958 123.633 900.688 122.622C898.928 122.755 896.236 126.251 894.534 127.077C886.268 131.094 879.199 134.049 870.078 131.951C857.229 128.994 850.057 123.297 842.934 112.279C837.154 103.89 837.959 96.7297 837.554 87.41C836.928 72.9997 844.816 59.6526 856.788 51.9208C868.12 45.1478 881.478 45.7832 893.062 51.4439C895.619 52.6943 899.05 57.3575 901.224 55.9955C901.805 54.1507 901.679 50.5773 901.697 48.5094L922.047 48.6201V51.65C921.245 52.0792 919.67 52.4567 919.652 53.2243C919.454 60.831 918.625 125.578 919.832 127.069C920.462 126.989 921.502 126.776 922.047 126.992V130.032C915.429 130.172 908.374 130.065 901.719 130.078ZM887.857 112.451C889.699 111.865 893.453 109.095 894.944 107.618C905.578 97.0869 904.362 75.4865 890.446 68.2209C885.025 65.3916 877.759 66.422 871.514 66.6609C868.385 68.5142 862.947 71.4357 861.947 74.6388C861.555 75.9086 860.781 77.3776 860.556 78.6573C860.506 78.9614 858.71 79.1311 858.534 80.7027C857.702 88.0687 856.972 96.9065 861.258 103.342C864.405 108.064 867.386 111.024 872.743 112.659C878.74 114.489 883.432 112.204 887.857 112.451Z" fill="#FCF4FD"/>
<path d="M28.5453 30.6021C32.8629 29.7435 81.6836 29.5362 83.8518 30.6749C84.293 32.6998 77.4677 39.6127 75.9329 41.5519L54.2707 68.6955C53.7673 69.3187 53.2491 71.2845 53.2901 71.2462C43.0959 80.7981 36.2098 93.0594 26.7524 103.261C26.09 103.975 23.9623 106.706 23.3074 107.733C23.2914 110.921 21.322 109.8 21.0391 110.218C15.1941 118.852 7.11674 126.105 2.27102 135.308L0 135.781V59.051C3.29271 57.811 18.6034 39.78 22.6526 36.8143C23.5407 36.1639 27.7691 31.6463 28.5453 30.6021Z" fill="#FCF4FD"/>
<path d="M114.907 0H148.124L148.08 33.8741C138.958 41.8713 127.455 55.3973 118.439 62.1802C119.389 52.3715 116.741 43.0961 118.862 33.3108C118.94 32.9523 118.744 32.0152 118.624 31.6254C115.735 27.3681 89.3876 31.9902 87.5728 28.8706C89.443 24.7261 105.145 10.8943 108.937 6.66868C110.745 4.65461 113.479 2.74677 114.907 0Z" fill="#FCF4FD"/>
<path d="M922.048 126.993C921.503 126.776 920.463 126.99 919.833 127.069C918.626 125.578 919.454 60.8315 919.653 53.2247C919.671 52.4571 921.246 52.0796 922.048 51.6504V126.993Z" fill="#FCF4FD" fill-opacity="0.909804"/>
</g>
<defs>
<clipPath id="clip0_1592_382">
<rect width="922.047" height="150.731" fill="white"/>
</clipPath>
</defs>
</svg>
