<svg width="1984" height="814" viewBox="0 0 1984 814" fill="none" xmlns="http://www.w3.org/2000/svg">
<path d="M1104.09 366.476L1133.53 366.464C1146.23 394.394 1158.31 424.302 1170.43 452.642L1243.07 623.409C1252.35 628.144 1261.58 632.964 1270.78 637.867L1270.77 651.582C1243 652.007 1214.22 651.605 1186.37 651.594L1186.4 637.682C1194.69 632.95 1204.76 628.111 1213.4 623.739C1205.84 605.378 1198.02 587.129 1189.93 568.998L1131.02 568.966L1047.72 569.036C1039.62 586.546 1032.07 605.734 1024.1 623.633L1051.91 637.728L1051.93 651.597C1023.69 651.629 995.187 651.858 966.97 651.528L966.952 637.673C976.219 633.079 985.383 628.293 994.451 623.317C998.384 615.617 1003.35 602.92 1006.94 594.531L1104.09 366.476ZM1059.37 541.577L1178.21 541.561C1173.11 528.344 1121.3 405.426 1118.43 402.747C1098.55 447.656 1078.3 496.191 1059.37 541.577Z" fill="white"/>
<path d="M1353.29 366.458C1371.25 366.247 1389.69 366.472 1407.69 366.483C1468.85 445.408 1528.49 526.61 1589.32 605.96L1589.28 393.722C1581 390.531 1569.78 384.473 1561.55 380.293L1561.58 366.458L1643.96 366.452L1644.01 380.22C1635.02 384.936 1625.93 389.475 1616.76 393.835L1616.71 651.553L1589.38 651.652C1568.61 623.277 1545.93 594.23 1524.63 566.089L1407.77 411.867L1407.73 623.479C1415.97 628.139 1427.03 633.361 1435.65 637.745L1435.61 651.59L1353.27 651.574L1353.25 637.678L1380.45 623.564L1380.47 393.899C1371.29 389.651 1362.24 384.934 1353.23 380.337L1353.29 366.458Z" fill="white"/>
<path d="M644.505 366.456L726.902 366.457L726.966 380.287C717.554 385.107 708.89 389.539 699.216 393.808L699.221 629.087C750.833 630.036 805.242 629.154 857.084 629.161C861.814 620.156 866.369 611.061 870.749 601.881L884.453 601.903L884.484 625.52L884.461 651.58C805.521 652.519 723.49 651.846 644.442 651.545L644.458 637.69C653.724 633.093 662.891 628.301 671.955 623.316L671.943 393.875C662.804 389.825 653.364 384.783 644.418 380.216L644.505 366.456Z" fill="white"/>
<path d="M480.286 366.452L561.967 366.462L561.983 380.413C553.125 385.004 544.007 389.984 534.757 393.647L534.755 623.591L561.987 637.526L561.982 651.547L550.492 651.602L480.253 651.583L480.225 637.688C487.909 633.181 499.315 627.742 507.473 623.557L507.515 407.771L521.046 393.945C502.672 394.588 495.946 388.783 480.148 380.233L480.286 366.452Z" fill="white"/>
<path d="M984.56 729.519C1004.31 729.245 1042.35 723.337 1042.67 753.206C1042.75 760.056 1040.04 766.645 1035.15 771.441C1027.75 778.741 1020.11 779.007 1010.65 778.911L993.996 779.034C994.015 784.562 995.042 810.199 992.455 813.163C989.937 813.21 988.619 813.393 986.236 812.432C982.855 807.755 984.579 793.883 984.55 787.445L984.56 729.519ZM993.996 770.389C1006.46 770.682 1018.74 772.876 1028.46 765.501C1033.8 757.616 1036.6 747.77 1026.99 741.883C1017.63 736.148 1004.6 737.647 994.005 737.91L993.996 770.389Z" fill="white"/>
<path d="M757.439 729.501C772.923 729.286 796.85 726.379 808.069 736.326C812.656 740.343 815.364 746.087 815.545 752.182C816.285 771.864 800.852 778.665 783.961 778.882L766.695 779.007C766.74 788.824 766.889 799.86 766.629 809.756C766.575 811.816 765.888 811.862 764.352 813.005C761.251 813.469 760.876 813.388 757.984 812.159C756.918 804.141 757.289 789.501 757.305 780.949L757.439 729.501ZM766.701 770.407C777.872 770.591 791.777 772.212 801.229 766.392C806.757 759.001 810.126 748.362 801.093 742.401C791.446 736.034 777.69 737.582 766.767 737.941C766.669 748.764 766.646 759.585 766.701 770.407Z" fill="white"/>
<path d="M1283.92 729.487C1285.88 729.434 1293.24 728.967 1294.38 730.578C1309.83 752.534 1323.71 775.599 1338.82 797.821C1338.8 776.864 1338.08 750.811 1339.05 730.265C1341.16 728.901 1343.89 729.434 1346.58 729.563C1349.46 733.11 1348.17 803.44 1348.13 813.042C1345.78 813.117 1342.83 813.449 1340.56 812.895C1335.32 811.624 1298.92 752.748 1293.99 744.162C1293.86 753.086 1295.31 808.817 1292.55 812.549C1289.24 812.719 1287.7 812.96 1284.54 811.999C1283.24 806.14 1283.79 790.09 1283.8 783.122L1283.92 729.487Z" fill="white"/>
<path d="M870.943 729.498C878.809 729.484 921.474 728.162 925.403 730.507C925.516 733.8 926.132 734.937 924.723 737.321C918.293 738.509 889.953 737.757 880.774 737.893L880.772 766.14C888.892 766.372 909.532 763.502 914.228 769.463C914.74 772.443 915.091 771.85 914.016 774.246C906.038 776.495 888.986 773.609 881.257 775.51L880.731 777.07L880.774 804.997C889.625 805.099 898.484 805.07 907.336 804.925C911.123 804.863 932.476 802.758 925.32 812.566C911.109 813.981 885.966 813.103 870.959 813.015L870.943 729.498Z" fill="white"/>
<path d="M1095.18 729.498C1103.08 729.461 1155.16 728.386 1157.89 730.913C1158 734.073 1158.53 734.358 1157.19 736.681C1152 738.311 1137.55 737.925 1131.18 737.988V786.382C1131.19 790.461 1131.54 809.883 1130.55 812.545C1127.22 812.892 1125.83 812.613 1122.5 812.138C1120.8 807.577 1121.78 747.222 1121.81 737.844C1112.95 737.53 1103.8 739.55 1096.41 736.514C1094.5 733.674 1095.17 733.602 1095.18 729.498Z" fill="white"/>
<path d="M1213.74 729.49C1216.58 729.469 1220.58 729.025 1222.71 730.605C1223.67 737.32 1223.21 752.965 1223.18 760.413L1223.02 812.79C1220.63 813.128 1216.12 813.437 1214.13 812.007C1213.19 803.9 1213.61 790.286 1213.63 781.783L1213.74 729.49Z" fill="white"/>
<path d="M1018.12 787.571C1019.56 787.496 1024.49 787.249 1025.57 787.633C1032.66 790.164 1039.94 806.229 1043.97 812.998C1042.68 813.061 1037.63 813.276 1036.67 813.004C1029.11 810.861 1022.43 794.55 1018.12 787.571Z" fill="white"/>
<path d="M626.304 0H859.055L946.431 87.4953C959.047 100.109 978.757 121.049 991.651 132.322C1036.19 89.4625 1080.05 43.5414 1124.22 0H1356.74C1386.63 6.94244 1397.94 5.40319 1427.13 25.9275C1458.02 47.6758 1478.9 80.89 1485.13 118.151C1491.87 155.338 1483.3 193.67 1461.37 224.445C1439.71 254.924 1406.32 276.089 1369.44 282.909C1359.1 284.822 1336.49 284.586 1325.64 284.599L673.115 284.605C656.079 284.605 633.253 285.863 616.803 283.357C511.784 267.358 460.223 144.256 522.893 58.7031C550.09 21.5752 581.882 7.10446 626.304 0ZM1163.13 202.471C1172.14 206.904 1181.65 211.406 1190.54 216.003L1190.51 229.774L1108.31 229.782V216.091C1117.5 211.264 1126.21 207.033 1135.52 202.501L1135.65 27.3483C1088.65 74.6051 1039.35 125.451 991.496 171.386C980.569 159.539 966.69 146.439 955.091 134.854L885.773 65.5929C874.748 54.5727 857.673 38.4691 847.805 27.0069L847.762 202.299C856.852 207.222 866.072 211.228 875.01 216.084L874.981 229.781L792.657 229.776L792.688 216.071C801.844 211.373 811.082 206.836 820.398 202.465L820.462 27.4138L701.092 27.3045C679.813 27.3012 655.156 26.7356 634.125 27.5517C601.852 29.3962 573.933 41.6362 552.283 66.0162C532.099 88.6255 521.736 118.337 523.478 148.6C525.117 179.414 539.125 208.261 562.326 228.599C579.089 243.46 599.91 252.968 622.116 255.902C632.582 257.33 649.912 257.017 660.787 257.021L1299.45 257.017C1352.05 257.103 1393.41 261.698 1432.03 217.419C1451.97 194.487 1461.94 164.54 1459.72 134.225C1457.63 103.911 1443.58 75.6722 1420.67 55.7193C1406.02 42.9552 1388.38 34.1179 1369.39 30.035C1351.27 26.1011 1302.05 27.0702 1281.54 27.295C1242.85 27.719 1201.57 26.5348 1163.07 27.459L1163.13 202.471Z" fill="white"/>
<path d="M1984 510.893C1983.23 513.874 1982.25 526.559 1981.47 531.056C1977.65 553.157 1971.76 569.371 1959.37 587.904C1937.96 619.711 1904.78 641.684 1867.15 648.968C1830.61 655.788 1792.86 648.007 1762 627.295C1730.31 606.063 1708.44 573.045 1701.22 535.59C1694.06 498.714 1701.87 460.506 1722.92 429.397C1744.36 397.603 1777.7 375.8 1815.43 368.917C1852.56 362.049 1890.9 370.315 1921.91 391.874C1951.56 412.273 1972.28 443.239 1979.83 478.428C1982.23 489.946 1982.07 499.587 1984 510.006V510.893ZM1855.37 622.855C1918.27 614.983 1962.89 557.613 1955.06 494.688C1947.23 431.764 1889.91 387.091 1826.99 394.889C1764.03 402.693 1719.33 460.094 1727.17 523.073C1735 586.05 1792.41 630.734 1855.37 622.855Z" fill="white"/>
<path d="M0 366.411L66.6255 366.48C74.1722 375.896 104.035 404.707 113.978 414.396C142.401 442.091 170.503 471.918 198.786 499.405C242.409 455.209 288.628 410.961 331.448 366.425L397.52 366.451L397.58 380.224C388.378 385.033 379.715 389.625 370.214 393.835L370.207 623.475L397.579 637.789L397.523 651.621C370.266 651.621 342.336 651.956 315.142 651.614L315.147 637.692L343 623.578L343.016 393.898L198.81 538.006L54.6519 393.936L54.5671 623.614L82.3626 637.722L82.3356 651.602L0 651.648V637.424C4.78075 635.738 22.1141 626.219 27.2167 623.493L27.2453 407.937C32.0356 403.344 36.2589 398.83 40.7866 393.975C22.691 394.502 15.6651 388.574 0 380.32V366.411Z" fill="white"/>
<path d="M1440.08 814C1412.73 806.242 1397.7 786.277 1406.2 757.409C1409.37 746.981 1416.49 738.205 1426.03 732.951C1435.65 727.749 1447.91 727.073 1458.3 730.177C1468.64 733.263 1477.35 740.325 1482.52 749.819C1487.92 759.939 1488.73 774.718 1485.33 785.646C1480.14 802.264 1467.73 810.008 1451.59 814H1440.08ZM1450.22 805.689C1492.13 795.661 1484.36 735.852 1443.63 736.839C1411.28 741.127 1404.02 779.622 1427.11 799.682C1433.49 805.222 1442.05 805.654 1450.22 805.689Z" fill="white"/>
<path d="M531.344 814C504.238 806.186 489.375 786.241 497.845 757.637C500.944 747.054 508.159 738.159 517.873 732.947C527.563 727.764 539.95 726.919 550.451 730.01C559.24 732.597 573.024 742.195 573.708 751.849C569.682 758.445 561.204 747.241 558.552 744.36C551.615 736.825 540.429 736.324 530.831 737.832C501.685 742.413 497.354 785.226 519.748 800.48C526.707 805.219 537.32 806.511 545.453 805.168C562.037 802.946 562.753 782.154 574.876 788.815C575.531 789.176 575.578 790.173 575.826 791.087C571.811 802.16 554.881 811.236 544.033 814H531.344Z" fill="white"/>
<path d="M659.17 814C621.282 802.957 635.268 773.38 632.571 743.023C632.108 737.813 632.007 723.619 641.636 730.283C646.265 755.501 627.623 811.41 671.324 805.395C699.625 801.5 680.093 739.594 689.276 729.718C692.262 729.59 693.637 729.353 696.406 730.508C698.269 737.105 698.567 791.425 693.065 799.398C686.787 808.498 679.979 811.295 669.974 814H659.17Z" fill="white"/>
</svg>
