<svg width="1838" height="1032" viewBox="0 0 1838 1032" fill="none" xmlns="http://www.w3.org/2000/svg">
<path fill-rule="evenodd" clip-rule="evenodd" d="M1629.87 930.988C1629.87 930.988 1607.33 940.981 1603.21 943.364C1376.42 1000.5 1234.05 1023.86 971.004 865.201C958.44 851.468 913.576 810.617 913.576 810.617C913.576 810.617 871.818 850.053 859.565 862.722C810.077 907.572 775.418 947.071 694.673 970.522C560.473 1009.5 385.913 1011.67 273.111 970.522C163.964 922.247 90.4146 840.677 37.3684 716.016C-96.1265 402.298 141.114 -28.5788 541.058 2.93963C626.949 9.70867 713.898 33.0297 785.31 80.3556C825.69 107.114 889.069 167.035 906.066 212.297C932.521 189.074 954.29 163.225 978.458 138.193C1070.22 43.1314 1201.65 1.52957 1331.58 0.654955C1360.52 -2.78816 1391.97 8.38418 1418.77 10.0591C1463.4 12.8488 1485.88 20.5238 1527.07 33.7865C1598.9 56.927 1644.58 90.6465 1697.26 144.123C1766.95 214.844 1804.7 310.594 1823.36 406.876C1826.66 424.797 1827 455.37 1827 504.467C1827 553.565 1808.42 643.542 1808.42 643.542C1786.32 705.052 1736.34 814.164 1736.34 814.164L1837.76 928.723L1740.97 1031.24L1629.87 930.988ZM170.463 613.231C154.717 552.228 148.728 474.574 172.657 391.247C193.629 318.214 219.39 265.488 268.556 221.952C337.571 158.769 441.415 142.497 531.394 145.928C613.91 149.074 696.842 190.947 749.67 253.277C866.115 390.671 865.099 672.285 720.355 791.397C678.058 826.206 630.656 839.928 580.193 859.44C546.691 870.409 479.717 863.021 444.377 863.558C373.171 857.034 277.995 802.388 231.341 749.163C203.09 716.934 181.003 654.064 170.463 613.231ZM1570.52 769.027C1512.19 828.821 1420.63 862.778 1338.21 863.846C1158.28 862.981 1013.44 738.349 999.266 557.348C980.66 319.044 1086.71 156.16 1334.83 145.222C1337.06 145.075 1339.29 144.987 1341.55 144.956C1357.13 144.707 1372.74 147.286 1388.17 149.837C1391.41 150.373 1394.65 150.908 1397.87 151.415C1466.28 162.169 1518.49 183.324 1568.63 231.983C1617.42 279.312 1638.14 326.429 1657.12 390.547C1666.29 421.538 1673.92 449.932 1674.34 482.538C1675.61 585.072 1643.31 694.404 1570.52 769.027Z" fill="#FAF9F9"/>
</svg>
