<svg width="1774" height="710" viewBox="0 0 1774 710" fill="none" xmlns="http://www.w3.org/2000/svg">
<path d="M85.0078 42.4584L276.719 42.4194L341.937 42.4264C413.544 42.4444 464.57 47.6104 518.709 100.825C598.76 179.509 598.701 328.605 518.777 407.507C453.308 472.14 389.28 465.955 305.254 465.953L172.452 465.905H85.0088V367.472L287.846 367.481L342.952 367.544C360.52 367.573 379.935 368.441 397.01 364.761C419.306 360.044 439.775 349.012 455.974 332.981C478.467 310.686 491.105 280.317 491.07 248.646C491.384 216.764 478.79 186.11 456.152 163.658C440.229 147.778 420.115 136.757 398.161 131.885C379.976 127.844 360.775 128.761 342.179 128.779L284.821 128.863L85.0088 128.852L85.0078 42.4584Z" fill="white"/>
<path d="M486.993 476.462C490.046 479.372 504.821 502.473 508.882 507.889C546.801 558.462 582.474 616.217 620.433 666.118H485.452H457.544L387.6 562.316C378.235 548.449 359.844 522.942 352.121 509.063C413.091 509.446 433.279 506.236 486.993 476.462Z" fill="white"/>
<path d="M85.0088 509.035H225.823L225.824 666.118H85.0098L85.0088 509.035Z" fill="white"/>
<path d="M605.689 224.63C629.177 224.546 673.962 221.505 693.611 231.049C733.283 250.319 731.907 313.062 686.243 327.871C695.284 343.738 713.238 368.245 724.121 383.849C720.152 383.966 712.688 384.924 710.177 381.995C699.033 367.431 685.421 346.209 674.979 330.801C662.248 332.533 631.16 331.76 616.859 331.726V383.785L605.689 383.837V224.63ZM616.859 321.705C644.575 321.868 677.265 326.304 698.536 309.263L699.162 308.756C713.93 291.447 714.85 261.243 697.495 246.222C679.819 230.924 639.79 235.075 616.859 235.176V321.705Z" fill="white"/>
<path d="M1575.04 224.63C1599.34 224.543 1644.47 221.396 1663.8 231.623C1704.54 253.187 1699.63 312.14 1655.1 328.155L1693.26 383.783C1688.34 383.98 1685.49 384.213 1680.6 383.451L1679.29 381.612C1669.8 369.495 1653.03 343.814 1644.36 330.701C1632.49 332.506 1599.85 331.762 1586.14 331.726C1586.18 347.229 1586.22 362.783 1586.18 378.285C1586.17 381.972 1586.16 381.871 1584.04 383.853C1580.19 384.17 1579.41 384.046 1575.59 383.36C1574.52 380.963 1575.04 237.454 1575.04 224.63ZM1586.14 321.705C1612.31 321.859 1647 325.917 1667.19 310.061C1683.62 292.576 1684.68 263.2 1667.34 246.763C1650.37 230.679 1608.66 235.05 1586.14 235.176V321.705Z" fill="white"/>
<path d="M1156.31 224.63L1167.46 224.626C1175.89 240.712 1185.38 264.339 1193.01 281.747L1237.88 383.777L1226.29 383.8C1220.34 372.882 1211.69 351.494 1206.41 339.406H1169.45H1117.92C1112.56 353.284 1104.85 369.681 1098.94 383.814L1086.5 383.833C1103.98 348.216 1118.58 309.157 1135.43 272.976C1142.46 257.873 1150.48 240.028 1156.31 224.63ZM1122.37 329.1H1163.45H1202.09C1197.43 318.723 1164.44 240.508 1161.78 238.253C1149.08 267.463 1135.71 300.549 1122.37 329.1Z" fill="white"/>
<path d="M1481.51 224.63L1492.81 224.628C1514.75 276.976 1539.6 331.8 1562.78 383.798L1550.23 383.804C1546.97 373.159 1536.36 351.638 1531.58 339.406H1493.45H1442.89C1436.33 352.755 1429.86 369.636 1423.3 383.786H1411.31C1419.38 367.401 1428.16 345.929 1435.61 329L1481.51 224.63ZM1447.49 329.092L1488.45 329.1H1527.21C1520.02 314.861 1492.82 245.25 1486.29 238.343C1475.79 267.078 1457.12 301.407 1447.49 329.092Z" fill="white"/>
<path d="M746.045 224.63L813.996 224.708C820.719 224.69 844.786 222.321 848.06 227.631C848.061 231.256 848.686 232.277 846.912 234.903C838.865 235.598 824.696 235.159 815.943 235.163L757.215 235.176V297.746H838.538L838.536 308.142H758.308C756.275 310.315 757.197 366.109 757.215 373.682H851.538L851.539 383.831H746.045V224.63Z" fill="white"/>
<path d="M905.592 224.158C919.262 222.283 952.982 225.308 960.992 237.531C961.922 240.895 961.582 241.429 960.192 244.688C957.632 246.763 950.532 242.743 947.462 240.924C923.842 226.946 871.783 231.102 874.622 267.894C877.412 304.061 939.392 294.959 959.522 317.243C965.602 323.968 969.842 329.398 969.782 339.361C969.412 375.943 941.952 384.778 912.082 385.151C911.092 385.154 910.092 385.125 909.102 385.063C891.512 384.05 871.443 377.023 859.401 363.738C859.787 362.902 863.479 355.048 864.374 355.57C869.006 358.272 875.172 364.898 879.872 366.963C895.832 374.239 908.662 375.045 925.582 374.18C944.082 373.233 961.852 358.171 958.172 338.449C950.702 306.248 896.492 313.404 876.642 294.904C847.389 267.647 867.343 228.233 905.592 224.158Z" fill="white"/>
<path d="M1023.59 224.168C1044.6 221.34 1063.86 226.035 1081.44 237.707L1077.35 247.023C1055.79 233.644 1022.43 225.53 1000.23 245.189C996.103 248.847 991.203 263.293 992.223 269.042C998.433 303.916 1054.77 294.726 1076.07 315.969C1082.95 322.074 1087.52 330.112 1087.74 339.686C1088.56 374.387 1060.73 384.575 1031.83 385.176C1008.16 384.28 995.233 378.809 977.062 364.463C978.482 361.524 980.383 358.272 981.983 355.375C983.933 356.905 985.893 358.413 987.873 359.896C1006.65 373.886 1025.64 376.682 1048.51 373.565C1055.33 372.459 1067.9 366.561 1071.28 360.184C1088.98 326.79 1058.36 315.373 1032.97 309.806C1011.07 305.002 984.093 296.365 981.633 273.137C978.643 244.944 996.143 227.143 1023.59 224.168Z" fill="white"/>
<path d="M337.844 168.097C342.793 169.571 347.307 176.404 352.148 181.004C363.895 192.168 375.715 196.152 386.344 208.3C397.243 220.714 402.704 236.982 401.505 253.458C400.319 270.87 392.207 287.081 378.982 298.468C354.3 319.628 337.694 311.343 309.189 308.171C296.11 306.716 289.636 313.741 280.388 321.886C278.305 322.683 277.953 322.42 275.638 322.378C272.951 320.342 273.749 321.48 272.951 317.825C273.695 314.24 275.337 311.493 277.801 308.77C299.826 283.693 333.406 308.919 359.25 297.669C393.074 282.945 401.393 236.834 373.875 211.914C360.72 200 339.45 191.798 334.028 174.853C333.337 172.694 336.508 169.62 337.844 168.097Z" fill="white"/>
<path d="M1320.04 224.63H1440.81L1440.79 235.176H1385.98V328.298V383.798L1374.88 383.802V235.176C1365.29 235.219 1328.76 236.035 1321.01 234.584C1319.59 231.846 1320.03 227.901 1320.04 224.63Z" fill="white"/>
<path d="M309.72 168.236C317.752 169.441 322.041 180.34 326.755 186.342C337.555 200.738 357.57 204.648 369.392 217.583C387.112 236.969 386.012 265.17 366.487 282.92C349.369 298.482 328.587 292.165 308.427 288.894C295.867 286.856 278.632 289.192 271.618 301.153C269.066 305.52 268.208 308.763 264.351 312.424C254.037 309.02 257.722 301.71 261.662 294.152C265.137 287.486 270.215 286.189 276.102 282.798C300.82 268.565 323.105 285.942 348.182 280.471C374.821 271.26 379.253 235.5 354.544 220.06C347.104 214.913 338.603 210.572 331.254 205.372C323.605 199.959 308.639 184.146 306.11 174.877C306.56 171.354 307.219 171.04 309.72 168.236Z" fill="white"/>
<path d="M283.613 168.146C294.232 170.581 305.433 192.864 313.409 201.832C326.321 216.351 343.337 219.186 355.801 232.377C365.867 243.031 363.506 259.485 352.022 268.475C345.364 273.628 336.927 275.915 328.578 274.83C301.6 271.522 267.935 230.175 252.091 210.099C247.773 204.863 245.531 201.315 247.82 194.367L249.846 193.767C262.542 197.198 306.411 270.65 336.004 263.674C349.218 260.56 357.559 245.608 345.659 238.338C320.832 223.17 303.733 212.212 287.818 186.784C283.22 179.479 278.018 177.384 283.613 168.146Z" fill="white"/>
<path d="M1250.04 224.63L1261.21 224.624V373.682C1288.91 373.65 1320.98 372.889 1348.29 373.947C1349.46 376.152 1349.04 380.932 1349.04 383.799H1250.04V224.63Z" fill="white"/>
<path d="M365.139 171.595C365.667 171.572 368.994 171.49 369.387 171.682C435.799 204.12 437.636 280.268 380.254 323.023C377.235 322.542 377.137 322.526 374.662 320.665C374.02 319.061 373.124 317.83 374.166 316.119C380.486 305.985 391.812 298.86 398.376 288.688C417.317 259.334 412.915 214.888 383.286 194.069C378.766 190.893 366.794 182.721 363.878 178.798C363.096 175.886 364.007 174.524 365.139 171.595Z" fill="white"/>
<path d="M404.15 178.238C408.612 178.763 410.865 179.459 414.171 182.741C450.512 218.829 447.642 278.414 415.567 315.707C413.762 315.635 412.206 315.108 410.459 314.636C407.798 312.115 408.432 313.386 407.955 309.907C410.197 302.221 418.717 293.921 422.631 282.918C432.988 253.8 431.96 227.496 415.13 201.074C411.448 195.293 403.901 189.744 402.021 185.78C401.631 182.332 402.538 181.326 404.15 178.238Z" fill="white"/>
<path d="M262.405 178.286C264.068 178.549 265.631 178.93 267.273 179.296C279.384 188.54 295.421 217.049 310.142 226.94C316.138 230.969 337.468 244.017 339.094 248.686C338.528 252.657 339.062 251.119 336.411 254.66C315.681 253.804 273.294 206.949 262.794 190.116C259.319 184.543 259.607 183.363 262.405 178.286Z" fill="white"/>
<path d="M609.442 427.616C618.99 427.454 627.849 426.463 636.318 431.901C645.96 438.093 643.341 448.834 637.782 456.711C629.076 463.471 620.2 461.982 609.442 461.798V427.616ZM616.875 455.092C623.467 455.143 626.448 455.769 632.022 452.359C639.289 437.14 630.151 433.772 616.875 434.026V455.092Z" fill="white"/>
<path d="M360.454 313.835C364.939 314.789 365.478 315.711 365.952 319.811C361.059 335.085 311.906 329.008 299.223 326.286C294.285 324.921 293.434 322.379 294.991 317.742C299.936 313.701 310.349 316.953 316.887 317.825C332.9 319.96 345.232 318.421 360.454 313.835Z" fill="white"/>
<path d="M243.742 216.188C256.284 218.438 269.437 235.802 263.189 248.48C258.775 257.437 252.768 259.606 244.205 263.109C241.06 263.064 238.994 262.128 236.878 259.953C236.797 252.256 247.603 250.754 253.679 242.987C255.274 229.25 235.039 231.743 243.742 216.188Z" fill="white"/>
<path d="M273.785 257.949C281.661 257.58 294.852 257.144 295.372 267.563C287.231 274.961 277.441 264.213 263.021 274.815L262.109 275.493C258.255 279.466 250.787 289.388 245.311 283.722C242.89 270.977 263.269 259.938 273.785 257.949Z" fill="white"/>
<path d="M1149.84 427.616L1155.98 427.743C1159.1 429.239 1169.11 455.141 1171.57 460.893C1168.57 462.792 1169.93 462.46 1166.45 462.47C1162.82 460.007 1162.91 458.241 1160.59 454.236H1146.37C1144.92 457.486 1144.56 458.689 1142.21 461.454C1139.12 461.815 1138.81 461.991 1135.97 460.989C1136.74 456.941 1147.7 432.461 1149.84 427.616ZM1155.78 449.476L1157.68 448.092C1157.61 444.724 1155.2 438.444 1153.58 435.608C1151.81 439.234 1148.93 443.732 1149.6 447.34C1151.36 449.297 1152.67 448.932 1155.78 449.476Z" fill="white"/>
<path d="M834.263 426.958C839.77 426.537 849.235 426.762 851.645 432.691C848.06 441.591 841.848 430.465 832.211 435.382C823.298 444.537 833.094 461.412 843.909 454.07C846.058 451.038 845.317 447.6 845.135 443.642C846.781 443.75 850.471 443.761 851.052 445.074C858.785 462.552 839.847 462.858 830.124 461.194C823.314 454.989 822.975 453.692 820.146 444.948C823.052 434.192 824.156 431.825 834.263 426.958Z" fill="white"/>
<path d="M1029.22 427.616C1036.98 427.711 1054.04 425.27 1059.24 430.594L1059.05 432.85C1056.08 434.744 1052.5 434.161 1048.77 434.093V451.298C1048.86 455.171 1048.91 457.044 1048.38 460.992C1045 462.653 1046.27 462.625 1043.04 462.02C1038.29 456.625 1042.46 436.674 1040.39 435.19C1035.43 431.651 1032.85 438.477 1029.22 427.616Z" fill="white"/>
<path d="M1254.95 427.581C1257.95 427.478 1258.32 427.387 1261.17 428.169C1264.5 433.162 1262.83 448.114 1262.77 455.288C1266.06 455.37 1269.38 454.876 1272.66 454.887C1279.35 454.91 1278.84 456.643 1279.75 461.798H1254.95V427.581Z" fill="white"/>
<path d="M727.953 427.582C730.959 427.519 732.711 427.213 735.464 428.453C736.389 434.852 735.824 454.421 735.771 461.832C732.24 461.944 731.729 462.09 728.422 461.095C727.371 454.606 727.907 435.115 727.953 427.582Z" fill="white"/>
<path d="M939.442 427.601C942.652 427.5 943.642 427.236 946.542 428.375C947.482 434.833 946.922 454.387 946.872 461.856C943.772 461.945 943.152 461.89 940.132 461.202C938.622 456.49 939.372 433.413 939.442 427.601Z" fill="white"/>
</svg>
