<svg width="549" height="95" viewBox="0 0 549 95" fill="none" xmlns="http://www.w3.org/2000/svg">
<path d="M56.4007 12.9175C57.9295 9.60322 59.651 7.1554 62.4924 4.80549C67.2104 0.903426 74.6933 -0.487796 80.6657 0.147591C88.784 1.53851 97.5682 5.77081 102.319 12.6708C106.445 18.6631 108.56 27.3133 107.252 34.514C104.93 47.2942 97.2439 57.9722 87.2582 65.9779C83.296 69.1541 78.7442 72.0432 74.6576 75.2106C75.7948 75.4909 76.7096 76.1981 77.7346 76.7908C80.6657 78.4855 83.555 80.44 86.6208 81.8794C86.9563 82.0369 87.6295 82.129 87.8355 82.4057C87.296 82.8305 85.2215 83.1116 84.477 83.1954C75.4215 85.1243 68.2803 88.7482 60.0559 92.584C59.6143 92.9134 58.7311 93.3071 58.0284 93.8282C57.4195 93.4815 53.5861 90.6727 53.2501 90.2393C52.7131 90.6615 51.7495 91.2622 51.1445 91.6824C49.6794 92.7053 48.2265 93.7456 46.7863 94.8032C45.4469 93.9241 43.6084 92.4422 42.1564 91.4305C37.882 88.429 33.5655 85.4873 29.2082 82.6075C27.0315 81.1549 24.8444 79.7289 22.6508 78.3055C21.8664 77.7964 19.4892 76.4578 18.8991 75.9238C18.8833 75.6919 18.2578 75.0543 18.0625 74.8336C18.7077 74.8281 19.3527 74.8176 19.9976 74.8023C23.31 73.9831 25.4149 73.3439 28.5609 72.0159C30.8586 71.3709 33.5084 70.2164 35.7153 69.2835C40.0621 67.4458 44.1985 65.3962 48.2686 63.0075C49.8597 62.0737 51.616 61.1753 53.1437 60.1448C54.8376 59.3506 57.4144 57.5328 58.9647 56.4381C66.3251 51.238 73.653 45.2112 79.2787 38.146C79.7713 37.5277 81.2154 35.9396 81.4551 35.3127C80.9288 34.3812 80.2945 32.9061 79.7886 31.8888C78.9238 30.1579 77.9273 28.4953 76.8106 26.9152C72.8616 21.3042 67.6347 16.9936 61.2563 14.4691C59.8193 13.9005 57.9142 13.1804 56.4007 12.9175Z" fill="#FFFEFE"/>
<path d="M56.3984 12.9175C57.9272 9.60322 59.6488 7.1554 62.4902 4.80549C67.2082 0.903426 74.691 -0.487796 80.6635 0.147591L80.692 0.285582C80.9093 1.28772 81.6181 2.59368 82.0556 3.56573C82.6655 4.90942 83.2581 6.25781 83.7904 7.63567C86.2575 14.0141 86.9143 21.4647 85.05 28.0758C84.7216 29.2378 82.2606 34.7204 81.4529 35.3127C80.9266 34.3812 80.2922 32.9061 79.7864 31.8888C78.9215 30.1579 77.9251 28.4953 76.8083 26.9152C72.8593 21.3042 67.6324 16.9936 61.2541 14.4691C59.8171 13.9005 57.9119 13.1804 56.3984 12.9175Z" fill="#FFFEFE"/>
<path d="M74.6653 75.2106C75.8025 75.4908 76.7173 76.1981 77.7423 76.7908C80.6735 78.4855 83.5628 80.44 86.6286 81.8794C86.9641 82.0368 87.6372 82.1289 87.8432 82.4056C87.3037 82.8305 85.2293 83.1116 84.4848 83.1953C75.4292 85.1242 68.288 88.7482 60.0637 92.5839C59.6221 92.9134 58.7389 93.3071 58.0362 93.8282C57.4273 93.4815 53.5939 90.6727 53.2578 90.2392L66.0402 81.2292C67.8444 79.9333 69.6557 78.6479 71.4741 77.3727C72.391 76.7283 73.7199 75.7369 74.6653 75.2106Z" fill="#FFFEFE"/>
<path d="M60.0547 92.584C60.1954 92.1189 63.2296 90.6299 63.8068 90.3117C67.3713 88.3433 71.1357 85.8674 75.154 84.9744C76.8868 84.5892 82.8756 82.8618 84.4023 83.062L84.4758 83.1954C75.4202 85.1243 68.279 88.7482 60.0547 92.584Z" fill="#FFFEFE"/>
<path d="M18.0625 74.8337C18.7077 74.8282 19.3527 74.8177 19.9976 74.8024C19.6385 75.1815 19.2813 75.5686 18.8991 75.9238C18.8833 75.6919 18.2578 75.0544 18.0625 74.8337Z" fill="#FFFEFE"/>
<path d="M25.5406 1.55152C33.9478 1.19232 40.6532 1.56478 47.4051 7.49815C49.0211 8.91824 50.8299 10.9071 51.6146 12.9152C43.4833 14.117 34.8856 19.1709 30.1228 25.8507C28.5359 28.0765 26.461 31.7225 26.2064 34.4756C26.0159 35.6058 27.8429 38.2149 28.5517 39.1507C33.9079 46.2226 40.8606 51.789 48.1772 56.7109C49.3688 57.5126 52.4762 59.0744 53.1448 60.1448C51.6172 61.1753 49.8608 62.0737 48.2698 63.0075C44.1997 65.3961 40.0632 67.4458 35.7165 69.2834C33.5096 70.2164 30.8597 71.3709 28.562 72.0159C26.5402 71.5564 19.042 65.1093 17.2249 63.528C14.8421 61.4547 12.8002 58.9915 10.8471 56.6047C4.49005 48.8357 0.360248 39.3427 0.0113459 29.212C-0.175394 22.2007 1.93862 14.4855 6.67862 9.19472C11.8386 3.43525 18.136 1.87993 25.5406 1.55152Z" fill="#FFFEFE"/>
<path d="M25.5473 1.55152C33.9545 1.19232 40.6599 1.56478 47.4117 7.49815C49.0277 8.91823 50.8366 10.9071 51.6213 12.9151C43.49 14.117 34.8922 19.1709 30.1295 25.8507C28.5426 28.0765 26.4676 31.7225 26.2131 34.4756C26.1074 34.4603 26.0768 34.4241 25.9742 34.365C25.5876 33.1401 24.9367 31.9725 24.417 30.7955C21.4622 24.1032 20.9883 15.9512 23.1266 8.96321C23.8208 6.69448 25.3233 4.41321 26.1071 2.15886C25.9796 1.81047 25.8692 1.80782 25.5473 1.55152Z" fill="#FFFEFE"/>
<path d="M431.256 30.224C441.203 28.7266 450.498 35.5261 452.086 45.4584C453.671 55.3932 446.956 64.7485 437.036 66.4261C426.991 68.1211 417.488 61.3014 415.881 51.2416C414.273 41.1791 421.181 31.739 431.256 30.224ZM439.539 61.3636C452.434 55.9736 447.424 33.0812 433.276 34.0287C429.074 34.3762 426.422 35.169 423.604 38.4564C418.457 44.4689 418.697 54.6241 425.14 59.639C428.192 62.0162 430.392 62.2361 434.127 62.1761C436.052 62.1261 437.734 62.1185 439.539 61.3636Z" fill="#FFFEFE"/>
<path d="M380.106 30.2012C381.151 30.4937 382.273 30.7687 383.271 31.1737C384.213 33.7787 385.488 45.9137 385.893 49.5312C386.433 54.3662 387.696 61.8762 387.968 66.4837C386.158 66.4937 385.418 66.4912 383.653 66.1912C381.151 56.5387 381.626 45.8862 380.161 36.3562C377.081 45.0887 374.363 54.2587 371.686 63.1662C370.448 67.2862 367.321 68.7762 365.638 63.9512C362.376 54.5887 360.623 45.8762 356.221 36.8412C355.658 41.3737 354.971 63.2262 352.763 66.3812C351.951 66.5912 351.766 66.5537 350.911 66.5262C349.943 63.6037 350.201 61.8037 350.148 58.6862C350.601 48.7962 351.988 40.9262 353.261 31.1387C354.456 30.9587 359.258 30.1237 359.883 31.4437C363.801 39.7037 364.696 50.4387 369.636 58.2387C370.703 51.6587 372.351 45.6137 374.271 39.2612C375.058 36.6637 375.631 34.0787 376.663 31.5587C378.206 30.6812 378.406 30.6537 380.106 30.2012Z" fill="#FFFEFE"/>
<path d="M207.671 30.7237C209.076 30.6912 210.976 30.9187 212.412 31.0462L212.382 52.7062C212.376 56.1212 212.306 60.1037 212.321 63.2087C212.339 67.1612 207.421 67.6512 206.54 66.5437C200.669 59.1687 198.085 48.7462 193.112 40.7362C192.605 39.9187 190.96 38.5212 190.327 37.9437C191.678 46.2487 191.184 56.4137 191.338 65.0637C191.354 65.6737 191.359 65.6312 191.096 66.1837C190.063 66.7062 187.861 66.3612 186.613 66.2462C186.102 61.5437 186.567 54.2512 186.601 49.3037C186.638 44.0637 186.084 36.1837 187.248 31.3362C195.14 29.5812 194.368 32.9762 197.513 38.9287C200.938 45.4087 203.579 52.4062 206.688 58.9962C208.319 49.7012 206.854 39.9987 207.671 30.7237Z" fill="#FFFEFE"/>
<path d="M322.426 64.4987C322.432 56.5062 321.953 47.5587 322.857 39.7137C324.197 30.4662 336.044 27.0762 342.701 32.8112C347.729 37.1412 346.429 45.2887 346.666 51.3637L346.711 51.5687C347.229 53.9337 347.504 60.7787 348.914 62.2037L349.701 62.3712C349.796 61.5587 349.991 59.3487 350.151 58.6862C350.204 61.8037 349.946 63.6037 350.914 66.5262C348.566 66.3987 346.064 66.3737 343.731 66.6787L342.994 66.4087C342.249 64.9212 342.499 52.1612 342.499 49.4687C338.086 49.3762 333.767 49.5612 329.35 49.2387C329.347 47.8762 329.46 46.4112 329.54 45.0437C333.943 45.0687 338.346 45.0537 342.749 44.9987C342.584 39.9962 340.791 33.8787 334.724 33.7712C332.86 33.7237 331.059 34.4512 329.754 35.7837C326.632 38.9437 327.391 43.8237 327.388 47.9737L327.42 63.1137L327.242 66.7212C325.899 66.7862 323.881 67.1012 322.793 66.4887C322.298 65.6487 322.453 65.5462 322.426 64.4987Z" fill="#FFFEFE"/>
<path d="M346.662 51.3638L346.707 51.5688C347.224 53.9338 347.499 60.7788 348.909 62.2038L349.697 62.3713C349.792 61.5588 349.987 59.3488 350.147 58.6863C350.199 61.8038 349.942 63.6038 350.909 66.5263C348.562 66.3988 346.059 66.3738 343.727 66.6788L344.629 66.1788C345.942 63.7163 346.304 54.8863 346.662 51.3638Z" fill="#FFFEFE"/>
<path d="M322.425 64.4988C322.956 64.7463 326.19 64.6513 326.981 64.6513L327.419 63.1138L327.241 66.7213C325.897 66.7863 323.88 67.1013 322.792 66.4888C322.296 65.6488 322.452 65.5463 322.425 64.4988Z" fill="#FFFEFE"/>
<path d="M253.891 55.3987C253.89 55.3737 253.889 55.3512 253.887 55.3262C254.203 45.8962 252.14 30.4087 265.648 30.1562C275.631 29.9687 278.611 36.5087 278.695 45.2312C279.206 49.4037 278.979 62.4062 278.768 66.7262L274.2 66.7462L273.917 63.9512C273.955 59.0687 273.946 54.1862 273.888 49.3062C269.54 49.3862 265 49.5387 260.667 49.4137L260.551 45.0187C265.018 45.0512 269.484 45.0487 273.951 45.0162C273.925 41.7862 274.174 38.2212 271.637 35.7812C270.207 34.4087 268.079 33.7537 266.118 33.8262C264.297 33.8937 262.699 34.6587 261.484 36.0062C256.367 41.6837 260.197 58.8037 258.492 66.8362C256.985 66.6137 255.252 66.5787 253.714 66.5087C253.636 63.1437 253.518 58.7287 253.891 55.3987Z" fill="#FFFEFE"/>
<path d="M278.693 45.2312C279.203 49.4037 278.977 62.4062 278.766 66.7262L274.197 66.7462L273.914 63.9512C274.054 64.2512 274.184 64.4637 274.35 64.7512C275.29 64.8962 277.397 64.6862 278.6 64.6812C278.858 58.2687 278.361 51.3587 278.693 45.2312Z" fill="#FFFEFE"/>
<path d="M253.714 66.5087C253.636 63.1437 253.518 58.7287 253.891 55.3987C254.364 61.4337 252.852 61.2537 257.516 66.1362C258.069 66.7162 257.681 66.4712 258.492 66.8362C256.985 66.6137 255.252 66.5787 253.714 66.5087Z" fill="#FFFEFE"/>
<path d="M485.77 30.8087C493.098 31.6712 500.168 28.8412 506.655 34.8062C510.413 38.2637 511.873 41.4112 512.248 46.5587C512.625 51.7387 511.083 56.5437 507.665 60.4337C503.508 65.1687 499.018 65.9512 493.04 66.3162L492.89 61.7737C500.613 61.9212 503.95 59.9187 506.943 52.4812C507.248 51.4812 507.458 50.4537 507.57 49.4137C507.988 45.8887 507.228 42.1012 504.95 39.3187C501.258 34.8062 496.045 34.7437 490.74 34.1862C490.62 44.9987 490.81 55.6187 490.803 66.3862C489.188 66.4362 487.528 66.4262 485.91 66.4362C485.523 62.0312 485.68 56.1612 485.68 51.6037C485.64 44.6737 485.67 37.7412 485.77 30.8087Z" fill="#FFFEFE"/>
<path d="M466.139 30.3012C477.467 29.6487 481.272 36.2137 477.482 46.4537C476.774 46.8312 476.304 47.0212 475.742 47.6012C475.889 48.5787 477.444 49.6062 478.044 50.3087C480.327 52.9837 479.674 62.6587 479.637 66.2612L475.457 66.5087C475.359 62.3487 475.342 57.8037 475.039 53.6812C471.314 48.9812 461.832 51.0162 462.267 48.4387C462.884 44.7962 468.997 48.2837 473.049 44.4212L473.292 44.1887C477.292 38.7062 472.687 33.5587 467.187 34.3287C465.087 34.6062 463.252 35.8862 462.264 37.7587C459.107 43.8687 462.079 64.3012 460.539 66.3187C459.539 66.5562 458.314 66.5587 457.364 66.1362C456.309 64.9237 456.959 46.6962 456.922 44.0337C456.822 37.0287 458.592 31.6387 466.139 30.3012Z" fill="#FFFEFE"/>
<path d="M538.62 31.0337C540.753 30.9537 545.44 30.3737 546.988 31.6462C547.4 32.4362 547.25 33.5937 546.705 34.2887C544.873 34.7087 539.213 34.4862 536.943 34.5612C534.438 35.4762 530.37 35.0837 531.338 39.5712C532.348 44.2562 541.26 46.6537 544.943 49.7087C551.738 55.3487 549.693 65.6962 540.42 66.2537C536.035 66.5162 530.823 66.2037 526.62 66.6612L526.35 66.6912C526.148 65.0237 526.155 63.4762 526.133 61.8037C528.92 61.8262 541.243 62.5937 542.965 60.7862C543.813 59.8962 544.38 58.1937 544.313 56.9862C544.045 52.3587 532.048 48.5312 528.63 45.2512C527.07 43.7562 526.273 42.0212 526.275 39.8487C526.275 37.5912 526.778 35.3137 528.463 33.7062C531.298 31.0087 534.963 30.9687 538.62 31.0337Z" fill="#FFFEFE"/>
<path d="M538.615 31.0337C540.748 30.9537 545.435 30.3737 546.983 31.6462C547.395 32.4362 547.245 33.5937 546.7 34.2887C544.868 34.7087 539.207 34.4862 536.938 34.5612C539.445 32.6737 544.417 35.4737 545.902 31.9162C544.71 30.7912 541.008 32.0562 538.615 31.0337Z" fill="#FFFEFE"/>
<path d="M304.794 31.0762C308.886 30.8462 313.071 31.1387 317.291 30.8562L317.074 34.4262C311.955 34.6162 306.372 33.6262 301.993 36.0862C301.31 37.2287 300.729 38.7912 300.216 40.0462C306.569 48.0787 324.506 48.1287 316.738 63.9462C313.466 66.0037 312.457 66.1912 308.676 66.2862C304.804 66.3262 299.712 66.6112 295.978 66.3537C295.66 64.6537 295.595 63.7837 295.523 62.0487C300.802 61.7487 306.493 61.9062 311.887 61.7087L313.325 59.7812C316.775 55.1312 310.329 52.4012 306.959 50.5212C303.385 48.5287 296.676 45.6912 296.339 40.8562C295.897 34.5212 298.405 31.8262 304.794 31.0762Z" fill="#FFFEFE"/>
<path d="M406.248 31.0713C408.333 30.8088 413.356 30.1012 414.061 32.5212C413.941 33.0612 413.881 33.8137 413.313 33.9562C408.096 35.2787 404.681 34.6462 400.193 38.5237C394.116 43.7737 393.748 52.3462 399.171 58.2512C403.083 62.5112 408.663 61.9738 413.983 62.1038C413.911 63.4638 413.758 64.9187 413.641 66.2812C402.763 66.2987 393.883 64.9413 391.313 52.3288C389.186 41.8938 395.761 32.7063 406.248 31.0713Z" fill="#FFFEFE"/>
<path d="M247.479 30.8612C249.204 30.8587 251.392 30.6037 251.629 32.8637C250.887 34.6562 248.393 34.6212 246.684 34.7812C235.554 35.8362 228.478 48.9738 236.863 57.6938C241.304 62.3113 245.346 61.8437 251.192 61.9637L250.84 66.4412C249.898 66.6962 247.636 66.3937 246.606 66.3112C242.076 65.9912 238.094 65.3263 234.546 62.2663C227.702 56.3713 226.776 43.8562 233.046 37.2112C237.414 32.5812 241.316 31.1337 247.479 30.8612Z" fill="#FFFEFE"/>
<path d="M145.216 31.0812C146.818 30.8337 151.246 30.5037 152.315 31.6837C152.57 32.5112 152.476 32.6687 152.176 33.4937C151.034 34.9387 145.955 34.5587 142.98 36.0912C139.303 37.7312 136.387 40.6637 134.925 44.4537C131.604 53.0612 139.312 62.8937 148.494 61.9187C149.251 61.8387 151.787 62.0362 152.476 62.3287C152.416 63.5262 152.136 65.1012 151.953 66.3237C146.734 66.3112 140.576 66.0262 136.204 62.8662C129.169 57.7787 128.051 44.8512 133.187 38.1012C136.099 34.2487 140.43 31.7212 145.216 31.0812Z" fill="#FFFEFE"/>
<path d="M156.658 30.7562C158.214 30.7337 159.876 30.8062 161.44 30.8437C161.531 36.2412 161.334 41.7812 161.392 47.1837C161.428 50.5912 161.195 55.5437 162 58.8137C165.405 63.1037 167.287 61.4287 172.408 62.1162L172.669 62.1537C172.502 63.2012 172.179 65.9012 171.437 66.5287C167.173 66.2437 162.165 66.1412 159.067 62.7862C157.935 61.5512 157.16 60.0312 156.824 58.3887C156.282 55.8687 156.456 50.6462 156.457 47.8387C156.405 42.1437 156.472 36.4487 156.658 30.7562Z" fill="#FFFEFE"/>
<path d="M516.431 30.7412C518.041 30.7312 519.674 30.6962 521.281 30.7787C521.381 32.5887 521.444 34.4537 521.409 36.2637C521.224 45.8237 521.764 55.6837 521.161 65.2087C521.164 66.1837 521.314 65.9612 520.821 66.5587C518.794 67.1712 518.691 67.2937 516.819 66.4337C516.246 65.6537 516.429 65.4812 516.399 64.3762L516.401 42.3187C516.401 38.6812 516.271 34.3212 516.431 30.7412Z" fill="#FFFEFE"/>
<path d="M516.396 64.3762C517.691 64.5637 519.993 64.8237 521.158 65.2087C521.161 66.1837 521.311 65.9612 520.818 66.5587C518.791 67.1712 518.688 67.2937 516.816 66.4337C516.243 65.6537 516.426 65.4812 516.396 64.3762Z" fill="#FFFEFE"/>
<path d="M217.935 30.8262L222.85 30.6962C222.973 42.3887 222.965 54.0837 222.824 65.7787L222.624 66.4762C221.644 66.8612 219.215 66.5362 218.092 66.4462C217.985 65.6037 217.953 64.5162 217.902 63.6487C217.901 52.8787 217.716 41.5462 217.935 30.8262Z" fill="#FFFEFE"/>
<path d="M217.906 63.6487L218.348 64.5212C220.164 65.0662 221.459 64.8712 222.828 65.7787L222.628 66.4762C221.648 66.8612 219.219 66.5362 218.096 66.4462C217.989 65.6037 217.957 64.5162 217.906 63.6487Z" fill="#FFFEFE"/>
<path d="M175.929 33.7263C175.956 35.1213 175.965 36.5113 175.954 37.9062C175.462 43.6438 175.754 49.7138 175.038 55.5013C174.773 57.6488 174.897 59.9338 174.339 62.0463C174.241 63.5546 174.792 66.5713 177.778 66.5713C178.684 66.4963 179.303 66.5962 179.864 66.0587C180.409 60.8637 179.839 52.1438 179.971 46.5463C180.059 42.7788 180.291 33.9787 179.906 30.6512C177.613 30.8437 175.872 30.6863 175.929 33.7263Z" fill="white"/>
<path d="M179.344 21.0113C181.251 20.9288 182.446 21.3113 184.265 21.7613C182.063 23.2263 179.633 26.0988 177.693 28.0963C176.664 28.8988 175.645 29.3963 174.562 28.3963C174.099 26.5438 177.91 22.1313 179.344 21.0113Z" fill="#FFFEFE"/>
</svg>
