<svg width="2069" height="397" viewBox="0 0 2069 397" fill="none" xmlns="http://www.w3.org/2000/svg">
<path d="M865.53 4.88907C884.555 4.8637 903.579 4.96959 922.601 5.20672C916.459 29.7785 908.368 52.4599 901.435 76.5189C883.562 138.556 863.929 200.249 846.785 262.403C844.872 269.333 845.879 299.097 845.882 308.158L845.957 390.599L785.135 390.541L785.145 290.996C785.248 283.395 785.508 268.152 784.238 261.026C779.268 233.15 768.323 204.261 759.759 177.254C752.384 154 746.123 130.669 738.961 107.395C734.063 91.4799 727.934 75.845 723.927 59.8804L627.436 59.6907L627.496 177.893L705.371 177.906C705.577 195.31 705.228 213.429 705.134 230.888C679.324 231.001 653.515 230.896 627.707 230.576C626.669 283.638 627.944 337.455 627.153 390.724C607.495 390.189 586.545 390.544 566.791 390.561L566.796 5.04788C632.475 3.99901 707.986 3.99902 773.57 5.17693C784.147 45.8061 795.515 85.2805 806.212 125.774C810.04 140.263 817.286 166.286 818.585 180.24C827.991 156.793 834.29 122.473 841.107 97.2702C849.414 66.5607 857.711 35.7199 865.53 4.88907Z" fill="#F2F2F0"/>
<path fill-rule="evenodd" clip-rule="evenodd" d="M1519 0.771511C1598.8 -5.75046 1628.36 36.8062 1625.4 110.884C1623.38 180.58 1632.24 251.714 1624.04 321.092C1618.86 364.867 1589.47 388.619 1547.19 393.656C1494.26 401.779 1447.39 371.93 1442.38 316.423C1436.73 253.636 1443.4 190.673 1443.09 127.836C1442.92 94.2722 1437.17 58.6038 1460.31 30.6683C1476.61 10.551 1494.11 3.71734 1519 0.771511ZM1530.06 53.5973C1497.12 59.9771 1502.78 88.2198 1501.83 115.422C1500.74 143.714 1500.32 172.032 1500.55 200.345C1500.4 226.812 1500.82 253.279 1501.81 279.728C1502.81 308.562 1498.17 344.188 1539.74 339.341C1554.45 335.411 1563.42 328.382 1564.74 312.433C1566.25 294.124 1566.52 275.835 1566.86 257.473C1567.74 222.958 1567.84 188.426 1567.12 153.907C1566.9 136.964 1566.86 88.8196 1563.15 74.8184C1561.24 67.6024 1556.56 61.4307 1550.12 57.6532C1543.24 53.6651 1537.8 53.4616 1530.06 53.5973Z" fill="#F2F2F0"/>
<path fill-rule="evenodd" clip-rule="evenodd" d="M1224.01 4.26569C1260.99 3.49917 1306.94 2.27787 1343.14 6.23072C1409.35 13.464 1412.45 95.8454 1404.07 146.059C1399.31 174.556 1388.6 186.58 1365.25 202.334C1418.87 224.69 1404.38 293.73 1405.74 339.601C1406.29 358.169 1407.56 372.678 1411.82 390.861C1391.48 390.981 1371.12 390.851 1350.76 390.461C1345.44 371.931 1346.13 358.233 1346.21 339.305C1346.31 312.144 1354.2 256.609 1329.1 238.689C1319.18 231.621 1296 233.386 1283.31 233.632L1283.21 390.79L1224 390.719L1224.01 4.26569ZM1332.84 64.4206C1323.03 56.7464 1296.21 59.7157 1283.32 59.6695C1283.27 93.3316 1281.62 146.142 1283.73 178.195C1297.03 179.749 1319.33 180.946 1330.21 172.283C1331.85 170.959 1333.43 169.571 1334.95 168.118C1346.11 154.346 1345.92 139.069 1345.64 121.543C1345.37 103.759 1347.84 77.3975 1332.84 64.4206Z" fill="#F2F2F0"/>
<path fill-rule="evenodd" clip-rule="evenodd" d="M1890.93 4.18451C1914.56 4.00242 1989.57 1.95091 2009.4 7.41941C2021.51 10.7811 2032.55 17.1909 2041.47 26.0351C2064.24 48.7302 2068.5 90.2024 2068.51 121.095C2068.52 149.199 2065.47 198.581 2044.58 219.631C2014 250.434 1986.3 245.202 1946.13 245.165C1946.45 253.615 1946.38 262.718 1946.46 271.225L1946.49 390.856L1886.56 390.845L1886.48 50.3872C1886.48 43.069 1885.35 6.63818 1888.18 4.23924C1889.09 4.21277 1890.01 4.19333 1890.93 4.18451ZM1990.25 60.1138C1975.68 59.3188 1960.79 59.6302 1946.19 59.7471C1947.15 102.712 1945.22 147.88 1946.63 190.189C1962.76 191.611 1984.77 193.623 1997.78 182.832C1997.99 182.659 1998.19 182.482 1998.4 182.307C2012.12 162.223 2007.05 106.524 2005.14 82.2545C2004.45 73.4235 1997.24 65.1696 1990.25 60.1138Z" fill="#F2F2F0"/>
<path d="M1786.63 4.55659C1805.88 3.89595 1825.16 3.85404 1844.41 4.43086L1844.36 236.627C1844.36 298.913 1858.82 369.124 1781.86 392.663C1725.1 410.023 1658.91 366.953 1663.69 310.725C1666.39 278.973 1659.59 12.6046 1664.39 4.77497L1667.38 4.26323C1686.33 3.95772 1705.29 3.98529 1724.23 4.34594L1724.21 279.862C1724.22 303.264 1719.12 339.109 1754.21 339.776C1792.46 340.503 1786.64 306.66 1786.44 279.313L1786.34 222.875C1786.33 150.613 1785.55 76.6905 1786.63 4.55659Z" fill="#F2F2F0"/>
<path d="M1080.4 0.729555C1138.03 -5.22397 1184.71 25.4128 1184.43 87.0469C1184.37 102.406 1184.5 118.177 1184.47 133.581L1126.82 133.576C1126.65 119.892 1126.76 104.198 1127.07 89.5704C1127.72 57.9686 1095.36 41.7238 1071.98 63.2218C1069.55 65.4541 1066.18 71.0039 1065.57 74.4671C1061.21 99.5815 1061.64 125.682 1061.55 151.133C1061.84 202.607 1062.81 254.075 1064.48 305.524C1064.81 314.073 1065.31 325.678 1072.3 330.758C1096.99 348.716 1125.22 337.834 1126.87 306.391C1128.34 278.806 1128.33 255.667 1126.59 229.025C1118.02 228.575 1107.27 228.798 1098.53 228.745L1098.45 192.095L1098.5 176.102C1126.18 175.421 1156.67 175.844 1184.38 176.062L1184.52 267.915C1184.56 298.574 1188.44 334.103 1168.7 359.8C1154.28 378.562 1136.34 390.214 1112.68 393.383C1061.37 400.307 1010.55 378.967 1004.8 321.31C997.53 249.902 1006.59 176.901 1004.41 105.592C1002.62 47.524 1016.68 9.54073 1080.4 0.729555Z" fill="#F2F2F0"/>
<path d="M76.2527 0.684462C79.5083 0.412042 82.7727 0.243297 86.0393 0.178225C112.71 -0.197869 138.005 5.78876 157.434 25.1217C184.106 51.6623 179.593 75.5205 179.848 109.218L124.04 109.262C124.072 103.964 123.998 98.6651 123.819 93.37C123.114 74.1374 114.836 53.1644 92.1802 54.2905C83.7316 54.7427 75.824 58.5907 70.2485 64.9601C62.9361 73.2452 61.6444 82.9795 61.8582 93.6436C63.3846 169.617 175.433 189.743 181.536 290.317C183.103 316.13 177.569 347.186 159.878 366.98C142.121 386.847 121.265 394.244 95.4248 395.663L94.855 395.661C66.109 395.486 45.4744 390.921 24.0993 369.933C-5.29478 341.075 0.308275 311.925 0.630087 273.776L56.2485 273.816C56.3687 301.204 52.778 345.336 94.5916 339.848C115.254 336.169 120.445 321.907 120.635 303.039C121.192 247.61 62.1679 219.138 31.7842 180.134C18.4367 163 5.43303 141.433 2.9996 119.904C-3.36171 63.6267 12.4468 9.74269 76.2527 0.684462Z" fill="#F2F2F0"/>
<path d="M189.202 5.04751C243.095 4.23907 299.266 4.96589 353.315 5.07508L353.272 60.041L249.889 59.7752C249.736 95.8173 249.833 131.858 250.18 167.899C276.929 168.31 307.199 166.105 333.619 167.875C334.095 185.908 334.129 203.949 333.723 221.983L250.042 221.841C249.36 250.438 249.952 281.77 249.937 310.573L249.96 336.229L353.342 336.147L353.346 390.581L189.162 390.489L189.202 5.04751Z" fill="#F2F2F0"/>
<path d="M478.167 38.2235C498.937 38.1385 519.708 38.1981 540.477 38.4032L540.539 257.974C540.53 299.435 541.989 351.227 540.013 391.813C519.66 390.197 498.613 390.511 478.182 390.595L478.167 38.2235Z" fill="#F2F2F0"/>
<path d="M383.123 164.63C404.384 164.331 425.649 164.31 446.912 164.565L446.851 390.597L383.12 390.459L383.123 164.63Z" fill="#F2F2F0"/>
</svg>
