<svg width="571" height="485" viewBox="0 0 571 485" fill="none" xmlns="http://www.w3.org/2000/svg">
<path d="M151.331 0.331723C165.045 -0.325875 183.04 0.197247 197.072 0.197247L284.455 0.203041L557.756 0.187237C557.318 40.2321 557.735 81.2458 557.735 121.36L287.693 121.342L203.61 121.317C188.307 121.3 172.955 121.397 157.659 121.351C137.066 121.29 120.254 136.979 121.155 158.039C121.488 167.525 125.669 176.467 132.737 182.803C147.122 195.835 162.301 191.526 179.648 188.947L211.857 184.215L331.789 166.777C351.042 163.961 383.274 158.307 401.583 157.608C445.184 155.952 487.609 171.929 519.286 201.931C550.494 231.105 568.899 271.442 570.481 314.136C572.326 357.805 556.506 400.377 526.6 432.245C497.38 463.648 456.901 482.179 414.034 483.777C399.516 484.52 377.879 483.561 363.029 483.313L274.556 481.852L13.8767 477.739C14.3255 437.65 15.6586 396.549 15.6518 356.566C35.2283 357.583 57.2428 357.314 77.0673 357.652L212.296 359.825L342.025 361.876C363.857 362.219 385.926 362.825 407.748 362.91C419.434 362.952 430.608 357.71 438.587 349.072C446.17 340.745 450.093 329.724 449.466 318.481C448.933 307.222 443.85 296.665 435.375 289.229C418.495 274.268 402.047 278.798 381.976 281.794L350.246 286.397L231.511 303.699C212.686 306.447 183.664 311.552 165.48 312.669C124.423 315.174 84.0467 301.305 53.1997 274.094C21.7473 246.577 2.67857 207.57 0.283902 165.849C-2.22784 124.291 12.0067 83.4585 39.8088 52.4686C69.4735 19.6051 107.265 2.53075 151.331 0.331723Z" fill="white"/>
</svg>
