<svg width="1748" height="387" viewBox="0 0 1748 387" fill="none" xmlns="http://www.w3.org/2000/svg">
<path d="M970.234 144.11C971.992 144.024 974.937 144.265 976.302 145.412C981.022 149.374 979.153 176.138 979.733 183.481C979.981 183.019 980.246 182.561 980.51 182.106C990.676 164.671 1005.89 151.376 1025.65 146.218C1039.93 142.491 1057.31 143.399 1070.22 151.038C1084.25 159.344 1089.64 172.937 1093.54 188.009C1095.55 184.041 1097.83 180.218 1100.36 176.569C1129.65 134.447 1197.18 128.294 1211.09 185.863C1215.82 205.416 1214.25 231.44 1214.25 251.96L1214.18 320.419C1214.14 329.697 1213.89 339.472 1214.64 348.792C1216.17 367.646 1239.53 364.723 1241.6 376.501C1240.59 378.686 1240.3 379.012 1238.2 380.18C1224.98 381.412 1210.35 379.14 1196.99 379.25C1184.62 379.351 1172.2 380.485 1159.84 380.814C1156.97 380.89 1157.09 380.848 1154.93 379.456C1147.85 362.47 1180.16 373.189 1180.39 342.883L1180.34 256.599C1180.32 236.988 1182.55 203.762 1174.06 186.475C1160.24 149.899 1100.98 174.851 1097.71 202.76C1095.44 222.114 1097.25 261.795 1097.28 282.348C1097.31 305.591 1096.01 329.673 1098.35 352.699C1099.8 366.978 1130.36 366.316 1122.54 379.433C1120.41 380.738 1120.37 380.828 1117.58 380.752C1105.08 380.412 1092.5 379.346 1080 379.262C1066.7 379.173 1051.69 381.415 1038.57 380.119C1030.66 366.959 1054.31 366.955 1058.86 359.319C1060.82 356.035 1062.63 353.832 1062.9 349.678C1062.62 328.745 1065.27 307.048 1063.55 286.037C1061.12 256.489 1072.14 194.943 1048.42 174.738C1031.09 159.986 1000.89 171.56 989.31 188.248C978.112 204.394 980.715 209.412 980.681 228.63L980.655 275.955L980.689 324.175C980.732 352.071 977.053 357.984 1004.11 370.328C1006.91 371.606 1008.43 376.64 1006.14 379.593C1000.77 382.192 971.267 378.773 961.63 379.269C952.165 379.757 930.477 381.169 922.258 380.14L920.636 377.222C920.738 365.833 939.797 365.655 944.022 357.02C949.178 346.495 947.283 325.061 947.197 313.665C947.112 297.151 947.112 280.637 947.206 264.125L947.317 219.384C947.334 211.854 947.616 204.249 946.873 196.692C945.533 183.136 923.768 183.721 922.215 174.123C922.599 172.455 922.471 171.392 923.777 170.814C927.678 169.087 932.543 167.233 936.52 165.717C951.132 160.149 958.848 155.045 970.234 144.11Z" fill="white"/>
<path d="M1296.82 144.097C1298.82 143.987 1301.56 144.339 1303.05 145.68C1307.47 149.639 1305.63 176.557 1305.9 183.75C1306.19 183.251 1306.47 182.755 1306.76 182.264C1317.24 164.599 1332.37 151.176 1352.6 146.084C1366.9 142.483 1384.16 143.521 1396.99 151.263C1410.72 159.552 1416.2 173.131 1419.89 188.039C1422.08 183.583 1424.81 179.201 1427.74 175.197C1439.34 159.328 1455.04 147.984 1474.74 144.993C1489.44 142.76 1506.19 144.877 1518.4 153.924C1527.93 160.996 1533.71 171.689 1536.75 182.988C1542.58 204.529 1540.48 228.978 1540.45 251.166L1540.4 321.875C1540.4 330.067 1539.51 339.223 1540.73 347.266C1543.46 365.37 1553.95 362.407 1565.07 370.814C1566.88 372.183 1567.91 373.549 1568.22 375.841C1567.8 377.951 1566.47 378.963 1564.95 380.321C1550.53 381.797 1535.51 379.025 1521 379.257C1512.2 379.398 1489.02 382.447 1482.15 380.283C1480.56 378.566 1480.32 377.769 1480.32 375.415C1480.31 368.847 1496.55 364.303 1501.15 359.78C1507.15 353.9 1506.92 346.494 1506.97 338.665L1506.98 258.659C1506.97 239.603 1508.37 218.785 1504.71 200.015C1503.05 191.48 1500.2 183.271 1493.93 176.979C1487.43 170.467 1478.91 168.219 1469.98 168.224C1457.03 168.231 1445.92 173.804 1436.88 182.868C1431.61 188.163 1426.36 194.926 1424.32 202.24C1421.79 211.369 1423.52 269.943 1423.54 284.056C1423.62 299.86 1421.54 334.192 1424.02 347.749C1424.86 352.349 1426.71 356.757 1429.74 360.349C1435.24 366.868 1445.07 366.164 1449.64 372.276C1450.98 374.078 1450.9 375.087 1450.6 377.23C1449.61 378.5 1448.5 379.872 1446.94 380.414C1442.07 382.107 1433.28 380.482 1428.14 380.168C1419.7 379.653 1411.18 378.993 1402.7 379.03C1393.54 379.07 1372.33 383.303 1364.59 379.608C1364.16 378.951 1363.78 378.266 1363.59 377.492C1360.96 366.769 1379.9 367.97 1386.88 356.522C1388.99 353.067 1389.57 348.991 1389.92 345.025C1391.53 326.715 1390.04 307.126 1389.98 288.666C1389.92 264.163 1392.84 219.058 1387.24 196.481C1384.86 186.883 1380.1 177.504 1371.33 172.295C1362.8 167.233 1351.5 167.276 1342.13 169.744C1329.33 173.118 1318.05 183.121 1311.52 194.444C1309.73 197.566 1307.86 200.923 1307.48 204.552C1306.25 216.393 1306.47 346.589 1308.13 352.399C1311.05 362.604 1321.7 364.95 1329.68 369.659C1331.46 370.708 1333.31 372.426 1333.77 374.519C1334.25 376.671 1333.55 377.745 1332.36 379.452C1330.2 380.623 1328.16 380.991 1325.71 381.031C1315.22 381.203 1303.77 379.492 1293.08 379.283C1281.7 379.061 1270.41 380.33 1259.05 380.609C1255.51 380.696 1251.89 380.751 1248.45 379.862L1246.91 377.19C1246.11 367.58 1266.57 364.35 1271.17 355.871C1272.98 352.546 1273.38 347.511 1273.6 343.744C1274.65 325.739 1273.48 307.143 1273.48 289.081C1273.49 270.666 1275.86 206.706 1271.66 192.991C1268.84 183.779 1259.41 184.157 1252.24 180.151C1250.18 179.001 1249.2 177.63 1248.54 175.381C1248.62 174.571 1248.55 172.635 1248.86 171.976C1249.36 170.943 1273.79 160.873 1276.52 159.432C1284.23 155.349 1290.36 149.866 1296.82 144.097Z" fill="white"/>
<path d="M428.138 70.8511L428.834 71.5064C429.647 77.0843 429.235 99.7657 429.233 106.906L429.174 181.709C450.498 147.645 490.381 133.716 526.608 151.804C561.19 169.07 555.785 225.6 555.751 257.64L555.631 320.251C555.594 346.969 551.098 359.022 577.894 369.236C581.924 370.773 583.313 375.724 580.939 379.672C573.791 382.317 548.502 378.85 538.994 378.986C526.081 379.169 510.462 381.689 497.815 380.277C496.943 380.179 496.249 378.583 495.647 377.608C495.181 365.631 522.835 364.083 522.176 348.452C520.274 303.4 525.289 252.215 521.016 207.81C519.848 200.78 518.52 193.594 515.242 187.192C511.775 180.42 504.464 172.683 496.967 170.315C483.767 166.143 468.999 167.962 456.813 174.209C445.755 179.876 435.221 190.084 431.434 202.193C429.728 207.649 430.043 348.098 431.552 352.072C436.783 365.844 451.732 364.199 456.796 373.782C457.308 376.5 457.049 377.023 455.812 379.427C449.567 382.936 401.373 376.814 390.332 380.148C386.977 381.162 375.351 381.777 371.866 379.338C365.052 366.802 385.666 367.29 390.937 360.224C392.605 357.989 395.852 354.545 396.19 351.612C397.39 341.206 397.053 330.46 397.053 319.98L397.026 87.2535C406.874 81.6956 418.047 76.132 428.138 70.8511Z" fill="white"/>
<path d="M820.03 144.121C823.469 143.986 824.622 144.454 826.974 146.224C829.971 151.547 829.122 173.163 829.398 181.387C841 163.443 862.358 144.914 884.934 143.97C900.63 143.314 914.457 155.315 914.107 171.448C913.885 182.088 906.86 196.855 894.049 193.992C879.923 191.382 874.393 174.269 858.876 174.67C848.7 174.933 844.374 180.332 838.51 187.457C830.128 197.643 830.414 206.326 830.496 218.829C830.559 228.648 830.498 238.44 830.504 248.193L830.654 346.308C832.218 366.456 847.108 363.057 859.584 370.972C861.351 372.089 861.522 379.05 858.099 380.257C853.755 381.631 842.061 381.15 837.433 380.065C820.136 376.009 786.958 383.575 772.157 379.88C770.939 378.71 770.083 376.896 770.235 375.252C770.976 367.247 785.513 367.298 791.006 359.829C793.962 356.566 796.977 350.326 796.981 345.747C797.027 297.249 797.233 248.779 796.962 200.25C796.85 180.139 775.347 187.328 771.971 173.665C770.721 168.61 783.144 167.964 786.026 166.109C799.14 161.137 809.842 153.862 820.03 144.121Z" fill="white"/>
<path d="M531.881 0H566.329C587.424 3.5971 610.397 6.6284 624.44 24.8336C630.338 32.4788 634.509 48.5829 624.617 54.4974C612.193 61.9255 591.141 56.5119 577.424 54.4917C538.494 46.7187 500.942 35.3778 461.626 29.0803C428.029 42.474 395.808 59.0975 365.417 78.7176C286.839 129.283 205.517 207.212 165.142 293.078C153.446 317.953 146.852 360.566 179.348 373.027C209.195 384.471 247.729 372.414 276.352 360.916C312.399 346.198 342.144 324.417 372.962 301.564C373.115 304.702 373.702 308.911 372.219 311.545C365.59 318.1 356.536 324.168 348.921 329.484C310.406 356.359 267.407 380.522 220.018 386.06C217.914 386.305 214.797 386.563 212.772 387H193.152C191.642 386.652 187.945 386.17 186.311 386.047C103.189 379.752 114.998 292.04 143.035 236.678C197.029 130.061 312.032 60.9139 421.603 23.1815C403.958 20.3716 371.598 19.7635 353.416 19.5649C273.335 18.6901 184.999 30.5672 116.444 74.9522C69.4507 105.392 27.8048 149.335 15.8146 205.641C4.37918 259.34 24.2733 317.46 81.4832 331.896C86.0454 333.047 91.0479 333.456 95.7704 334.44C96.7971 337.132 96.728 339.737 94.5089 341.569C91.2996 342.132 87.4972 340.875 84.274 340.273C-24.4833 319.941 -13.862 181.4 37.1428 111.809C128.65 -13.0463 306.816 -8.63078 443.853 12.6441C456.61 10.8184 469.958 7.31257 482.648 4.99147C498.241 2.13976 517.014 2.5997 531.881 0ZM476.752 21.4096C504.425 27.405 536.417 37.3959 564.304 44.7299C578.874 48.0944 606.001 55.4366 620.438 49.1679C621.975 48.5006 624.015 45.7161 624.197 43.9621C624.939 11.2246 568.675 6.66534 546.975 8.90758C524.366 10.1905 498.071 13.2402 476.752 21.4096Z" fill="white"/>
<path d="M700.438 248.368C700.538 234.895 700.729 221.368 700.647 207.896C700.518 186.836 697.367 155.868 669.189 157.402C640.239 158.113 639.5 183.58 630.804 204.815C623.246 223.771 597.338 223.695 598.012 200.127C599.455 149.723 677.524 130.05 713.252 154.927C740.411 173.836 734.063 224.199 733.517 253.898C732.977 277.458 733.074 301.03 733.81 324.585C735.42 386.585 748.362 349.633 762.609 354.484C763.284 355.43 763.634 356.318 763.56 357.495C762.262 378.275 735.526 392.19 717.873 381.204C707.448 374.715 703.84 358.053 702.188 346.739C684.275 369.676 667.809 382.296 638.835 387H630.76C619.173 385.253 603.494 381.004 597.255 370.063C559.58 303.98 656.216 265.805 700.438 248.368ZM634.21 357.632C641.25 362.551 649.122 364.022 657.56 362.507C676.094 359.18 689.866 344.416 700.293 329.768C699.633 307.99 699.96 286.254 700.225 264.472L699.12 263.949C673.341 274.556 640.84 287.606 629.269 315.279C625.199 325.012 623.533 338.389 627.591 348.356C629.05 351.943 631.34 355.056 634.21 357.632Z" fill="white"/>
<path d="M1624.33 387C1607.72 384.579 1597.29 381.463 1586.59 367.377C1572.41 348.691 1571.91 318.443 1575.28 296.11C1583.1 246.53 1608.67 195.233 1648.92 164.514C1666.26 151.279 1692.53 141.668 1713.71 145.891C1769.32 156.986 1746.89 211.035 1713.22 232.631C1680.31 253.742 1651.37 264.132 1614.62 273.207C1610.74 293.003 1608.31 308.734 1610.16 329.258C1613.78 369.635 1642.57 372.891 1671.71 352.773C1685.92 342.973 1696.1 330.721 1707.45 317.837C1708.44 316.731 1710.56 316.54 1711.96 316.643C1716.8 319.788 1716.39 325.034 1713.16 329.384C1690.18 360.292 1668.47 380.372 1629.63 387H1624.33ZM1617.43 261.412C1623.49 259.561 1629.81 257.935 1635.63 255.439C1663.74 245.332 1695.82 229.27 1709.18 200.844C1713.66 191.313 1716.7 178.406 1713.01 168.157C1711.39 163.679 1708.32 160.214 1703.98 158.221C1699.56 156.19 1694.67 156.196 1689.92 156.632C1667.41 162.676 1653.05 181.979 1641.9 201.323C1631.34 219.628 1622.23 240.804 1617.43 261.412Z" fill="white"/>
</svg>
