<svg width="692" height="355" viewBox="0 0 692 355" fill="none" xmlns="http://www.w3.org/2000/svg">
<path d="M236.758 53.5371L284.536 53.6177L281.659 58.8071C266.689 84.4136 251.515 113.098 237.046 139.191L147.403 300.83L53.6631 300.849L53.6953 53.5708L103.428 53.6069L103.415 206.982C103.413 235.576 103.178 264.545 103.527 293.12C107.766 286.997 114.89 273.261 118.698 266.391L146.453 216.274L236.758 53.5371Z" fill="white"/>
<path d="M611.105 53.5548L658.864 53.6232L589.221 175.937L640.241 268.476L652.751 291.303C653.874 293.339 657.878 298.696 656.887 300.576L655.261 300.669L610.119 300.693L563.229 215.581L549.602 190.771C547.639 187.202 543.435 179.145 541.047 176.181C534.274 186.406 524.226 205.444 517.966 216.479L470.129 300.664L422.414 300.639C430.559 287.002 438.737 271.948 446.618 258.066L493.22 175.952L423.635 53.6266C439.123 53.2545 455.778 53.5562 471.354 53.5499C473.884 58.5006 477.019 63.8355 479.875 68.6637C500.778 104.027 519.938 141.045 541.223 176.118C549.665 162.147 558.083 146.776 566.193 132.525L611.105 53.5548Z" fill="white"/>
<path d="M189.739 251.177C199.005 250.835 209.876 251.064 219.223 251.055L273.336 251.006L435.929 250.889C427.731 266.455 416.798 284.722 408.009 300.239C404.708 301.626 180.563 300.835 162.311 300.786C171.271 285.361 181.414 266.953 189.739 251.177Z" fill="white"/>
<path d="M244.677 152.269L464.895 152.248C469.446 159.55 474.187 168.345 478.499 175.904C473.879 184.502 468.46 193.697 463.577 202.144H451.711L216.836 202.125C224.981 186.456 235.779 167.632 244.677 152.269Z" fill="white"/>
<path d="M299.506 53.5117C311.613 53.8286 324.917 53.5576 337.1 53.5581L408.918 53.5591C411.443 58.5625 415.208 64.7505 418.069 69.7939L437.263 103.407L410.266 103.446L271.879 103.418C280.218 87.2568 290.588 69.5581 299.506 53.5117Z" fill="white"/>
</svg>
