<svg width="352" height="99" viewBox="0 0 352 99" fill="none" xmlns="http://www.w3.org/2000/svg">
<g clip-path="url(#clip0_2746_913)">
<path d="M52.8973 7.97585C53.0757 8.02686 53.2531 8.08108 53.4295 8.13831C54.5991 8.51302 63.9018 12.3946 64.2277 13.0284L63.9249 13.7252C63.6044 15.3907 63.2148 17.4898 62.381 18.9519C63.4069 19.4818 64.5023 20.0163 65.5787 20.4364C70.3274 22.2897 74.0073 25.1998 77.5489 28.7975C76.1412 29.5598 71.5159 33.5153 71.5183 35.1756C74.1721 37.7504 75.4436 40.8948 76.8991 44.2086C81.4605 43.0553 87.3237 41.1521 91.5753 40.2394C97.4686 54.796 97.4819 48.6533 91.8835 62.7595L91.7165 63.3223C91.1344 63.4687 90.9819 63.2992 90.4085 63.131C85.9084 61.81 81.3142 60.4526 76.6847 59.6797C74.9035 64.0543 74.404 65.0561 71.5321 68.8651C72.7698 70.5916 75.8914 73.4844 77.5133 75.0447C74.6881 77.6125 72.3489 79.6396 69.0187 81.6138C67.9227 82.2636 63.1338 83.9713 62.7089 84.5964C62.7836 84.8374 63.0384 85.595 63.0756 85.797C63.6301 87.6597 63.8757 89.0588 64.2192 90.9733C61.5606 91.8936 53.7697 96.2943 51.4711 95.2047C51.4496 95.1947 51.4291 95.183 51.408 95.1722C50.1257 94.8931 42.5524 91.2544 41.1104 90.5182C42.2731 88.7254 42.6342 86.4928 43.0511 84.4193C38.4656 82.5405 35.518 81.3489 31.6297 78.1486C32.1408 78.0267 32.2039 77.9038 32.5178 77.5064C31.5457 76.6402 30.5706 75.656 29.6339 74.7423C31.0564 73.8296 34.5722 70.2091 35.9208 68.8875C32.1822 65.1788 31.3606 62.8675 29.4141 58.0378C31.6873 57.6752 36.5586 56.229 38.8899 55.5771C43.1626 54.4026 47.4427 53.2558 51.7301 52.1365L51.9384 51.9001L52.9198 51.6865L52.9636 51.5654C52.2575 50.5234 51.5257 47.2299 51.1812 45.856C50.1944 41.8914 49.1727 37.9355 48.116 33.989C47.7319 32.5329 47.0666 29.5913 46.5237 28.3935L45.3382 28.7583L45.3093 27.6794C45.3298 27.3212 43.3822 20.3161 43.1956 19.5802C42.7097 17.488 42.164 15.0142 41.3278 13.0539C43.5679 11.8814 50.8078 8.52306 52.8973 7.97585Z" fill="white"/>
<path d="M53.2754 8.61355L53.2773 8.61452C53.8332 8.79263 56.4265 9.84544 58.9453 10.9446C60.199 11.4917 61.4212 12.0442 62.3477 12.4983C62.812 12.7259 63.1942 12.9256 63.4668 13.0843C63.5235 13.1172 63.5739 13.1474 63.6182 13.1751L63.4668 13.5257L63.4443 13.5764L63.4346 13.6311C63.1086 15.3249 62.7311 17.33 61.9473 18.7044L61.6885 19.1565L62.1523 19.3958C63.1834 19.9284 64.2969 20.4731 65.3975 20.9026C69.863 22.6454 73.375 25.3443 76.7529 28.7083C75.923 29.2751 74.7249 30.2559 73.6572 31.2913C72.981 31.9471 72.3372 32.6416 71.8594 33.2884C71.6205 33.6116 71.4157 33.9332 71.2686 34.2395C71.2162 34.3485 71.1709 34.4611 71.1318 34.5745C71.1009 34.5705 71.0672 34.5668 71.0303 34.5628L69.876 34.4358L70.5186 35.2844C70.506 35.3198 70.495 35.3565 70.4854 35.3938C70.4409 35.5662 70.4382 35.7344 70.4688 35.9212L70.4893 36.0442L70.5645 36.1438C72.903 39.2107 74.5285 41.6139 75.418 45.3313L53.1934 50.9505C53.1027 50.7621 53.0055 50.5291 52.9062 50.2561C52.7391 49.7962 52.5744 49.2572 52.4189 48.7005C52.2629 48.1418 52.1183 47.5753 51.9912 47.0608L51.667 45.7346C50.6796 41.7674 49.656 37.8088 48.5986 33.8596C48.5037 33.4999 48.3917 33.0473 48.2666 32.5471C48.1417 32.048 48.0053 31.5031 47.8633 30.9661C47.5828 29.9057 47.271 28.83 46.9795 28.1868L46.7979 27.7864L46.377 27.9153L45.8203 28.0862L45.8096 27.6663H45.8057C45.8044 27.5824 45.7919 27.4937 45.7832 27.4466C45.7682 27.3657 45.7462 27.264 45.7197 27.1477C45.6667 26.9143 45.5906 26.6038 45.499 26.2434C45.3155 25.5214 45.0674 24.5862 44.8135 23.6419L43.6807 19.4573C43.2335 17.5312 42.7217 15.2199 41.9648 13.2923C43.1809 12.6761 45.2816 11.6751 47.374 10.7366C49.6402 9.72015 51.8403 8.80135 52.8955 8.49734C53.0224 8.53492 53.1494 8.57266 53.2754 8.61355Z" fill="white" stroke="#9CA59F"/>
<path d="M62.1523 19.396C63.1834 19.9285 64.2969 20.4723 65.3975 20.9018C69.8633 22.6447 73.3758 25.3442 76.7539 28.7085C75.924 29.2752 74.7251 30.255 73.6572 31.2905C72.981 31.9462 72.3382 32.6418 71.8604 33.2885C71.6215 33.6118 71.4157 33.9334 71.2686 34.2397C71.2163 34.3486 71.1719 34.4614 71.1328 34.5747C71.1016 34.5707 71.0675 34.5661 71.0303 34.562L69.877 34.436L70.5186 35.2837C70.5059 35.3192 70.495 35.3564 70.4854 35.394C70.441 35.5664 70.4391 35.7346 70.4697 35.9214L70.4893 36.0444L70.5654 36.144C72.9037 39.2106 74.5284 41.6137 75.418 45.3305L53.9131 50.769C55.7676 42.0548 58.2468 33.2915 60.8125 24.7563C61.0363 24.0114 61.184 23.0709 61.334 22.2436C61.4913 21.3763 61.6489 20.6538 61.875 20.2182L61.9297 20.1128L61.9307 19.9936C61.933 19.7797 61.9503 19.5496 61.9805 19.3071L62.1523 19.396ZM63.1631 14.9975C62.9212 16.1483 62.6185 17.3255 62.1641 18.2817C62.2656 17.8256 62.3947 17.3462 62.541 16.8608C62.7332 16.2234 62.9511 15.5889 63.1631 14.9975Z" fill="white" stroke="#9CA59F"/>
<path d="M63.1739 13.5132C63.8261 13.5911 63.0347 13.6722 63.9242 13.7252C63.6037 15.3907 63.2141 17.4898 62.3803 18.9519C63.4062 19.4818 64.5016 20.0163 65.578 20.4364C70.3267 22.2897 74.0066 25.1998 77.5482 28.7975C76.1405 29.5598 71.5152 33.5153 71.5176 35.1756C71.2785 35.1041 71.2329 35.0876 70.9747 35.0593L71.0942 35.2171C70.9783 35.4527 70.9182 35.5774 70.9614 35.8407L70.008 34.6657C71.5961 32.7677 74.0482 30.4789 75.8467 28.5947C72.2915 24.3761 66.5015 21.7935 61.4297 19.988C61.45 18.1199 62.5109 15.2911 63.1739 13.5132Z" fill="#9CA59F"/>
<path d="M52.8976 7.97585C53.0761 8.02686 53.2535 8.08108 53.4299 8.13831C54.5995 8.51302 63.9021 12.3946 64.228 13.0284L63.9252 13.7252C63.0358 13.6722 63.8272 13.5911 63.175 13.5132C60.3938 12.3529 55.2903 9.69096 52.7473 9.01403C49.3057 10.2157 46.1437 12.0436 42.6534 13.2925C43.0442 14.9515 43.4505 16.9142 43.8869 18.5332C43.69 19.1005 43.6291 19.1593 43.1959 19.5802C42.7101 17.488 42.1644 15.0142 41.3281 13.0539C43.5682 11.8814 50.8082 8.52306 52.8976 7.97585Z" fill="#9CA59F"/>
<path d="M43.8863 18.5332C44.7354 21.6365 45.869 25.3299 46.5234 28.3935L45.338 28.7583L45.309 27.6794C45.3295 27.3212 43.382 20.3161 43.1953 19.5802C43.6285 19.1593 43.6894 19.1004 43.8863 18.5332Z" fill="#9CA59F"/>
<path d="M52.5449 52.2793C54.6035 61.132 57.2554 69.986 59.5381 78.7519C59.6948 79.3537 59.9055 80.2892 60.1484 81.2597C60.3743 82.162 60.6284 83.0936 60.8662 83.6435L61.0723 84.6796L61.1699 85.1748L61.6641 85.0712C61.8583 85.0307 62.0038 84.9917 62.1104 84.9628C62.2115 84.9355 62.2517 84.9264 62.2744 84.9228C62.2789 84.9247 62.2844 84.9273 62.291 84.9306C62.3322 85.0582 62.3836 85.2169 62.4297 85.3623C62.512 85.6215 62.5725 85.8253 62.584 85.8876L62.5889 85.914L62.5967 85.9394C63.1024 87.638 63.3454 88.9423 63.6523 90.6503C62.9952 90.9078 62.148 91.2942 61.2197 91.7216C60.0765 92.248 58.7907 92.8463 57.5166 93.3818C56.24 93.9183 54.9952 94.3831 53.9375 94.6474C53.409 94.7795 52.9419 94.858 52.5498 94.874C52.1523 94.8902 51.8703 94.8404 51.6855 94.7529L51.6826 94.7519L51.6729 94.747C51.6679 94.7444 51.6653 94.743 51.6582 94.7392C51.6523 94.7361 51.6449 94.7317 51.6367 94.7275L51.5781 94.6972L51.5146 94.6835L51.2441 94.6044C50.9027 94.4895 50.3548 94.2707 49.6582 93.9716C48.7517 93.5825 47.6443 93.0808 46.5293 92.5634C44.6698 91.7006 42.7999 90.7976 41.8154 90.3105C42.8171 88.511 43.166 86.3827 43.541 84.5175L43.623 84.1132L43.2402 83.957C38.8982 82.178 36.082 81.0344 32.5459 78.2431C32.6827 78.1125 32.8001 77.9557 32.9102 77.8164L33.2021 77.4462L32.8506 77.1328C32.0327 76.4039 31.2146 75.5928 30.4062 74.7988C31.1619 74.2113 32.1767 73.2712 33.1523 72.3281C34.3742 71.147 35.6105 69.8918 36.2705 69.2451L36.6328 68.8896L36.2734 68.5322C32.7603 65.0472 31.8907 62.8569 30.1064 58.4189C32.5862 57.9287 36.9051 56.6503 39.0215 56.0585L39.0225 56.0595C43.2931 54.8856 47.5712 53.7388 51.8564 52.6201L52.0039 52.582L52.1055 52.4668L52.2041 52.3535L52.5449 52.2793Z" fill="white" stroke="#9CA59F"/>
<path d="M52.708 51.6631C52.5377 51.8455 52.324 52.0629 52.0732 52.3076C51.5751 52.7937 50.9643 53.3595 50.3389 53.9307C49.1014 55.0608 47.7838 56.2319 47.2441 56.79C45.329 58.7705 43.376 60.7141 41.417 62.6602C39.5796 64.4854 37.7367 66.3137 35.9199 68.1729C32.701 64.8909 31.8289 62.7033 30.1064 58.4189C32.5862 57.9288 36.9051 56.6504 39.0215 56.0586L39.0225 56.0596C41.1834 55.4655 43.5362 54.5925 45.8623 53.7373C48.1329 52.9025 50.3795 52.0847 52.4463 51.5322L52.708 51.6631Z" fill="white" stroke="#9CA59F"/>
<path d="M32.5209 77.5064C36.89 80.3601 39.389 81.8971 44.4 83.5759C43.8115 85.7328 43.3245 87.9557 42.707 90.0865C43.9011 90.5534 50.0957 93.2697 50.9918 93.9127L50.8437 94.3446C51.1791 94.7505 51.2532 94.7804 51.7151 95.0027L51.4111 95.1722C50.1288 94.893 42.5555 91.2544 41.1135 90.5182C42.2763 88.7254 42.6373 86.4928 43.0542 84.4193C38.4687 82.5405 35.5211 81.3489 31.6328 78.1486C32.144 78.0267 32.2071 77.9038 32.5209 77.5064Z" fill="#9CA59F"/>
<path d="M62.216 87.3129C62.7599 86.4101 62.1063 86.5808 63.0709 85.797C63.6255 87.6597 63.871 89.0588 64.2146 90.9733C61.5559 91.8936 53.765 96.2943 51.4664 95.2047C51.4449 95.1947 51.4245 95.183 51.4034 95.1722L51.7074 95.0027C51.2454 94.7804 51.1713 94.7505 50.8359 94.3446L50.984 93.9127C53.6957 94.7414 55.5661 93.4778 58.0054 92.3592C59.6952 91.5843 61.3476 90.7877 63.048 90.0339C62.6737 89.0551 62.3695 88.3557 62.216 87.3129Z" fill="#9CA59F"/>
<path d="M61.5625 84.5819C62.2778 84.4327 62.2543 84.303 62.709 84.5964C62.7837 84.8374 63.0385 85.595 63.0757 85.797C62.111 86.5808 62.7646 86.4101 62.2207 87.3129C61.9328 86.5238 61.7399 85.4251 61.5625 84.5819Z" fill="#9CA59F"/>
<path d="M69.8584 68.8771C72.4146 66.4915 75.3991 61.4632 75.7994 57.9788C79.278 58.6294 88.6896 61.8183 91.1627 61.74C91.3808 62.147 91.516 62.4757 91.8809 62.7595L91.7139 63.3223C91.1318 63.4687 90.9793 63.2992 90.4059 63.131C85.9057 61.81 81.3116 60.4526 76.682 59.6797C74.9008 64.0543 74.4013 65.0561 71.5295 68.8651C72.7672 70.5916 75.8888 73.4844 77.5106 75.0447C74.6854 77.6125 72.3462 79.6396 69.0161 81.6138C67.9201 82.2636 63.1312 83.9713 62.7062 84.5964C62.2515 84.303 62.275 84.4327 61.5597 84.5819L61.3438 83.4944C66.8801 82.0013 71.9024 79.0238 75.8675 74.8837C73.7547 72.8581 71.8672 71.0199 69.8584 68.8771Z" fill="#9CA59F"/>
<path d="M70.9593 35.8407C70.9161 35.5774 70.9762 35.4527 71.0921 35.2171L70.9726 35.0593C71.2308 35.0876 71.2764 35.1041 71.5155 35.1756C74.1693 37.7503 75.4408 40.8948 76.8963 44.2086C81.4577 43.0553 87.3209 41.152 91.5725 40.2394C97.4659 54.796 97.4791 48.6533 91.8807 62.7595C91.5158 62.4757 91.3806 62.147 91.1626 61.7399C92.3423 58.4403 93.971 55.2689 95.2782 51.9969C94.6107 49.5942 92.0447 44.0923 90.9422 41.5898C86.2339 42.9529 80.5192 44.0923 76.0136 45.6955C75.1273 41.596 73.4072 39.051 70.9593 35.8407Z" fill="#9CA59F"/>
<path d="M325.829 39.7229C330.219 39.0875 336.429 40.0927 340.13 42.8762C347.774 48.6277 342.895 59.6765 342.152 67.4494C341.981 69.2469 341.198 72.7578 340.615 74.4641C339.95 76.402 338.961 78.2127 337.689 79.8195C334.39 83.9642 329.466 85.4111 324.394 85.9816C312.883 86.7318 303.476 82.1928 306.167 68.8791C307.633 61.6279 307.82 52.0794 312.298 46.0734C315.411 41.9005 320.804 40.2179 325.829 39.7229ZM331.775 48.5705C330.075 47.5195 327.953 47.5855 326.032 47.7082C324.218 48.0665 321.743 49.0212 320.983 50.6486C319.185 54.4919 316.916 67.8336 316.663 71.9094C316.598 72.8695 316.671 73.834 316.878 74.7736C317.663 78.2083 321.375 78.1799 324.268 77.9582C326.311 77.5329 328.156 76.5493 329.353 74.7863C330.695 72.8104 334.107 53.4139 333.533 50.7824C333.34 49.9004 332.522 49.0318 331.775 48.5705Z" fill="white"/>
<path d="M99.4168 39.1213C101.961 39.0012 104.629 38.9397 107.165 39.1942C108.398 41.8047 109.118 51.9732 109.498 55.4338L111.646 74.7331L118.19 60.3604C119.03 58.5304 121.456 51.9987 123.438 51.8066C128.295 51.3353 133.409 51.6642 138.317 51.5999C140.053 51.5772 146.424 51.3061 147.668 52.1164C148.776 54.5414 144.322 72.2565 144.099 77.1271C145.159 77.3171 147.78 77.4932 148.964 77.6153C148.943 79.4065 148.713 83.2727 147.419 84.5534C146.704 85.2621 145.971 85.2028 145.024 85.2406C131.822 85.3552 132.455 81.9029 134.489 70.345C135.09 66.7547 135.75 63.1747 136.469 59.6062C134.348 59.71 131.218 59.5845 129.02 59.5664C127.582 63.2253 118.984 81.823 117.089 83.7648C115.219 85.6824 112.703 85.3536 110.266 85.3996C108.184 85.4388 104.936 85.8667 103.319 84.2096C102.672 83.5474 102.386 81.9656 102.22 81.0798C101.15 75.364 100.809 69.3386 100.084 63.5567L98.367 50.1316C98.0236 47.2526 97.5643 43.9202 97.6832 41.0508C98.1393 40.2388 98.6127 39.5968 99.4168 39.1213Z" fill="white"/>
<path d="M289.912 39.5906C300.177 39.677 306.32 43.4646 303.885 54.4148C300.98 54.8475 296.812 54.6516 293.893 54.4988C293.981 52.8742 294.3 50.2881 293.364 48.9988C291.532 46.506 286.614 47.1909 284.378 48.7771C281.539 50.7907 281.162 56.6994 280.583 60.0252C281.124 59.6876 282.05 59.1442 282.651 58.9695C293.738 55.7506 303.596 59.107 301.61 71.9207C301.141 74.6707 300.31 77.3136 298.636 79.5779C295.857 83.3386 291.601 85.1302 287.069 85.7888C281.995 86.5259 275.958 86.1311 271.744 82.9715C269.416 81.2257 268.051 78.7301 267.659 75.8601C267.179 72.3257 270.286 54.7859 271.528 50.9031C272.112 49.075 272.948 47.342 274.115 45.8132C277.17 41.8184 281.978 40.3423 286.764 39.7097C287.668 39.564 288.968 39.5828 289.912 39.5906ZM291.423 68.6433C289.968 64.9393 288.416 64.6998 284.609 64.823C280.048 65.3807 277.879 69.9809 278.233 74.2771C278.532 77.9184 281.98 78.2844 284.932 78.1951C290.471 77.198 290.814 73.5749 291.423 68.6433Z" fill="white"/>
<path d="M184.392 38.5074C186.152 38.408 187.918 38.4781 189.663 38.7174C190.174 39.2109 191.175 40.3283 191.101 41.0709C189.956 52.571 186.507 64.4621 185.434 75.9068C186.163 76.8832 188.165 78.6825 188.171 79.901C188.181 81.9344 184.204 85.9909 182.284 85.9576C180.64 85.9285 177.906 82.8571 176.746 81.5875C172.78 85.3122 169.903 86.0986 164.596 86.0572C157.513 85.578 153.002 80.8166 153.435 73.5758C153.607 70.6978 154.456 67.8418 154.782 65.193C155.958 55.6317 163.344 49.8399 172.925 51.023C175.327 51.3194 176.644 52.4378 178.696 53.7447C179.017 50.5229 179.808 42.5478 181.588 39.9556C182.31 38.9078 183.233 38.6813 184.392 38.5074ZM176.414 60.7086C175.999 58.1407 172.153 58.4435 170.296 58.565C164.987 60.337 165.643 65.7648 164.642 70.4098C163.4 76.174 164.101 78.46 170.497 78.1392C172.017 77.6629 173.821 76.5988 174.35 74.9937C175.696 70.9169 177.101 64.9526 176.414 60.7086Z" fill="white"/>
<path d="M249.384 39.7189C255.538 39.0287 265.518 40.4761 267.214 47.4026C268.994 54.6785 265.528 60.5867 258.538 62.6004C260.218 63.4452 262.064 64.4165 263.041 66.0348C266.157 71.2015 263.389 79.9565 258.377 82.9823C253.021 86.1968 245.709 86.7908 239.613 85.5063C230.644 83.616 229.229 78.5583 230.965 70.4838C233.788 69.9562 237.979 70.1504 240.959 70.1998C241.248 71.6025 240.288 74.9164 241.325 76.6492C241.715 77.303 242.261 77.8225 243.015 77.998C245.406 78.4902 248.359 78.3778 250.594 77.308C253.167 76.0751 254.465 71.2466 253.194 68.858C251.821 66.2792 247.029 67.4606 244.68 66.7216C243.23 66.2646 243.053 65.8423 242.309 64.5326C242.263 56.1543 247.859 59.26 253.189 57.8063C255.862 57.0776 257.343 52.1833 256.511 49.8402C255.448 46.847 250.449 47.0197 248.014 47.9659C244.644 49.275 244.901 52.2815 243.726 55.1325C242.143 55.3322 235.817 55.4107 234.445 55.0201C232.94 53.2992 235.962 46.5114 237.423 44.8335C240.686 41.0874 244.708 40.1952 249.384 39.7189Z" fill="white"/>
<path d="M29.6182 27.7712C30.5193 28.5775 31.4098 29.4645 32.3252 30.3766C33.3649 31.4126 34.4359 32.4797 35.5684 33.4665L35.8926 33.7487L36.2197 33.4723C39.0246 31.1042 41.555 29.8218 44.834 28.4264L44.8438 28.7721L44.8613 29.4303L45.4902 29.236L46.2354 29.0065C46.4456 29.5778 46.6773 30.375 46.9014 31.2223C47.0415 31.7521 47.1769 32.2907 47.3018 32.7897C47.4262 33.2871 47.5406 33.7489 47.6377 34.1169V34.1178C48.4297 37.0757 49.2024 40.0393 49.9551 43.0075L50.7012 45.9772C50.8701 46.6508 51.1434 47.8359 51.46 48.9694C51.6187 49.5379 51.7914 50.1038 51.9707 50.5973C52.0633 50.852 52.1617 51.0972 52.2646 51.318L51.8369 51.4118L51.6768 51.4469L51.46 51.6911C47.2203 52.7986 42.988 53.9339 38.7627 55.0954H38.7598C36.3999 55.7552 31.5756 57.187 29.3398 57.5436L29.3037 57.5495L29.2686 57.5612C24.4522 59.084 19.5671 60.3817 14.6299 61.4499L14.2158 61.5387L14.2363 61.9616L14.2422 62.0934C14.2105 62.0465 14.1757 61.9985 14.1426 61.946C13.8955 61.5538 13.6464 61.0631 13.4111 60.5417C12.9412 59.5001 12.5466 58.3802 12.3516 57.7809L12.332 57.7204L12.2988 57.6676L12.1426 57.4079C11.7717 56.7562 11.3524 55.8023 10.9551 54.8005C10.5309 53.731 10.1445 52.638 9.8877 51.8659C9.99285 51.4521 10.2477 50.6999 10.6084 49.7477C11.0029 48.7064 11.5071 47.4596 12.0322 46.2301C12.5575 45.0003 13.1017 43.7919 13.5752 42.8249C13.812 42.3412 14.0292 41.9225 14.2158 41.5934C14.3449 41.3659 14.4516 41.1961 14.5332 41.0807C14.7864 41.06 15.121 41.0821 15.5283 41.1481C16.0256 41.2287 16.5894 41.3671 17.1729 41.5329C17.755 41.6983 18.3467 41.8881 18.9014 42.068C19.4516 42.2465 19.9727 42.418 20.3965 42.5417L20.8643 42.6774L21.0127 42.2135C23.1191 35.6392 25.3463 32.8609 29.6182 27.7712Z" fill="white" stroke="#9CA59F"/>
<path d="M15.0811 42.2415C17.2089 42.8909 18.6804 43.2471 20.9434 43.7015C21.611 43.9947 23.0356 44.3963 24.4355 44.7649C25.9201 45.1558 27.4046 45.519 28.168 45.7278C34.3234 47.4119 40.5002 48.885 46.6104 50.6663C47.1218 50.8153 48.1978 51.1009 49.2852 51.429C49.7892 51.5811 50.2807 51.7393 50.6953 51.889C46.7079 52.9338 42.7267 54.0024 38.752 55.095L38.749 55.096C36.3891 55.7558 31.5648 57.1876 29.3291 57.5442L29.293 57.5501L29.2578 57.5608C24.5712 59.0427 19.819 60.3092 15.0176 61.3607C13.8834 58.748 12.6296 56.0909 11.4512 53.5169C11.407 53.4023 11.3651 53.2868 11.3262 53.1702L11.2148 52.8069C11.0938 52.3617 11.1593 51.6161 11.4141 50.6312C11.6631 49.6687 12.0694 48.5614 12.54 47.4437C13.3893 45.4266 14.4326 43.4183 15.0811 42.2415Z" fill="white" stroke="#9CA59F"/>
<path d="M29.5641 27.0573C31.6605 28.87 33.6613 31.1417 35.8972 33.09C38.9493 30.5132 41.6849 29.1975 45.3142 27.6794L45.3432 28.7583C41.8661 29.9871 38.445 31.8584 35.9885 34.6625C33.8325 32.6717 31.7069 30.6482 29.6121 28.5931C23.8234 35.176 24.4507 35.8483 21.099 43.221C18.6875 42.7376 17.1904 42.371 14.8494 41.6448C13.6037 43.8543 10.105 50.6156 10.7443 52.9427C10.8175 53.2016 10.9025 53.4566 10.9995 53.7074C12.2412 56.4201 13.5593 59.2045 14.7353 61.9384L14.7584 62.4257L15.4759 62.984L14.5103 63.1127C13.4801 62.4896 12.273 59.1535 11.8765 57.9354C11.009 56.5675 9.88276 53.4518 9.36719 51.8843C9.72202 50.2043 13.2609 41.7209 14.2656 40.6127C15.6787 40.336 18.878 41.5776 20.5365 42.0613C22.7271 35.2236 25.0665 32.4119 29.5641 27.0573Z" fill="#9CA59F"/>
<path d="M209.04 50.9639C213.486 50.4937 219.847 51.0651 223.19 54.2354C227.691 58.506 224.621 65.9592 223.898 71.1778C223.715 72.4916 223.303 73.7618 223.397 75.1055C223.271 77.4014 226.183 78.0058 226.057 80.2051C225.947 82.1297 221.872 86.0253 220.042 85.9805C218.687 85.9471 215.999 83.0191 215.005 81.9512C211.932 84.3554 209.36 85.8257 205.324 86.0518C201.358 86.274 197.561 85.49 194.533 82.8301C190.681 78.5804 192.194 70.8414 196.743 67.7471C201.619 64.4298 209.021 65.057 214.643 66.1231C214.923 62.1806 217.143 55.9222 208.069 58.7012C206.612 59.1474 205.941 61.409 205.503 62.8946C203.838 62.8886 197.518 63.1612 196.485 62.5225C196.417 62.3807 196.303 62.0903 196.304 61.9307C196.445 54.3215 202.52 51.6197 209.04 50.9639ZM213.139 71.6963C210.529 71.0957 209.32 71.1217 206.702 71.2286C201.279 72.2487 200.181 79.751 208.781 78.543C212.592 77.4117 213.037 75.4609 213.139 71.6963Z" fill="white"/>
<path d="M99.34 14.4062C100.933 14.2881 101.8 14.3047 103.379 14.3772C104.073 15.8058 105.057 19.5039 105.673 21.3228C107.11 19.0772 108.712 16.4411 110.322 14.359C111.754 14.2969 113.108 14.3576 114.537 14.4086C114.476 17.0223 113.672 20.5429 113.213 23.1739C112.743 25.8737 112.297 28.6497 111.778 31.3313C110.845 31.4165 109.376 31.3916 108.401 31.4042C108.556 28.6678 109.023 26.032 109.549 23.3484L110.118 20.0937C108.652 22.0519 107.425 24.3434 105.889 26.2605C105.447 26.8113 105.157 26.8971 104.508 26.7292C103.367 25.7962 102.161 21.9104 101.535 20.279C100.901 23.8833 100.62 27.6915 99.8929 31.2819C98.9146 31.4102 97.4981 31.3759 96.4766 31.3801C96.5083 29.1766 98.4832 15.4658 99.34 14.4062Z" fill="white"/>
<path d="M163.072 20.1093C163.329 19.9442 163.589 19.7836 163.852 19.6274C165.649 18.5629 168.606 17.7335 170.114 19.5989C172.22 22.2015 170.58 28.4772 169.736 31.4014C168.523 31.4072 167.225 31.3604 166.004 31.3393C166.191 30.112 167.749 22.7638 167.091 22.1574C163.58 18.9171 162.717 29.1756 162.328 31.1277L162.23 31.2654C161.598 31.4934 159.425 31.3817 158.628 31.368C158.667 30.1917 160.078 22.5764 159.6 22.1718C155.69 18.8593 155.142 29.218 154.812 31.3827L151.008 31.3805C151.468 28.919 151.814 25.3293 152.265 22.5959C150.893 20.141 151.221 19.8517 153.638 18.539C156.666 20.9441 155.421 19.2842 158.812 18.5872C160.394 18.4818 161.879 19.0942 163.072 20.1093Z" fill="white"/>
<path d="M138.889 19.0115C142.095 18.8569 145.661 18.9559 148.895 18.981C148.49 21.5081 147.721 25.1856 147.42 27.8073C147.361 28.3214 148.818 28.4585 149.158 29.2983C149.266 30.1138 148.814 30.7672 148.369 31.4548C140.706 31.5542 143.269 27.3547 144.521 21.8302L141.545 21.7531C139.777 24.7141 138.485 28.1047 136.673 30.8239C136.099 31.6847 132.788 31.4512 131.589 31.4148C130.927 28.827 129.871 21.6152 130.158 18.995C131.196 18.9123 132.521 18.9846 133.585 19.0145C134.032 20.8873 134.356 25.6004 134.651 27.8133C135.705 25.2171 137.541 21.5045 138.889 19.0115Z" fill="white"/>
<path d="M121.757 18.5885C124.564 18.3688 126.51 19.1092 128.116 21.4655C128.35 26.369 127.469 30.7209 122.065 31.5953C119.306 31.7066 116.112 31.5068 115.386 28.0973C114.968 26.1318 115.769 23.0042 116.843 21.317C118.028 19.4572 119.698 19.006 121.757 18.5885ZM121.204 21.4244C120.005 22.8462 118.645 26.5313 119.793 28.2291C120.511 28.7998 121.174 28.6603 122.097 28.569C122.658 28.3609 123.1 28.3073 123.282 27.6715C123.548 26.7396 124.097 25.5622 124.171 24.6022C124.388 21.8211 123.549 21.4231 121.204 21.4244Z" fill="white"/>
<path d="M217.188 18.5859C218.145 18.4984 219.107 18.5658 220.039 18.7852C221.823 19.2175 222.637 20.0698 223.554 21.5527C223.853 26.5182 222.838 30.5663 217.502 31.5781C215.475 31.6982 214.773 31.6404 212.834 31.0557C211.649 30.0066 211.361 29.4055 210.734 27.999C210.879 26.0901 211.223 22.8979 212.224 21.3027C213.455 19.3431 215.151 19.0715 217.188 18.5859ZM217.169 21.4277C215.15 21.9958 213.88 27.1259 215.69 28.585C216.215 28.6257 216.585 28.6547 217.111 28.6328C217.718 28.4707 218.256 28.4505 218.577 27.8975C219.411 26.4609 219.417 23.3253 219.375 21.6748C218.724 21.5989 217.802 21.4615 217.169 21.4277Z" fill="white"/>
<path d="M174.951 20.7009C179.128 15.9791 188.518 19.2081 184.671 26.0945C184.458 26.4739 183.624 26.4111 183.178 26.4333L184.314 26.6667L184.413 26.8864C183.691 27.0007 183.172 27.079 182.437 27.1218L183.879 27.3083L184.373 27.448L184.489 27.8943C184.226 29.2059 183.498 30.1347 182.606 31.0896L182.549 31.1052C179.459 31.9496 173.666 32.542 173.127 27.8806C173.006 25.7804 173.512 22.3272 174.951 20.7009ZM183.176 26.4333C181.567 26.3769 178.332 25.9522 177.218 26.8132C176.829 27.4313 176.841 28.061 177.279 28.654C177.757 28.9248 178.914 28.9072 179.274 28.7468C182.11 27.4783 180.836 27.3676 183.877 27.3083L182.434 27.1218C183.169 27.079 183.689 27.0007 184.41 26.8864L184.311 26.6667L183.176 26.4333ZM179.081 21.1853C178.09 21.6752 177.326 22.3129 177.882 23.406C178.774 24.0893 179.368 23.9222 180.511 23.863C181.312 23.8392 181.126 23.9689 181.6 23.5017C182.229 21.6036 180.577 21.1466 179.081 21.1853Z" fill="white"/>
<path d="M191.304 20.0778C202.77 14.6098 199.652 24.904 198.625 31.3847L194.848 31.3612C194.975 29.0576 195.27 27.2752 195.684 25.0205C195.933 23.3028 196.204 20.7427 193.556 21.7947C191.669 22.5445 191.338 29.3716 190.673 31.3648C189.417 31.4319 188.129 31.365 186.867 31.3207C187.028 29.2957 188.077 24.9974 188.414 22.5232C188.316 22.3744 188.217 22.2246 188.121 22.074C187.5 21.1116 187.42 21.0728 187.641 20.0471C188.127 19.3581 188.927 18.9816 189.664 18.55C189.935 18.6061 191.024 19.7926 191.304 20.0778Z" fill="white"/>
<path d="M142.485 38.5715C145.399 37.8648 148.343 39.6207 149.103 42.5196C149.864 45.4184 148.162 48.392 145.276 49.2057C143.361 49.7455 141.304 49.2099 139.896 47.805C138.488 46.4002 137.949 44.3451 138.485 42.4306C139.022 40.5161 140.552 39.0403 142.485 38.5715Z" fill="white"/>
<path d="M206.265 15.6102C207.275 15.5789 207.653 15.4684 208.324 16.2243C208.591 16.9624 208.334 18.156 208.222 18.9834L210.721 19.082C210.563 19.8515 210.438 20.9204 210.323 21.7206L207.527 21.8837C207.31 23.9144 206.994 26.1095 206.448 28.0748L209.218 28.5449C208.995 29.4881 208.634 30.522 208.328 31.4538C199.506 31.5249 203.291 27.8196 203.388 22.0624C203.392 21.8953 202.369 21.7033 201.931 21.0087C201.854 20.2465 202.049 19.8593 202.311 19.1513C202.915 18.7374 203.122 18.8759 203.942 18.8747C205.071 18.0711 204.157 17.5715 204.694 16.297C205.403 15.6718 205.304 15.8269 206.265 15.6102Z" fill="white"/>
<path d="M14.7266 61.9383C19.679 60.8668 24.579 59.5654 29.4102 58.0378C31.3568 62.8675 32.1784 65.1788 35.917 68.8875C34.5684 70.2091 31.0526 73.8296 29.63 74.7423C30.5668 75.656 31.5418 76.6401 32.5139 77.5064C32.2001 77.9038 32.137 78.0267 31.6258 78.1486C30.7235 77.4345 29.0335 75.8078 28.3449 74.9451L28.4623 74.6108C29.4936 73.9736 33.1842 70.0687 34.1251 69.0215C31.5396 65.286 30.4508 63.5731 28.7446 59.3977C25.4369 60.101 18.5032 61.8773 15.4672 62.984L14.7497 62.4257L14.7266 61.9383Z" fill="#9CA59F"/>
<path d="M145.501 14.2951C146.861 14.2236 148.171 14.321 149.528 14.3975C149.389 15.7445 149.261 16.4237 148.94 17.7414C145.29 17.9364 144.443 18.2034 145.501 14.2951Z" fill="white"/>
</g>
<defs>
<clipPath id="clip0_2746_913">
<rect width="352" height="99" fill="white"/>
</clipPath>
</defs>
</svg>
