<svg width="1507" height="423" viewBox="0 0 1507 423" fill="none" xmlns="http://www.w3.org/2000/svg">
<path d="M1058.84 7.78492C1079.56 7.40394 1100.97 7.6952 1121.75 7.71424L1122.04 185.647C1122.07 223.32 1124.55 286.953 1116.24 321.127C1085.79 439.349 885.69 448.808 811.197 376.973C759.794 327.402 775.006 197.09 775.115 128.279C774.478 88.5369 774.527 48.7869 775.259 9.04766C805.528 8.24487 835.806 7.91558 866.083 8.05981C866.614 96.0341 865.163 184.569 866.355 272.497C867.944 292.705 868.38 317.717 885.644 331.22C946.059 378.476 982.824 360.316 1026.61 308.059C1032.2 277.943 1030.91 221.5 1030.92 188.907L1031.31 9.16467L1058.84 7.78492Z" fill="white"/>
<path d="M34.2518 7.66782C117.167 5.50438 243.066 4.03754 323.467 8.33992C323.445 33.531 322 60.5727 321.115 85.8836C273.084 128.682 209.689 224.499 165.405 275.855C146.236 298.085 133.264 320.248 109.501 339.694C165.876 336.143 266.295 338.66 324.465 340.478C324.669 354.713 326.585 401.204 322.071 412.62L316.601 414.424L0.243624 414.176C-0.344178 389.423 0.224531 366.766 0.964726 342.103C15.9727 318.414 56.7134 270.309 76.0211 246.37C119.129 192.915 164.45 133.482 209.583 82.1635C147.303 83.9433 76.9327 82.2914 14.0488 82.1282C14.3835 56.7465 9.40626 37.2484 16.185 13.1049C22.9148 6.47313 22.2672 8.5604 34.2518 7.66782Z" fill="white"/>
<path d="M1294.09 13.4045C1302.26 16.866 1306.05 52.877 1308.33 63.7677C1371.31 64.1187 1444.69 62.8832 1506.76 56.9154C1448.1 78.3729 1372.33 101.787 1317.74 124.88C1325.88 148.112 1332.26 174.957 1344.68 195.234C1328.1 195.898 1300.77 162.088 1277.72 147.078C1247.86 159.226 1227.03 173.638 1200.06 190.779C1213.79 166.464 1227.75 139.504 1236.18 112.871C1216.85 96.2056 1202.68 88.1261 1180.59 75.1047C1208.1 75.4067 1229.38 74.8488 1256.49 70.7233C1269.24 55.5466 1280 31.8114 1294.09 13.4045Z" fill="white"/>
<path fill-rule="evenodd" clip-rule="evenodd" d="M745.352 187.205C732.309 71.5879 628.067 -11.6024 512.436 1.32382C396.639 14.2664 313.299 118.694 326.364 234.48C339.426 350.263 443.938 433.494 559.71 420.312C675.314 407.149 758.398 302.823 745.352 187.205ZM633.55 133.423C619.195 84.6245 564.247 61.6049 514.724 67.0666C490.916 76.7599 473.42 86.4641 457.022 107.429C397.063 184.08 420.439 351.816 537.289 357.052C542.569 357.288 551.775 355.881 557.011 354.793C651.516 318.561 659.315 221.019 633.55 133.423Z" fill="white"/>
</svg>
