<svg width="80" height="80" viewBox="0 0 416 428" fill="none" xmlns="http://www.w3.org/2000/svg" class="opacity-70"><g filter="url(#filter0_ii_1255_70)"><circle cx="209.715" cy="217.397" r="153.021" fill="black" fill-opacity="0.01"></circle></g><circle cx="209.715" cy="217.397" r="152.521" stroke="white" stroke-opacity="0.5"></circle><g filter="url(#filter1_f_1255_70)" style="mix-blend-mode: screen;"><path d="M161.273 219.711C132.561 227.415 122.056 279.938 118.554 290.442C140.964 345.767 170.377 290.442 189.986 249.824C209.595 209.206 218.699 242.821 272.622 229.515C326.546 216.21 285.928 195.901 290.13 141.977C294.332 88.0528 242.509 115.365 224.301 150.38C206.093 185.396 189.986 212.008 161.273 219.711Z" fill="#00FF8B"></path></g><g filter="url(#filter2_f_1255_70)" style="mix-blend-mode: screen;"><path d="M272.165 183.654C237.333 215.873 179.643 184.379 155.152 164.605C135.42 145.824 98.0479 122.566 106.42 179.779C116.886 251.294 272.165 323.525 299.378 292.503C326.59 261.481 315.705 143.379 272.165 183.654Z" fill="#13A5FF"></path></g><g filter="url(#filter3_f_1255_70)" style="mix-blend-mode: screen;"><path d="M285.115 125.815C262.84 106.213 213.277 125.444 191.28 137.51C165.385 151.153 198.241 169.252 251.702 169.809C305.163 170.366 312.959 150.318 285.115 125.815Z" fill="#E8FDFF"></path></g><rect x="164.083" y="173.153" width="14.54" height="78.9861" rx="7.27" fill="white"></rect><rect x="240.811" y="173.153" width="14.5374" height="78.9861" rx="7.26868" fill="white"></rect><defs><filter id="filter0_ii_1255_70" x="56.6946" y="64.3761" width="306.042" height="306.042" filterUnits="userSpaceOnUse" color-interpolation-filters="sRGB"><feFlood flood-opacity="0" result="BackgroundImageFix"></feFlood><feBlend mode="normal" in="SourceGraphic" in2="BackgroundImageFix" result="shape"></feBlend><feColorMatrix in="SourceAlpha" type="matrix" values="0 0 0 0 0 0 0 0 0 0 0 0 0 0 0 0 0 0 127 0" result="hardAlpha"></feColorMatrix><feOffset></feOffset><feGaussianBlur stdDeviation="31.55"></feGaussianBlur><feComposite in2="hardAlpha" operator="arithmetic" k2="-1" k3="1"></feComposite><feColorMatrix type="matrix" values="0 0 0 0 1 0 0 0 0 1 0 0 0 0 1 0 0 0 0.4 0"></feColorMatrix><feBlend mode="normal" in2="shape" result="effect1_innerShadow_1255_70"></feBlend><feColorMatrix in="SourceAlpha" type="matrix" values="0 0 0 0 0 0 0 0 0 0 0 0 0 0 0 0 0 0 127 0" result="hardAlpha"></feColorMatrix><feOffset></feOffset><feGaussianBlur stdDeviation="7.7"></feGaussianBlur><feComposite in2="hardAlpha" operator="arithmetic" k2="-1" k3="1"></feComposite><feColorMatrix type="matrix" values="0 0 0 0 1 0 0 0 0 1 0 0 0 0 1 0 0 0 0.6 0"></feColorMatrix><feBlend mode="normal" in2="effect1_innerShadow_1255_70" result="effect2_innerShadow_1255_70"></feBlend></filter><filter id="filter1_f_1255_70" x="50.4542" y="43.4481" width="318.523" height="338.396" filterUnits="userSpaceOnUse" color-interpolation-filters="sRGB"><feFlood flood-opacity="0" result="BackgroundImageFix"></feFlood><feBlend mode="normal" in="SourceGraphic" in2="BackgroundImageFix" result="shape"></feBlend><feGaussianBlur stdDeviation="34.05" result="effect1_foregroundBlur_1255_70"></feGaussianBlur></filter><filter id="filter2_f_1255_70" x="24.9173" y="63.315" width="369.596" height="316.878" filterUnits="userSpaceOnUse" color-interpolation-filters="sRGB"><feFlood flood-opacity="0" result="BackgroundImageFix"></feFlood><feBlend mode="normal" in="SourceGraphic" in2="BackgroundImageFix" result="shape"></feBlend><feGaussianBlur stdDeviation="40.15" result="effect1_foregroundBlur_1255_70"></feGaussianBlur></filter><filter id="filter3_f_1255_70" x="137.36" y="72.5101" width="208.416" height="142.21" filterUnits="userSpaceOnUse" color-interpolation-filters="sRGB"><feFlood flood-opacity="0" result="BackgroundImageFix"></feFlood><feBlend mode="normal" in="SourceGraphic" in2="BackgroundImageFix" result="shape"></feBlend><feGaussianBlur stdDeviation="22.45" result="effect1_foregroundBlur_1255_70"></feGaussianBlur></filter></defs></svg>